<svg xmlns="http://www.w3.org/2000/svg" width="550" height="72" fill="none"><path fill="#fff" d="M105.219 15.899c7.817 0 15.634 3.738 17.877 12.807h-8.272c-1.967-3.787-5.12-5.283-9.622-5.283-7.362 0-11.523 5.51-11.523 12.466 0 7.411 4.502 12.417 11.523 12.417 5.396 0 9.329-1.609 11.019-7.46h-10.742v-7.021h18.446c.228 3.738.114 7.346-1.186 10.905-2.975 7.85-10.012 11.133-17.537 11.133-10.401 0-20.072-7.07-20.072-19.99 0-12.92 9.736-19.974 20.089-19.974ZM166.052 54.14v1.17h-8.988l-8.094-12.855h-7.037v12.856h-8.435V16.337c5.623 0 11.182-.048 16.805 0 8.988 0 13.879 6.453 13.879 13.36 0 4.957-2.535 9.296-7.021 11.474l8.891 12.97Zm-15.798-18.544c3.543 0 5.851-2.73 5.786-6.062 0-3.283-2.194-5.9-5.786-5.9h-8.435v11.979h8.435v-.017ZM184.011 48.907l-3.04 6.453h-8.776v-1.122L190.3 16.045h3.885l17.991 38.193v1.121h-8.711l-3.088-6.452h-16.366Zm2.762-7.004h10.906l-5.461-12.856-5.445 12.856ZM229.014 38.392l4.16-9.54 5.282-12.466h8.939v1.219l-16.756 37.706h-3.494l-16.919-37.706v-1.219h8.939l5.282 12.4 4.388 9.606h.179ZM255.391 55.376V16.289h8.435v39.087h-8.435ZM271.855 23.635v-7.249h33.123v7.233h-12.45v31.74h-8.158V23.635h-12.515ZM327.991 32.151l3.885-7.736 4.729-8.013h8.939v1.22l-13.49 22.168v15.586h-8.435V39.79L310.065 17.62v-1.219h9.052l4.892 8.29 3.706 7.459h.276Z"/><path fill="#FF4F00" fill-rule="evenodd" d="M59.224 57.31c2.796-1.625 5.038-5.607 5.022-8.825l-.179-25.273c-.016-3.234-2.34-7.167-5.135-8.76L36.958 1.97C34.163.377 29.596.41 26.817 2.035L5.006 14.825C2.226 16.452-.016 20.434 0 23.652L.18 48.924c.016 3.234 2.34 7.167 5.136 8.76l21.973 12.482c2.795 1.592 7.362 1.56 10.141-.066l21.795-12.79ZM54.82 30.217H25.955c-1.787 0-3.12.52-4.16 1.642-2.308 2.47-3.527 7.248-3.706 9.913h28.393v-7.167h8.11v15.326H9.427s.178-16.935 6.452-23.663c2.616-2.796 6.03-4.21 10.141-4.21h28.8v8.159Z" clip-rule="evenodd"/><path fill="#fff" d="M373.677 20.823v13.928h16.902v3.56h-16.902v16.724h-3.819V17.264h21.534v3.559h-17.715ZM397.389 36.15c0-10.792 8.614-19.536 19.731-19.536 11.116 0 19.73 8.744 19.73 19.535 0 10.792-8.614 19.536-19.73 19.536-11.117 0-19.731-8.744-19.731-19.536Zm35.642 0c0-8.793-6.875-15.863-15.911-15.863-9.037 0-15.911 7.07-15.911 15.862 0 8.793 6.874 15.862 15.911 15.862 9.036 0 15.911-7.07 15.911-15.862ZM459.522 39.92h-10.677v15.114h-3.82v-37.77h15.261c6.323 0 11.442 5.07 11.442 11.328 0 5.12-3.494 9.491-8.224 10.84l9.313 15.602h-4.356l-8.939-15.114Zm-10.694-3.56h11.442c4.193 0 7.622-3.51 7.622-7.768 0-4.323-3.429-7.769-7.622-7.769h-11.442V36.36ZM514.781 55.035h-3.819v-32.05l-13.36 22.136h-.553L483.69 22.985V55.05h-3.819V17.264h4.745l12.693 21.047 12.694-21.047h4.745v37.77h.033ZM522.42 46.453l3.266-1.885c1.365 4.534 4.957 7.444 10.954 7.444 5.77 0 8.988-2.747 8.988-6.794 0-4.372-3.754-5.77-9.378-7.606-6.208-2.048-12.205-3.673-12.205-10.63 0-6.63 5.396-10.368 11.718-10.368 6.273 0 10.629 3.673 12.596 8.142l-3.218 1.788c-1.414-3.397-4.356-6.257-9.378-6.257-4.583 0-7.899 2.373-7.899 6.533 0 4.096 3.267 5.396 8.451 7.07 6.924 2.26 13.132 4.21 13.132 11.23 0 6.469-5.233 10.58-12.855 10.58-7.038-.015-12.222-3.526-14.172-9.247ZM54.82 30.217H25.955c-1.787 0-3.12.52-4.16 1.642-2.308 2.47-3.527 7.248-3.706 9.913h28.393v-7.167h8.11v15.326H9.427s.178-16.935 6.452-23.663c2.616-2.796 6.03-4.21 10.141-4.21h28.8v8.159Z"/></svg>