<svg width="550" height="72" viewBox="0 0 550 72" fill="none" xmlns="http://www.w3.org/2000/svg">
<path d="M64.2461 48.1992C64.2624 51.4172 62.0195 55.3991 59.2241 57.0243L37.4295 69.815C34.6504 71.4403 30.0834 71.4728 27.288 69.88L5.31465 57.3981C2.51922 55.8054 0.195117 51.8723 0.178865 48.6381L8.77736e-05 23.3655C-0.0161647 20.1475 2.22668 16.1656 5.00585 14.5404L26.8167 1.74966C29.5958 0.124413 34.1628 0.0919076 36.9582 1.68465L58.9316 14.1666C61.727 15.7593 64.0511 19.6924 64.0673 22.9266L64.2461 48.1992Z" fill="#FF4F00"/>
<path d="M25.9553 29.9314H54.8197V21.7727H26.0203C21.9084 21.7727 18.4954 23.1867 15.8787 25.9821C9.60529 32.7106 9.42651 49.6457 9.42651 49.6457H54.5921V34.3196H46.4822V41.487H18.0891C18.2679 38.8216 19.4868 34.0433 21.7946 31.5729C22.8348 30.4515 24.1675 29.9314 25.9553 29.9314Z" fill="white"/>
<path d="M105.219 15.613C113.036 15.613 120.854 19.3511 123.096 28.42H114.824C112.857 24.6331 109.704 23.1379 105.202 23.1379C97.84 23.1379 93.6794 28.6475 93.6794 35.6036C93.6794 43.0147 98.1814 48.0205 105.202 48.0205C110.598 48.0205 114.531 46.4115 116.222 40.5606H105.479V33.5395H123.925C124.153 37.2776 124.039 40.8856 122.739 44.4449C119.765 52.2949 112.727 55.5779 105.202 55.5779C94.8008 55.5779 85.1306 48.508 85.1306 35.5873C85.1306 22.6666 94.8659 15.613 105.219 15.613Z" fill="#414141"/>
<path d="M166.052 53.8551V55.0253H157.064L148.97 42.1696H141.933V55.0253H133.498V16.0518C139.121 16.0518 144.68 16.0031 150.303 16.0518C159.291 16.0518 164.183 22.5041 164.183 29.4114C164.183 34.3684 161.647 38.7078 157.162 40.8856L166.052 53.8551ZM150.254 35.311C153.797 35.311 156.105 32.5806 156.04 29.2488C156.04 25.9658 153.846 23.3492 150.254 23.3492H141.819V35.3273H150.254V35.311Z" fill="#414141"/>
<path d="M184.011 48.6218L180.971 55.074H172.195V53.9526L190.3 15.7593H194.185L212.176 53.9526V55.074H203.465L200.377 48.6218H184.011ZM186.774 41.617H197.679L192.218 28.7613L186.774 41.617Z" fill="#414141"/>
<path d="M229.014 38.1065L233.174 28.5662L238.456 16.1006H247.395V17.3195L230.639 55.0253H227.145L210.226 17.3195V16.1006H219.165L224.447 28.5012L228.835 38.1065H229.014Z" fill="#414141"/>
<path d="M255.392 55.0903V16.0031H263.827V55.0903H255.392Z" fill="#414141"/>
<path d="M271.855 23.3492V16.1006H304.978V23.333H292.528V55.074H284.37V23.3492H271.855Z" fill="#414141"/>
<path d="M327.991 31.8655L331.876 24.1293L336.605 16.1169H345.544V17.3358L332.055 39.5042V55.0903H323.619V39.5042L310.065 17.3358V16.1169H319.118L324.01 24.4056L327.715 31.8655H327.991Z" fill="#414141"/>
<path d="M373.677 20.5375V34.4659H390.58V38.0252H373.677V54.749H369.858V16.9782H391.392V20.5375H373.677Z" fill="#828383"/>
<path d="M397.389 35.8636C397.389 25.072 406.003 16.3281 417.12 16.3281C428.237 16.3281 436.85 25.072 436.85 35.8636C436.85 46.6552 428.237 55.3991 417.12 55.3991C406.003 55.3991 397.389 46.6552 397.389 35.8636ZM433.031 35.8636C433.031 27.071 426.156 20.0012 417.12 20.0012C408.084 20.0012 401.209 27.071 401.209 35.8636C401.209 44.6562 408.084 51.726 417.12 51.726C426.156 51.726 433.031 44.6562 433.031 35.8636Z" fill="#828383"/>
<path d="M459.523 39.6342H448.845V54.749H445.025V16.9782H460.286C466.609 16.9782 471.728 22.049 471.728 28.3062C471.728 33.4257 468.234 37.7976 463.504 39.1466L472.817 54.749H468.461L459.523 39.6342ZM448.828 36.0749H460.27C464.463 36.0749 467.893 32.5643 467.893 28.3062C467.893 23.983 464.463 20.5375 460.27 20.5375H448.828V36.0749Z" fill="#828383"/>
<path d="M514.781 54.749H510.962V22.6991L497.602 44.835H497.049L483.69 22.6991V54.7652H479.871V16.9782H484.616L497.309 38.0252L510.003 16.9782H514.748V54.749H514.781Z" fill="#828383"/>
<path d="M522.42 46.1677L525.686 44.2824C527.052 48.8168 530.643 51.726 536.641 51.726C542.41 51.726 545.628 48.9793 545.628 44.9325C545.628 40.5606 541.874 39.1628 536.251 37.3263C530.042 35.2785 524.045 33.6533 524.045 26.6972C524.045 20.0662 529.441 16.3281 535.763 16.3281C542.036 16.3281 546.392 20.0012 548.359 24.4706L545.141 26.2584C543.727 22.8616 540.785 20.0012 535.763 20.0012C531.18 20.0012 527.864 22.374 527.864 26.5347C527.864 30.6303 531.131 31.9305 536.316 33.6045C543.239 35.8636 549.448 37.8139 549.448 44.835C549.448 51.3034 544.214 55.4153 536.592 55.4153C529.555 55.3991 524.37 51.8885 522.42 46.1677Z" fill="#828383"/>
</svg>
