<svg width="152" height="207" viewBox="0 0 152 207" fill="none" xmlns="http://www.w3.org/2000/svg">
<path d="M76.5 7.99998H82.45C82.7 7.99998 82.9167 7.90831 83.1 7.72498C83.2833 7.54164 83.375 7.31664 83.375 7.04998C83.375 6.79998 83.2833 6.58331 83.1 6.39998C82.9167 6.21664 82.7 6.12498 82.45 6.12498H76.5C76.2333 6.12498 76.0083 6.21664 75.825 6.39998C75.6417 6.58331 75.55 6.79998 75.55 7.04998C75.55 7.31664 75.6417 7.54164 75.825 7.72498C76.0083 7.90831 76.2333 7.99998 76.5 7.99998ZM76.5 10.925H82.45C82.7 10.925 82.9167 10.8333 83.1 10.65C83.2833 10.4666 83.375 10.2416 83.375 9.97498C83.375 9.72498 83.2833 9.50831 83.1 9.32498C82.9167 9.14164 82.7 9.04998 82.45 9.04998H76.5C76.2333 9.04998 76.0083 9.14164 75.825 9.32498C75.6417 9.50831 75.55 9.72498 75.55 9.97498C75.55 10.2416 75.6417 10.4666 75.825 10.65C76.0083 10.8333 76.2333 10.925 76.5 10.925ZM76.5 13.85H79.475C79.725 13.85 79.9417 13.7583 80.125 13.575C80.3083 13.3916 80.4 13.1666 80.4 12.9C80.4 12.65 80.3083 12.4333 80.125 12.25C79.9417 12.0666 79.725 11.975 79.475 11.975H76.5C76.2333 11.975 76.0083 12.0666 75.825 12.25C75.6417 12.4333 75.55 12.65 75.55 12.9C75.55 13.1666 75.6417 13.3916 75.825 13.575C76.0083 13.7583 76.2333 13.85 76.5 13.85ZM72.6 8.02498C72.8833 8.02498 73.1167 7.93331 73.3 7.74998C73.4833 7.56664 73.575 7.34164 73.575 7.07498C73.575 6.79164 73.4833 6.55398 73.3 6.36198C73.1167 6.17064 72.8833 6.07498 72.6 6.07498C72.3333 6.07498 72.104 6.17064 71.912 6.36198C71.7207 6.55398 71.625 6.78331 71.625 7.04998C71.625 7.33331 71.7167 7.56664 71.9 7.74998C72.0833 7.93331 72.3167 8.02498 72.6 8.02498ZM72.6 10.95C72.8833 10.95 73.1167 10.8583 73.3 10.675C73.4833 10.4916 73.575 10.2666 73.575 9.99998C73.575 9.71664 73.4833 9.47898 73.3 9.28698C73.1167 9.09564 72.8833 8.99998 72.6 8.99998C72.3333 8.99998 72.104 9.09564 71.912 9.28698C71.7207 9.47898 71.625 9.70831 71.625 9.97498C71.625 10.2583 71.7167 10.4916 71.9 10.675C72.0833 10.8583 72.3167 10.95 72.6 10.95ZM72.6 13.875C72.8833 13.875 73.1167 13.7833 73.3 13.6C73.4833 13.4166 73.575 13.1916 73.575 12.925C73.575 12.6416 73.4833 12.404 73.3 12.212C73.1167 12.0206 72.8833 11.925 72.6 11.925C72.3333 11.925 72.104 12.0206 71.912 12.212C71.7207 12.404 71.625 12.6333 71.625 12.9C71.625 13.1833 71.7167 13.4166 71.9 13.6C72.0833 13.7833 72.3167 13.875 72.6 13.875ZM67.75 19.375V4.09998C67.75 3.58331 67.9333 3.14164 68.3 2.77498C68.6667 2.40831 69.1083 2.22498 69.625 2.22498H85.375C85.8917 2.22498 86.3333 2.40831 86.7 2.77498C87.0667 3.14164 87.25 3.58331 87.25 4.09998V15.9C87.25 16.4166 87.0667 16.8583 86.7 17.225C86.3333 17.5916 85.8917 17.775 85.375 17.775H71.6L69.325 20.05C69.0417 20.3333 68.7083 20.396 68.325 20.238C67.9417 20.0793 67.75 19.7916 67.75 19.375ZM69.625 17.1L70.825 15.9H85.375V4.09998H69.625V17.1ZM69.625 4.09998V17.1V4.09998Z" fill="#F15A2B"/>
<rect x="43.5" y="29" width="68" height="4" rx="2" fill="#C3C5DB"/>
<rect x="3" y="45" width="31" height="4" rx="2" fill="#D5D7E9"/>
<rect x="3.5" y="55.5" width="68" height="13" rx="1.5" fill="#FDFDFF" stroke="#D5D7E9"/>
<rect x="83" y="45" width="31" height="4" rx="2" fill="#D5D7E9"/>
<rect x="83.5" y="55.5" width="68" height="13" rx="1.5" fill="#FDFDFF" stroke="#D5D7E9"/>
<rect x="3" y="81" width="53" height="4" rx="2" fill="#D5D7E9"/>
<rect x="3.5" y="91.5" width="148" height="13" rx="1.5" fill="#FDFDFF"/>
<rect x="3.5" y="91.5" width="148" height="13" rx="1.5" fill="#FDFDFF" stroke="#D5D7E9"/>
<rect x="3.5" y="91.5" width="148" height="13" rx="1.5" stroke="#D5D7E9"/>
<rect x="3" y="117" width="53" height="4" rx="2" fill="#D5D7E9"/>
<rect x="3.5" y="127.5" width="68" height="13" rx="1.5" fill="#FDFDFF" stroke="#D5D7E9"/>
<path fill-rule="evenodd" clip-rule="evenodd" d="M62.1757 132.272C62.4101 132.037 62.7899 132.037 63.0243 132.272L65 134.247L66.9757 132.272C67.2101 132.037 67.5899 132.037 67.8243 132.272C68.0586 132.506 68.0586 132.886 67.8243 133.12L65.4243 135.52C65.1899 135.754 64.8101 135.754 64.5757 135.52L62.1757 133.12C61.9414 132.886 61.9414 132.506 62.1757 132.272Z" fill="#D5D7E9"/>
<rect x="3" y="153" width="31" height="4" rx="2" fill="#D5D7E9"/>
<rect x="3.5" y="163.5" width="43" height="13" rx="1.5" fill="#FDFDFF" stroke="#D5D7E9"/>
<rect x="55.5" y="153" width="31" height="4" rx="2" fill="#D5D7E9"/>
<rect x="56" y="163.5" width="43" height="13" rx="1.5" fill="#FDFDFF" stroke="#D5D7E9"/>
<rect x="108" y="153" width="31" height="4" rx="2" fill="#D5D7E9"/>
<rect x="108.5" y="163.5" width="43" height="13" rx="1.5" fill="#FDFDFF" stroke="#D5D7E9"/>
<g filter="url(#filter0_dd_1386_101846)">
<rect x="3" y="189" width="69" height="14" rx="7" fill="#F15A2B"/>
<path fill-rule="evenodd" clip-rule="evenodd" d="M21 199C22.6569 199 24 197.657 24 196C24 194.343 22.6569 193 21 193C19.3431 193 18 194.343 18 196C18 197.657 19.3431 199 21 199ZM22.3902 195.515C22.5366 195.369 22.5366 195.131 22.3902 194.985C22.2437 194.838 22.0063 194.838 21.8598 194.985L20.625 196.22L20.1402 195.735C19.9937 195.588 19.7563 195.588 19.6098 195.735C19.4634 195.881 19.4634 196.119 19.6098 196.265L20.3598 197.015C20.5063 197.162 20.7437 197.162 20.8902 197.015L22.3902 195.515Z" fill="white"/>
<rect x="28" y="194.5" width="29" height="3" rx="1.5" fill="white"/>
</g>
<defs>
<filter id="filter0_dd_1386_101846" x="0" y="187" width="75" height="20" filterUnits="userSpaceOnUse" color-interpolation-filters="sRGB">
<feFlood flood-opacity="0" result="BackgroundImageFix"/>
<feColorMatrix in="SourceAlpha" type="matrix" values="0 0 0 0 0 0 0 0 0 0 0 0 0 0 0 0 0 0 127 0" result="hardAlpha"/>
<feOffset dy="1"/>
<feGaussianBlur stdDeviation="1"/>
<feColorMatrix type="matrix" values="0 0 0 0 0.0705882 0 0 0 0 0.0980392 0 0 0 0 0.380392 0 0 0 0.06 0"/>
<feBlend mode="normal" in2="BackgroundImageFix" result="effect1_dropShadow_1386_101846"/>
<feColorMatrix in="SourceAlpha" type="matrix" values="0 0 0 0 0 0 0 0 0 0 0 0 0 0 0 0 0 0 127 0" result="hardAlpha"/>
<feOffset dy="1"/>
<feGaussianBlur stdDeviation="1.5"/>
<feColorMatrix type="matrix" values="0 0 0 0 0.0705882 0 0 0 0 0.0980392 0 0 0 0 0.380392 0 0 0 0.1 0"/>
<feBlend mode="normal" in2="effect1_dropShadow_1386_101846" result="effect2_dropShadow_1386_101846"/>
<feBlend mode="normal" in="SourceGraphic" in2="effect2_dropShadow_1386_101846" result="shape"/>
</filter>
</defs>
</svg>
