<svg width="152" height="183" viewBox="0 0 152 183" fill="none" xmlns="http://www.w3.org/2000/svg">
<path d="M72.5 14H78.525C78.8083 14 79.0417 13.904 79.225 13.712C79.4083 13.5207 79.5 13.2833 79.5 13C79.5 12.7167 79.4043 12.479 79.213 12.287C79.021 12.0957 78.7833 12 78.5 12H72.475C72.1917 12 71.9583 12.0957 71.775 12.287C71.5917 12.479 71.5 12.7167 71.5 13C71.5 13.2833 71.5957 13.5207 71.787 13.712C71.979 13.904 72.2167 14 72.5 14ZM72.5 11H82.525C82.8083 11 83.0417 10.904 83.225 10.712C83.4083 10.5207 83.5 10.2833 83.5 10C83.5 9.71667 83.404 9.479 83.212 9.287C83.0207 9.09567 82.7833 9 82.5 9H72.475C72.1917 9 71.9583 9.09567 71.775 9.287C71.5917 9.479 71.5 9.71667 71.5 10C71.5 10.2833 71.5957 10.5207 71.787 10.712C71.979 10.904 72.2167 11 72.5 11ZM72.5 8H82.525C82.8083 8 83.0417 7.90433 83.225 7.713C83.4083 7.521 83.5 7.28333 83.5 7C83.5 6.71667 83.404 6.479 83.212 6.287C83.0207 6.09567 82.7833 6 82.5 6H72.475C72.1917 6 71.9583 6.09567 71.775 6.287C71.5917 6.479 71.5 6.71667 71.5 7C71.5 7.28333 71.5957 7.521 71.787 7.713C71.979 7.90433 72.2167 8 72.5 8ZM67.5 19.575V4C67.5 3.45 67.696 2.979 68.088 2.587C68.4793 2.19567 68.95 2 69.5 2H85.5C86.05 2 86.521 2.19567 86.913 2.587C87.3043 2.979 87.5 3.45 87.5 4V16C87.5 16.55 87.3043 17.021 86.913 17.413C86.521 17.8043 86.05 18 85.5 18H71.5L69.2 20.3C68.8833 20.6167 68.5207 20.6873 68.112 20.512C67.704 20.3373 67.5 20.025 67.5 19.575ZM69.5 17.175L70.675 16H85.5V4H69.5V17.175ZM69.5 4V17.175V4Z" fill="#F15A2B"/>
<rect x="43.5" y="29" width="68" height="4" rx="2" fill="#C3C5DB"/>
<rect x="3" y="45" width="31" height="4" rx="2" fill="#D5D7E9"/>
<rect x="3.5" y="55.5" width="68" height="13" rx="1.5" fill="#FDFDFF" stroke="#D5D7E9"/>
<rect x="83" y="45" width="31" height="4" rx="2" fill="#D5D7E9"/>
<rect x="83.5" y="55.5" width="68" height="13" rx="1.5" fill="#FDFDFF" stroke="#D5D7E9"/>
<rect x="3" y="81" width="53" height="4" rx="2" fill="#D5D7E9"/>
<rect x="3.5" y="91.5" width="148" height="13" rx="1.5" fill="#FDFDFF"/>
<rect x="3.5" y="91.5" width="148" height="13" rx="1.5" fill="#FDFDFF" stroke="#D5D7E9"/>
<rect x="3.5" y="91.5" width="148" height="13" rx="1.5" stroke="#D5D7E9"/>
<rect x="3" y="117" width="66" height="4" rx="2" fill="#D5D7E9"/>
<rect x="3.5" y="127.5" width="148" height="25" rx="1.5" fill="#FDFDFF"/>
<rect x="3.5" y="127.5" width="148" height="25" rx="1.5" fill="#FDFDFF" stroke="#D5D7E9"/>
<rect x="3.5" y="127.5" width="148" height="25" rx="1.5" stroke="#D5D7E9"/>
<g filter="url(#filter0_dd_1386_101596)">
<rect x="3" y="165" width="69" height="14" rx="7" fill="#F15A2B"/>
<path fill-rule="evenodd" clip-rule="evenodd" d="M21 175C22.6569 175 24 173.657 24 172C24 170.343 22.6569 169 21 169C19.3431 169 18 170.343 18 172C18 173.657 19.3431 175 21 175ZM22.3902 171.515C22.5366 171.369 22.5366 171.131 22.3902 170.985C22.2437 170.838 22.0063 170.838 21.8598 170.985L20.625 172.22L20.1402 171.735C19.9937 171.588 19.7563 171.588 19.6098 171.735C19.4634 171.881 19.4634 172.119 19.6098 172.265L20.3598 173.015C20.5063 173.162 20.7437 173.162 20.8902 173.015L22.3902 171.515Z" fill="white"/>
<rect x="28" y="170.5" width="29" height="3" rx="1.5" fill="white"/>
</g>
<defs>
<filter id="filter0_dd_1386_101596" x="0" y="163" width="75" height="20" filterUnits="userSpaceOnUse" color-interpolation-filters="sRGB">
<feFlood flood-opacity="0" result="BackgroundImageFix"/>
<feColorMatrix in="SourceAlpha" type="matrix" values="0 0 0 0 0 0 0 0 0 0 0 0 0 0 0 0 0 0 127 0" result="hardAlpha"/>
<feOffset dy="1"/>
<feGaussianBlur stdDeviation="1"/>
<feColorMatrix type="matrix" values="0 0 0 0 0.0705882 0 0 0 0 0.0980392 0 0 0 0 0.380392 0 0 0 0.06 0"/>
<feBlend mode="normal" in2="BackgroundImageFix" result="effect1_dropShadow_1386_101596"/>
<feColorMatrix in="SourceAlpha" type="matrix" values="0 0 0 0 0 0 0 0 0 0 0 0 0 0 0 0 0 0 127 0" result="hardAlpha"/>
<feOffset dy="1"/>
<feGaussianBlur stdDeviation="1.5"/>
<feColorMatrix type="matrix" values="0 0 0 0 0.0705882 0 0 0 0 0.0980392 0 0 0 0 0.380392 0 0 0 0.1 0"/>
<feBlend mode="normal" in2="effect1_dropShadow_1386_101596" result="effect2_dropShadow_1386_101596"/>
<feBlend mode="normal" in="SourceGraphic" in2="effect2_dropShadow_1386_101596" result="shape"/>
</filter>
</defs>
</svg>
