<svg width="153" height="240" viewBox="0 0 153 240" fill="none" xmlns="http://www.w3.org/2000/svg">
<path d="M81.9 12.575C81.7833 12.575 81.6707 12.5583 81.562 12.525C81.454 12.4916 81.3667 12.4333 81.3 12.35C79.8833 11.0833 78.6543 9.86262 77.613 8.68795C76.571 7.51262 76.05 6.41662 76.05 5.39995C76.05 4.49995 76.3627 3.74162 76.988 3.12495C77.6127 2.50828 78.3667 2.19995 79.25 2.19995C79.7667 2.19995 80.2543 2.31228 80.713 2.53695C81.171 2.76228 81.5667 3.07495 81.9 3.47495C82.2333 3.07495 82.6293 2.76228 83.088 2.53695C83.546 2.31228 84.0333 2.19995 84.55 2.19995C85.45 2.19995 86.2083 2.50828 86.825 3.12495C87.4417 3.74162 87.75 4.49995 87.75 5.39995C87.75 6.41662 87.2293 7.51262 86.188 8.68795C85.146 9.86262 83.925 11.0833 82.525 12.35C82.4417 12.4333 82.346 12.4916 82.238 12.525C82.1293 12.5583 82.0167 12.575 81.9 12.575ZM81.9 10.35C82.8833 9.43329 83.7917 8.52062 84.625 7.61195C85.4583 6.70395 85.875 5.96662 85.875 5.39995C85.875 5.01662 85.75 4.69995 85.5 4.44995C85.25 4.19995 84.9333 4.07495 84.55 4.07495C84.3167 4.07495 84.0917 4.12495 83.875 4.22495C83.6583 4.32495 83.4667 4.48328 83.3 4.69995L81.9 6.37495L80.5 4.69995C80.3333 4.48328 80.1417 4.32495 79.925 4.22495C79.7083 4.12495 79.4833 4.07495 79.25 4.07495C78.8667 4.07495 78.55 4.19995 78.3 4.44995C78.05 4.69995 77.925 5.01662 77.925 5.39995C77.925 5.96662 78.3417 6.70395 79.175 7.61195C80.0083 8.52062 80.9167 9.43329 81.9 10.35ZM79.875 20.275L85.75 18.45C85.7 18.2666 85.604 18.125 85.462 18.025C85.3207 17.925 85.125 17.875 84.875 17.875H79.925C79.4583 17.875 79.0917 17.8583 78.825 17.825C78.5583 17.7916 78.2917 17.725 78.025 17.625L76.6 17.15C76.35 17.0666 76.1707 16.9083 76.062 16.675C75.954 16.4416 75.9333 16.2 76 15.95C76.0833 15.7 76.2377 15.5166 76.463 15.4C76.6877 15.2833 76.9333 15.2666 77.2 15.35L78.325 15.725C78.6083 15.8083 78.925 15.8706 79.275 15.912C79.625 15.954 80.0833 15.9833 80.65 16H80.925C80.925 15.8166 80.871 15.6373 80.763 15.462C80.6543 15.2873 80.525 15.175 80.375 15.125L74.6 13.025H72.975V18.375L79.875 20.275ZM79.4 22.1L72.975 20.2999C72.8583 20.6999 72.6167 21.0333 72.25 21.2999C71.8833 21.5666 71.5 21.7 71.1 21.7H69.125C68.6083 21.7 68.1667 21.5166 67.8 21.15C67.4333 20.7833 67.25 20.3416 67.25 19.825V13.025C67.25 12.5083 67.4333 12.0666 67.8 11.7C68.1667 11.3333 68.6083 11.15 69.125 11.15H74.6C74.7167 11.15 74.8293 11.1583 74.938 11.175C75.046 11.1916 75.1417 11.2166 75.225 11.25L81.025 13.4C81.5583 13.5833 81.9873 13.9 82.312 14.35C82.6373 14.8 82.8 15.35 82.8 16H84.875C85.675 16 86.35 16.254 86.9 16.762C87.45 17.2706 87.725 17.9833 87.725 18.9C87.725 19.1999 87.6583 19.446 87.525 19.638C87.3917 19.8293 87.1667 19.975 86.85 20.075L80.475 22.075C80.2917 22.1416 80.1083 22.1749 79.925 22.1749C79.7417 22.1749 79.5667 22.15 79.4 22.1ZM69.125 19.825H71.1V13.025H69.125V19.825Z" fill="#F15A2B"/>
<rect x="44" y="32" width="68" height="4" rx="2" fill="#C3C5DB"/>
<rect x="3.5" y="48" width="31" height="4" rx="2" fill="#D5D7E9"/>
<circle cx="7.5" cy="62" r="3.5" fill="white" stroke="#E4E9EB"/>
<circle cx="7.5" cy="62" r="1" fill="#F15A2B"/>
<rect x="14.5" y="60" width="13" height="4" rx="2" fill="#D5D7E9"/>
<circle cx="36.5" cy="62" r="3.5" fill="white" stroke="#F15A2B"/>
<circle cx="36.5" cy="62" r="3" fill="#F15A2B"/>
<circle cx="36.5" cy="62" r="1" fill="white"/>
<rect x="43.5" y="60" width="14" height="4" rx="2" fill="#D5D7E9"/>
<circle cx="66.5" cy="62" r="3.5" fill="white" stroke="#E4E9EB"/>
<circle cx="66.5" cy="62" r="1" fill="#F15A2B"/>
<rect x="73.5" y="60" width="17" height="4" rx="2" fill="#D5D7E9"/>
<rect x="3.5" y="78" width="73" height="4" rx="2" fill="#D5D7E9"/>
<rect x="4" y="88.5" width="148" height="13" rx="1.5" fill="#FDFDFF"/>
<rect x="4" y="88.5" width="148" height="13" rx="1.5" fill="#FDFDFF" stroke="#D5D7E9"/>
<rect x="7.5" y="90.5957" width="13" height="8.69231" rx="0.5" fill="white"/>
<path fill-rule="evenodd" clip-rule="evenodd" d="M14.0737 96.8922C13.5861 97.2953 12.9537 97.5386 12.2626 97.5386C10.7206 97.5386 9.47059 96.3272 9.47059 94.8328C9.47059 93.3385 10.7206 92.1271 12.2626 92.1271C12.9537 92.1271 13.5861 92.3704 14.0737 92.7734C14.5612 92.3704 15.1937 92.1271 15.8848 92.1271C17.4268 92.1271 18.6768 93.3385 18.6768 94.8328C18.6768 96.3272 17.4268 97.5386 15.8848 97.5386C15.1937 97.5386 14.5612 97.2953 14.0737 96.8922Z" fill="#ED0006"/>
<path fill-rule="evenodd" clip-rule="evenodd" d="M14.0737 96.8922C14.674 96.396 15.0547 95.6575 15.0547 94.8328C15.0547 94.0082 14.674 93.2697 14.0737 92.7734C14.5612 92.3704 15.1937 92.1271 15.8848 92.1271C17.4268 92.1271 18.6768 93.3385 18.6768 94.8328C18.6768 96.3272 17.4268 97.5386 15.8848 97.5386C15.1937 97.5386 14.5612 97.2953 14.0737 96.8922Z" fill="#F9A000"/>
<path fill-rule="evenodd" clip-rule="evenodd" d="M14.0737 96.8922C14.674 96.3959 15.0547 95.6575 15.0547 94.8328C15.0547 94.0082 14.674 93.2697 14.0737 92.7734C13.4734 93.2697 13.0927 94.0082 13.0927 94.8328C13.0927 95.6575 13.4734 96.3959 14.0737 96.8922Z" fill="#FF5E00"/>
<rect x="7.5" y="90.5957" width="13" height="8.69231" rx="0.5" stroke="#D5D7E9"/>
<rect x="4" y="88.5" width="148" height="13" rx="1.5" stroke="#D5D7E9"/>
<rect x="3.5" y="114" width="31" height="4" rx="2" fill="#D5D7E9"/>
<rect x="4" y="124.5" width="68" height="13" rx="1.5" fill="#FDFDFF" stroke="#D5D7E9"/>
<rect x="83.5" y="114" width="31" height="4" rx="2" fill="#D5D7E9"/>
<rect x="84" y="124.5" width="68" height="13" rx="1.5" fill="#FDFDFF" stroke="#D5D7E9"/>
<rect x="3.5" y="150" width="53" height="4" rx="2" fill="#D5D7E9"/>
<rect x="4" y="160.5" width="68" height="13" rx="1.5" fill="#FDFDFF" stroke="#D5D7E9"/>
<path fill-rule="evenodd" clip-rule="evenodd" d="M62.6757 165.271C62.9101 165.037 63.2899 165.037 63.5243 165.271L65.5 167.247L67.4757 165.271C67.7101 165.037 68.0899 165.037 68.3243 165.271C68.5586 165.506 68.5586 165.886 68.3243 166.12L65.9243 168.52C65.6899 168.754 65.3101 168.754 65.0757 168.52L62.6757 166.12C62.4414 165.886 62.4414 165.506 62.6757 165.271Z" fill="#D5D7E9"/>
<rect x="3.5" y="186" width="31" height="4" rx="2" fill="#D5D7E9"/>
<rect x="4" y="196.5" width="43" height="13" rx="1.5" fill="#FDFDFF" stroke="#D5D7E9"/>
<rect x="56" y="186" width="31" height="4" rx="2" fill="#D5D7E9"/>
<rect x="56.5" y="196.5" width="43" height="13" rx="1.5" fill="#FDFDFF" stroke="#D5D7E9"/>
<rect x="108.5" y="186" width="31" height="4" rx="2" fill="#D5D7E9"/>
<rect x="109" y="196.5" width="43" height="13" rx="1.5" fill="#FDFDFF" stroke="#D5D7E9"/>
<g filter="url(#filter0_dd_1386_101753)">
<rect x="3.5" y="222" width="69" height="14" rx="7" fill="#F15A2B"/>
<path fill-rule="evenodd" clip-rule="evenodd" d="M21.5 232C23.1569 232 24.5 230.657 24.5 229C24.5 227.343 23.1569 226 21.5 226C19.8431 226 18.5 227.343 18.5 229C18.5 230.657 19.8431 232 21.5 232ZM22.8902 228.515C23.0366 228.369 23.0366 228.131 22.8902 227.985C22.7437 227.838 22.5063 227.838 22.3598 227.985L21.125 229.22L20.6402 228.735C20.4937 228.588 20.2563 228.588 20.1098 228.735C19.9634 228.881 19.9634 229.119 20.1098 229.265L20.8598 230.015C21.0063 230.162 21.2437 230.162 21.3902 230.015L22.8902 228.515Z" fill="white"/>
<rect x="28.5" y="227.5" width="29" height="3" rx="1.5" fill="white"/>
</g>
<defs>
<filter id="filter0_dd_1386_101753" x="0.5" y="220" width="75" height="20" filterUnits="userSpaceOnUse" color-interpolation-filters="sRGB">
<feFlood flood-opacity="0" result="BackgroundImageFix"/>
<feColorMatrix in="SourceAlpha" type="matrix" values="0 0 0 0 0 0 0 0 0 0 0 0 0 0 0 0 0 0 127 0" result="hardAlpha"/>
<feOffset dy="1"/>
<feGaussianBlur stdDeviation="1"/>
<feColorMatrix type="matrix" values="0 0 0 0 0.0705882 0 0 0 0 0.0980392 0 0 0 0 0.380392 0 0 0 0.06 0"/>
<feBlend mode="normal" in2="BackgroundImageFix" result="effect1_dropShadow_1386_101753"/>
<feColorMatrix in="SourceAlpha" type="matrix" values="0 0 0 0 0 0 0 0 0 0 0 0 0 0 0 0 0 0 127 0" result="hardAlpha"/>
<feOffset dy="1"/>
<feGaussianBlur stdDeviation="1.5"/>
<feColorMatrix type="matrix" values="0 0 0 0 0.0705882 0 0 0 0 0.0980392 0 0 0 0 0.380392 0 0 0 0.1 0"/>
<feBlend mode="normal" in2="effect1_dropShadow_1386_101753" result="effect2_dropShadow_1386_101753"/>
<feBlend mode="normal" in="SourceGraphic" in2="effect2_dropShadow_1386_101753" result="shape"/>
</filter>
</defs>
</svg>
