<svg xmlns="http://www.w3.org/2000/svg" width="153" height="213" fill="none"><path fill="#F15A2B" d="M84.9 21.75H71.1c-.517 0-.958-.183-1.325-.55a1.806 1.806 0 0 1-.55-1.325v-11.8c0-.517.183-.958.55-1.325.367-.367.808-.55 1.325-.55h2.075c0-1.333.471-2.471 1.413-3.413.941-.941 2.079-1.412 3.412-1.412 1.333 0 2.47.47 3.412 1.412.942.942 1.413 2.08 1.413 3.413H84.9c.517 0 .958.183 1.325.55.367.367.55.808.55 1.325v11.8c0 .517-.183.958-.55 1.325-.367.367-.808.55-1.325.55ZM75.05 6.2h5.9c0-.817-.287-1.513-.862-2.088A2.846 2.846 0 0 0 78 3.25c-.817 0-1.512.287-2.087.862A2.844 2.844 0 0 0 75.05 6.2Zm9.85 13.675v-11.8H71.1v11.8h13.8Zm-6.9-6c1.283 0 2.392-.413 3.325-1.238.933-.825 1.392-1.712 1.375-2.662a.889.889 0 0 0-.275-.65.918.918 0 0 0-.675-.275.863.863 0 0 0-.575.212c-.167.142-.283.346-.35.613a2.859 2.859 0 0 1-1.062 1.537A2.876 2.876 0 0 1 78 12a2.891 2.891 0 0 1-1.75-.588 2.712 2.712 0 0 1-1.05-1.537c-.083-.283-.204-.492-.362-.625a.847.847 0 0 0-.563-.2.918.918 0 0 0-.675.275.889.889 0 0 0-.275.65c0 .95.463 1.837 1.388 2.662.925.825 2.02 1.238 3.287 1.238Zm-6.9-5.8v11.8-11.8Z"/><rect width="68" height="4" x="44" y="32" fill="#C3C5DB" rx="2"/><rect width="53" height="4" x="3.5" y="48" fill="#D5D7E9" rx="2"/><rect width="68" height="13" x="4" y="56.5" fill="#FDFDFF" stroke="#D5D7E9" rx="1.5"/><path fill="#D5D7E9" fill-rule="evenodd" d="M62.676 61.271a.6.6 0 0 1 .848 0l1.976 1.976 1.976-1.976a.6.6 0 0 1 .848.849l-2.4 2.4a.6.6 0 0 1-.848 0l-2.4-2.4a.6.6 0 0 1 0-.849Z" clip-rule="evenodd"/><rect width="53" height="4" x="83.5" y="48" fill="#D5D7E9" rx="2"/><rect width="68" height="13" x="84" y="56.5" fill="#FDFDFF" stroke="#D5D7E9" rx="1.5"/><path fill="#D5D7E9" fill-rule="evenodd" d="M142.676 61.271a.6.6 0 0 1 .848 0l1.976 1.976 1.976-1.976a.6.6 0 1 1 .848.849l-2.4 2.4a.6.6 0 0 1-.848 0l-2.4-2.4a.599.599 0 0 1 0-.849Z" clip-rule="evenodd"/><rect width="53" height="4" x="3.5" y="81" fill="#D5D7E9" rx="2"/><rect width="68" height="13" x="4" y="89.5" fill="#FDFDFF" stroke="#D5D7E9" rx="1.5"/><path fill="#D5D7E9" fill-rule="evenodd" d="M62.676 94.271a.6.6 0 0 1 .848 0l1.976 1.976 1.976-1.976a.6.6 0 0 1 .848.849l-2.4 2.4a.6.6 0 0 1-.848 0l-2.4-2.4a.6.6 0 0 1 0-.849Z" clip-rule="evenodd"/><rect width="53" height="4" x="83.5" y="81" fill="#D5D7E9" rx="2"/><rect width="68" height="13" x="84" y="89.5" fill="#FDFDFF" stroke="#D5D7E9" rx="1.5"/><path fill="#D5D7E9" fill-rule="evenodd" d="M142.676 94.271a.6.6 0 0 1 .848 0l1.976 1.976 1.976-1.976a.6.6 0 1 1 .848.849l-2.4 2.4a.6.6 0 0 1-.848 0l-2.4-2.4a.599.599 0 0 1 0-.849Z" clip-rule="evenodd"/><circle cx="7.5" cy="118" r="3.5" fill="#fff" stroke="#E4E9EB"/><circle cx="7.5" cy="118" r="1" fill="#F15A2B"/><rect width="13" height="4" x="14.5" y="116" fill="#D5D7E9" rx="2"/><rect width="7" height="4" x="30.5" y="116" fill="#D5D7E9" rx="2"/><circle cx="7.5" cy="131" r="3.5" fill="#fff" stroke="#F15A2B"/><circle cx="7.5" cy="131" r="3" fill="#F15A2B"/><circle cx="7.5" cy="131" r="1" fill="#fff"/><rect width="8" height="4" x="14.5" y="129" fill="#D5D7E9" rx="2"/><rect width="14" height="4" x="25.5" y="129" fill="#D5D7E9" rx="2"/><circle cx="7.5" cy="144" r="3.5" fill="#fff" stroke="#E4E9EB"/><circle cx="7.5" cy="144" r="1" fill="#F15A2B"/><rect width="10" height="4" x="14.5" y="142" fill="#D5D7E9" rx="2"/><rect width="8" height="4" x="27.5" y="142" fill="#D5D7E9" rx="2"/><rect width="73" height="4" x="3.5" y="159" fill="#D5D7E9" rx="2"/><rect width="148" height="13" x="4" y="169.5" fill="#FDFDFF" rx="1.5"/><rect width="148" height="13" x="4" y="169.5" fill="#FDFDFF" stroke="#D5D7E9" rx="1.5"/><rect width="13" height="8.692" x="7.5" y="171.596" fill="#fff" rx=".5"/><path fill="#ED0006" fill-rule="evenodd" d="M14.074 177.892a2.835 2.835 0 0 1-1.811.647c-1.542 0-2.792-1.212-2.792-2.706 0-1.495 1.25-2.706 2.792-2.706.69 0 1.323.243 1.81.646a2.834 2.834 0 0 1 1.812-.646c1.542 0 2.792 1.211 2.792 2.706 0 1.494-1.25 2.706-2.792 2.706a2.835 2.835 0 0 1-1.811-.647Z" clip-rule="evenodd"/><path fill="#F9A000" fill-rule="evenodd" d="M14.074 177.892c.6-.496.98-1.235.98-2.059 0-.825-.38-1.563-.98-2.06a2.834 2.834 0 0 1 1.81-.646c1.543 0 2.793 1.211 2.793 2.706 0 1.494-1.25 2.706-2.792 2.706a2.835 2.835 0 0 1-1.811-.647Z" clip-rule="evenodd"/><path fill="#FF5E00" fill-rule="evenodd" d="M14.074 177.892c.6-.496.98-1.235.98-2.059 0-.825-.38-1.563-.98-2.06a2.668 2.668 0 0 0-.981 2.06c0 .824.38 1.563.98 2.059Z" clip-rule="evenodd"/><rect width="13" height="8.692" x="7.5" y="171.596" stroke="#D5D7E9" rx=".5"/><rect width="148" height="13" x="4" y="169.5" stroke="#D5D7E9" rx="1.5"/><g filter="url(#a)"><rect width="69" height="14" x="3.5" y="195" fill="#F15A2B" rx="7"/><path fill="#fff" fill-rule="evenodd" d="M21.5 205a3 3 0 1 0 0-6 3 3 0 0 0 0 6Zm1.39-3.485a.375.375 0 1 0-.53-.53l-1.235 1.235-.485-.485a.374.374 0 1 0-.53.53l.75.75a.374.374 0 0 0 .53 0l1.5-1.5Z" clip-rule="evenodd"/><rect width="29" height="3" x="28.5" y="200.5" fill="#fff" rx="1.5"/></g><defs><filter id="a" width="75" height="20" x=".5" y="193" color-interpolation-filters="sRGB" filterUnits="userSpaceOnUse"><feFlood flood-opacity="0" result="BackgroundImageFix"/><feColorMatrix in="SourceAlpha" result="hardAlpha" values="0 0 0 0 0 0 0 0 0 0 0 0 0 0 0 0 0 0 127 0"/><feOffset dy="1"/><feGaussianBlur stdDeviation="1"/><feColorMatrix values="0 0 0 0 0.0705882 0 0 0 0 0.0980392 0 0 0 0 0.380392 0 0 0 0.06 0"/><feBlend in2="BackgroundImageFix" result="effect1_dropShadow_1386_101784"/><feColorMatrix in="SourceAlpha" result="hardAlpha" values="0 0 0 0 0 0 0 0 0 0 0 0 0 0 0 0 0 0 127 0"/><feOffset dy="1"/><feGaussianBlur stdDeviation="1.5"/><feColorMatrix values="0 0 0 0 0.0705882 0 0 0 0 0.0980392 0 0 0 0 0.380392 0 0 0 0.1 0"/><feBlend in2="effect1_dropShadow_1386_101784" result="effect2_dropShadow_1386_101784"/><feBlend in="SourceGraphic" in2="effect2_dropShadow_1386_101784" result="shape"/></filter></defs></svg>