<svg width="153" height="258" viewBox="0 0 153 258" fill="none" xmlns="http://www.w3.org/2000/svg">
<path d="M84.9 21.75H71.1C70.5833 21.75 70.1417 21.5667 69.775 21.2C69.4083 20.8333 69.225 20.3917 69.225 19.875V8.075C69.225 7.55833 69.4083 7.11667 69.775 6.75C70.1417 6.38333 70.5833 6.2 71.1 6.2H73.175C73.175 4.86667 73.646 3.729 74.588 2.787C75.5293 1.84567 76.6667 1.375 78 1.375C79.3333 1.375 80.4707 1.84567 81.412 2.787C82.354 3.729 82.825 4.86667 82.825 6.2H84.9C85.4167 6.2 85.8583 6.38333 86.225 6.75C86.5917 7.11667 86.775 7.55833 86.775 8.075V19.875C86.775 20.3917 86.5917 20.8333 86.225 21.2C85.8583 21.5667 85.4167 21.75 84.9 21.75ZM75.05 6.2H80.95C80.95 5.38333 80.6627 4.68733 80.088 4.112C79.5127 3.53733 78.8167 3.25 78 3.25C77.1833 3.25 76.4877 3.53733 75.913 4.112C75.3377 4.68733 75.05 5.38333 75.05 6.2ZM84.9 19.875V8.075H71.1V19.875H84.9ZM78 13.875C79.2833 13.875 80.3917 13.4623 81.325 12.637C82.2583 11.8123 82.7167 10.925 82.7 9.975C82.7 9.725 82.6083 9.50833 82.425 9.325C82.2417 9.14167 82.0167 9.05 81.75 9.05C81.5333 9.05 81.3417 9.12067 81.175 9.262C81.0083 9.404 80.8917 9.60833 80.825 9.875C80.6417 10.5083 80.2877 11.0207 79.763 11.412C79.2377 11.804 78.65 12 78 12C77.3667 12 76.7833 11.804 76.25 11.412C75.7167 11.0207 75.3667 10.5083 75.2 9.875C75.1167 9.59167 74.996 9.38333 74.838 9.25C74.6793 9.11667 74.4917 9.05 74.275 9.05C74.0083 9.05 73.7833 9.14167 73.6 9.325C73.4167 9.50833 73.325 9.725 73.325 9.975C73.325 10.925 73.7877 11.8123 74.713 12.637C75.6377 13.4623 76.7333 13.875 78 13.875ZM71.1 8.075V19.875V8.075Z" fill="#F15A2B"/>
<rect x="44" y="32" width="68" height="4" rx="2" fill="#C3C5DB"/>
<g clip-path="url(#clip0_1386_101784)">
<rect x="3.5" y="48.636" width="39.864" height="39.864" rx="2.5" fill="#F6F9FC" stroke="#C3C5DB"/>
<path fill-rule="evenodd" clip-rule="evenodd" d="M18.9214 56.1161C18.7843 56.1693 18.5717 56.2476 18.4488 56.29C18.326 56.3325 18.2138 56.3838 18.1996 56.404C18.1854 56.4242 17.9944 56.5049 17.7752 56.5831C17.5558 56.6614 17.2611 56.7775 17.1202 56.841C16.9793 56.9046 16.6653 57.0284 16.4225 57.1161C16.1797 57.204 15.9514 57.3054 15.9151 57.3415C15.8789 57.3776 15.824 57.4071 15.7931 57.4071C15.6861 57.4071 14.9095 57.7195 14.9095 57.7626C14.9095 57.7863 14.8765 57.8058 14.8361 57.8058C14.7121 57.8058 14.2168 58.0605 14.0989 58.1849C14.0376 58.2495 13.9622 58.3028 13.9313 58.3033C13.7936 58.3054 12.9231 59.2424 12.7602 59.5638C12.7015 59.6796 12.6372 59.7856 12.6173 59.7993C12.5517 59.8444 12.4271 60.1227 12.3151 60.4745C12.2545 60.6651 12.1877 60.8433 12.1667 60.8707C12.1457 60.8981 12.0442 61.1897 11.9412 61.5186C11.8382 61.8475 11.7263 62.1615 11.6924 62.2163C11.6585 62.2712 11.5573 62.5515 11.4674 62.8393C11.3774 63.1271 11.2887 63.3738 11.2703 63.3875C11.1966 63.4424 10.9128 64.4288 10.8869 64.7209L10.859 65.0325L11.3268 65.5068C11.5842 65.7676 11.918 66.0634 12.0688 66.1643C12.2195 66.265 12.3654 66.3745 12.3928 66.4076C12.4448 66.4703 13.1203 66.7764 13.2068 66.7764C13.2341 66.7764 13.2647 66.8008 13.2746 66.8305C13.2845 66.8602 13.4714 66.9291 13.6899 66.9835C14.5805 67.2054 15.5574 67.1442 15.5574 66.8663C15.5574 66.8373 15.6669 66.665 15.8008 66.4835C15.9347 66.302 16.0893 66.0786 16.1444 65.987L16.2445 65.8206L16.2753 66.0618C16.3773 66.8612 16.4032 68.4213 16.4046 73.8533C16.4062 80.4015 16.3934 80.1054 16.6787 80.1985C16.761 80.2253 16.8394 80.2627 16.8531 80.2815C16.8842 80.3242 17.62 80.4981 18.2486 80.6112C18.509 80.6581 18.7332 80.7123 18.7469 80.7319C18.7743 80.7708 19.9393 80.9434 20.8401 81.0419C21.6177 81.1269 25.3056 81.1265 26.048 81.0413C26.9657 80.936 28.0899 80.7693 28.1163 80.7345C28.13 80.7165 28.3543 80.6624 28.6146 80.6143C29.2348 80.4997 29.9786 80.3216 30.0101 80.2802C30.0238 80.2621 30.1022 80.2253 30.1845 80.1985C30.4698 80.1054 30.457 80.4015 30.4586 73.8533C30.46 68.4267 30.4859 66.8615 30.5876 66.0643L30.618 65.8256L30.7537 66.0394C30.8284 66.1569 30.983 66.3765 31.0974 66.5273C31.2118 66.678 31.3055 66.8279 31.3056 66.8602C31.3067 67.1441 32.2729 67.2079 33.1733 66.9835C33.3918 66.9291 33.5787 66.8602 33.5886 66.8305C33.5985 66.8008 33.6291 66.7764 33.6564 66.7764C33.7702 66.7764 34.4297 66.4551 34.5396 66.3461C34.605 66.2813 34.688 66.2282 34.7241 66.2282C34.7601 66.2282 35.0631 65.9615 35.3973 65.6355L36.005 65.0428L35.9775 64.726C35.9526 64.4384 35.6646 63.4477 35.5885 63.3875C35.5711 63.3738 35.4721 63.0935 35.3684 62.7645C35.2647 62.4356 35.1638 62.1553 35.1442 62.1416C35.1247 62.1279 35.0246 61.8475 34.9218 61.5186C34.8189 61.1897 34.7168 60.8981 34.6949 60.8707C34.673 60.8433 34.6214 60.7088 34.5802 60.5718C34.4885 60.2663 34.304 59.8354 34.2498 59.8003C34.2277 59.786 34.1617 59.6796 34.103 59.5638C33.9401 59.2424 33.0696 58.3054 32.9319 58.3033C32.901 58.3028 32.8254 58.2494 32.764 58.1846C32.7026 58.1198 32.5792 58.0324 32.4899 57.9906C31.8337 57.6827 31.5383 57.5555 31.2564 57.4594C31.0785 57.3987 30.9214 57.3334 30.9075 57.3141C30.88 57.2762 30.2082 57.0084 30.1406 57.0084C30.1179 57.0084 29.9918 56.9544 29.8605 56.8884C29.7291 56.8225 29.4119 56.6948 29.1555 56.6048C28.8991 56.5147 28.6598 56.4118 28.6235 56.3759C28.5874 56.3401 28.5335 56.3107 28.504 56.3107C28.4744 56.3107 28.2648 56.2403 28.0383 56.1542C27.5655 55.9746 27.4684 55.9865 27.4684 56.2244C27.4684 56.3157 27.4491 56.4118 27.4255 56.4377C27.402 56.4638 27.3567 56.6781 27.325 56.9139C27.265 57.3603 27.0843 57.8979 26.9489 58.0334C26.9057 58.0766 26.8704 58.1406 26.8704 58.1757C26.8704 58.2107 26.8031 58.3323 26.7208 58.4458C26.6386 58.5593 26.5713 58.6604 26.5713 58.6706C26.5713 58.6909 26.2791 59.0261 26.1383 59.167C25.9076 59.3981 25.4987 59.6961 25.2381 59.823C25.0806 59.8998 24.9404 59.9794 24.9267 59.9999C24.7908 60.2037 23.3845 60.3677 22.7704 60.2515C22.4008 60.1816 21.9718 60.0495 21.9355 59.9944C21.9212 59.9727 21.8091 59.9099 21.6864 59.8546C21.5635 59.7994 21.3986 59.7138 21.3198 59.6646C21.1856 59.5805 21.1171 59.5233 20.7584 59.1954C20.589 59.0405 20.2421 58.6604 20.2421 58.6297C20.2421 58.6179 20.1748 58.5085 20.0925 58.3867C20.0103 58.2648 19.943 58.1422 19.943 58.1142C19.943 58.0862 19.9206 58.0558 19.8932 58.0466C19.8035 58.0167 19.6088 57.3888 19.548 56.9325C19.5152 56.6864 19.4682 56.4402 19.4436 56.3854C19.4191 56.3306 19.3925 56.2297 19.3844 56.1611C19.3658 56.0015 19.2463 55.9899 18.9214 56.1161Z" fill="#BED8ED"/>
</g>
<rect x="60" y="56.5" width="31" height="4" rx="2" fill="#D5D7E9"/>
<rect x="60.5" y="67" width="58" height="13" rx="1.5" fill="#FDFDFF"/>
<rect x="60.5" y="67" width="58" height="13" rx="1.5" stroke="#D5D7E9"/>
<g clip-path="url(#clip1_1386_101784)">
<rect x="3.5" y="100.636" width="39.864" height="39.864" rx="2.5" fill="#F6F9FC" stroke="#C3C5DB"/>
<path fill-rule="evenodd" clip-rule="evenodd" d="M18.9214 108.116C18.7843 108.169 18.5717 108.248 18.4488 108.29C18.326 108.332 18.2138 108.384 18.1996 108.404C18.1854 108.424 17.9944 108.505 17.7752 108.583C17.5558 108.661 17.2611 108.777 17.1202 108.841C16.9793 108.905 16.6653 109.028 16.4225 109.116C16.1797 109.204 15.9514 109.305 15.9151 109.341C15.8789 109.378 15.824 109.407 15.7931 109.407C15.6861 109.407 14.9095 109.72 14.9095 109.763C14.9095 109.786 14.8765 109.806 14.8361 109.806C14.7121 109.806 14.2168 110.06 14.0989 110.185C14.0376 110.25 13.9622 110.303 13.9313 110.303C13.7936 110.305 12.9231 111.242 12.7602 111.564C12.7015 111.68 12.6372 111.786 12.6173 111.799C12.5517 111.844 12.4271 112.123 12.3151 112.475C12.2545 112.665 12.1877 112.843 12.1667 112.871C12.1457 112.898 12.0442 113.19 11.9412 113.519C11.8382 113.848 11.7263 114.161 11.6924 114.216C11.6585 114.271 11.5573 114.551 11.4674 114.839C11.3774 115.127 11.2887 115.374 11.2703 115.388C11.1966 115.442 10.9128 116.429 10.8869 116.721L10.859 117.033L11.3268 117.507C11.5842 117.768 11.918 118.063 12.0688 118.164C12.2195 118.265 12.3654 118.375 12.3928 118.408C12.4448 118.47 13.1203 118.776 13.2068 118.776C13.2341 118.776 13.2647 118.801 13.2746 118.83C13.2845 118.86 13.4714 118.929 13.6899 118.984C14.5805 119.205 15.5574 119.144 15.5574 118.866C15.5574 118.837 15.6669 118.665 15.8008 118.483C15.9347 118.302 16.0893 118.079 16.1444 117.987L16.2445 117.821L16.2753 118.062C16.3773 118.861 16.4032 120.421 16.4046 125.853C16.4062 132.401 16.3934 132.105 16.6787 132.199C16.761 132.225 16.8394 132.263 16.8531 132.282C16.8842 132.324 17.62 132.498 18.2486 132.611C18.509 132.658 18.7332 132.712 18.7469 132.732C18.7743 132.771 19.9393 132.943 20.8401 133.042C21.6177 133.127 25.3056 133.127 26.048 133.041C26.9657 132.936 28.0899 132.769 28.1163 132.735C28.13 132.717 28.3543 132.662 28.6146 132.614C29.2348 132.5 29.9786 132.322 30.0101 132.28C30.0238 132.262 30.1022 132.225 30.1845 132.199C30.4698 132.105 30.457 132.401 30.4586 125.853C30.46 120.427 30.4859 118.861 30.5876 118.064L30.618 117.826L30.7537 118.039C30.8284 118.157 30.983 118.376 31.0974 118.527C31.2118 118.678 31.3055 118.828 31.3056 118.86C31.3067 119.144 32.2729 119.208 33.1733 118.984C33.3918 118.929 33.5787 118.86 33.5886 118.83C33.5985 118.801 33.6291 118.776 33.6564 118.776C33.7702 118.776 34.4297 118.455 34.5396 118.346C34.605 118.281 34.688 118.228 34.7241 118.228C34.7601 118.228 35.0631 117.961 35.3973 117.636L36.005 117.043L35.9775 116.726C35.9526 116.438 35.6646 115.448 35.5885 115.388C35.5711 115.374 35.4721 115.094 35.3684 114.765C35.2647 114.436 35.1638 114.155 35.1442 114.142C35.1247 114.128 35.0246 113.848 34.9218 113.519C34.8189 113.19 34.7168 112.898 34.6949 112.871C34.673 112.843 34.6214 112.709 34.5802 112.572C34.4885 112.266 34.304 111.835 34.2498 111.8C34.2277 111.786 34.1617 111.68 34.103 111.564C33.9401 111.242 33.0696 110.305 32.9319 110.303C32.901 110.303 32.8254 110.249 32.764 110.185C32.7026 110.12 32.5792 110.032 32.4899 109.991C31.8337 109.683 31.5383 109.555 31.2564 109.459C31.0785 109.399 30.9214 109.333 30.9075 109.314C30.88 109.276 30.2082 109.008 30.1406 109.008C30.1179 109.008 29.9918 108.954 29.8605 108.888C29.7291 108.822 29.4119 108.695 29.1555 108.605C28.8991 108.515 28.6598 108.412 28.6235 108.376C28.5874 108.34 28.5335 108.311 28.504 108.311C28.4744 108.311 28.2648 108.24 28.0383 108.154C27.5655 107.975 27.4684 107.987 27.4684 108.224C27.4684 108.316 27.4491 108.412 27.4255 108.438C27.402 108.464 27.3567 108.678 27.325 108.914C27.265 109.36 27.0843 109.898 26.9489 110.033C26.9057 110.077 26.8704 110.141 26.8704 110.176C26.8704 110.211 26.8031 110.332 26.7208 110.446C26.6386 110.559 26.5713 110.66 26.5713 110.671C26.5713 110.691 26.2791 111.026 26.1383 111.167C25.9076 111.398 25.4987 111.696 25.2381 111.823C25.0806 111.9 24.9404 111.979 24.9267 112C24.7908 112.204 23.3845 112.368 22.7704 112.251C22.4008 112.182 21.9718 112.049 21.9355 111.994C21.9212 111.973 21.8091 111.91 21.6864 111.855C21.5635 111.799 21.3986 111.714 21.3198 111.665C21.1856 111.581 21.1171 111.523 20.7584 111.195C20.589 111.041 20.2421 110.66 20.2421 110.63C20.2421 110.618 20.1748 110.509 20.0925 110.387C20.0103 110.265 19.943 110.142 19.943 110.114C19.943 110.086 19.9206 110.056 19.8932 110.047C19.8035 110.017 19.6088 109.389 19.548 108.932C19.5152 108.686 19.4682 108.44 19.4436 108.385C19.4191 108.331 19.3925 108.23 19.3844 108.161C19.3658 108.002 19.2463 107.99 18.9214 108.116Z" fill="#9092B0"/>
</g>
<rect x="60" y="108.5" width="31" height="4" rx="2" fill="#D5D7E9"/>
<rect x="60.5" y="119" width="58" height="13" rx="1.5" fill="#FDFDFF"/>
<rect x="60.5" y="119" width="58" height="13" rx="1.5" stroke="#D5D7E9"/>
<g clip-path="url(#clip2_1386_101784)">
<rect x="3.5" y="152.636" width="39.864" height="39.864" rx="2.5" fill="#F6F9FC" stroke="#C3C5DB"/>
<path fill-rule="evenodd" clip-rule="evenodd" d="M18.9214 160.116C18.7843 160.169 18.5717 160.248 18.4488 160.29C18.326 160.332 18.2138 160.384 18.1996 160.404C18.1854 160.424 17.9944 160.505 17.7752 160.583C17.5558 160.661 17.2611 160.777 17.1202 160.841C16.9793 160.905 16.6653 161.028 16.4225 161.116C16.1797 161.204 15.9514 161.305 15.9151 161.341C15.8789 161.378 15.824 161.407 15.7931 161.407C15.6861 161.407 14.9095 161.72 14.9095 161.763C14.9095 161.786 14.8765 161.806 14.8361 161.806C14.7121 161.806 14.2168 162.06 14.0989 162.185C14.0376 162.25 13.9622 162.303 13.9313 162.303C13.7936 162.305 12.9231 163.242 12.7602 163.564C12.7015 163.68 12.6372 163.786 12.6173 163.799C12.5517 163.844 12.4271 164.123 12.3151 164.475C12.2545 164.665 12.1877 164.843 12.1667 164.871C12.1457 164.898 12.0442 165.19 11.9412 165.519C11.8382 165.848 11.7263 166.161 11.6924 166.216C11.6585 166.271 11.5573 166.551 11.4674 166.839C11.3774 167.127 11.2887 167.374 11.2703 167.388C11.1966 167.442 10.9128 168.429 10.8869 168.721L10.859 169.033L11.3268 169.507C11.5842 169.768 11.918 170.063 12.0688 170.164C12.2195 170.265 12.3654 170.375 12.3928 170.408C12.4448 170.47 13.1203 170.776 13.2068 170.776C13.2341 170.776 13.2647 170.801 13.2746 170.83C13.2845 170.86 13.4714 170.929 13.6899 170.984C14.5805 171.205 15.5574 171.144 15.5574 170.866C15.5574 170.837 15.6669 170.665 15.8008 170.483C15.9347 170.302 16.0893 170.079 16.1444 169.987L16.2445 169.821L16.2753 170.062C16.3773 170.861 16.4032 172.421 16.4046 177.853C16.4062 184.401 16.3934 184.105 16.6787 184.199C16.761 184.225 16.8394 184.263 16.8531 184.282C16.8842 184.324 17.62 184.498 18.2486 184.611C18.509 184.658 18.7332 184.712 18.7469 184.732C18.7743 184.771 19.9393 184.943 20.8401 185.042C21.6177 185.127 25.3056 185.127 26.048 185.041C26.9657 184.936 28.0899 184.769 28.1163 184.735C28.13 184.717 28.3543 184.662 28.6146 184.614C29.2348 184.5 29.9786 184.322 30.0101 184.28C30.0238 184.262 30.1022 184.225 30.1845 184.199C30.4698 184.105 30.457 184.401 30.4586 177.853C30.46 172.427 30.4859 170.861 30.5876 170.064L30.618 169.826L30.7537 170.039C30.8284 170.157 30.983 170.376 31.0974 170.527C31.2118 170.678 31.3055 170.828 31.3056 170.86C31.3067 171.144 32.2729 171.208 33.1733 170.984C33.3918 170.929 33.5787 170.86 33.5886 170.83C33.5985 170.801 33.6291 170.776 33.6564 170.776C33.7702 170.776 34.4297 170.455 34.5396 170.346C34.605 170.281 34.688 170.228 34.7241 170.228C34.7601 170.228 35.0631 169.961 35.3973 169.636L36.005 169.043L35.9775 168.726C35.9526 168.438 35.6646 167.448 35.5885 167.388C35.5711 167.374 35.4721 167.094 35.3684 166.765C35.2647 166.436 35.1638 166.155 35.1442 166.142C35.1247 166.128 35.0246 165.848 34.9218 165.519C34.8189 165.19 34.7168 164.898 34.6949 164.871C34.673 164.843 34.6214 164.709 34.5802 164.572C34.4885 164.266 34.304 163.835 34.2498 163.8C34.2277 163.786 34.1617 163.68 34.103 163.564C33.9401 163.242 33.0696 162.305 32.9319 162.303C32.901 162.303 32.8254 162.249 32.764 162.185C32.7026 162.12 32.5792 162.032 32.4899 161.991C31.8337 161.683 31.5383 161.555 31.2564 161.459C31.0785 161.399 30.9214 161.333 30.9075 161.314C30.88 161.276 30.2082 161.008 30.1406 161.008C30.1179 161.008 29.9918 160.954 29.8605 160.888C29.7291 160.822 29.4119 160.695 29.1555 160.605C28.8991 160.515 28.6598 160.412 28.6235 160.376C28.5874 160.34 28.5335 160.311 28.504 160.311C28.4744 160.311 28.2648 160.24 28.0383 160.154C27.5655 159.975 27.4684 159.987 27.4684 160.224C27.4684 160.316 27.4491 160.412 27.4255 160.438C27.402 160.464 27.3567 160.678 27.325 160.914C27.265 161.36 27.0843 161.898 26.9489 162.033C26.9057 162.077 26.8704 162.141 26.8704 162.176C26.8704 162.211 26.8031 162.332 26.7208 162.446C26.6386 162.559 26.5713 162.66 26.5713 162.671C26.5713 162.691 26.2791 163.026 26.1383 163.167C25.9076 163.398 25.4987 163.696 25.2381 163.823C25.0806 163.9 24.9404 163.979 24.9267 164C24.7908 164.204 23.3845 164.368 22.7704 164.251C22.4008 164.182 21.9718 164.049 21.9355 163.994C21.9212 163.973 21.8091 163.91 21.6864 163.855C21.5635 163.799 21.3986 163.714 21.3198 163.665C21.1856 163.581 21.1171 163.523 20.7584 163.195C20.589 163.041 20.2421 162.66 20.2421 162.63C20.2421 162.618 20.1748 162.509 20.0925 162.387C20.0103 162.265 19.943 162.142 19.943 162.114C19.943 162.086 19.9206 162.056 19.8932 162.047C19.8035 162.017 19.6088 161.389 19.548 160.932C19.5152 160.686 19.4682 160.44 19.4436 160.385C19.4191 160.331 19.3925 160.23 19.3844 160.161C19.3658 160.002 19.2463 159.99 18.9214 160.116Z" fill="#0F3D6C"/>
</g>
<rect x="60" y="160.5" width="31" height="4" rx="2" fill="#D5D7E9"/>
<rect x="60.5" y="171" width="58" height="13" rx="1.5" fill="#FDFDFF"/>
<rect x="60.5" y="171" width="58" height="13" rx="1.5" stroke="#D5D7E9"/>
<rect x="3" y="204" width="73" height="4" rx="2" fill="#D5D7E9"/>
<rect x="3.5" y="214.5" width="148" height="13" rx="1.5" fill="#FDFDFF"/>
<rect x="3.5" y="214.5" width="148" height="13" rx="1.5" fill="#FDFDFF" stroke="#D5D7E9"/>
<rect x="7" y="216.596" width="13" height="8.69231" rx="0.5" fill="white"/>
<path fill-rule="evenodd" clip-rule="evenodd" d="M13.5737 222.892C13.0861 223.295 12.4537 223.539 11.7626 223.539C10.2206 223.539 8.97059 222.327 8.97059 220.833C8.97059 219.338 10.2206 218.127 11.7626 218.127C12.4537 218.127 13.0861 218.37 13.5737 218.773C14.0612 218.37 14.6937 218.127 15.3848 218.127C16.9268 218.127 18.1768 219.338 18.1768 220.833C18.1768 222.327 16.9268 223.539 15.3848 223.539C14.6937 223.539 14.0612 223.295 13.5737 222.892Z" fill="#ED0006"/>
<path fill-rule="evenodd" clip-rule="evenodd" d="M13.5737 222.892C14.174 222.396 14.5547 221.657 14.5547 220.833C14.5547 220.008 14.174 219.27 13.5737 218.773C14.0612 218.37 14.6937 218.127 15.3848 218.127C16.9268 218.127 18.1768 219.338 18.1768 220.833C18.1768 222.327 16.9268 223.539 15.3848 223.539C14.6937 223.539 14.0612 223.295 13.5737 222.892Z" fill="#F9A000"/>
<path fill-rule="evenodd" clip-rule="evenodd" d="M13.5737 222.892C14.174 222.396 14.5547 221.657 14.5547 220.833C14.5547 220.008 14.174 219.27 13.5737 218.773C12.9734 219.27 12.5927 220.008 12.5927 220.833C12.5927 221.657 12.9734 222.396 13.5737 222.892Z" fill="#FF5E00"/>
<rect x="7" y="216.596" width="13" height="8.69231" rx="0.5" stroke="#D5D7E9"/>
<rect x="3.5" y="214.5" width="148" height="13" rx="1.5" stroke="#D5D7E9"/>
<g filter="url(#filter0_dd_1386_101784)">
<rect x="3" y="240" width="69" height="14" rx="7" fill="#F15A2B"/>
<path fill-rule="evenodd" clip-rule="evenodd" d="M21 250C22.6569 250 24 248.657 24 247C24 245.343 22.6569 244 21 244C19.3431 244 18 245.343 18 247C18 248.657 19.3431 250 21 250ZM22.3902 246.515C22.5366 246.369 22.5366 246.131 22.3902 245.985C22.2437 245.838 22.0063 245.838 21.8598 245.985L20.625 247.22L20.1402 246.735C19.9937 246.588 19.7563 246.588 19.6098 246.735C19.4634 246.881 19.4634 247.119 19.6098 247.265L20.3598 248.015C20.5063 248.162 20.7437 248.162 20.8902 248.015L22.3902 246.515Z" fill="white"/>
<rect x="28" y="245.5" width="29" height="3" rx="1.5" fill="white"/>
</g>
<defs>
<filter id="filter0_dd_1386_101784" x="0" y="238" width="75" height="20" filterUnits="userSpaceOnUse" color-interpolation-filters="sRGB">
<feFlood flood-opacity="0" result="BackgroundImageFix"/>
<feColorMatrix in="SourceAlpha" type="matrix" values="0 0 0 0 0 0 0 0 0 0 0 0 0 0 0 0 0 0 127 0" result="hardAlpha"/>
<feOffset dy="1"/>
<feGaussianBlur stdDeviation="1"/>
<feColorMatrix type="matrix" values="0 0 0 0 0.0705882 0 0 0 0 0.0980392 0 0 0 0 0.380392 0 0 0 0.06 0"/>
<feBlend mode="normal" in2="BackgroundImageFix" result="effect1_dropShadow_1386_101784"/>
<feColorMatrix in="SourceAlpha" type="matrix" values="0 0 0 0 0 0 0 0 0 0 0 0 0 0 0 0 0 0 127 0" result="hardAlpha"/>
<feOffset dy="1"/>
<feGaussianBlur stdDeviation="1.5"/>
<feColorMatrix type="matrix" values="0 0 0 0 0.0705882 0 0 0 0 0.0980392 0 0 0 0 0.380392 0 0 0 0.1 0"/>
<feBlend mode="normal" in2="effect1_dropShadow_1386_101784" result="effect2_dropShadow_1386_101784"/>
<feBlend mode="normal" in="SourceGraphic" in2="effect2_dropShadow_1386_101784" result="shape"/>
</filter>
<clipPath id="clip0_1386_101784">
<rect width="41" height="41" fill="white" transform="translate(3 48)"/>
</clipPath>
<clipPath id="clip1_1386_101784">
<rect width="41" height="41" fill="white" transform="translate(3 100)"/>
</clipPath>
<clipPath id="clip2_1386_101784">
<rect width="41" height="41" fill="white" transform="translate(3 152)"/>
</clipPath>
</defs>
</svg>
