<svg width="153" height="230" viewBox="0 0 153 230" fill="none" xmlns="http://www.w3.org/2000/svg">
<path d="M83.2 13.475C83.4 13.475 83.5667 13.404 83.7 13.262C83.8333 13.1207 83.9 12.95 83.9 12.75C83.9 12.55 83.8333 12.3833 83.7 12.25C83.5667 12.1167 83.4 12.05 83.2 12.05H80.7C80.5 12.05 80.3293 12.1167 80.188 12.25C80.046 12.3833 79.975 12.55 79.975 12.75C79.975 12.95 80.046 13.1207 80.188 13.262C80.3293 13.404 80.5 13.475 80.7 13.475H83.2ZM83.2 16.375C83.4 16.375 83.5667 16.3043 83.7 16.163C83.8333 16.021 83.9 15.85 83.9 15.65C83.9 15.45 83.8333 15.2833 83.7 15.15C83.5667 15.0167 83.4 14.95 83.2 14.95H80.7C80.5 14.95 80.3293 15.0167 80.188 15.15C80.046 15.2833 79.975 15.45 79.975 15.65C79.975 15.85 80.046 16.021 80.188 16.163C80.3293 16.3043 80.5 16.375 80.7 16.375H83.2ZM80.85 7.175H85.875C86.3917 7.175 86.8333 7.35833 87.2 7.725C87.5667 8.09167 87.75 8.53333 87.75 9.05V19.875C87.75 20.3917 87.5667 20.8333 87.2 21.2C86.8333 21.5667 86.3917 21.75 85.875 21.75H70.125C69.6083 21.75 69.1667 21.5667 68.8 21.2C68.4333 20.8333 68.25 20.3917 68.25 19.875V9.05C68.25 8.53333 68.4333 8.09167 68.8 7.725C69.1667 7.35833 69.6083 7.175 70.125 7.175H75.15V4.125C75.15 3.60833 75.3333 3.16667 75.7 2.8C76.0667 2.43333 76.5083 2.25 77.025 2.25H78.975C79.4917 2.25 79.9333 2.43333 80.3 2.8C80.6667 3.16667 80.85 3.60833 80.85 4.125V7.175ZM77.025 9.05H78.975V4.125H77.025V9.05ZM75.05 14.95C75.45 14.95 75.7917 14.8083 76.075 14.525C76.3583 14.2417 76.5 13.9 76.5 13.5C76.5 13.1 76.3583 12.7583 76.075 12.475C75.7917 12.1917 75.45 12.05 75.05 12.05C74.65 12.05 74.3083 12.1917 74.025 12.475C73.7417 12.7583 73.6 13.1 73.6 13.5C73.6 13.9 73.7417 14.2417 74.025 14.525C74.3083 14.8083 74.65 14.95 75.05 14.95ZM72.125 17.85H77.975V17.45C77.975 17.1667 77.9 16.9043 77.75 16.663C77.6 16.421 77.3833 16.2417 77.1 16.125C76.7667 15.975 76.4333 15.8667 76.1 15.8C75.7667 15.7333 75.4167 15.7 75.05 15.7C74.7 15.7 74.354 15.7333 74.012 15.8C73.6707 15.8667 73.325 15.975 72.975 16.125C72.725 16.2417 72.521 16.4167 72.363 16.65C72.2043 16.8833 72.125 17.15 72.125 17.45V17.85ZM75.15 9.05H70.125V19.875H85.875V9.05H80.85C80.85 9.56667 80.6707 10.0083 80.312 10.375C79.954 10.7417 79.5083 10.925 78.975 10.925H77.025C76.5083 10.925 76.0667 10.7417 75.7 10.375C75.3333 10.0083 75.15 9.56667 75.15 9.05Z" fill="#F15A2B"/>
<rect x="44" y="32" width="68" height="4" rx="2" fill="#C3C5DB"/>
<rect x="3" y="48" width="31" height="4" rx="2" fill="#D5D7E9"/>
<rect x="3.5" y="58.5" width="68" height="13" rx="1.5" fill="#FDFDFF" stroke="#D5D7E9"/>
<rect x="83" y="48" width="31" height="4" rx="2" fill="#D5D7E9"/>
<rect x="83.5" y="58.5" width="68" height="13" rx="1.5" fill="#FDFDFF" stroke="#D5D7E9"/>
<rect x="3" y="84" width="73" height="4" rx="2" fill="#D5D7E9"/>
<circle cx="7" cy="98" r="3.5" fill="white" stroke="#E4E9EB"/>
<circle cx="7" cy="98" r="1" fill="#F15A2B"/>
<rect x="14" y="96" width="13" height="4" rx="2" fill="#D5D7E9"/>
<rect x="30" y="96" width="7" height="4" rx="2" fill="#D5D7E9"/>
<circle cx="7" cy="111" r="3.5" fill="white" stroke="#F15A2B"/>
<circle cx="7" cy="111" r="3" fill="#F15A2B"/>
<circle cx="7" cy="111" r="1" fill="white"/>
<rect x="14" y="109" width="8" height="4" rx="2" fill="#D5D7E9"/>
<rect x="25" y="109" width="14" height="4" rx="2" fill="#D5D7E9"/>
<circle cx="7" cy="124" r="3.5" fill="white" stroke="#E4E9EB"/>
<circle cx="7" cy="124" r="1" fill="#F15A2B"/>
<rect x="14" y="122" width="10" height="4" rx="2" fill="#D5D7E9"/>
<rect x="27" y="122" width="8" height="4" rx="2" fill="#D5D7E9"/>
<rect x="3" y="140" width="53" height="4" rx="2" fill="#D5D7E9"/>
<rect x="3.5" y="150.5" width="148" height="13" rx="1.5" fill="#FDFDFF"/>
<rect x="3.5" y="150.5" width="148" height="13" rx="1.5" fill="#FDFDFF" stroke="#D5D7E9"/>
<rect x="3.5" y="150.5" width="148" height="13" rx="1.5" stroke="#D5D7E9"/>
<rect x="3" y="176" width="53" height="4" rx="2" fill="#D5D7E9"/>
<rect x="3.5" y="186.5" width="148" height="13" rx="1.5" fill="#FDFDFF"/>
<rect x="3.5" y="186.5" width="148" height="13" rx="1.5" fill="#FDFDFF" stroke="#D5D7E9"/>
<rect x="3.5" y="186.5" width="148" height="13" rx="1.5" stroke="#D5D7E9"/>
<g filter="url(#filter0_dd_1386_101722)">
<rect x="3" y="212" width="69" height="14" rx="7" fill="#F15A2B"/>
<path fill-rule="evenodd" clip-rule="evenodd" d="M21 222C22.6569 222 24 220.657 24 219C24 217.343 22.6569 216 21 216C19.3431 216 18 217.343 18 219C18 220.657 19.3431 222 21 222ZM22.3902 218.515C22.5366 218.369 22.5366 218.131 22.3902 217.985C22.2437 217.838 22.0063 217.838 21.8598 217.985L20.625 219.22L20.1402 218.735C19.9937 218.588 19.7563 218.588 19.6098 218.735C19.4634 218.881 19.4634 219.119 19.6098 219.265L20.3598 220.015C20.5063 220.162 20.7437 220.162 20.8902 220.015L22.3902 218.515Z" fill="white"/>
<rect x="28" y="217.5" width="29" height="3" rx="1.5" fill="white"/>
</g>
<defs>
<filter id="filter0_dd_1386_101722" x="0" y="210" width="75" height="20" filterUnits="userSpaceOnUse" color-interpolation-filters="sRGB">
<feFlood flood-opacity="0" result="BackgroundImageFix"/>
<feColorMatrix in="SourceAlpha" type="matrix" values="0 0 0 0 0 0 0 0 0 0 0 0 0 0 0 0 0 0 127 0" result="hardAlpha"/>
<feOffset dy="1"/>
<feGaussianBlur stdDeviation="1"/>
<feColorMatrix type="matrix" values="0 0 0 0 0.0705882 0 0 0 0 0.0980392 0 0 0 0 0.380392 0 0 0 0.06 0"/>
<feBlend mode="normal" in2="BackgroundImageFix" result="effect1_dropShadow_1386_101722"/>
<feColorMatrix in="SourceAlpha" type="matrix" values="0 0 0 0 0 0 0 0 0 0 0 0 0 0 0 0 0 0 127 0" result="hardAlpha"/>
<feOffset dy="1"/>
<feGaussianBlur stdDeviation="1.5"/>
<feColorMatrix type="matrix" values="0 0 0 0 0.0705882 0 0 0 0 0.0980392 0 0 0 0 0.380392 0 0 0 0.1 0"/>
<feBlend mode="normal" in2="effect1_dropShadow_1386_101722" result="effect2_dropShadow_1386_101722"/>
<feBlend mode="normal" in="SourceGraphic" in2="effect2_dropShadow_1386_101722" result="shape"/>
</filter>
</defs>
</svg>
