<svg width="153" height="206" viewBox="0 0 153 206" fill="none" xmlns="http://www.w3.org/2000/svg">
<path d="M78 14.225C77.7167 14.225 77.475 14.1207 77.275 13.912C77.075 13.704 76.975 13.4667 76.975 13.2C76.975 12.9167 77.075 12.6707 77.275 12.462C77.475 12.254 77.7167 12.15 78 12.15C78.2833 12.15 78.525 12.254 78.725 12.462C78.925 12.6707 79.025 12.9167 79.025 13.2C79.025 13.4667 78.925 13.704 78.725 13.912C78.525 14.1207 78.2833 14.225 78 14.225ZM74 14.225C73.7167 14.225 73.475 14.1207 73.275 13.912C73.075 13.704 72.975 13.4667 72.975 13.2C72.975 12.9167 73.075 12.6707 73.275 12.462C73.475 12.254 73.7167 12.15 74 12.15C74.2833 12.15 74.525 12.254 74.725 12.462C74.925 12.6707 75.025 12.9167 75.025 13.2C75.025 13.4667 74.925 13.704 74.725 13.912C74.525 14.1207 74.2833 14.225 74 14.225ZM82 14.225C81.7167 14.225 81.475 14.1207 81.275 13.912C81.075 13.704 80.975 13.4667 80.975 13.2C80.975 12.9167 81.075 12.6707 81.275 12.462C81.475 12.254 81.7167 12.15 82 12.15C82.2833 12.15 82.525 12.254 82.725 12.462C82.925 12.6707 83.025 12.9167 83.025 13.2C83.025 13.4667 82.925 13.704 82.725 13.912C82.525 14.1207 82.2833 14.225 82 14.225ZM78 18.15C77.7167 18.15 77.475 18.0457 77.275 17.837C77.075 17.629 76.975 17.3917 76.975 17.125C76.975 16.8417 77.075 16.5957 77.275 16.387C77.475 16.179 77.7167 16.075 78 16.075C78.2833 16.075 78.525 16.179 78.725 16.387C78.925 16.5957 79.025 16.8417 79.025 17.125C79.025 17.3917 78.925 17.629 78.725 17.837C78.525 18.0457 78.2833 18.15 78 18.15ZM74 18.15C73.7167 18.15 73.475 18.0457 73.275 17.837C73.075 17.629 72.975 17.3917 72.975 17.125C72.975 16.8417 73.075 16.5957 73.275 16.387C73.475 16.179 73.7167 16.075 74 16.075C74.2833 16.075 74.525 16.179 74.725 16.387C74.925 16.5957 75.025 16.8417 75.025 17.125C75.025 17.3917 74.925 17.629 74.725 17.837C74.525 18.0457 74.2833 18.15 74 18.15ZM82 18.15C81.7167 18.15 81.475 18.0457 81.275 17.837C81.075 17.629 80.975 17.3917 80.975 17.125C80.975 16.8417 81.075 16.5957 81.275 16.387C81.475 16.179 81.7167 16.075 82 16.075C82.2833 16.075 82.525 16.179 82.725 16.387C82.925 16.5957 83.025 16.8417 83.025 17.125C83.025 17.3917 82.925 17.629 82.725 17.837C82.525 18.0457 82.2833 18.15 82 18.15ZM71.15 22.25C70.4667 22.25 69.8877 22.0127 69.413 21.538C68.9377 21.0627 68.7 20.4833 68.7 19.8V6.1C68.7 5.41667 68.9377 4.83733 69.413 4.362C69.8877 3.88733 70.4667 3.65 71.15 3.65H71.75V2.725C71.75 2.425 71.854 2.16667 72.062 1.95C72.2707 1.73333 72.525 1.625 72.825 1.625C73.1417 1.625 73.4043 1.73333 73.613 1.95C73.821 2.16667 73.925 2.425 73.925 2.725V3.65H82.1V2.7C82.1 2.41667 82.2083 2.16667 82.425 1.95C82.6417 1.73333 82.8917 1.625 83.175 1.625C83.475 1.625 83.7293 1.73333 83.938 1.95C84.146 2.16667 84.25 2.41667 84.25 2.7V3.65H84.85C85.5333 3.65 86.1123 3.88733 86.587 4.362C87.0623 4.83733 87.3 5.41667 87.3 6.1V19.8C87.3 20.4833 87.0623 21.0627 86.587 21.538C86.1123 22.0127 85.5333 22.25 84.85 22.25H71.15ZM71.15 20.1H84.85C84.9333 20.1 85.004 20.071 85.062 20.013C85.1207 19.9543 85.15 19.8833 85.15 19.8V9.8H70.85V19.8C70.85 19.8833 70.8793 19.9543 70.938 20.013C70.996 20.071 71.0667 20.1 71.15 20.1ZM70.85 7.65H85.15V6.1C85.15 6.01667 85.1207 5.94567 85.062 5.887C85.004 5.829 84.9333 5.8 84.85 5.8H71.15C71.0667 5.8 70.996 5.829 70.938 5.887C70.8793 5.94567 70.85 6.01667 70.85 6.1V7.65ZM70.85 7.65V5.8V7.65Z" fill="#F15A2B"/>
<rect x="44" y="32" width="68" height="4" rx="2" fill="#C3C5DB"/>
<rect x="3" y="48" width="31" height="4" rx="2" fill="#D5D7E9"/>
<rect x="3.5" y="58.5" width="68" height="13" rx="1.5" fill="#FDFDFF" stroke="#D5D7E9"/>
<rect x="83" y="48" width="31" height="4" rx="2" fill="#D5D7E9"/>
<rect x="83.5" y="58.5" width="68" height="13" rx="1.5" fill="#FDFDFF" stroke="#D5D7E9"/>
<rect x="3" y="84" width="53" height="4" rx="2" fill="#D5D7E9"/>
<rect x="3.5" y="92.5" width="148" height="13" rx="1.5" fill="#FDFDFF"/>
<rect x="3.5" y="92.5" width="148" height="13" rx="1.5" fill="#FDFDFF" stroke="#D5D7E9"/>
<rect x="3.5" y="92.5" width="148" height="13" rx="1.5" stroke="#D5D7E9"/>
<rect x="3" y="118" width="53" height="4" rx="2" fill="#D5D7E9"/>
<rect x="3.5" y="126.5" width="68" height="13" rx="1.5" fill="#FDFDFF" stroke="#D5D7E9"/>
<path fill-rule="evenodd" clip-rule="evenodd" d="M62.1757 131.272C62.4101 131.037 62.7899 131.037 63.0243 131.272L65 133.247L66.9757 131.272C67.2101 131.037 67.5899 131.037 67.8243 131.272C68.0586 131.506 68.0586 131.886 67.8243 132.12L65.4243 134.52C65.1899 134.754 64.8101 134.754 64.5757 134.52L62.1757 132.12C61.9414 131.886 61.9414 131.506 62.1757 131.272Z" fill="#D5D7E9"/>
<rect x="3" y="152" width="31" height="4" rx="2" fill="#D5D7E9"/>
<rect x="3.5" y="162.5" width="43" height="13" rx="1.5" fill="#FDFDFF" stroke="#D5D7E9"/>
<rect x="55.5" y="152" width="31" height="4" rx="2" fill="#D5D7E9"/>
<rect x="56" y="162.5" width="43" height="13" rx="1.5" fill="#FDFDFF" stroke="#D5D7E9"/>
<rect x="108" y="152" width="31" height="4" rx="2" fill="#D5D7E9"/>
<rect x="108.5" y="162.5" width="43" height="13" rx="1.5" fill="#FDFDFF" stroke="#D5D7E9"/>
<g filter="url(#filter0_dd_1386_101503)">
<rect x="3" y="188" width="69" height="14" rx="7" fill="#F15A2B"/>
<path fill-rule="evenodd" clip-rule="evenodd" d="M21 198C22.6569 198 24 196.657 24 195C24 193.343 22.6569 192 21 192C19.3431 192 18 193.343 18 195C18 196.657 19.3431 198 21 198ZM22.3902 194.515C22.5366 194.369 22.5366 194.131 22.3902 193.985C22.2437 193.838 22.0063 193.838 21.8598 193.985L20.625 195.22L20.1402 194.735C19.9937 194.588 19.7563 194.588 19.6098 194.735C19.4634 194.881 19.4634 195.119 19.6098 195.265L20.3598 196.015C20.5063 196.162 20.7437 196.162 20.8902 196.015L22.3902 194.515Z" fill="white"/>
<rect x="28" y="193.5" width="29" height="3" rx="1.5" fill="white"/>
</g>
<defs>
<filter id="filter0_dd_1386_101503" x="0" y="186" width="75" height="20" filterUnits="userSpaceOnUse" color-interpolation-filters="sRGB">
<feFlood flood-opacity="0" result="BackgroundImageFix"/>
<feColorMatrix in="SourceAlpha" type="matrix" values="0 0 0 0 0 0 0 0 0 0 0 0 0 0 0 0 0 0 127 0" result="hardAlpha"/>
<feOffset dy="1"/>
<feGaussianBlur stdDeviation="1"/>
<feColorMatrix type="matrix" values="0 0 0 0 0.0705882 0 0 0 0 0.0980392 0 0 0 0 0.380392 0 0 0 0.06 0"/>
<feBlend mode="normal" in2="BackgroundImageFix" result="effect1_dropShadow_1386_101503"/>
<feColorMatrix in="SourceAlpha" type="matrix" values="0 0 0 0 0 0 0 0 0 0 0 0 0 0 0 0 0 0 127 0" result="hardAlpha"/>
<feOffset dy="1"/>
<feGaussianBlur stdDeviation="1.5"/>
<feColorMatrix type="matrix" values="0 0 0 0 0.0705882 0 0 0 0 0.0980392 0 0 0 0 0.380392 0 0 0 0.1 0"/>
<feBlend mode="normal" in2="effect1_dropShadow_1386_101503" result="effect2_dropShadow_1386_101503"/>
<feBlend mode="normal" in="SourceGraphic" in2="effect2_dropShadow_1386_101503" result="shape"/>
</filter>
</defs>
</svg>
