<svg width="149" height="155" viewBox="0 0 149 155" fill="none" xmlns="http://www.w3.org/2000/svg">
<path d="M66.875 21.075C66.175 21.075 65.5917 20.8417 65.125 20.375C64.6583 19.9083 64.425 19.325 64.425 18.625V4.7C64.425 4.2 64.554 3.89167 64.812 3.775C65.0707 3.65833 65.3833 3.775 65.75 4.125L66.175 4.575L66.975 3.75C67.0917 3.63333 67.225 3.54167 67.375 3.475C67.525 3.40833 67.675 3.375 67.825 3.375C67.975 3.375 68.125 3.40833 68.275 3.475C68.425 3.54167 68.5667 3.64167 68.7 3.775L69.5 4.575L70.3 3.775C70.4333 3.64167 70.575 3.54167 70.725 3.475C70.875 3.40833 71.025 3.375 71.175 3.375C71.325 3.375 71.475 3.40833 71.625 3.475C71.775 3.54167 71.9083 3.63333 72.025 3.75L72.825 4.575L73.65 3.75C73.7667 3.61667 73.9 3.52067 74.05 3.462C74.2 3.404 74.35 3.375 74.5 3.375C74.65 3.375 74.8 3.404 74.95 3.462C75.1 3.52067 75.2333 3.61667 75.35 3.75L76.175 4.575L76.975 3.75C77.0917 3.63333 77.225 3.54167 77.375 3.475C77.525 3.40833 77.675 3.375 77.825 3.375C77.975 3.375 78.125 3.40833 78.275 3.475C78.425 3.54167 78.5667 3.64167 78.7 3.775L79.5 4.575L80.3 3.775C80.4333 3.64167 80.575 3.54167 80.725 3.475C80.875 3.40833 81.025 3.375 81.175 3.375C81.325 3.375 81.475 3.40833 81.625 3.475C81.775 3.54167 81.9083 3.63333 82.025 3.75L82.825 4.575L83.25 4.125C83.6167 3.775 83.9293 3.65833 84.188 3.775C84.446 3.89167 84.575 4.2 84.575 4.7V18.625C84.575 19.325 84.3417 19.9083 83.875 20.375C83.4083 20.8417 82.825 21.075 82.125 21.075H66.875ZM66.875 18.925H73.425V13.075H66.575V18.625C66.575 18.7083 66.604 18.779 66.662 18.837C66.7207 18.8957 66.7917 18.925 66.875 18.925ZM75.575 18.925H82.125C82.2083 18.925 82.279 18.8957 82.337 18.837C82.3957 18.779 82.425 18.7083 82.425 18.625V17.075H75.575V18.925ZM75.575 14.925H82.425V13.075H75.575V14.925ZM66.575 10.925H82.425V7.975H66.575V10.925Z" fill="#F15A2B"/>
<rect x="40.5" y="29" width="68" height="4" rx="2" fill="#C3C5DB"/>
<rect y="45" width="31" height="4" rx="2" fill="#D5D7E9"/>
<rect x="0.5" y="55.5" width="68" height="13" rx="1.5" fill="#FDFDFF" stroke="#D5D7E9"/>
<rect x="80" y="45" width="31" height="4" rx="2" fill="#D5D7E9"/>
<rect x="80.5" y="55.5" width="68" height="13" rx="1.5" fill="#FDFDFF" stroke="#D5D7E9"/>
<rect y="81" width="53" height="4" rx="2" fill="#D5D7E9"/>
<rect x="0.5" y="91.5" width="148" height="13" rx="1.5" fill="#FDFDFF"/>
<rect x="0.5" y="91.5" width="148" height="13" rx="1.5" fill="#FDFDFF" stroke="#D5D7E9"/>
<rect x="0.5" y="91.5" width="148" height="13" rx="1.5" stroke="#D5D7E9"/>
<rect x="0.5" y="117.5" width="7" height="7" rx="1.5" stroke="#E4E9EB"/>
<path d="M3.33333 121.626L5.43096 119.529C5.56114 119.398 5.77219 119.398 5.90237 119.529C6.03254 119.659 6.03254 119.87 5.90237 120L3.33333 122.569L2.09763 121.333C1.96746 121.203 1.96746 120.992 2.09763 120.862C2.22781 120.732 2.43886 120.732 2.56904 120.862L3.33333 121.626Z" fill="#F15A2B"/>
<rect x="13" y="119" width="66" height="4" rx="2" fill="#D5D7E9"/>
<g filter="url(#filter0_dd_1386_101627)">
<rect x="40" y="137" width="69" height="14" rx="7" fill="#F15A2B"/>
<path fill-rule="evenodd" clip-rule="evenodd" d="M58 147C59.6569 147 61 145.657 61 144C61 142.343 59.6569 141 58 141C56.3431 141 55 142.343 55 144C55 145.657 56.3431 147 58 147ZM59.3902 143.515C59.5366 143.369 59.5366 143.131 59.3902 142.985C59.2437 142.838 59.0063 142.838 58.8598 142.985L57.625 144.22L57.1402 143.735C56.9937 143.588 56.7563 143.588 56.6098 143.735C56.4634 143.881 56.4634 144.119 56.6098 144.265L57.3598 145.015C57.5063 145.162 57.7437 145.162 57.8902 145.015L59.3902 143.515Z" fill="white"/>
<rect x="65" y="142.5" width="29" height="3" rx="1.5" fill="white"/>
</g>
<defs>
<filter id="filter0_dd_1386_101627" x="37" y="135" width="75" height="20" filterUnits="userSpaceOnUse" color-interpolation-filters="sRGB">
<feFlood flood-opacity="0" result="BackgroundImageFix"/>
<feColorMatrix in="SourceAlpha" type="matrix" values="0 0 0 0 0 0 0 0 0 0 0 0 0 0 0 0 0 0 127 0" result="hardAlpha"/>
<feOffset dy="1"/>
<feGaussianBlur stdDeviation="1"/>
<feColorMatrix type="matrix" values="0 0 0 0 0.0705882 0 0 0 0 0.0980392 0 0 0 0 0.380392 0 0 0 0.06 0"/>
<feBlend mode="normal" in2="BackgroundImageFix" result="effect1_dropShadow_1386_101627"/>
<feColorMatrix in="SourceAlpha" type="matrix" values="0 0 0 0 0 0 0 0 0 0 0 0 0 0 0 0 0 0 127 0" result="hardAlpha"/>
<feOffset dy="1"/>
<feGaussianBlur stdDeviation="1.5"/>
<feColorMatrix type="matrix" values="0 0 0 0 0.0705882 0 0 0 0 0.0980392 0 0 0 0 0.380392 0 0 0 0.1 0"/>
<feBlend mode="normal" in2="effect1_dropShadow_1386_101627" result="effect2_dropShadow_1386_101627"/>
<feBlend mode="normal" in="SourceGraphic" in2="effect2_dropShadow_1386_101627" result="shape"/>
</filter>
</defs>
</svg>
