<svg width="153" height="220" viewBox="0 0 153 220" fill="none" xmlns="http://www.w3.org/2000/svg">
<path d="M83.0118 8.55237C82.5903 8.58214 82.7718 8.54656 82.4622 8.63007H82.4623C81.9765 8.78773 81.3528 9.1269 80.7779 9.5198C79.6909 10.2643 78.4702 11.336 77.852 12.1746C77.2298 13.021 76.8086 13.645 76.3455 14.4669L76.3399 14.4768L76.3349 14.4871L76.2005 14.7613C75.6393 14.1956 74.9074 13.72 74.088 13.6961C73.1979 13.6982 72.5543 13.9281 72.3204 14.4588C72.0675 15.0252 72.2337 15.3367 72.9391 15.8595C73.0976 15.9776 73.3714 16.2215 73.5326 16.39C74.1603 17.0373 74.57 17.6533 74.9961 18.6197C75.3494 19.4212 75.9299 19.97 76.4261 19.97C76.8278 19.97 76.9615 19.9435 77.1964 19.7996C77.3416 19.7012 77.4849 19.5932 77.5843 19.4458L77.5852 19.4465L77.5919 19.4361L77.5999 19.4259L77.5988 19.4252C77.8448 19.0391 77.9674 18.5829 78.1627 18.1721C78.6434 16.9839 78.8985 16.4209 79.3141 15.6247C80.1983 13.9356 81.5035 12.2657 83.0681 10.6911C83.3571 10.3992 83.6129 10.1113 83.6786 9.98924L83.6842 9.97859C83.8337 9.67989 83.8252 9.33354 83.6644 9.02951C83.5136 8.76542 83.3229 8.59509 83.0118 8.55237Z" fill="#FF4F00"/>
<path d="M87.235 5.67175C87.7988 5.67175 88 6.00826 88 6.42206C88 6.83687 87.7994 7.17233 87.235 7.17237H68.768C68.2019 7.17233 67.9999 6.83715 67.9999 6.42206C67.9999 6.00854 68.2028 5.67175 68.768 5.67175H87.235Z" fill="#FF4F00"/>
<path d="M87.235 2.83582C87.7988 2.83582 88 3.17232 88 3.58612C88 4.00093 87.7994 4.33639 87.235 4.33643H68.7679C68.2019 4.33639 67.9999 4.00122 67.9999 3.58612C67.9999 3.17256 68.2028 2.83582 68.768 2.83582H87.235Z" fill="#FF4F00"/>
<path d="M87.235 3.62676e-09C87.7988 -4.03398e-05 88 0.336505 88 0.750307C88 1.16512 87.7994 1.50057 87.235 1.50061H68.7679C68.2019 1.50057 67.9999 1.1654 67.9999 0.750307C67.9999 0.336747 68.2028 -4.03398e-05 68.768 3.62676e-09H87.235Z" fill="#FF4F00"/>
<rect x="44" y="27.97" width="68" height="4" rx="2" fill="#C3C5DB"/>
<rect x="3.5" y="43.97" width="31" height="4" rx="2" fill="#D5D7E9"/>
<circle cx="7.5" cy="57.97" r="3.5" fill="white" stroke="#FF4F00"/>
<circle cx="7.5" cy="57.97" r="3" fill="#FF4F00"/>
<circle cx="7.5" cy="57.97" r="1" fill="white"/>
<rect x="14.5" y="55.97" width="14" height="4" rx="2" fill="#D5D7E9"/>
<circle cx="37.5" cy="57.97" r="3.5" fill="white" stroke="#E4E9EB"/>
<circle cx="37.5" cy="57.97" r="1" fill="#FF4F00"/>
<rect x="44.5" y="55.97" width="13" height="4" rx="2" fill="#D5D7E9"/>
<circle cx="66.5" cy="57.97" r="3.5" fill="white" stroke="#E4E9EB"/>
<circle cx="66.5" cy="57.97" r="1" fill="#FF4F00"/>
<rect x="73.5" y="55.97" width="17" height="4" rx="2" fill="#D5D7E9"/>
<circle cx="99.5" cy="57.97" r="3.5" fill="white" stroke="#E4E9EB"/>
<circle cx="99.5" cy="57.97" r="1" fill="#FF4F00"/>
<rect x="106.5" y="55.97" width="17" height="4" rx="2" fill="#D5D7E9"/>
<rect x="3.5" y="73.97" width="73" height="4" rx="2" fill="#D5D7E9"/>
<rect x="4" y="84.47" width="148" height="13" rx="1.5" fill="#FDFDFF"/>
<rect x="4" y="84.47" width="148" height="13" rx="1.5" stroke="#D5D7E9"/>
<rect x="4" y="84.47" width="148" height="13" rx="1.5" fill="#FDFDFF" stroke="#D5D7E9"/>
<rect x="3.5" y="109.97" width="53" height="4" rx="2" fill="#D5D7E9"/>
<rect x="4" y="120.47" width="68" height="13" rx="1.5" fill="#FDFDFF" stroke="#D5D7E9"/>
<path fill-rule="evenodd" clip-rule="evenodd" d="M62.6757 125.241C62.9101 125.007 63.2899 125.007 63.5243 125.241L65.5 127.217L67.4757 125.241C67.7101 125.007 68.0899 125.007 68.3243 125.241C68.5586 125.476 68.5586 125.856 68.3243 126.09L65.9243 128.49C65.6899 128.724 65.3101 128.724 65.0757 128.49L62.6757 126.09C62.4414 125.856 62.4414 125.476 62.6757 125.241Z" fill="#D5D7E9"/>
<rect x="3.5" y="145.97" width="31" height="4" rx="2" fill="#D5D7E9"/>
<rect x="4" y="156.47" width="43" height="13" rx="1.5" fill="#FDFDFF" stroke="#D5D7E9"/>
<rect x="56" y="145.97" width="31" height="4" rx="2" fill="#D5D7E9"/>
<rect x="56.5" y="156.47" width="43" height="13" rx="1.5" fill="#FDFDFF" stroke="#D5D7E9"/>
<rect x="108.5" y="145.97" width="31" height="4" rx="2" fill="#D5D7E9"/>
<rect x="109" y="156.47" width="43" height="13" rx="1.5" fill="#FDFDFF" stroke="#D5D7E9"/>
<rect x="4" y="182.47" width="7" height="7" rx="1.5" stroke="#E4E9EB"/>
<path d="M6.83333 186.596L8.93096 184.499C9.06114 184.368 9.27219 184.368 9.40237 184.499C9.53254 184.629 9.53254 184.84 9.40237 184.97L6.83333 187.539L5.59763 186.303C5.46746 186.173 5.46746 185.962 5.59763 185.832C5.72781 185.702 5.93886 185.702 6.06904 185.832L6.83333 186.596Z" fill="#FF4F00"/>
<rect x="16.5" y="183.97" width="18" height="4" rx="2" fill="#D5D7E9"/>
<rect x="39.5" y="183.97" width="18" height="4" rx="2" fill="#D5D7E9"/>
<g filter="url(#filter0_dd_16041_25630)">
<rect x="3.5" y="201.97" width="69" height="14" rx="7" fill="#FF4F00"/>
<path fill-rule="evenodd" clip-rule="evenodd" d="M21.5 211.97C23.1569 211.97 24.5 210.627 24.5 208.97C24.5 207.313 23.1569 205.97 21.5 205.97C19.8431 205.97 18.5 207.313 18.5 208.97C18.5 210.627 19.8431 211.97 21.5 211.97ZM22.8902 208.485C23.0366 208.339 23.0366 208.101 22.8902 207.955C22.7437 207.808 22.5063 207.808 22.3598 207.955L21.125 209.19L20.6402 208.705C20.4937 208.558 20.2563 208.558 20.1098 208.705C19.9634 208.851 19.9634 209.089 20.1098 209.235L20.8598 209.985C21.0063 210.132 21.2437 210.132 21.3902 209.985L22.8902 208.485Z" fill="white"/>
<rect x="28.5" y="207.47" width="29" height="3" rx="1.5" fill="white"/>
</g>
<defs>
<filter id="filter0_dd_16041_25630" x="0.5" y="199.97" width="75" height="20" filterUnits="userSpaceOnUse" color-interpolation-filters="sRGB">
<feFlood flood-opacity="0" result="BackgroundImageFix"/>
<feColorMatrix in="SourceAlpha" type="matrix" values="0 0 0 0 0 0 0 0 0 0 0 0 0 0 0 0 0 0 127 0" result="hardAlpha"/>
<feOffset dy="1"/>
<feGaussianBlur stdDeviation="1"/>
<feColorMatrix type="matrix" values="0 0 0 0 0.0705882 0 0 0 0 0.0980392 0 0 0 0 0.380392 0 0 0 0.06 0"/>
<feBlend mode="normal" in2="BackgroundImageFix" result="effect1_dropShadow_16041_25630"/>
<feColorMatrix in="SourceAlpha" type="matrix" values="0 0 0 0 0 0 0 0 0 0 0 0 0 0 0 0 0 0 127 0" result="hardAlpha"/>
<feOffset dy="1"/>
<feGaussianBlur stdDeviation="1.5"/>
<feColorMatrix type="matrix" values="0 0 0 0 0.0705882 0 0 0 0 0.0980392 0 0 0 0 0.380392 0 0 0 0.1 0"/>
<feBlend mode="normal" in2="effect1_dropShadow_16041_25630" result="effect2_dropShadow_16041_25630"/>
<feBlend mode="normal" in="SourceGraphic" in2="effect2_dropShadow_16041_25630" result="shape"/>
</filter>
</defs>
</svg>
