<svg width="153" height="204" viewBox="0 0 153 204" fill="none" xmlns="http://www.w3.org/2000/svg">
<path d="M80.425 10.975C80.8417 10.975 81.1873 10.8373 81.462 10.562C81.7373 10.2873 81.875 9.94167 81.875 9.525C81.875 9.10833 81.7373 8.76233 81.462 8.487C81.1873 8.21233 80.8417 8.075 80.425 8.075C80.0083 8.075 79.6627 8.21233 79.388 8.487C79.1127 8.76233 78.975 9.10833 78.975 9.525C78.975 9.94167 79.1127 10.2873 79.388 10.562C79.6627 10.8373 80.0083 10.975 80.425 10.975ZM73.575 10.975C73.9917 10.975 74.3377 10.8373 74.613 10.562C74.8877 10.2873 75.025 9.94167 75.025 9.525C75.025 9.10833 74.8877 8.76233 74.613 8.487C74.3377 8.21233 73.9917 8.075 73.575 8.075C73.1583 8.075 72.8123 8.21233 72.537 8.487C72.2623 8.76233 72.125 9.10833 72.125 9.525C72.125 9.94167 72.2623 10.2873 72.537 10.562C72.8123 10.8373 73.1583 10.975 73.575 10.975ZM77 17.35C77.9333 17.35 78.7833 17.1417 79.55 16.725C80.3167 16.3083 80.9167 15.7667 81.35 15.1C81.5333 14.8333 81.5583 14.579 81.425 14.337C81.2917 14.0957 81.0833 13.975 80.8 13.975C80.6833 13.975 80.5667 14.004 80.45 14.062C80.3333 14.1207 80.25 14.2 80.2 14.3C79.8333 14.7833 79.375 15.1793 78.825 15.488C78.275 15.796 77.6667 15.95 77 15.95C76.3333 15.95 75.7293 15.796 75.188 15.488C74.646 15.1793 74.1917 14.7833 73.825 14.3C73.7583 14.2 73.6623 14.1207 73.537 14.062C73.4123 14.004 73.3 13.975 73.2 13.975C72.9167 13.975 72.7083 14.0957 72.575 14.337C72.4417 14.579 72.4667 14.825 72.65 15.075C73.0833 15.7583 73.6833 16.3083 74.45 16.725C75.2167 17.1417 76.0667 17.35 77 17.35ZM77 21.75C75.65 21.75 74.3833 21.4917 73.2 20.975C72.0167 20.4583 70.9877 19.7623 70.113 18.887C69.2377 18.0123 68.5417 16.9833 68.025 15.8C67.5083 14.6167 67.25 13.35 67.25 12C67.25 10.65 67.5083 9.38333 68.025 8.2C68.5417 7.01667 69.2377 5.98333 70.113 5.1C70.9877 4.21667 72.0167 3.52067 73.2 3.012C74.3833 2.504 75.65 2.25 77 2.25C78.35 2.25 79.6167 2.50833 80.8 3.025C81.9833 3.54167 83.0167 4.23733 83.9 5.112C84.7833 5.98733 85.4793 7.01667 85.988 8.2C86.496 9.38333 86.75 10.65 86.75 12C86.75 13.35 86.4917 14.6167 85.975 15.8C85.4583 16.9833 84.7627 18.0123 83.888 18.887C83.0127 19.7623 81.9833 20.4583 80.8 20.975C79.6167 21.4917 78.35 21.75 77 21.75ZM77 19.875C79.1833 19.875 81.0417 19.104 82.575 17.562C84.1083 16.0207 84.875 14.1667 84.875 12C84.875 9.81667 84.1083 7.95833 82.575 6.425C81.0417 4.89167 79.1833 4.125 77 4.125C74.8333 4.125 72.9793 4.89167 71.438 6.425C69.896 7.95833 69.125 9.81667 69.125 12C69.125 14.1667 69.896 16.0207 71.438 17.562C72.9793 19.104 74.8333 19.875 77 19.875Z" fill="#F15A2B"/>
<rect x="48" y="32" width="58" height="4" rx="2" fill="#C3C5DB"/>
<rect x="3" y="48" width="31" height="4" rx="2" fill="#D5D7E9"/>
<rect x="3.5" y="58.5" width="68" height="13" rx="1.5" fill="#FDFDFF" stroke="#D5D7E9"/>
<rect x="83" y="48" width="31" height="4" rx="2" fill="#D5D7E9"/>
<rect x="83.5" y="58.5" width="68" height="13" rx="1.5" fill="#FDFDFF" stroke="#D5D7E9"/>
<rect x="3" y="84" width="53" height="4" rx="2" fill="#D5D7E9"/>
<rect x="3.5" y="94.5" width="148" height="13" rx="1.5" fill="#FDFDFF"/>
<rect x="3.5" y="94.5" width="148" height="13" rx="1.5" fill="#FDFDFF" stroke="#D5D7E9"/>
<rect x="3.5" y="94.5" width="148" height="13" rx="1.5" stroke="#D5D7E9"/>
<rect x="3" y="120" width="31" height="4" rx="2" fill="#D5D7E9"/>
<path d="M6.48832 130.372C6.64938 129.876 7.35062 129.876 7.51168 130.372L8.08712 132.143C8.15914 132.364 8.36572 132.515 8.5988 132.515H10.461C10.9821 132.515 11.1988 133.181 10.7772 133.488L9.27067 134.582C9.08211 134.719 9.0032 134.962 9.07523 135.184L9.65067 136.955C9.81172 137.451 9.2444 137.863 8.82276 137.556L7.31623 136.462C7.12767 136.325 6.87233 136.325 6.68377 136.462L5.17724 137.556C4.7556 137.863 4.18828 137.451 4.34933 136.955L4.92477 135.184C4.9968 134.962 4.91789 134.719 4.72933 134.582L3.22281 133.488C2.80116 133.181 3.01786 132.515 3.53904 132.515H5.4012C5.63428 132.515 5.84086 132.364 5.91288 132.143L6.48832 130.372Z" fill="#FFBE03"/>
<path d="M15.4883 130.372C15.6494 129.876 16.3506 129.876 16.5117 130.372L17.0871 132.143C17.1591 132.364 17.3657 132.515 17.5988 132.515H19.461C19.9821 132.515 20.1988 133.181 19.7772 133.488L18.2707 134.582C18.0821 134.719 18.0032 134.962 18.0752 135.184L18.6507 136.955C18.8117 137.451 18.2444 137.863 17.8228 137.556L16.3162 136.462C16.1277 136.325 15.8723 136.325 15.6838 136.462L14.1772 137.556C13.7556 137.863 13.1883 137.451 13.3493 136.955L13.9248 135.184C13.9968 134.962 13.9179 134.719 13.7293 134.582L12.2228 133.488C11.8012 133.181 12.0179 132.515 12.539 132.515H14.4012C14.6343 132.515 14.8409 132.364 14.9129 132.143L15.4883 130.372Z" fill="#FFBE03"/>
<path d="M24.4883 130.372C24.6494 129.876 25.3506 129.876 25.5117 130.372L26.0871 132.143C26.1591 132.364 26.3657 132.515 26.5988 132.515H28.461C28.9821 132.515 29.1988 133.181 28.7772 133.488L27.2707 134.582C27.0821 134.719 27.0032 134.962 27.0752 135.184L27.6507 136.955C27.8117 137.451 27.2444 137.863 26.8228 137.556L25.3162 136.462C25.1277 136.325 24.8723 136.325 24.6838 136.462L23.1772 137.556C22.7556 137.863 22.1883 137.451 22.3493 136.955L22.9248 135.184C22.9968 134.962 22.9179 134.719 22.7293 134.582L21.2228 133.488C20.8012 133.181 21.0179 132.515 21.539 132.515H23.4012C23.6343 132.515 23.8409 132.364 23.9129 132.143L24.4883 130.372Z" fill="#FFBE03"/>
<path d="M33.4883 130.372C33.6494 129.876 34.3506 129.876 34.5117 130.372L35.0871 132.143C35.1591 132.364 35.3657 132.515 35.5988 132.515H37.461C37.9821 132.515 38.1988 133.181 37.7772 133.488L36.2707 134.582C36.0821 134.719 36.0032 134.962 36.0752 135.184L36.6507 136.955C36.8117 137.451 36.2444 137.863 35.8228 137.556L34.3162 136.462C34.1277 136.325 33.8723 136.325 33.6838 136.462L32.1772 137.556C31.7556 137.863 31.1883 137.451 31.3493 136.955L31.9248 135.184C31.9968 134.962 31.9179 134.719 31.7293 134.582L30.2228 133.488C29.8012 133.181 30.0179 132.515 30.539 132.515H32.4012C32.6343 132.515 32.8409 132.364 32.9129 132.143L33.4883 130.372Z" fill="#FFBE03"/>
<path d="M42.4883 130.372C42.6494 129.876 43.3506 129.876 43.5117 130.372L44.0871 132.143C44.1591 132.364 44.3657 132.515 44.5988 132.515H46.461C46.9821 132.515 47.1988 133.181 46.7772 133.488L45.2707 134.582C45.0821 134.719 45.0032 134.962 45.0752 135.184L45.6507 136.955C45.8117 137.451 45.2444 137.863 44.8228 137.556L43.3162 136.462C43.1277 136.325 42.8723 136.325 42.6838 136.462L41.1772 137.556C40.7556 137.863 40.1883 137.451 40.3493 136.955L40.9248 135.184C40.9968 134.962 40.9179 134.719 40.7293 134.582L39.2228 133.488C38.8012 133.181 39.0179 132.515 39.539 132.515H41.4012C41.6343 132.515 41.8409 132.364 41.9129 132.143L42.4883 130.372Z" fill="#FFBE03"/>
<rect x="3" y="149.662" width="53" height="4" rx="2" fill="#D5D7E9"/>
<rect x="3.5" y="160.162" width="68" height="13" rx="1.5" fill="#FDFDFF" stroke="#D5D7E9"/>
<path fill-rule="evenodd" clip-rule="evenodd" d="M62.1757 164.933C62.4101 164.699 62.7899 164.699 63.0243 164.933L65 166.909L66.9757 164.933C67.2101 164.699 67.5899 164.699 67.8243 164.933C68.0586 165.167 68.0586 165.547 67.8243 165.782L65.4243 168.182C65.1899 168.416 64.8101 168.416 64.5757 168.182L62.1757 165.782C61.9414 165.547 61.9414 165.167 62.1757 164.933Z" fill="#D5D7E9"/>
<g filter="url(#filter0_dd_1386_101691)">
<rect x="3" y="185.662" width="69" height="14" rx="7" fill="#F15A2B"/>
<path fill-rule="evenodd" clip-rule="evenodd" d="M21 195.662C22.6569 195.662 24 194.318 24 192.662C24 191.005 22.6569 189.662 21 189.662C19.3431 189.662 18 191.005 18 192.662C18 194.318 19.3431 195.662 21 195.662ZM22.3902 192.177C22.5366 192.03 22.5366 191.793 22.3902 191.646C22.2437 191.5 22.0063 191.5 21.8598 191.646L20.625 192.881L20.1402 192.396C19.9937 192.25 19.7563 192.25 19.6098 192.396C19.4634 192.543 19.4634 192.78 19.6098 192.927L20.3598 193.677C20.5063 193.823 20.7437 193.823 20.8902 193.677L22.3902 192.177Z" fill="white"/>
<rect x="28" y="191.162" width="29" height="3" rx="1.5" fill="white"/>
</g>
<defs>
<filter id="filter0_dd_1386_101691" x="0" y="183.662" width="75" height="20" filterUnits="userSpaceOnUse" color-interpolation-filters="sRGB">
<feFlood flood-opacity="0" result="BackgroundImageFix"/>
<feColorMatrix in="SourceAlpha" type="matrix" values="0 0 0 0 0 0 0 0 0 0 0 0 0 0 0 0 0 0 127 0" result="hardAlpha"/>
<feOffset dy="1"/>
<feGaussianBlur stdDeviation="1"/>
<feColorMatrix type="matrix" values="0 0 0 0 0.0705882 0 0 0 0 0.0980392 0 0 0 0 0.380392 0 0 0 0.06 0"/>
<feBlend mode="normal" in2="BackgroundImageFix" result="effect1_dropShadow_1386_101691"/>
<feColorMatrix in="SourceAlpha" type="matrix" values="0 0 0 0 0 0 0 0 0 0 0 0 0 0 0 0 0 0 127 0" result="hardAlpha"/>
<feOffset dy="1"/>
<feGaussianBlur stdDeviation="1.5"/>
<feColorMatrix type="matrix" values="0 0 0 0 0.0705882 0 0 0 0 0.0980392 0 0 0 0 0.380392 0 0 0 0.1 0"/>
<feBlend mode="normal" in2="effect1_dropShadow_1386_101691" result="effect2_dropShadow_1386_101691"/>
<feBlend mode="normal" in="SourceGraphic" in2="effect2_dropShadow_1386_101691" result="shape"/>
</filter>
</defs>
</svg>
