<svg width="153" height="230" viewBox="0 0 153 230" fill="none" xmlns="http://www.w3.org/2000/svg">
<g clip-path="url(#clip0_16043_35818)">
<path d="M78.006 9.98218C75.3131 9.98218 73.1172 12.1768 73.1172 14.871C73.3741 21.3601 82.6379 21.3576 82.8936 14.871C82.8936 12.178 80.699 9.98218 78.0048 9.98218H78.006ZM80.2397 14.0682L77.7077 16.5931C77.4556 16.8547 77.0484 16.85 76.7951 16.5931L75.3841 15.1821C75.132 14.93 75.132 14.5216 75.3841 14.2695C75.6363 14.0174 76.0446 14.0174 76.2968 14.2695L77.2556 15.2212L79.3271 13.1497C79.9296 12.5531 80.8351 13.4681 80.2397 14.0694V14.0682Z" fill="#FF4F00"/>
<path d="M75.3318 4.91945C75.4289 5.01651 75.468 5.14553 75.4478 5.27575L75.2466 6.44763C75.1756 6.84299 75.3377 7.23717 75.6609 7.47036C75.9911 7.70946 76.4114 7.74261 76.7677 7.5544L77.8164 6.99806C77.9324 6.94006 78.0756 6.94006 78.1917 6.99806C78.5195 7.13301 79.3588 7.72249 79.7328 7.67161C80.3519 7.68818 80.8941 7.06909 80.7627 6.44764L80.5614 5.27576C80.5425 5.14674 80.5804 5.01653 80.6774 4.91946L81.5262 4.09679C82.1488 3.52861 81.7889 2.39461 80.9438 2.30346L79.7719 2.13537C79.6429 2.11643 79.5257 2.03239 79.4677 1.9152C79.1256 1.31623 78.8888 0.230776 78.0046 0.263928C77.1204 0.230782 76.8848 1.31269 76.5416 1.9152C76.4835 2.0312 76.3664 2.11643 76.2373 2.13537C75.5662 2.2715 74.4511 2.16852 74.2167 3.01604C73.9078 3.84464 74.8607 4.41283 75.3306 4.91943L75.3318 4.91945Z" fill="#FF4F00"/>
<path d="M72.1597 4.88761L70.9878 4.71242C70.8588 4.69348 70.7416 4.61536 70.6836 4.49225L70.1592 3.43046C69.8183 2.66343 68.6227 2.66222 68.2818 3.43046L67.7574 4.49816C67.6994 4.61416 67.5822 4.69229 67.4532 4.71241C66.7833 4.85327 65.6646 4.75384 65.4326 5.59902C65.1284 6.42644 66.0813 6.99344 66.5465 7.50241C66.6436 7.59356 66.6885 7.7285 66.6625 7.85872L66.4613 9.02469C66.292 9.85447 67.2473 10.5529 67.9823 10.1314L69.0311 9.58102C69.1471 9.51592 69.2903 9.51592 69.4063 9.58102L70.4551 10.1314C71.1866 10.5481 72.1537 9.85564 71.9761 9.02469L71.7749 7.85872C71.756 7.72969 71.7939 7.59356 71.8909 7.50241L72.7396 6.67381C73.3646 6.10917 72.9989 4.97753 72.1573 4.88641L72.1597 4.88761Z" fill="#FF4F00"/>
<path d="M90.3142 6.67366C90.9333 6.10666 90.5758 4.97739 89.7319 4.88627L88.56 4.71108C88.4309 4.69214 88.3138 4.61402 88.2558 4.49091L87.7314 3.42912C87.3905 2.66209 86.1949 2.66088 85.854 3.42912L85.3296 4.49682C85.2716 4.61282 85.1544 4.69095 85.0254 4.71107L83.8476 4.88626C83.0143 4.97859 82.6462 6.11023 83.2712 6.67365L84.1199 7.50226C84.2169 7.5934 84.256 7.72835 84.2359 7.85856C84.1589 8.54274 83.7162 9.56311 84.4501 10.0532C85.1592 10.5965 85.9665 9.86851 86.6057 9.58086C86.7217 9.51576 86.8578 9.51576 86.9809 9.58086L88.0297 10.1313C88.7636 10.548 89.7212 9.85785 89.5507 9.02453L89.3495 7.85856C89.3235 7.72954 89.3685 7.59341 89.4655 7.50226L90.3142 6.67366Z" fill="#FF4F00"/>
</g>
<rect x="44" y="28" width="68" height="4" rx="2" fill="#C3C5DB"/>
<rect x="3.5" y="44" width="31" height="4" rx="2" fill="#D5D7E9"/>
<circle cx="7.5" cy="58" r="3.5" fill="white" stroke="#FF4F00"/>
<circle cx="7.5" cy="58" r="3" fill="#FF4F00"/>
<circle cx="7.5" cy="58" r="1" fill="white"/>
<rect x="14.5" y="56" width="14" height="4" rx="2" fill="#D5D7E9"/>
<circle cx="37.5" cy="58" r="3.5" fill="white" stroke="#E4E9EB"/>
<circle cx="37.5" cy="58" r="1" fill="#FF4F00"/>
<rect x="44.5" y="56" width="13" height="4" rx="2" fill="#D5D7E9"/>
<circle cx="66.5" cy="58" r="3.5" fill="white" stroke="#E4E9EB"/>
<circle cx="66.5" cy="58" r="1" fill="#FF4F00"/>
<rect x="73.5" y="56" width="17" height="4" rx="2" fill="#D5D7E9"/>
<rect x="3.5" y="74" width="73" height="4" rx="2" fill="#D5D7E9"/>
<rect x="4" y="84.5" width="148" height="13" rx="1.5" fill="#FDFDFF"/>
<rect x="4" y="84.5" width="148" height="13" rx="1.5" stroke="#D5D7E9"/>
<rect x="4" y="84.5" width="148" height="13" rx="1.5" fill="#FDFDFF" stroke="#D5D7E9"/>
<rect x="3.5" y="110" width="31" height="4" rx="2" fill="#D5D7E9"/>
<path d="M6.98832 120.372C7.14938 119.876 7.85062 119.876 8.01168 120.372L8.58712 122.143C8.65914 122.364 8.86572 122.515 9.0988 122.515H10.961C11.4821 122.515 11.6988 123.181 11.2772 123.488L9.77067 124.582C9.58211 124.719 9.5032 124.962 9.57523 125.184L10.1507 126.955C10.3117 127.451 9.7444 127.863 9.32276 127.556L7.81623 126.462C7.62767 126.325 7.37233 126.325 7.18377 126.462L5.67724 127.556C5.2556 127.863 4.68828 127.451 4.84933 126.955L5.42477 125.184C5.4968 124.962 5.41789 124.719 5.22933 124.582L3.72281 123.488C3.30116 123.181 3.51786 122.515 4.03904 122.515H5.9012C6.13428 122.515 6.34086 122.364 6.41288 122.143L6.98832 120.372Z" fill="#FFBE03"/>
<path d="M15.9883 120.372C16.1494 119.876 16.8506 119.876 17.0117 120.372L17.5871 122.143C17.6591 122.364 17.8657 122.515 18.0988 122.515H19.961C20.4821 122.515 20.6988 123.181 20.2772 123.488L18.7707 124.582C18.5821 124.719 18.5032 124.962 18.5752 125.184L19.1507 126.955C19.3117 127.451 18.7444 127.863 18.3228 127.556L16.8162 126.462C16.6277 126.325 16.3723 126.325 16.1838 126.462L14.6772 127.556C14.2556 127.863 13.6883 127.451 13.8493 126.955L14.4248 125.184C14.4968 124.962 14.4179 124.719 14.2293 124.582L12.7228 123.488C12.3012 123.181 12.5179 122.515 13.039 122.515H14.9012C15.1343 122.515 15.3409 122.364 15.4129 122.143L15.9883 120.372Z" fill="#FFBE03"/>
<path d="M24.9883 120.372C25.1494 119.876 25.8506 119.876 26.0117 120.372L26.5871 122.143C26.6591 122.364 26.8657 122.515 27.0988 122.515H28.961C29.4821 122.515 29.6988 123.181 29.2772 123.488L27.7707 124.582C27.5821 124.719 27.5032 124.962 27.5752 125.184L28.1507 126.955C28.3117 127.451 27.7444 127.863 27.3228 127.556L25.8162 126.462C25.6277 126.325 25.3723 126.325 25.1838 126.462L23.6772 127.556C23.2556 127.863 22.6883 127.451 22.8493 126.955L23.4248 125.184C23.4968 124.962 23.4179 124.719 23.2293 124.582L21.7228 123.488C21.3012 123.181 21.5179 122.515 22.039 122.515H23.9012C24.1343 122.515 24.3409 122.364 24.4129 122.143L24.9883 120.372Z" fill="#FFBE03"/>
<path d="M33.9883 120.372C34.1494 119.876 34.8506 119.876 35.0117 120.372L35.5871 122.143C35.6591 122.364 35.8657 122.515 36.0988 122.515H37.961C38.4821 122.515 38.6988 123.181 38.2772 123.488L36.7707 124.582C36.5821 124.719 36.5032 124.962 36.5752 125.184L37.1507 126.955C37.3117 127.451 36.7444 127.863 36.3228 127.556L34.8162 126.462C34.6277 126.325 34.3723 126.325 34.1838 126.462L32.6772 127.556C32.2556 127.863 31.6883 127.451 31.8493 126.955L32.4248 125.184C32.4968 124.962 32.4179 124.719 32.2293 124.582L30.7228 123.488C30.3012 123.181 30.5179 122.515 31.039 122.515H32.9012C33.1343 122.515 33.3409 122.364 33.4129 122.143L33.9883 120.372Z" fill="#FFBE03"/>
<path d="M42.9883 120.372C43.1494 119.876 43.8506 119.876 44.0117 120.372L44.5871 122.143C44.6591 122.364 44.8657 122.515 45.0988 122.515H46.961C47.4821 122.515 47.6988 123.181 47.2772 123.488L45.7707 124.582C45.5821 124.719 45.5032 124.962 45.5752 125.184L46.1507 126.955C46.3117 127.451 45.7444 127.863 45.3228 127.556L43.8162 126.462C43.6277 126.325 43.3723 126.325 43.1838 126.462L41.6772 127.556C41.2556 127.863 40.6883 127.451 40.8493 126.955L41.4248 125.184C41.4968 124.962 41.4179 124.719 41.2293 124.582L39.7228 123.488C39.3012 123.181 39.5179 122.515 40.039 122.515H41.9012C42.1343 122.515 42.3409 122.364 42.4129 122.143L42.9883 120.372Z" fill="#FFBE03"/>
<rect x="3.5" y="139.662" width="53" height="4" rx="2" fill="#D5D7E9"/>
<rect x="4" y="150.162" width="68" height="13" rx="1.5" fill="#FDFDFF" stroke="#D5D7E9"/>
<path fill-rule="evenodd" clip-rule="evenodd" d="M62.6757 154.933C62.9101 154.699 63.2899 154.699 63.5243 154.933L65.5 156.909L67.4757 154.933C67.7101 154.699 68.0899 154.699 68.3243 154.933C68.5586 155.167 68.5586 155.547 68.3243 155.782L65.9243 158.182C65.6899 158.416 65.3101 158.416 65.0757 158.182L62.6757 155.782C62.4414 155.547 62.4414 155.167 62.6757 154.933Z" fill="#D5D7E9"/>
<rect x="3.5" y="175.662" width="31" height="4" rx="2" fill="#D5D7E9"/>
<rect x="4" y="186.162" width="43" height="13" rx="1.5" fill="#FDFDFF" stroke="#D5D7E9"/>
<rect x="56" y="175.662" width="31" height="4" rx="2" fill="#D5D7E9"/>
<rect x="56.5" y="186.162" width="43" height="13" rx="1.5" fill="#FDFDFF" stroke="#D5D7E9"/>
<rect x="108.5" y="175.662" width="31" height="4" rx="2" fill="#D5D7E9"/>
<rect x="109" y="186.162" width="43" height="13" rx="1.5" fill="#FDFDFF" stroke="#D5D7E9"/>
<g filter="url(#filter0_dd_16043_35818)">
<rect x="3.5" y="211.662" width="69" height="14" rx="7" fill="#FF4F00"/>
<path fill-rule="evenodd" clip-rule="evenodd" d="M21.5 221.662C23.1569 221.662 24.5 220.318 24.5 218.662C24.5 217.005 23.1569 215.662 21.5 215.662C19.8431 215.662 18.5 217.005 18.5 218.662C18.5 220.318 19.8431 221.662 21.5 221.662ZM22.8902 218.177C23.0366 218.03 23.0366 217.793 22.8902 217.646C22.7437 217.5 22.5063 217.5 22.3598 217.646L21.125 218.881L20.6402 218.396C20.4937 218.25 20.2563 218.25 20.1098 218.396C19.9634 218.543 19.9634 218.78 20.1098 218.927L20.8598 219.677C21.0063 219.823 21.2437 219.823 21.3902 219.677L22.8902 218.177Z" fill="white"/>
<rect x="28.5" y="217.162" width="29" height="3" rx="1.5" fill="white"/>
</g>
<defs>
<filter id="filter0_dd_16043_35818" x="0.5" y="209.662" width="75" height="20" filterUnits="userSpaceOnUse" color-interpolation-filters="sRGB">
<feFlood flood-opacity="0" result="BackgroundImageFix"/>
<feColorMatrix in="SourceAlpha" type="matrix" values="0 0 0 0 0 0 0 0 0 0 0 0 0 0 0 0 0 0 127 0" result="hardAlpha"/>
<feOffset dy="1"/>
<feGaussianBlur stdDeviation="1"/>
<feColorMatrix type="matrix" values="0 0 0 0 0.0705882 0 0 0 0 0.0980392 0 0 0 0 0.380392 0 0 0 0.06 0"/>
<feBlend mode="normal" in2="BackgroundImageFix" result="effect1_dropShadow_16043_35818"/>
<feColorMatrix in="SourceAlpha" type="matrix" values="0 0 0 0 0 0 0 0 0 0 0 0 0 0 0 0 0 0 127 0" result="hardAlpha"/>
<feOffset dy="1"/>
<feGaussianBlur stdDeviation="1.5"/>
<feColorMatrix type="matrix" values="0 0 0 0 0.0705882 0 0 0 0 0.0980392 0 0 0 0 0.380392 0 0 0 0.1 0"/>
<feBlend mode="normal" in2="effect1_dropShadow_16043_35818" result="effect2_dropShadow_16043_35818"/>
<feBlend mode="normal" in="SourceGraphic" in2="effect2_dropShadow_16043_35818" result="shape"/>
</filter>
<clipPath id="clip0_16043_35818">
<rect width="25.4545" height="20" fill="white" transform="translate(65.2727)"/>
</clipPath>
</defs>
</svg>
