<svg width="153" height="210" viewBox="0 0 153 210" fill="none" xmlns="http://www.w3.org/2000/svg">
<path d="M69.175 19.675C68.9083 19.675 68.6877 19.5877 68.513 19.413C68.3377 19.2377 68.25 19.0167 68.25 18.75V17.025C68.25 16.475 68.3877 15.9707 68.663 15.512C68.9377 15.054 69.3167 14.7084 69.8 14.475C70.7167 14.0084 71.696 13.6374 72.738 13.362C73.7793 13.0874 74.875 12.95 76.025 12.95C76.525 12.95 77.0207 12.979 77.512 13.037C78.004 13.0957 78.475 13.175 78.925 13.275L77.325 14.9C77.125 14.8667 76.9167 14.8457 76.7 14.837C76.4833 14.829 76.2583 14.825 76.025 14.825C74.9583 14.825 73.9707 14.954 73.062 15.212C72.154 15.4707 71.3417 15.7834 70.625 16.15C70.475 16.2334 70.3543 16.35 70.263 16.5C70.171 16.65 70.125 16.825 70.125 17.025V17.8H76.475L78.325 19.675H69.175ZM81.45 19.725C81.3333 19.725 81.221 19.7044 81.113 19.663C81.0043 19.621 80.9083 19.5584 80.825 19.475L78.8 17.45C78.6167 17.2667 78.525 17.046 78.525 16.788C78.525 16.5294 78.6167 16.3084 78.8 16.125C78.9833 15.9417 79.2043 15.85 79.463 15.85C79.721 15.85 79.9417 15.95 80.125 16.15L81.475 17.5L85.8 13.15C85.9833 12.9834 86.2043 12.8957 86.463 12.887C86.721 12.879 86.9417 12.9667 87.125 13.15C87.3083 13.3334 87.4 13.554 87.4 13.812C87.4 14.0707 87.3083 14.2917 87.125 14.475L82.125 19.475C82.025 19.5584 81.9207 19.621 81.812 19.663C81.704 19.7044 81.5833 19.725 81.45 19.725ZM76.025 12.025C74.9417 12.025 74.025 11.6457 73.275 10.887C72.525 10.129 72.15 9.21669 72.15 8.15002C72.15 7.06669 72.5293 6.15002 73.288 5.40002C74.046 4.65002 74.9583 4.27502 76.025 4.27502C77.1083 4.27502 78.025 4.65002 78.775 5.40002C79.525 6.15002 79.9 7.06669 79.9 8.15002C79.9 9.21669 79.5207 10.129 78.762 10.887C78.004 11.6457 77.0917 12.025 76.025 12.025V12.025ZM76.025 10.15C76.575 10.15 77.046 9.95402 77.438 9.56202C77.8293 9.17069 78.025 8.70002 78.025 8.15002C78.025 7.60002 77.8293 7.12902 77.438 6.73702C77.046 6.34569 76.575 6.15002 76.025 6.15002C75.475 6.15002 75.0043 6.34569 74.613 6.73702C74.221 7.12902 74.025 7.60002 74.025 8.15002C74.025 8.70002 74.221 9.17069 74.613 9.56202C75.0043 9.95402 75.475 10.15 76.025 10.15Z" fill="#F15A2B"/>
<rect x="44" y="32" width="68" height="4" rx="2" fill="#C3C5DB"/>
<rect x="3" y="48" width="31" height="4" rx="2" fill="#D5D7E9"/>
<rect x="3.5" y="58.5" width="68" height="13" rx="1.5" fill="#FDFDFF" stroke="#D5D7E9"/>
<rect x="83" y="48" width="31" height="4" rx="2" fill="#D5D7E9"/>
<rect x="83.5" y="58.5" width="68" height="13" rx="1.5" fill="#FDFDFF" stroke="#D5D7E9"/>
<rect x="3" y="84" width="53" height="4" rx="2" fill="#D5D7E9"/>
<rect x="3.5" y="94.5" width="148" height="13" rx="1.5" fill="#FDFDFF"/>
<rect x="3.5" y="94.5" width="148" height="13" rx="1.5" fill="#FDFDFF" stroke="#D5D7E9"/>
<rect x="3.5" y="94.5" width="148" height="13" rx="1.5" stroke="#D5D7E9"/>
<rect x="3" y="120" width="53" height="4" rx="2" fill="#D5D7E9"/>
<rect x="3.5" y="130.5" width="68" height="13" rx="1.5" fill="#FDFDFF" stroke="#D5D7E9"/>
<path fill-rule="evenodd" clip-rule="evenodd" d="M62.1757 135.271C62.4101 135.037 62.7899 135.037 63.0243 135.271L65 137.247L66.9757 135.271C67.2101 135.037 67.5899 135.037 67.8243 135.271C68.0586 135.506 68.0586 135.886 67.8243 136.12L65.4243 138.52C65.1899 138.754 64.8101 138.754 64.5757 138.52L62.1757 136.12C61.9414 135.886 61.9414 135.506 62.1757 135.271Z" fill="#D5D7E9"/>
<rect x="3" y="156" width="31" height="4" rx="2" fill="#D5D7E9"/>
<rect x="3.5" y="166.5" width="43" height="13" rx="1.5" fill="#FDFDFF" stroke="#D5D7E9"/>
<rect x="55.5" y="156" width="31" height="4" rx="2" fill="#D5D7E9"/>
<rect x="56" y="166.5" width="43" height="13" rx="1.5" fill="#FDFDFF" stroke="#D5D7E9"/>
<rect x="108" y="156" width="31" height="4" rx="2" fill="#D5D7E9"/>
<rect x="108.5" y="166.5" width="43" height="13" rx="1.5" fill="#FDFDFF" stroke="#D5D7E9"/>
<g filter="url(#filter0_dd_1386_101815)">
<rect x="3" y="192" width="69" height="14" rx="7" fill="#F15A2B"/>
<path fill-rule="evenodd" clip-rule="evenodd" d="M21 202C22.6569 202 24 200.657 24 199C24 197.343 22.6569 196 21 196C19.3431 196 18 197.343 18 199C18 200.657 19.3431 202 21 202ZM22.3902 198.515C22.5366 198.369 22.5366 198.131 22.3902 197.985C22.2437 197.838 22.0063 197.838 21.8598 197.985L20.625 199.22L20.1402 198.735C19.9937 198.588 19.7563 198.588 19.6098 198.735C19.4634 198.881 19.4634 199.119 19.6098 199.265L20.3598 200.015C20.5063 200.162 20.7437 200.162 20.8902 200.015L22.3902 198.515Z" fill="white"/>
<rect x="28" y="197.5" width="29" height="3" rx="1.5" fill="white"/>
</g>
<defs>
<filter id="filter0_dd_1386_101815" x="0" y="190" width="75" height="20" filterUnits="userSpaceOnUse" color-interpolation-filters="sRGB">
<feFlood flood-opacity="0" result="BackgroundImageFix"/>
<feColorMatrix in="SourceAlpha" type="matrix" values="0 0 0 0 0 0 0 0 0 0 0 0 0 0 0 0 0 0 127 0" result="hardAlpha"/>
<feOffset dy="1"/>
<feGaussianBlur stdDeviation="1"/>
<feColorMatrix type="matrix" values="0 0 0 0 0.0705882 0 0 0 0 0.0980392 0 0 0 0 0.380392 0 0 0 0.06 0"/>
<feBlend mode="normal" in2="BackgroundImageFix" result="effect1_dropShadow_1386_101815"/>
<feColorMatrix in="SourceAlpha" type="matrix" values="0 0 0 0 0 0 0 0 0 0 0 0 0 0 0 0 0 0 127 0" result="hardAlpha"/>
<feOffset dy="1"/>
<feGaussianBlur stdDeviation="1.5"/>
<feColorMatrix type="matrix" values="0 0 0 0 0.0705882 0 0 0 0 0.0980392 0 0 0 0 0.380392 0 0 0 0.1 0"/>
<feBlend mode="normal" in2="effect1_dropShadow_1386_101815" result="effect2_dropShadow_1386_101815"/>
<feBlend mode="normal" in="SourceGraphic" in2="effect2_dropShadow_1386_101815" result="shape"/>
</filter>
</defs>
</svg>
