<svg width="251" height="41" fill="none" xmlns="http://www.w3.org/2000/svg"><path d="M37.242 27.092c0 1.838-1.296 4.057-2.915 5.008l-12.63 7.227c-1.619.95-4.274.95-5.894.063l-12.759-7.1c-1.62-.887-2.98-3.106-2.98-4.944L0 12.956c0-1.838 1.295-4.057 2.915-5.008L15.545.72c1.618-.95 4.274-.95 5.893-.063l12.76 7.1c1.619.887 2.979 3.106 2.979 4.944l.065 14.39z" fill="#F15A2B"/><path d="M15.026 16.696h16.71v-4.628H15.091c-2.396 0-4.34.824-5.894 2.41C5.57 18.28 5.44 27.915 5.44 27.915h26.167v-8.748h-4.728v4.057H10.492c.13-1.521.842-4.247 2.138-5.642.583-.57 1.36-.887 2.396-.887zM57.997 12c3.387 0 6.774 1.563 7.742 5.446h-3.58c-.872-1.61-2.226-2.226-4.162-2.226-3.193 0-4.983 2.32-4.983 5.304 0 3.125 1.935 5.256 4.983 5.256 2.323 0 4.065-.663 4.79-3.173h-4.645v-2.983h7.984c.096 1.563.048 3.125-.533 4.64C64.287 27.58 61.24 29 57.997 29c-4.5 0-8.708-2.983-8.708-8.476S53.546 12 57.997 12zM84.366 28.195v.474h-3.87l-3.484-5.446h-3.097v5.446h-3.628v-16.48h7.257c3.87 0 6 2.747 6 5.683 0 2.084-1.114 3.93-3.049 4.877l3.87 5.446zm-6.87-7.86c1.548 0 2.515-1.137 2.515-2.558 0-1.373-.967-2.51-2.515-2.51h-3.63v5.067h3.63zM92.155 26.017l-1.306 2.746h-3.774v-.473l7.838-16.195h1.693l7.789 16.195v.473h-3.773l-1.355-2.746h-7.112zm1.161-2.984h4.741l-2.37-5.445-2.371 5.445zM111.605 21.518l1.79-4.025 2.274-5.256h3.87v.473l-7.257 15.958h-1.5l-7.305-15.958v-.473h3.87l2.274 5.256 1.887 4.072h.097v-.047zM123.023 28.716V12.142h3.629v16.574h-3.629zM130.184 15.267v-3.03h14.321v3.078h-5.371v13.448h-3.532V15.267h-5.418zM154.472 18.914l1.693-3.268 2.032-3.41h3.871v.474l-5.855 9.376v6.63h-3.628v-6.63l-5.903-9.376v-.473h3.919l2.129 3.504 1.597 3.173h.145zM172.127 13.846v6.071h7.493v1.554h-7.493v7.286h-1.688V12.291h9.578v1.555h-7.89zM182.647 20.5c0-4.711 3.822-8.5 8.784-8.5 4.913 0 8.784 3.789 8.784 8.5s-3.821 8.5-8.784 8.5c-4.962 0-8.784-3.789-8.784-8.5zm15.831 0c0-3.837-3.027-6.897-7.047-6.897-4.019 0-7.047 3.06-7.047 6.897s3.028 6.897 7.047 6.897c3.97 0 7.047-3.06 7.047-6.897zM210.239 22.151h-4.764v6.558h-1.687V12.29h6.799c2.829 0 5.062 2.186 5.062 4.906 0 2.234-1.539 4.129-3.673 4.712l4.119 6.8h-1.935l-3.921-6.558zm-4.764-1.554h5.062c1.886 0 3.375-1.506 3.375-3.4s-1.539-3.4-3.375-3.4h-5.062v6.8zM234.755 28.709h-1.687v-13.94l-5.906 9.617h-.248l-5.905-9.617v13.94h-1.688V12.29h2.085l5.607 9.18 5.658-9.131h2.084v16.369zM238.179 25.017l1.439-.826c.596 1.992 2.184 3.255 4.864 3.255 2.58 0 3.97-1.215 3.97-2.963 0-1.894-1.687-2.526-4.169-3.303-2.779-.874-5.409-1.603-5.409-4.614 0-2.866 2.382-4.517 5.211-4.517 2.779 0 4.714 1.602 5.608 3.545l-1.44.777c-.645-1.457-1.935-2.72-4.168-2.72-2.035 0-3.524 1.02-3.524 2.818 0 1.797 1.439 2.331 3.772 3.06 3.077.971 5.856 1.845 5.856 4.857 0 2.817-2.333 4.614-5.707 4.614-3.127 0-5.459-1.506-6.303-3.983z" fill="#fff"/></svg>