<svg width="15" height="16" viewBox="0 0 15 16" fill="none" xmlns="http://www.w3.org/2000/svg">
<path d="M12.8 1.6H12V0.8C12 0.36 11.64 0 11.2 0C10.76 0 10.4 0.36 10.4 0.8V1.6H4V0.8C4 0.36 3.64 0 3.2 0C2.76 0 2.4 0.36 2.4 0.8V1.6H1.6C0.712 1.6 0.00799999 2.32 0.00799999 3.2L0 14.4C0 15.28 0.712 16 1.6 16H12.8C13.68 16 14.4 15.28 14.4 14.4V3.2C14.4 2.32 13.68 1.6 12.8 1.6ZM12.8 13.6C12.8 14.04 12.44 14.4 12 14.4H2.4C1.96 14.4 1.6 14.04 1.6 13.6V5.6H12.8V13.6ZM3.2 8C3.2 7.55817 3.55817 7.2 4 7.2V7.2C4.44183 7.2 4.8 7.55817 4.8 8V8C4.8 8.44183 4.44183 8.8 4 8.8V8.8C3.55817 8.8 3.2 8.44183 3.2 8V8ZM6.4 8C6.4 7.55817 6.75817 7.2 7.2 7.2V7.2C7.64183 7.2 8 7.55817 8 8V8C8 8.44183 7.64183 8.8 7.2 8.8V8.8C6.75817 8.8 6.4 8.44183 6.4 8V8ZM9.6 8C9.6 7.55817 9.95817 7.2 10.4 7.2V7.2C10.8418 7.2 11.2 7.55817 11.2 8V8C11.2 8.44183 10.8418 8.8 10.4 8.8V8.8C9.95817 8.8 9.6 8.44183 9.6 8V8Z" />
</svg>
