<svg xmlns="http://www.w3.org/2000/svg" width="256" height="60" fill="none"><g clip-path="url(#a)"><path fill="#2E2E2E" d="M0 0h70v60H0z"/><mask id="b" width="42" height="42" x="14" y="9" maskUnits="userSpaceOnUse" style="mask-type:alpha"><path fill="#000" d="m34.913 9.833-17.184.02 4.512 4.513c-4.52 3.693-7.408 9.31-7.408 15.603l.001.207.018 17.095 4.515-4.512c3.693 4.52 9.31 7.407 15.603 7.407 6.549 0 12.366-3.125 16.044-7.966l-7.396-7.474c-1.71 3.162-5.052 5.193-8.648 5.193-3.232 0-6.452-1.898-8.169-4.592l5.236-5.235-6.956-.002v-.12c0-3.233 1.898-6.453 4.592-8.17l5.235 5.236.002-6.955h.12c3.233 0 6.453 1.898 8.17 4.592l-5.236 5.235 17.202.004-.02-17.183-4.512 4.512c-3.693-4.52-9.31-7.408-15.603-7.408h-.118Z"/></mask><g mask="url(#b)"><path fill="#1C3AA9" d="m55.167 29.913-.02-17.184-4.513 4.512c-3.693-4.52-9.31-7.408-15.603-7.408-6.549 0-12.366 3.126-16.044 7.967l7.396 7.473c1.71-3.161 5.052-5.192 8.648-5.192 3.232 0 6.452 1.898 8.169 4.592l-5.236 5.235 17.202.004"/><g filter="url(#c)"><path fill="#4285F4" d="m34.913 9.833-17.184.021 4.512 4.512c-4.52 3.693-7.408 9.31-7.408 15.603 0 6.549 3.126 12.366 7.967 16.044l7.473-7.396c-3.161-1.71-5.192-5.052-5.192-8.647 0-3.233 1.898-6.453 4.592-8.17l5.235 5.236.004-17.202"/></g><g filter="url(#d)"><path fill="#ABABAB" d="m14.834 30.087.018 17.184 4.515-4.512c3.693 4.52 9.31 7.407 15.603 7.407 6.549 0 12.366-3.125 16.044-7.966l-7.396-7.474c-1.71 3.162-5.052 5.193-8.648 5.193-3.232 0-6.452-1.898-8.169-4.592l5.236-5.236-17.202-.003"/></g></g><path fill="#000" d="M70 0h186v60H70z"/><path fill="#fff" d="M87 35v-7.636h1.436v1.213h.08c.139-.411.384-.734.735-.97a2.106 2.106 0 0 1 1.203-.358 6.386 6.386 0 0 1 .632.035v1.422a2.66 2.66 0 0 0-.318-.055 3.037 3.037 0 0 0-.458-.035 1.94 1.94 0 0 0-.94.224 1.663 1.663 0 0 0-.884 1.497V35h-1.487Zm8.39.154c-.752 0-1.4-.16-1.944-.482a3.271 3.271 0 0 1-1.253-1.367c-.291-.59-.437-1.281-.437-2.073 0-.783.146-1.472.437-2.069a3.397 3.397 0 0 1 1.233-1.397c.53-.334 1.15-.502 1.86-.502.43 0 .848.072 1.252.214.405.142.768.366 1.09.671.32.305.574.701.76 1.188.186.484.278 1.073.278 1.765v.527h-6.07v-1.113h4.614c0-.391-.08-.738-.239-1.04a1.804 1.804 0 0 0-.671-.72 1.875 1.875 0 0 0-1.004-.264 1.94 1.94 0 0 0-1.094.308 2.068 2.068 0 0 0-.716.796 2.296 2.296 0 0 0-.249 1.059v.87c0 .51.09.944.269 1.302.182.358.436.632.76.82.325.186.705.28 1.139.28.282 0 .539-.04.77-.12a1.599 1.599 0 0 0 .99-.97l1.407.254a2.549 2.549 0 0 1-.607 1.089 2.941 2.941 0 0 1-1.088.72c-.435.17-.93.254-1.487.254Zm13.502-7.025h-1.551a2.368 2.368 0 0 0-.93-1.516 2.567 2.567 0 0 0-.791-.398 3.083 3.083 0 0 0-.919-.134c-.587 0-1.112.148-1.576.442-.461.295-.826.728-1.094 1.298-.265.57-.398 1.266-.398 2.088 0 .829.133 1.528.398 2.098.268.57.635 1.001 1.099 1.293.464.291.986.437 1.566.437.321 0 .626-.043.914-.129.292-.09.556-.22.791-.393a2.393 2.393 0 0 0 .94-1.496l1.551.005a4.15 4.15 0 0 1-.483 1.382 3.81 3.81 0 0 1-.909 1.084 4.116 4.116 0 0 1-1.263.7 4.67 4.67 0 0 1-1.551.25c-.882 0-1.667-.21-2.357-.627-.689-.421-1.233-1.023-1.63-1.805-.395-.782-.592-1.715-.592-2.799 0-1.087.199-2.02.596-2.799.398-.782.942-1.382 1.631-1.8.69-.42 1.473-.631 2.352-.631.54 0 1.044.078 1.511.234.471.152.893.378 1.268.676.374.295.684.656.93 1.084.245.424.411.91.497 1.456Zm2.63 6.871h-1.631l3.664-10.182h1.775L118.994 35h-1.631l-2.878-8.332h-.08L111.522 35Zm.273-3.987h5.29v1.292h-5.29v-1.292ZM120.464 35V24.818h3.63c.792 0 1.448.144 1.968.433.521.288.91.682 1.169 1.183.258.497.387 1.057.387 1.68 0 .627-.13 1.19-.392 1.69-.259.498-.65.892-1.174 1.184-.52.288-1.175.433-1.963.433h-2.496v-1.303h2.356c.501 0 .907-.086 1.218-.259.312-.175.541-.414.687-.716.145-.301.218-.644.218-1.029 0-.384-.073-.726-.218-1.024a1.571 1.571 0 0 0-.692-.7c-.311-.17-.722-.254-1.232-.254h-1.929V35h-1.537Zm8.453-8.86v-1.322h7.88v1.323h-3.177V35h-1.531v-8.86h-3.172Zm17.641 1.99h-1.551a2.368 2.368 0 0 0-.93-1.517 2.567 2.567 0 0 0-.791-.398 3.083 3.083 0 0 0-.919-.134c-.587 0-1.112.148-1.576.442-.461.295-.826.728-1.094 1.298-.265.57-.398 1.266-.398 2.088 0 .829.133 1.528.398 2.098.268.57.635 1.001 1.099 1.293.464.291.986.437 1.566.437.321 0 .626-.043.914-.129.292-.09.556-.22.791-.393a2.393 2.393 0 0 0 .94-1.496l1.551.005a4.15 4.15 0 0 1-.483 1.382 3.81 3.81 0 0 1-.909 1.084 4.116 4.116 0 0 1-1.263.7 4.67 4.67 0 0 1-1.551.25c-.882 0-1.667-.21-2.357-.627-.689-.421-1.233-1.023-1.63-1.805-.395-.782-.592-1.715-.592-2.799 0-1.087.199-2.02.596-2.799.398-.782.942-1.382 1.631-1.8.69-.42 1.473-.631 2.352-.631.54 0 1.044.078 1.511.234.471.152.893.378 1.268.676.374.295.684.656.93 1.084.245.424.411.91.497 1.456Zm1.838 6.87V24.818h1.536v4.425h5.076v-4.425h1.541V35h-1.541v-4.44h-5.076V35h-1.536Zm11.251 0h-1.631l3.664-10.182h1.775L167.119 35h-1.631l-2.878-8.332h-.08L159.647 35Zm.273-3.987h5.29v1.292h-5.29v-1.292Z"/></g><rect width="255" height="59" x=".5" y=".5" stroke="#000" rx="2.5"/><defs><filter id="c" width="32.08" height="48.179" x="8.833" y="3.833" color-interpolation-filters="sRGB" filterUnits="userSpaceOnUse"><feFlood flood-opacity="0" result="BackgroundImageFix"/><feColorMatrix in="SourceAlpha" result="hardAlpha" values="0 0 0 0 0 0 0 0 0 0 0 0 0 0 0 0 0 0 127 0"/><feOffset/><feGaussianBlur stdDeviation="3"/><feColorMatrix values="0 0 0 0 0 0 0 0 0 0 0 0 0 0 0 0 0 0 0.24 0"/><feBlend in2="BackgroundImageFix" result="effect1_dropShadow_4056_128518"/><feBlend in="SourceGraphic" in2="effect1_dropShadow_4056_128518" result="shape"/></filter><filter id="d" width="48.179" height="32.08" x="8.834" y="24.087" color-interpolation-filters="sRGB" filterUnits="userSpaceOnUse"><feFlood flood-opacity="0" result="BackgroundImageFix"/><feColorMatrix in="SourceAlpha" result="hardAlpha" values="0 0 0 0 0 0 0 0 0 0 0 0 0 0 0 0 0 0 127 0"/><feOffset/><feGaussianBlur stdDeviation="3"/><feColorMatrix values="0 0 0 0 0 0 0 0 0 0 0 0 0 0 0 0 0 0 0.24 0"/><feBlend in2="BackgroundImageFix" result="effect1_dropShadow_4056_128518"/><feBlend in="SourceGraphic" in2="effect1_dropShadow_4056_128518" result="shape"/></filter><clipPath id="a"><rect width="256" height="60" fill="#fff" rx="3"/></clipPath></defs></svg>