<svg width="256" height="60" viewBox="0 0 256 60" fill="none" xmlns="http://www.w3.org/2000/svg">
<g clip-path="url(#clip0_4056_128518)">
<rect width="70" height="60" fill="#2E2E2E"/>
<mask id="mask0_4056_128518" style="mask-type:alpha" maskUnits="userSpaceOnUse" x="14" y="9" width="42" height="42">
<path d="M34.9129 9.83335L17.7287 9.85395L22.2408 14.3661C17.7205 18.059 14.8334 23.6768 14.8334 29.9693C14.8334 30.0384 14.8337 30.1073 14.8344 30.1762L14.8517 47.2711L19.367 42.759C23.0599 47.2793 28.6778 50.1664 34.9703 50.1664C41.5187 50.1664 47.3363 47.0408 51.0138 42.2001L43.6179 34.7265C41.9085 37.8879 38.5657 39.9193 34.9705 39.9193C31.738 39.9193 28.5183 38.0212 26.8014 35.3266L32.0366 30.0915L25.0813 30.0901C25.0808 30.0499 25.0805 30.0098 25.0805 29.9695C25.0805 26.737 26.9786 23.5174 29.6732 21.8004L34.9084 27.0356L34.9097 20.0813C34.95 20.0808 34.9902 20.0805 35.0305 20.0805C38.263 20.0805 41.4827 21.9786 43.1996 24.6732L37.9644 29.9083L55.1661 29.9117L55.1667 29.9129L55.1461 12.7287L50.634 17.2408C46.9411 12.7205 41.3232 9.83335 35.0308 9.83335C34.9912 9.83335 34.9524 9.83313 34.9129 9.83335Z" fill="black"/>
</mask>
<g mask="url(#mask0_4056_128518)">
<path d="M55.1667 29.9129C55.1667 29.8826 55.1461 12.7287 55.1461 12.7287L50.634 17.2408C46.9411 12.7205 41.3232 9.83337 35.0307 9.83337C28.4823 9.83337 22.6647 12.9591 18.9872 17.7997L26.3831 25.2734C28.0925 22.112 31.4353 20.0805 35.0305 20.0805C38.263 20.0805 41.4827 21.9786 43.1996 24.6732L37.9644 29.9084L55.1661 29.9117" fill="#1C3AA9"/>
<g filter="url(#filter0_d_4056_128518)">
<path d="M34.9129 9.83337L17.7287 9.85397L22.2408 14.3661C17.7205 18.059 14.8334 23.6768 14.8334 29.9693C14.8334 36.5177 17.9591 42.3353 22.7997 46.0129L30.2734 38.617C27.112 36.9076 25.0805 33.5647 25.0805 29.9696C25.0805 26.737 26.9786 23.5174 29.6732 21.8005L34.9084 27.0356L34.9117 9.83395" fill="#4285F4"/>
</g>
<g filter="url(#filter1_d_4056_128518)">
<path d="M14.8344 30.0869L14.8517 47.2711L19.367 42.759C23.0599 47.2793 28.6778 50.1664 34.9703 50.1664C41.5187 50.1664 47.3363 47.0407 51.0138 42.2001L43.618 34.7264C41.9085 37.8878 38.5657 39.9193 34.9705 39.9193C31.738 39.9193 28.5184 38.0212 26.8014 35.3266L32.0366 30.0914L14.8349 30.0881" fill="#ABABAB"/>
</g>
</g>
<rect width="186" height="60" transform="translate(70)" fill="black"/>
<path d="M86.9993 35V27.3636H88.4361V28.5767H88.5156C88.6548 28.1657 88.9001 27.8426 89.2514 27.6072C89.6061 27.3686 90.0071 27.2493 90.4545 27.2493C90.5473 27.2493 90.6567 27.2526 90.7827 27.2592C90.9119 27.2659 91.013 27.2741 91.0859 27.2841V28.706C91.0263 28.6894 90.9202 28.6712 90.7678 28.6513C90.6153 28.6281 90.4628 28.6165 90.3104 28.6165C89.959 28.6165 89.6458 28.6911 89.3707 28.8402C89.099 28.986 88.8835 29.1899 88.7244 29.4517C88.5653 29.7102 88.4858 30.0052 88.4858 30.3366V35H86.9993ZM95.3901 35.1541C94.6377 35.1541 93.9898 34.9934 93.4462 34.6719C92.906 34.3471 92.4883 33.8913 92.1934 33.3047C91.9017 32.7147 91.7559 32.0237 91.7559 31.2315C91.7559 30.4493 91.9017 29.7599 92.1934 29.1634C92.4883 28.5668 92.8993 28.1011 93.4263 27.7663C93.9566 27.4316 94.5764 27.2642 95.2857 27.2642C95.7166 27.2642 96.1342 27.3355 96.5385 27.478C96.9429 27.6205 97.3058 27.8442 97.6273 28.1491C97.9488 28.4541 98.2024 28.8501 98.388 29.3374C98.5736 29.8213 98.6664 30.4096 98.6664 31.1023V31.6293H92.5961V30.5156H97.2097C97.2097 30.1245 97.1301 29.7782 96.9711 29.4766C96.812 29.1716 96.5882 28.9313 96.2999 28.7557C96.0149 28.58 95.6801 28.4922 95.2956 28.4922C94.878 28.4922 94.5134 28.5949 94.2019 28.8004C93.8936 29.0026 93.655 29.2678 93.486 29.5959C93.3203 29.9207 93.2374 30.2737 93.2374 30.6548V31.5249C93.2374 32.0353 93.3269 32.4695 93.5059 32.8274C93.6882 33.1854 93.9417 33.4588 94.2665 33.6477C94.5913 33.8333 94.9708 33.9261 95.405 33.9261C95.6867 33.9261 95.9436 33.8864 96.1756 33.8068C96.4076 33.724 96.6081 33.6013 96.7772 33.4389C96.9462 33.2765 97.0755 33.076 97.165 32.8374L98.5719 33.0909C98.4592 33.5052 98.257 33.8681 97.9654 34.1797C97.677 34.4879 97.3141 34.7282 96.8766 34.9006C96.4424 35.0696 95.9469 35.1541 95.3901 35.1541ZM108.892 28.1293H107.341C107.281 27.7978 107.17 27.5062 107.007 27.2543C106.845 27.0024 106.646 26.7886 106.411 26.6129C106.176 26.4373 105.912 26.3047 105.62 26.2152C105.332 26.1257 105.025 26.081 104.701 26.081C104.114 26.081 103.589 26.2285 103.125 26.5234C102.664 26.8184 102.299 27.2509 102.031 27.821C101.766 28.3911 101.633 29.0871 101.633 29.9091C101.633 30.7377 101.766 31.437 102.031 32.0071C102.299 32.5772 102.666 33.008 103.13 33.2997C103.594 33.5914 104.116 33.7372 104.696 33.7372C105.017 33.7372 105.322 33.6941 105.61 33.608C105.902 33.5185 106.166 33.3875 106.401 33.2152C106.636 33.0429 106.835 32.8324 106.998 32.5838C107.163 32.3319 107.278 32.0436 107.341 31.7188L108.892 31.7237C108.809 32.2242 108.648 32.6849 108.409 33.1058C108.174 33.5234 107.871 33.8847 107.5 34.1896C107.132 34.4912 106.711 34.7249 106.237 34.8906C105.763 35.0563 105.246 35.1392 104.686 35.1392C103.804 35.1392 103.019 34.9304 102.329 34.5128C101.64 34.0919 101.096 33.4903 100.699 32.7081C100.304 31.9259 100.107 30.9929 100.107 29.9091C100.107 28.822 100.306 27.889 100.703 27.1101C101.101 26.3279 101.645 25.728 102.334 25.3104C103.024 24.8894 103.807 24.679 104.686 24.679C105.226 24.679 105.73 24.7569 106.197 24.9126C106.668 25.0651 107.09 25.2905 107.465 25.5888C107.839 25.8838 108.149 26.245 108.395 26.6726C108.64 27.0968 108.806 27.5824 108.892 28.1293ZM111.522 35H109.891L113.555 24.8182H115.33L118.994 35H117.363L114.485 26.6676H114.405L111.522 35ZM111.795 31.0128H117.085V32.3054H111.795V31.0128ZM120.464 35V24.8182H124.094C124.886 24.8182 125.542 24.9624 126.062 25.2507C126.583 25.5391 126.972 25.9335 127.231 26.4339C127.489 26.9311 127.618 27.4912 127.618 28.1143C127.618 28.7408 127.488 29.3042 127.226 29.8047C126.967 30.3018 126.576 30.6963 126.052 30.9879C125.532 31.2763 124.877 31.4205 124.089 31.4205H121.593V30.1179H123.949C124.45 30.1179 124.856 30.0317 125.167 29.8594C125.479 29.6837 125.708 29.4451 125.854 29.1435C125.999 28.8419 126.072 28.4988 126.072 28.1143C126.072 27.7299 125.999 27.3885 125.854 27.0902C125.708 26.7919 125.477 26.5582 125.162 26.3892C124.851 26.2202 124.44 26.1357 123.93 26.1357H122.001V35H120.464ZM128.917 26.1406V24.8182H136.797V26.1406H133.62V35H132.089V26.1406H128.917ZM146.558 28.1293H145.007C144.947 27.7978 144.836 27.5062 144.673 27.2543C144.511 27.0024 144.312 26.7886 144.077 26.6129C143.842 26.4373 143.578 26.3047 143.286 26.2152C142.998 26.1257 142.691 26.081 142.367 26.081C141.78 26.081 141.255 26.2285 140.791 26.5234C140.33 26.8184 139.965 27.2509 139.697 27.821C139.432 28.3911 139.299 29.0871 139.299 29.9091C139.299 30.7377 139.432 31.437 139.697 32.0071C139.965 32.5772 140.332 33.008 140.796 33.2997C141.26 33.5914 141.782 33.7372 142.362 33.7372C142.683 33.7372 142.988 33.6941 143.276 33.608C143.568 33.5185 143.832 33.3875 144.067 33.2152C144.302 33.0429 144.501 32.8324 144.664 32.5838C144.829 32.3319 144.944 32.0436 145.007 31.7188L146.558 31.7237C146.475 32.2242 146.314 32.6849 146.075 33.1058C145.84 33.5234 145.537 33.8847 145.166 34.1896C144.798 34.4912 144.377 34.7249 143.903 34.8906C143.429 35.0563 142.912 35.1392 142.352 35.1392C141.47 35.1392 140.685 34.9304 139.995 34.5128C139.306 34.0919 138.762 33.4903 138.365 32.7081C137.97 31.9259 137.773 30.9929 137.773 29.9091C137.773 28.822 137.972 27.889 138.369 27.1101C138.767 26.3279 139.311 25.728 140 25.3104C140.69 24.8894 141.473 24.679 142.352 24.679C142.892 24.679 143.396 24.7569 143.863 24.9126C144.334 25.0651 144.756 25.2905 145.131 25.5888C145.505 25.8838 145.815 26.245 146.061 26.6726C146.306 27.0968 146.472 27.5824 146.558 28.1293ZM148.396 35V24.8182H149.932V29.2429H155.008V24.8182H156.549V35H155.008V30.5604H149.932V35H148.396ZM159.647 35H158.016L161.68 24.8182H163.455L167.119 35H165.488L162.61 26.6676H162.53L159.647 35ZM159.92 31.0128H165.21V32.3054H159.92V31.0128Z" fill="white"/>
</g>
<rect x="0.5" y="0.5" width="255" height="59" rx="2.5" stroke="black"/>
<defs>
<filter id="filter0_d_4056_128518" x="8.83337" y="3.83337" width="32.0795" height="48.1794" filterUnits="userSpaceOnUse" color-interpolation-filters="sRGB">
<feFlood flood-opacity="0" result="BackgroundImageFix"/>
<feColorMatrix in="SourceAlpha" type="matrix" values="0 0 0 0 0 0 0 0 0 0 0 0 0 0 0 0 0 0 127 0" result="hardAlpha"/>
<feOffset/>
<feGaussianBlur stdDeviation="3"/>
<feColorMatrix type="matrix" values="0 0 0 0 0 0 0 0 0 0 0 0 0 0 0 0 0 0 0.24 0"/>
<feBlend mode="normal" in2="BackgroundImageFix" result="effect1_dropShadow_4056_128518"/>
<feBlend mode="normal" in="SourceGraphic" in2="effect1_dropShadow_4056_128518" result="shape"/>
</filter>
<filter id="filter1_d_4056_128518" x="8.83435" y="24.0869" width="48.1795" height="32.0795" filterUnits="userSpaceOnUse" color-interpolation-filters="sRGB">
<feFlood flood-opacity="0" result="BackgroundImageFix"/>
<feColorMatrix in="SourceAlpha" type="matrix" values="0 0 0 0 0 0 0 0 0 0 0 0 0 0 0 0 0 0 127 0" result="hardAlpha"/>
<feOffset/>
<feGaussianBlur stdDeviation="3"/>
<feColorMatrix type="matrix" values="0 0 0 0 0 0 0 0 0 0 0 0 0 0 0 0 0 0 0.24 0"/>
<feBlend mode="normal" in2="BackgroundImageFix" result="effect1_dropShadow_4056_128518"/>
<feBlend mode="normal" in="SourceGraphic" in2="effect1_dropShadow_4056_128518" result="shape"/>
</filter>
<clipPath id="clip0_4056_128518">
<rect width="256" height="60" rx="3" fill="white"/>
</clipPath>
</defs>
</svg>
