<svg width="273" height="273" viewBox="0 0 273 273" fill="none" xmlns="http://www.w3.org/2000/svg">
<g opacity="0.65">
<circle opacity="0.9" cx="137" cy="137" r="39.5" stroke="#D5D7E9"/>
<circle opacity="0.88" cx="137" cy="136" r="51.5" stroke="#D5D7E9"/>
<circle opacity="0.77" cx="137" cy="136" r="65.5" stroke="#D5D7E9"/>
<circle opacity="0.77" cx="136.5" cy="136.5" r="80" stroke="#D5D7E9"/>
<circle opacity="0.66" cx="137" cy="136" r="92.5" stroke="#D5D7E9"/>
<circle opacity="0.55" cx="137" cy="136" r="108.5" stroke="#D5D7E9"/>
<circle opacity="0.44" cx="136" cy="136" r="123.5" stroke="#D5D7E9"/>
<circle opacity="0.33" cx="136.5" cy="136.5" r="136" stroke="#D5D7E9"/>
</g>
<g filter="url(#filter0_dddddd_2576_73525)">
<path d="M188.551 57.5H83.7C81.7904 57.5 79.9591 58.2586 78.6088 59.6088C77.2586 60.9591 76.5 62.7904 76.5 64.7V208.29C76.5 210.2 77.2586 212.031 78.6088 213.381C79.9591 214.731 81.7904 215.49 83.7 215.49H188.551C190.461 215.49 192.292 214.731 193.642 213.381C194.992 212.031 195.751 210.2 195.751 208.29V64.7C195.751 62.7904 194.992 60.9591 193.642 59.6088C192.292 58.2586 190.461 57.5 188.551 57.5Z" fill="white"/>
</g>
<path d="M128.5 124H88.5C87.1193 124 86 125.119 86 126.5V149.5C86 150.881 87.1193 152 88.5 152H128.5C129.881 152 131 150.881 131 149.5V126.5C131 125.119 129.881 124 128.5 124Z" fill="white" stroke="#D5D7E9"/>
<path d="M183.5 124H143.5C142.119 124 141 125.119 141 126.5V149.5C141 150.881 142.119 152 143.5 152H183.5C184.881 152 186 150.881 186 149.5V126.5C186 125.119 184.881 124 183.5 124Z" fill="white" stroke="#D5D7E9"/>
<path d="M128.5 164H88.5C87.1193 164 86 165.119 86 166.5V189.5C86 190.881 87.1193 192 88.5 192H128.5C129.881 192 131 190.881 131 189.5V166.5C131 165.119 129.881 164 128.5 164Z" fill="white" stroke="#D5D7E9"/>
<path d="M183.5 164H143.5C142.119 164 141 165.119 141 166.5V189.5C141 190.881 142.119 192 143.5 192H183.5C184.881 192 186 190.881 186 189.5V166.5C186 165.119 184.881 164 183.5 164Z" fill="white" stroke="#D5D7E9"/>
<path d="M128.499 83H88.499C87.1183 83 85.999 84.1193 85.999 85.5V108.5C85.999 109.881 87.1183 111 88.499 111H128.499C129.88 111 130.999 109.881 130.999 108.5V85.5C130.999 84.1193 129.88 83 128.499 83Z" fill="#E8EEF6" fill-opacity="0.55" stroke="#3C5BA8" stroke-linejoin="round" stroke-dasharray="2 2"/>
<path d="M183.5 83H143.5C142.119 83 141 84.1193 141 85.5V108.5C141 109.881 142.119 111 143.5 111H183.5C184.881 111 186 109.881 186 108.5V85.5C186 84.1193 184.881 83 183.5 83Z" fill="white" stroke="#D5D7E9"/>
<g filter="url(#filter1_dddddd_2576_73525)">
<path d="M106.275 69.5713L66.5066 73.8722C64.7221 74.0652 63.4319 75.6683 63.6249 77.4528L66.0979 100.319C66.2909 102.104 67.894 103.394 69.6785 103.201L109.447 98.9003C111.231 98.7073 112.521 97.1042 112.328 95.3197L109.855 72.4531C109.662 70.6685 108.059 69.3784 106.275 69.5713Z" fill="white" stroke="#D5D7E9" stroke-width="0.5"/>
<path d="M106.221 69.0743L66.4528 73.3751C64.3938 73.5978 62.9051 75.4475 63.1278 77.5066L65.6008 100.373C65.8235 102.432 67.6732 103.921 69.7322 103.698L109.5 99.3974C111.559 99.1748 113.048 97.325 112.825 95.266L110.352 72.3993C110.13 70.3402 108.28 68.8516 106.221 69.0743Z" stroke="#D5D7E9" stroke-width="0.5"/>
</g>
<g filter="url(#filter2_ddd_2576_73525)">
<path fill-rule="evenodd" clip-rule="evenodd" d="M95.997 95.8383C95.3572 96.3068 95.2028 96.9085 95.3377 97.4595C95.4265 97.8224 95.5999 98.1403 95.8837 98.5385C95.8389 98.4756 96.0566 98.7938 96.1021 98.8649C96.1968 99.0139 95.618 98.9411 95.3212 99.0939C94.9907 99.2615 94.61 99.6939 94.4802 100.161C94.3274 100.709 94.4656 101.25 94.9594 102.154C95.2289 102.647 95.5862 103.025 96.0375 103.352C96.238 103.497 96.7637 103.819 96.8052 103.849L97.8781 104.522C98.0602 104.612 98.1906 104.679 98.5788 104.883C98.9631 105.085 99.1454 105.178 99.3107 105.254C99.3803 105.285 99.4634 105.397 99.5351 105.578C99.5941 105.727 99.6372 105.9 99.6652 106.07C99.6749 106.129 99.6803 106.172 99.6823 106.193C99.7044 106.425 99.93 106.58 100.154 106.519C100.363 106.462 100.526 106.418 100.949 106.307C101.041 106.282 101.041 106.282 101.133 106.258C102.262 105.959 102.823 105.794 103.218 105.627C103.639 105.448 103.942 104.787 104.141 104.019C104.637 104.513 105.257 104.956 105.741 104.898C105.893 104.88 106.072 104.837 106.276 104.775C106.43 104.728 106.591 104.671 106.752 104.61C106.871 104.564 106.966 104.525 107.022 104.501C107.232 104.411 107.313 104.157 107.195 103.962C107.17 103.92 107.126 103.842 107.076 103.742C107.017 103.626 106.966 103.511 106.927 103.404C106.903 103.337 106.885 103.275 106.872 103.22C106.851 103.124 106.838 103.071 106.806 102.947C106.795 102.903 106.795 102.903 106.785 102.865C106.753 102.732 106.736 102.603 106.715 102.318C106.707 102.196 106.761 101.939 106.868 101.61C106.9 101.513 106.936 101.41 106.975 101.304C107.05 101.101 107.133 100.894 107.219 100.694C107.27 100.574 107.311 100.484 107.333 100.435C107.503 99.9459 107.618 99.1916 107.619 98.7682C107.62 98.361 107.507 97.6306 107.368 96.9508C107.288 96.5581 107.211 96.2432 107.073 95.7561C107.046 95.6622 107.046 95.6622 107.025 95.586C106.995 95.4789 106.995 95.4789 106.968 95.3867C106.925 95.236 106.878 95.0868 106.759 94.7236C106.507 93.95 105.935 93.5653 105.275 93.6469C104.713 93.7163 104.278 94.0143 104.131 94.2996C104.081 94.3978 104.059 94.0309 103.754 93.7589C103.525 93.5551 103.022 93.3539 102.689 93.3812C102.349 93.4098 101.966 93.5258 101.631 93.688C101.338 93.8307 101.063 94.1997 100.969 94.548C100.906 94.7809 101.005 94.5318 100.815 94.3484C100.554 94.0958 100.068 93.9418 99.6544 93.9726C99.3016 93.9984 98.9285 94.132 98.6139 94.3334C98.2321 94.5757 97.8021 95.2022 98.0159 95.7039C97.5377 95.2772 96.6245 95.3795 95.997 95.8383Z" fill="black"/>
<path fill-rule="evenodd" clip-rule="evenodd" d="M98.2204 97.1535C98.2709 97.2284 97.9902 96.8055 97.9064 96.6861C97.8197 96.5624 97.7431 96.4612 97.676 96.3828C97.4773 96.1508 96.7855 96.1909 96.4399 96.4436C96.0719 96.713 95.9978 97.0017 96.0662 97.2812C96.1271 97.5299 96.2614 97.7762 96.4945 98.1031C96.4331 98.017 96.7401 98.4401 96.8001 98.5337C96.8652 98.6361 96.948 98.7363 97.0781 98.8755L97.1466 98.9488L97.1466 98.9488C97.369 99.1867 97.4066 99.2269 97.4359 99.2725C97.4419 99.2817 97.4475 99.2912 97.4542 99.3026C97.4617 99.3152 97.4705 99.3301 97.4827 99.3496C97.544 99.4467 97.5778 99.5058 97.5998 99.5628C97.7297 99.8986 97.4026 100.224 97.0629 100.054C97.0122 100.028 96.9714 99.9994 96.8909 99.9373L96.887 99.9343L96.887 99.9343C96.8034 99.8692 96.7484 99.8264 96.7013 99.7904C96.6326 99.7384 96.5845 99.7082 96.5435 99.6892C96.5169 99.6768 96.4894 99.6673 96.4492 99.6565C96.4152 99.6475 96.3768 99.6386 96.2668 99.6137C96.1886 99.5955 95.8182 99.6816 95.6625 99.7618C95.51 99.8391 95.2735 100.108 95.2028 100.362C95.1148 100.678 95.2089 101.046 95.6176 101.795C95.8286 102.18 96.1105 102.478 96.4776 102.744C96.5818 102.82 96.8221 102.971 97.0031 103.085C97.1154 103.156 97.2049 103.213 97.2249 103.228L98.2387 103.866C98.3956 103.941 98.5284 104.01 98.9353 104.223C99.2983 104.414 99.475 104.504 99.6212 104.571C99.9042 104.698 100.096 104.957 100.233 105.302C100.269 105.395 100.253 105.493 100.241 105.569C100.225 105.662 100.216 105.72 100.315 105.694C100.423 105.665 100.596 105.621 100.735 105.586C100.827 105.562 100.904 105.543 100.94 105.533C102.028 105.245 102.578 105.084 102.925 104.937C103.031 104.891 103.282 104.344 103.415 103.829C103.566 103.258 104.264 103.031 104.712 103.503C105.005 103.811 105.508 104.17 105.653 104.153C105.753 104.141 105.892 104.108 106.056 104.058C106.192 104.016 106.419 103.964 106.419 103.964C106.419 103.964 106.272 103.797 106.222 103.659C106.187 103.563 106.16 103.471 106.14 103.382C106.121 103.296 106.11 103.25 106.08 103.134L106.068 103.088L106.056 103.04C106.014 102.863 105.99 102.695 105.967 102.372C105.95 102.124 106.019 101.795 106.155 101.379C106.19 101.271 106.229 101.16 106.271 101.044C106.351 100.828 106.439 100.609 106.53 100.398C106.584 100.271 106.627 100.175 106.639 100.155C106.766 99.7842 106.868 99.1111 106.869 98.7667C106.87 98.4285 106.762 97.7292 106.634 97.1007C106.557 96.7272 106.484 96.4304 106.351 95.9605L106.303 95.7883L106.271 95.6769L106.248 95.5953C106.207 95.4549 106.162 95.3122 106.046 94.9561C105.903 94.5163 105.662 94.3547 105.367 94.3912C105.091 94.4252 104.826 94.6347 104.761 94.8507C104.745 94.9063 104.732 94.9739 104.724 95.0513C104.713 95.1621 104.711 95.2572 104.714 95.4236C104.716 95.494 104.716 95.5401 104.711 95.5816C104.722 95.6063 104.73 95.6249 104.728 95.6422C104.721 95.6954 104.62 95.7369 104.21 95.9054C104.015 95.7497 103.983 95.7237 103.976 95.692C103.974 95.6857 103.974 95.6791 103.973 95.6712C103.729 95.0668 103.434 94.4788 103.255 94.3189C103.169 94.2428 102.862 94.1196 102.751 94.1286C102.511 94.1488 102.215 94.2384 101.959 94.3626C101.857 94.4124 101.663 94.6378 101.626 94.7716C101.6 94.8687 101.611 95.0898 101.66 95.4002C101.681 95.5359 101.78 96.0775 101.756 95.9456C101.782 96.0891 101.795 96.1808 101.799 96.2631C101.8 96.2929 101.8 96.2929 101.786 96.3736C101.723 96.5672 101.723 96.5672 101.313 96.6361C101.158 96.5886 100.888 95.952 100.749 95.6227L100.749 95.6227C100.712 95.5358 100.684 95.4703 100.67 95.4427C100.543 95.1955 100.414 95.0038 100.294 94.8876C100.195 94.7919 99.9205 94.7049 99.7097 94.7206C99.4871 94.7368 99.2323 94.8281 99.0171 94.9658C98.8493 95.0723 98.7411 95.2817 98.7178 95.5357C98.7053 95.6715 98.7347 95.8875 98.8026 96.1754C98.832 96.3003 98.8569 96.3946 98.9183 96.6204C98.9708 96.813 98.9924 96.8961 99.0108 96.9821C99.024 96.998 99.0342 97.0104 99.0383 97.0245C99.0525 97.0728 98.9962 97.1418 98.7473 97.4468C98.4353 97.393 98.3763 97.3828 98.3549 97.3489C98.3499 97.3409 98.3469 97.3317 98.3432 97.3204C98.3093 97.2824 98.2751 97.2347 98.2204 97.1535ZM105.148 102.002C104.949 102.058 104.741 101.942 104.685 101.743L103.742 98.4153C103.685 98.216 103.801 98.0087 104 97.9522C104.199 97.8958 104.407 98.0115 104.463 98.2108L105.406 101.539C105.463 101.738 105.347 101.945 105.148 102.002ZM102.749 102.306C102.807 102.505 103.014 102.619 103.213 102.562C103.412 102.505 103.527 102.297 103.47 102.098L102.508 98.7608C102.45 98.5618 102.242 98.447 102.043 98.5044C101.844 98.5618 101.729 98.7696 101.787 98.9686L102.749 102.306ZM100.146 99.0748C100.345 99.0171 100.553 99.1316 100.611 99.3305L101.565 102.621C101.623 102.82 101.508 103.028 101.309 103.086C101.111 103.143 100.903 103.029 100.845 102.83L99.8906 99.5394C99.8329 99.3405 99.9474 99.1325 100.146 99.0748Z" fill="white"/>
</g>
<g clip-path="url(#clip0_2576_73525)">
<path d="M109 177.167C107.892 177.167 105.667 177.725 105.667 178.833V178.967C106.475 179.9 107.667 180.5 109 180.5C110.333 180.5 111.525 179.9 112.333 178.967V178.833C112.333 177.725 110.108 177.167 109 177.167ZM109 176.333C109.917 176.333 110.667 175.583 110.667 174.667C110.667 173.75 109.917 173 109 173C108.083 173 107.333 173.75 107.333 174.667C107.333 175.583 108.083 176.333 109 176.333ZM109 169.667C112.5 169.667 115.667 172.35 115.667 176.5C115.667 179.267 113.442 182.542 109 186.333C104.558 182.542 102.333 179.267 102.333 176.5C102.333 172.35 105.5 169.667 109 169.667Z" fill="#323232"/>
</g>
<g clip-path="url(#clip1_2576_73525)">
<path d="M116.5 140.883L112.108 140.375L110.008 142.475C107.65 141.275 105.717 139.35 104.517 136.983L106.625 134.875L106.117 130.5H101.525C101.042 138.983 108.017 145.958 116.5 145.475V140.883Z" fill="#323232"/>
</g>
<g clip-path="url(#clip2_2576_73525)">
<path d="M170.667 90.3333H157.333C156.417 90.3333 155.675 91.0833 155.675 92L155.667 102C155.667 102.917 156.417 103.667 157.333 103.667H170.667C171.583 103.667 172.333 102.917 172.333 102V92C172.333 91.0833 171.583 90.3333 170.667 90.3333ZM170.333 93.875L164.442 97.5583C164.175 97.725 163.825 97.725 163.558 97.5583L157.667 93.875C157.458 93.7417 157.333 93.5167 157.333 93.275C157.333 92.7167 157.942 92.3833 158.417 92.675L164 96.1667L169.583 92.675C170.058 92.3833 170.667 92.7167 170.667 93.275C170.667 93.5167 170.542 93.7417 170.333 93.875Z" fill="#323232"/>
</g>
<g clip-path="url(#clip3_2576_73525)">
<path d="M162.992 169.667C158.392 169.667 154.667 173.4 154.667 178C154.667 182.6 158.392 186.333 162.992 186.333C167.6 186.333 171.333 182.6 171.333 178C171.333 173.4 167.6 169.667 162.992 169.667ZM163 184.667C159.317 184.667 156.333 181.683 156.333 178C156.333 174.317 159.317 171.333 163 171.333C166.683 171.333 169.667 174.317 169.667 178C169.667 181.683 166.683 184.667 163 184.667ZM162.817 173.833H162.767C162.433 173.833 162.167 174.1 162.167 174.433V178.367C162.167 178.658 162.317 178.933 162.575 179.083L166.033 181.158C166.317 181.325 166.683 181.242 166.85 180.958C167.025 180.675 166.933 180.3 166.642 180.133L163.417 178.217V174.433C163.417 174.1 163.15 173.833 162.817 173.833Z" fill="#323232"/>
</g>
<g clip-path="url(#clip4_2576_73525)">
<path d="M169.833 131.333H169V130.5C169 130.042 168.625 129.667 168.167 129.667C167.708 129.667 167.333 130.042 167.333 130.5V131.333H160.667V130.5C160.667 130.042 160.292 129.667 159.833 129.667C159.375 129.667 159 130.042 159 130.5V131.333H158.167C157.242 131.333 156.508 132.083 156.508 133L156.5 144.667C156.5 145.583 157.242 146.333 158.167 146.333H169.833C170.75 146.333 171.5 145.583 171.5 144.667V133C171.5 132.083 170.75 131.333 169.833 131.333ZM169.833 143.833C169.833 144.292 169.458 144.667 169 144.667H159C158.542 144.667 158.167 144.292 158.167 143.833V135.5H169.833V143.833ZM159.833 137.167H161.5V138.833H159.833V137.167ZM163.167 137.167H164.833V138.833H163.167V137.167ZM166.5 137.167H168.167V138.833H166.5V137.167Z" fill="#323232"/>
</g>
<path d="M80.8039 92.4716L79.9441 84.518L77.9557 84.7329L77.7407 82.7445L81.7176 82.3146L82.7923 92.2567L80.8039 92.4716ZM98.4847 88.5486C98.604 89.6522 97.8049 90.6337 96.7112 90.752L92.7344 91.1819L92.5195 89.1935L96.4963 88.7635L96.2813 86.7751L94.2929 86.9901L94.078 85.0017L96.0664 84.7867L95.8514 82.7983L91.8746 83.2282L91.6596 81.2398L95.6365 80.8099C96.1638 80.7529 96.6922 80.9077 97.1054 81.2403C97.5186 81.5729 97.7828 82.056 97.8398 82.5833L98.001 84.0747C98.0438 84.4702 97.9277 84.8665 97.6782 85.1764C97.4288 85.4863 97.0665 85.6844 96.671 85.7272C97.0665 85.6844 97.4628 85.8005 97.7727 86.05C98.0826 86.2994 98.2807 86.6618 98.3235 87.0573L98.4847 88.5486ZM90.531 89.4084L90.746 91.3968L84.7808 92.0417L84.3508 88.0649C84.2315 86.9613 85.0307 85.9797 86.1243 85.8615L88.1127 85.6465L87.8978 83.6581L83.9209 84.088L83.706 82.0996L87.6828 81.6697C88.2102 81.6127 88.7386 81.7675 89.1518 82.1001C89.565 82.4327 89.8292 82.9158 89.8862 83.4432L90.1011 85.4316C90.2204 86.5352 89.4213 87.5167 88.3277 87.635L86.3393 87.8499L86.5542 89.8383L90.531 89.4084Z" fill="#323232"/>
<defs>
<filter id="filter0_dddddd_2576_73525" x="52.5" y="56.5" width="167.251" height="206.99" filterUnits="userSpaceOnUse" color-interpolation-filters="sRGB">
<feFlood flood-opacity="0" result="BackgroundImageFix"/>
<feColorMatrix in="SourceAlpha" type="matrix" values="0 0 0 0 0 0 0 0 0 0 0 0 0 0 0 0 0 0 127 0" result="hardAlpha"/>
<feOffset dy="16"/>
<feGaussianBlur stdDeviation="8"/>
<feColorMatrix type="matrix" values="0 0 0 0 0.0705882 0 0 0 0 0.0980392 0 0 0 0 0.380392 0 0 0 0.03 0"/>
<feBlend mode="normal" in2="BackgroundImageFix" result="effect1_dropShadow_2576_73525"/>
<feColorMatrix in="SourceAlpha" type="matrix" values="0 0 0 0 0 0 0 0 0 0 0 0 0 0 0 0 0 0 127 0" result="hardAlpha"/>
<feOffset dy="8"/>
<feGaussianBlur stdDeviation="4"/>
<feColorMatrix type="matrix" values="0 0 0 0 0.0705882 0 0 0 0 0.0980392 0 0 0 0 0.380392 0 0 0 0.03 0"/>
<feBlend mode="normal" in2="effect1_dropShadow_2576_73525" result="effect2_dropShadow_2576_73525"/>
<feColorMatrix in="SourceAlpha" type="matrix" values="0 0 0 0 0 0 0 0 0 0 0 0 0 0 0 0 0 0 127 0" result="hardAlpha"/>
<feOffset dy="4"/>
<feGaussianBlur stdDeviation="2"/>
<feColorMatrix type="matrix" values="0 0 0 0 0.0705882 0 0 0 0 0.0980392 0 0 0 0 0.380392 0 0 0 0.03 0"/>
<feBlend mode="normal" in2="effect2_dropShadow_2576_73525" result="effect3_dropShadow_2576_73525"/>
<feColorMatrix in="SourceAlpha" type="matrix" values="0 0 0 0 0 0 0 0 0 0 0 0 0 0 0 0 0 0 127 0" result="hardAlpha"/>
<feOffset dy="2"/>
<feGaussianBlur stdDeviation="1"/>
<feColorMatrix type="matrix" values="0 0 0 0 0.0705882 0 0 0 0 0.0980392 0 0 0 0 0.380392 0 0 0 0.03 0"/>
<feBlend mode="normal" in2="effect3_dropShadow_2576_73525" result="effect4_dropShadow_2576_73525"/>
<feColorMatrix in="SourceAlpha" type="matrix" values="0 0 0 0 0 0 0 0 0 0 0 0 0 0 0 0 0 0 127 0" result="hardAlpha"/>
<feOffset dy="24"/>
<feGaussianBlur stdDeviation="12"/>
<feColorMatrix type="matrix" values="0 0 0 0 0.0705882 0 0 0 0 0.0980392 0 0 0 0 0.380392 0 0 0 0.03 0"/>
<feBlend mode="normal" in2="effect4_dropShadow_2576_73525" result="effect5_dropShadow_2576_73525"/>
<feColorMatrix in="SourceAlpha" type="matrix" values="0 0 0 0 0 0 0 0 0 0 0 0 0 0 0 0 0 0 127 0" result="hardAlpha"/>
<feOffset/>
<feGaussianBlur stdDeviation="0.5"/>
<feColorMatrix type="matrix" values="0 0 0 0 0.0705882 0 0 0 0 0.0980392 0 0 0 0 0.380392 0 0 0 0.24 0"/>
<feBlend mode="normal" in2="effect5_dropShadow_2576_73525" result="effect6_dropShadow_2576_73525"/>
<feBlend mode="normal" in="SourceGraphic" in2="effect6_dropShadow_2576_73525" result="shape"/>
</filter>
<filter id="filter1_dddddd_2576_73525" x="38.8557" y="67.8022" width="98.2418" height="84.1682" filterUnits="userSpaceOnUse" color-interpolation-filters="sRGB">
<feFlood flood-opacity="0" result="BackgroundImageFix"/>
<feColorMatrix in="SourceAlpha" type="matrix" values="0 0 0 0 0 0 0 0 0 0 0 0 0 0 0 0 0 0 127 0" result="hardAlpha"/>
<feOffset dy="16"/>
<feGaussianBlur stdDeviation="8"/>
<feColorMatrix type="matrix" values="0 0 0 0 0.0705882 0 0 0 0 0.0980392 0 0 0 0 0.380392 0 0 0 0.03 0"/>
<feBlend mode="normal" in2="BackgroundImageFix" result="effect1_dropShadow_2576_73525"/>
<feColorMatrix in="SourceAlpha" type="matrix" values="0 0 0 0 0 0 0 0 0 0 0 0 0 0 0 0 0 0 127 0" result="hardAlpha"/>
<feOffset dy="8"/>
<feGaussianBlur stdDeviation="4"/>
<feColorMatrix type="matrix" values="0 0 0 0 0.0705882 0 0 0 0 0.0980392 0 0 0 0 0.380392 0 0 0 0.03 0"/>
<feBlend mode="normal" in2="effect1_dropShadow_2576_73525" result="effect2_dropShadow_2576_73525"/>
<feColorMatrix in="SourceAlpha" type="matrix" values="0 0 0 0 0 0 0 0 0 0 0 0 0 0 0 0 0 0 127 0" result="hardAlpha"/>
<feOffset dy="4"/>
<feGaussianBlur stdDeviation="2"/>
<feColorMatrix type="matrix" values="0 0 0 0 0.0705882 0 0 0 0 0.0980392 0 0 0 0 0.380392 0 0 0 0.03 0"/>
<feBlend mode="normal" in2="effect2_dropShadow_2576_73525" result="effect3_dropShadow_2576_73525"/>
<feColorMatrix in="SourceAlpha" type="matrix" values="0 0 0 0 0 0 0 0 0 0 0 0 0 0 0 0 0 0 127 0" result="hardAlpha"/>
<feOffset dy="2"/>
<feGaussianBlur stdDeviation="1"/>
<feColorMatrix type="matrix" values="0 0 0 0 0.0705882 0 0 0 0 0.0980392 0 0 0 0 0.380392 0 0 0 0.03 0"/>
<feBlend mode="normal" in2="effect3_dropShadow_2576_73525" result="effect4_dropShadow_2576_73525"/>
<feColorMatrix in="SourceAlpha" type="matrix" values="0 0 0 0 0 0 0 0 0 0 0 0 0 0 0 0 0 0 127 0" result="hardAlpha"/>
<feOffset dy="24"/>
<feGaussianBlur stdDeviation="12"/>
<feColorMatrix type="matrix" values="0 0 0 0 0.0705882 0 0 0 0 0.0980392 0 0 0 0 0.380392 0 0 0 0.03 0"/>
<feBlend mode="normal" in2="effect4_dropShadow_2576_73525" result="effect5_dropShadow_2576_73525"/>
<feColorMatrix in="SourceAlpha" type="matrix" values="0 0 0 0 0 0 0 0 0 0 0 0 0 0 0 0 0 0 127 0" result="hardAlpha"/>
<feOffset/>
<feGaussianBlur stdDeviation="0.5"/>
<feColorMatrix type="matrix" values="0 0 0 0 0.0705882 0 0 0 0 0.0980392 0 0 0 0 0.380392 0 0 0 0.24 0"/>
<feBlend mode="normal" in2="effect5_dropShadow_2576_73525" result="effect6_dropShadow_2576_73525"/>
<feBlend mode="normal" in="SourceGraphic" in2="effect6_dropShadow_2576_73525" result="shape"/>
</filter>
<filter id="filter2_ddd_2576_73525" x="86.4211" y="88.3787" width="29.198" height="29.1537" filterUnits="userSpaceOnUse" color-interpolation-filters="sRGB">
<feFlood flood-opacity="0" result="BackgroundImageFix"/>
<feColorMatrix in="SourceAlpha" type="matrix" values="0 0 0 0 0 0 0 0 0 0 0 0 0 0 0 0 0 0 127 0" result="hardAlpha"/>
<feOffset dy="2"/>
<feGaussianBlur stdDeviation="0.5"/>
<feColorMatrix type="matrix" values="0 0 0 0 0.0705882 0 0 0 0 0.0980392 0 0 0 0 0.380392 0 0 0 0.04 0"/>
<feBlend mode="normal" in2="BackgroundImageFix" result="effect1_dropShadow_2576_73525"/>
<feColorMatrix in="SourceAlpha" type="matrix" values="0 0 0 0 0 0 0 0 0 0 0 0 0 0 0 0 0 0 127 0" result="hardAlpha"/>
<feOffset dy="1"/>
<feGaussianBlur stdDeviation="0.5"/>
<feColorMatrix type="matrix" values="0 0 0 0 0.0705882 0 0 0 0 0.0980392 0 0 0 0 0.380392 0 0 0 0.16 0"/>
<feBlend mode="normal" in2="effect1_dropShadow_2576_73525" result="effect2_dropShadow_2576_73525"/>
<feColorMatrix in="SourceAlpha" type="matrix" values="0 0 0 0 0 0 0 0 0 0 0 0 0 0 0 0 0 0 127 0" result="hardAlpha"/>
<feOffset dy="3"/>
<feGaussianBlur stdDeviation="4"/>
<feColorMatrix type="matrix" values="0 0 0 0 0.0705882 0 0 0 0 0.0980392 0 0 0 0 0.380392 0 0 0 0.15 0"/>
<feBlend mode="normal" in2="effect2_dropShadow_2576_73525" result="effect3_dropShadow_2576_73525"/>
<feBlend mode="normal" in="SourceGraphic" in2="effect3_dropShadow_2576_73525" result="shape"/>
</filter>
<clipPath id="clip0_2576_73525">
<rect width="20" height="20" fill="white" transform="translate(99 168)"/>
</clipPath>
<clipPath id="clip1_2576_73525">
<rect width="20" height="20" fill="white" transform="translate(99 128)"/>
</clipPath>
<clipPath id="clip2_2576_73525">
<rect width="20" height="20" fill="white" transform="translate(154 87)"/>
</clipPath>
<clipPath id="clip3_2576_73525">
<rect width="20" height="20" fill="white" transform="translate(153 168)"/>
</clipPath>
<clipPath id="clip4_2576_73525">
<rect width="20" height="20" fill="white" transform="translate(154 128)"/>
</clipPath>
</defs>
</svg>
