<svg width="58" height="40" fill="none" xmlns="http://www.w3.org/2000/svg"><path fill-rule="evenodd" clip-rule="evenodd" d="M24.39 19.948h-1.848v-.725c0-.943.54-1.213 1.004-1.213.513 0 .913.228.913.228l.63-1.438s-.639-.417-1.798-.417c-1.304 0-2.787.735-2.787 3.041v.524H17.41v-.725c0-.943.539-1.213 1.003-1.213.264 0 .62.061.913.228l.63-1.438c-.376-.221-.98-.417-1.798-.417-1.303 0-2.787.735-2.787 3.041v.524h-1.183v1.574h1.183v5.56h2.039v-5.56h3.094v5.56h2.038v-5.56h1.849v-1.573ZM9.509 25.801c-.536 0-.803-.263-.803-.698 0-.805.901-1.08 2.546-1.255 0 1.077-.728 1.953-1.743 1.953Zm.71-6.062c-1.176 0-2.528.554-3.262 1.14l.67 1.41c.59-.539 1.541-.999 2.4-.999.816 0 1.266.273 1.266.822 0 .37-.299.557-.864.63-2.107.274-3.761.856-3.761 2.481 0 1.288.917 2.068 2.35 2.068 1.022 0 1.933-.568 2.366-1.319v1.109h1.906v-4.645c0-1.918-1.333-2.697-3.072-2.697Zm19.139.21v7.132h2.04v-3.436c0-1.634.988-2.113 1.678-2.113.27 0 .632.077.872.257l.372-1.886a2.33 2.33 0 0 0-.914-.164c-1.05 0-1.708.465-2.144 1.408V19.95h-1.904Zm12.115 1.043c.42-.615 1.226-1.253 2.305-1.253 1.303 0 2.382.81 2.382 2.412v4.93H44.12v-4.285c0-.944-.57-1.336-1.108-1.336-.674 0-1.349.616-1.349 1.95v3.671h-2.038v-4.27c0-.974-.536-1.351-1.12-1.351-.644 0-1.334.63-1.334 1.95v3.671h-2.041V19.95h1.966v1.078c.345-.688 1.092-1.288 2.17-1.288.989 0 1.815.459 2.205 1.253Zm-13.828 6.09h-2.036v-7.133h2.036v7.132Z" fill="#060809"/><path fill-rule="evenodd" clip-rule="evenodd" d="M37.489 10c-5.506 0-10.414 3.822-11.807 8.737h1.996c1.163-3.66 5.113-6.872 9.81-6.872 5.712 0 10.647 4.347 10.647 11.116 0 1.52-.197 2.89-.57 4.1h1.937l.02-.067c.317-1.248.478-2.605.478-4.033C50 15.432 44.5 10 37.489 10Z" fill="#0FA0EA"/></svg>