<svg width="42" height="42" fill="none" xmlns="http://www.w3.org/2000/svg"><path fill-rule="evenodd" clip-rule="evenodd" d="M21 36c8.284 0 15-6.716 15-15 0-8.284-6.716-15-15-15-8.284 0-15 6.716-15 15 0 8.284 6.716 15 15 15Z" fill="#FFFAF0"/><path d="M21 39c9.941 0 18-8.059 18-18S30.941 3 21 3 3 11.059 3 21s8.059 18 18 18Z" stroke="#FFF6E3" stroke-opacity=".5" stroke-width="6"/><path fill-rule="evenodd" clip-rule="evenodd" d="M19.257 14.099c.764-1.36 2.722-1.36 3.486 0l5.58 9.92c.75 1.334-.213 2.98-1.743 2.98H15.42c-1.53 0-2.493-1.646-1.743-2.98l5.58-9.92ZM22 24a1 1 0 1 1-2 0 1 1 0 0 1 2 0Zm-1-8a1 1 0 0 0-1 1v3a1 1 0 1 0 2 0v-3a1 1 0 0 0-1-1Z" fill="#FEBC48"/></svg>