<svg width="42" height="42" fill="none" xmlns="http://www.w3.org/2000/svg"><path fill-rule="evenodd" clip-rule="evenodd" d="M21 36c8.284 0 15-6.716 15-15 0-8.284-6.716-15-15-15-8.284 0-15 6.716-15 15 0 8.284 6.716 15 15 15Z" fill="#E4E9EB"/><path d="M21 39c9.941 0 18-8.059 18-18S30.941 3 21 3 3 11.059 3 21s8.059 18 18 18Z" stroke="#121961" stroke-opacity=".042" stroke-width="6"/><path d="M15 15a2 2 0 0 0-2 2v1h16v-1a2 2 0 0 0-2-2H15Z" fill="#607382"/><path fill-rule="evenodd" clip-rule="evenodd" d="M29 20H13v5a2 2 0 0 0 2 2h12a2 2 0 0 0 2-2v-5Zm-14 4a1 1 0 0 1 1-1h1a1 1 0 1 1 0 2h-1a1 1 0 0 1-1-1Zm5-1a1 1 0 1 0 0 2h1a1 1 0 1 0 0-2h-1Z" fill="#607382"/></svg>