<svg width="42" height="42" fill="none" xmlns="http://www.w3.org/2000/svg"><path fill-rule="evenodd" clip-rule="evenodd" d="M21 36c8.284 0 15-6.716 15-15 0-8.284-6.716-15-15-15-8.284 0-15 6.716-15 15 0 8.284 6.716 15 15 15Z" fill="#FFF9F9"/><path d="M21 39c9.941 0 18-8.059 18-18S30.941 3 21 3 3 11.059 3 21s8.059 18 18 18Z" stroke="#FEEFEF" stroke-opacity=".5" stroke-width="6"/><path fill-rule="evenodd" clip-rule="evenodd" d="M29 21a8 8 0 1 1-16 0 8 8 0 0 1 16 0Zm-7 4a1 1 0 1 1-2 0 1 1 0 0 1 2 0Zm-1-9a1 1 0 0 0-1 1v4a1 1 0 1 0 2 0v-4a1 1 0 0 0-1-1Z" fill="#C02B0A"/></svg>