<svg width="58" height="40" fill="none" xmlns="http://www.w3.org/2000/svg"><path d="M14.8 14.664H6.87c-1.033 0-1.87.844-1.87 1.885v7.997c0 1.04.837 1.884 1.87 1.884h7.93a1.876 1.876 0 0 0 1.867-1.884v-7.997a1.875 1.875 0 0 0-1.868-1.885Z" fill="#1677FF"/><path d="M14.606 22.053c-.466-.158-1.093-.4-1.79-.654a9.576 9.576 0 0 0 .974-2.48h-2.3v-.836h2.817v-.466h-2.818v-1.394H10.34c-.202 0-.202.201-.202.201v1.191H7.29v.467h2.85v.835H7.784v.466h4.563a8.25 8.25 0 0 1-.657 1.62c-1.48-.492-3.06-.891-4.052-.645-.635.157-1.044.438-1.284.734-1.103 1.352-.312 3.406 2.015 3.406 1.377 0 2.703-.773 3.73-2.049 1.533.743 4.568 2.02 4.568 2.02V22.65s-.38-.03-2.062-.597Zm-6.453 1.66c-1.815 0-2.352-1.442-1.455-2.231.3-.267.847-.397 1.138-.426 1.078-.107 2.076.308 3.255.888-.828 1.088-1.883 1.769-2.938 1.769Z" fill="#fff"/><path d="M30.335 16.387c0 .608.446 1.018 1.066 1.018.62 0 1.066-.41 1.066-1.018 0-.598-.445-1.019-1.066-1.019-.62 0-1.066.421-1.066 1.019Z" fill="#1677FF"/><path d="M29.211 15.625h-1.85v8.546h1.85v-8.546ZM24.12 15.918h-2.483l-2.774 8.254h1.71l.468-1.616h2.938l.445 1.616h2.19l-2.495-8.254Zm-2.693 5.291 1.1-3.804h.046l1.041 3.804h-2.187ZM32.326 17.896h-1.85v6.276h1.85v-6.276ZM51.656 17.909l.01-.012h-1.743l-1.101 3.816h-.058l-1.265-3.817h-2.072l2.493 6.3-1.041 1.92v.046h1.627l3.15-8.253ZM36.927 17.767c-.678 0-1.205.258-1.803.75v-.62h-1.85v8.265h1.85v-2.05a3.99 3.99 0 0 0 1.077.142c1.651 0 3.138-1.218 3.138-3.384 0-1.943-1.077-3.103-2.412-3.103Zm-1.171 5.327c-.21 0-.41-.023-.633-.093v-3.395c.387-.269.702-.398 1.1-.398.691 0 1.241.55 1.241 1.722.001 1.497-.807 2.164-1.708 2.164ZM45.064 22.603V19.98c0-1.429-.843-2.214-2.33-2.214-.95 0-1.604.165-2.799.527l.328 1.44c1.089-.49 1.568-.701 2.072-.701.608 0 .878.433.878 1.1v.047c-2.12.398-2.775.62-3.184 1.03-.304.305-.433.738-.433 1.242 0 1.205.937 1.85 1.814 1.85.656 0 1.183-.247 1.897-.786l.129.656h1.85l-.222-1.57Zm-1.85.047c-.491.269-.772.375-1.1.375-.445 0-.726-.293-.726-.76 0-.176.035-.352.175-.492.223-.223.656-.387 1.651-.62v1.497Z" fill="#000"/></svg>