<svg width="58" height="40" fill="none" xmlns="http://www.w3.org/2000/svg"><path fill-rule="evenodd" clip-rule="evenodd" d="M45.489 23.247h1.399a.274.274 0 0 0 .273-.272v-4.072c0-.512.026-.974.222-1.435a.925.925 0 0 1 .812-.606c.894 0 .885 1.03.878 1.839v4.308a.267.267 0 0 0 .248.238h1.41a.271.271 0 0 0 .269-.238v-4.761c0-.732 0-1.751-.366-2.357-.396-.652-1.01-.891-1.637-.891-.969 0-1.519.493-1.91 1.528h-.028v-1.157a.268.268 0 0 0-.248-.212H45.51a.27.27 0 0 0-.27.248v7.568a.27.27 0 0 0 .249.272Zm-1.316-3.97c0-2.387-1.126-4.267-3.207-4.267-2.029 0-3.154 1.848-3.154 4.188s1.112 4.218 3.154 4.218c1.966 0 3.207-1.83 3.207-4.139Zm-4.294-.318c0-.924.066-2.404 1.1-2.404.445 0 .759.21.916.732.184.605.21 1.37.21 2.006 0 .97-.04 2.563-1.14 2.563-1.086 0-1.086-1.93-1.086-2.866v-.031Zm-26.227 4.303h1.402a.258.258 0 0 0 .19-.077.285.285 0 0 0 .08-.195V18.917c0-.872 0-2.025.97-2.025.895 0 .882 1.013.87 1.831l-.002.257v4.011a.27.27 0 0 0 .248.271h1.405a.258.258 0 0 0 .189-.077.285.285 0 0 0 .08-.195v-4.106c0-.424-.001-.998.132-1.354a.935.935 0 0 1 .838-.62c.406 0 .72.144.824.653.054.245.047.813.042 1.189l-.002.228v4.011a.27.27 0 0 0 .248.271h1.402a.258.258 0 0 0 .189-.077.284.284 0 0 0 .081-.195v-4.775c0-.116.002-.235.004-.355.012-.713.024-1.472-.357-2.017a2.022 2.022 0 0 0-1.945-.806c-.74.12-1.359.65-1.622 1.387-.393-.957-.955-1.402-1.82-1.402-.863 0-1.505.445-1.845 1.402h-.026v-.988a.27.27 0 0 0-.248-.261h-1.307a.272.272 0 0 0-.269.27v7.568a.27.27 0 0 0 .249.25Zm-2.44.058a.278.278 0 0 1-.33.035c-.398-.347-.518-.535-.702-.823l-.102-.16c-.77.825-1.316 1.072-2.312 1.072-1.18 0-2.1-.766-2.1-2.298 0-1.197.621-2.01 1.49-2.409.642-.296 1.498-.388 2.238-.467l.399-.044v-.302c.003-.325.005-.686-.17-.959-.172-.271-.497-.382-.787-.382-.535 0-1.012.288-1.129.885a.303.303 0 0 1-.248.271l-1.348-.155a.247.247 0 0 1-.167-.107.272.272 0 0 1-.042-.201c.312-1.733 1.802-2.256 3.136-2.256.683 0 1.574.19 2.11.733.63.62.626 1.43.621 2.317v2.516c0 .618.218.926.448 1.25l.082.116c.09.13.109.294 0 .392-.287.252-.796.716-1.075.979l-.011-.003ZM9.8 19.726v.072c0 .543 0 1.003-.262 1.494-.224.415-.577.67-.972.67-.537 0-.852-.43-.852-1.07 0-1.255 1.072-1.483 2.086-1.483v.317Zm20.796 2.105.082.116c.094.136.114.295-.006.385-.287.252-.796.718-1.075.979a.28.28 0 0 1-.332.034 3.12 3.12 0 0 1-.703-.826l-.101-.157c-.77.825-1.318 1.071-2.311 1.071-1.18 0-2.1-.765-2.1-2.296 0-1.198.618-2.011 1.497-2.41.643-.297 1.503-.389 2.246-.468.134-.014.265-.028.39-.043v-.296c.003-.325.006-.687-.171-.959-.167-.271-.498-.383-.787-.383-.535 0-1.01.288-1.127.884a.304.304 0 0 1-.249.272l-1.359-.154a.246.246 0 0 1-.168-.107.272.272 0 0 1-.042-.203c.313-1.734 1.803-2.256 3.137-2.256.681 0 1.573.19 2.11.734.631.616.627 1.42.622 2.303l-.001.235v2.296c0 .617.218.924.448 1.248Zm-3.644.124c.393 0 .748-.256.97-.67.264-.494.264-.956.263-1.506v-.376c-1.014 0-2.085.227-2.085 1.483 0 .638.314 1.069.852 1.069Zm4.912-6.536v1.078c0 .074.028.145.078.196a.25.25 0 0 0 .19.076h2.412l-2.766 4.176a1.358 1.358 0 0 0-.172.742v1.103c0 .16.168.34.328.25a5.079 5.079 0 0 1 4.87-.008c.175.095.34-.09.34-.248v-1.16a.497.497 0 0 0-.249-.42c-.805-.477-1.742-.617-2.629-.594l2.389-3.584c.222-.32.346-.524.346-.68v-.927a.277.277 0 0 0-.078-.196.25.25 0 0 0-.188-.077h-4.609a.242.242 0 0 0-.188.075.268.268 0 0 0-.074.198Z" fill="#000"/><path fill-rule="evenodd" clip-rule="evenodd" d="M34.169 28.075c.319-.834 1.029-2.703.69-3.155h.003c-.336-.454-2.223-.216-3.071-.109h-.002c-.258.033-.298-.203-.066-.374 1.507-1.113 3.976-.795 4.263-.419.286.376-.078 2.978-1.49 4.22-.217.19-.424.089-.328-.163Zm-10.14 1.287c3.282 0 7.103-1.09 9.736-3.132v.004c.436-.345.062-.851-.382-.653a22.7 22.7 0 0 1-9.078 1.958c-4.327 0-8.512-1.248-11.898-3.319-.297-.181-.518.139-.27.372 3.26 3.092 7.501 4.793 11.892 4.77Z" fill="#F90"/></svg>