<svg width="34" height="24" fill="none" xmlns="http://www.w3.org/2000/svg"><path d="M0 4a4 4 0 0 1 4-4h26a4 4 0 0 1 4 4v16a4 4 0 0 1-4 4H4a4 4 0 0 1-4-4V4Z" fill="#1F72CD"/><path fill-rule="evenodd" clip-rule="evenodd" d="m6.095 8.5-3.18 7.247h3.808l.472-1.156h1.079l.472 1.156h4.192v-.882l.373.882h2.168l.374-.9v.9h8.718l1.06-1.126.992 1.126 4.478.01-3.191-3.613L31.101 8.5h-4.408L25.66 9.605 24.7 8.5h-9.484l-.814 1.87-.834-1.87h-3.8v.852L9.345 8.5h-3.25Zm.737 1.029H8.69l2.11 4.914V9.53h2.033l1.63 3.523 1.502-3.523h2.023v5.2h-1.23l-.011-4.075-1.795 4.075H13.85l-1.805-4.075v4.075H9.512l-.48-1.166H6.438l-.48 1.165H4.601l2.231-5.199Zm17.288 0h-5.006v5.197h4.928l1.589-1.722 1.531 1.722h1.6l-2.326-2.583 2.327-2.614H27.23l-1.58 1.703-1.531-1.703Zm-16.385.88-.854 2.077h1.708l-.854-2.077Zm12.615 1.146v-.95h3.124l1.363 1.518-1.424 1.526H20.35v-1.036h2.731v-1.058H20.35Z" fill="#fff"/><path d="M4 1h26v-2H4v2Zm29 3v16h2V4h-2Zm-3 19H4v2h26v-2ZM1 20V4h-2v16h2Zm3 3a3 3 0 0 1-3-3h-2a5 5 0 0 0 5 5v-2Zm29-3a3 3 0 0 1-3 3v2a5 5 0 0 0 5-5h-2ZM30 1a3 3 0 0 1 3 3h2a5 5 0 0 0-5-5v2ZM4-1a5 5 0 0 0-5 5h2a3 3 0 0 1 3-3v-2Z" fill="#ECEDF8"/></svg>