<svg width="58" height="40" fill="none" xmlns="http://www.w3.org/2000/svg"><path fill-rule="evenodd" clip-rule="evenodd" d="M16.008 13.905c-.493.587-1.28 1.05-2.068.983-.098-.793.287-1.635.739-2.156.492-.603 1.353-1.032 2.05-1.065.083.826-.237 1.635-.721 2.238Zm.713 1.14c-.694-.04-1.327.21-1.838.412-.33.13-.608.24-.82.24-.238 0-.528-.115-.854-.246-.427-.17-.915-.366-1.427-.356-1.173.016-2.264.685-2.863 1.751-1.23 2.131-.32 5.287.87 7.021.582.86 1.28 1.801 2.199 1.768.404-.015.695-.14.995-.268.347-.148.707-.302 1.269-.302.542 0 .886.15 1.217.294.314.136.616.268 1.064.26.951-.017 1.55-.86 2.133-1.719a7.575 7.575 0 0 0 .946-1.958l.005-.016a.226.226 0 0 0-.022-.01c-.21-.098-1.816-.838-1.832-2.823-.015-1.666 1.274-2.51 1.477-2.644l.025-.016c-.82-1.223-2.1-1.355-2.544-1.388Zm6.588 10.483V12.65h4.8c2.477 0 4.208 1.718 4.208 4.229s-1.764 4.246-4.274 4.246h-2.748v4.403h-1.986Zm1.985-11.193h2.29c1.722 0 2.707.925 2.707 2.552 0 1.628-.985 2.561-2.716 2.561h-2.28v-5.113Zm13.578 9.648c-.525 1.008-1.681 1.644-2.928 1.644-1.846 0-3.134-1.107-3.134-2.776 0-1.652 1.247-2.602 3.552-2.742l2.477-.149v-.71c0-1.05-.68-1.62-1.895-1.62-1 0-1.73.521-1.878 1.314h-1.789c.058-1.668 1.616-2.883 3.725-2.883 2.272 0 3.75 1.198 3.75 3.057v6.41h-1.839v-1.545h-.04Zm-2.395.116c-1.059 0-1.731-.512-1.731-1.297 0-.81.648-1.28 1.886-1.355l2.207-.14v.727c0 1.206-1.017 2.065-2.362 2.065Zm10.37 1.933c-.796 2.255-1.707 2.998-3.643 2.998-.148 0-.64-.016-.755-.05v-1.544c.123.017.427.033.583.033.878 0 1.37-.372 1.673-1.338l.18-.57-3.363-9.376h2.076l2.338 7.608h.041l2.338-7.608h2.018l-3.486 9.847Z" fill="#000"/></svg>