<svg width="58" height="40" fill="none" xmlns="http://www.w3.org/2000/svg"><path d="M42.485 12.397H31.2l-1.148 1.332-3.725 4.322-1.148 1.332H14.041l1.13-1.35.535-.638 1.13-1.348h-5.131c-.938 0-1.705.81-1.705 1.801v3.801c0 .991.767 1.802 1.705 1.802H31.35c.938 0 2.218-.602 2.846-1.338l2.972-3.484 5.316-6.232Z" fill="#005697"/><path d="M44.753 8.333c.937 0 1.705.811 1.705 1.802v3.8c0 .992-.768 1.803-1.705 1.803h-5.115l1.14-1.34.566-.663 1.141-1.338H31.2l-6.02 6.99H13.972l8.037-9.365.304-.354c.63-.734 1.912-1.335 2.85-1.335h19.59Z" fill="#FBD500"/><path fill-rule="evenodd" clip-rule="evenodd" d="M13.842 29.913a1.19 1.19 0 0 0-.17-.645 1.134 1.134 0 0 0-.449-.415 1.01 1.01 0 0 0 .431-.423 1.29 1.29 0 0 0 .153-.63v-.128c0-.287-.053-.525-.16-.716a1.217 1.217 0 0 0-.448-.459 2.092 2.092 0 0 0-.691-.247 4.899 4.899 0 0 0-.896-.075c-.111 0-.227.002-.348.007-.12.005-.237.011-.35.018a8.586 8.586 0 0 0-.546.054c-.134.024-.23.067-.285.129-.055.062-.083.174-.083.336v4.354c0 .162.029.274.087.336.058.062.156.105.295.129.07.014.153.026.25.036.097.01.203.017.316.025a9.295 9.295 0 0 0 .705.025c.301 0 .585-.024.851-.072.267-.047.498-.132.695-.254.197-.122.353-.286.469-.494.116-.208.174-.47.174-.784v-.107Zm-1.181-2.055a.68.68 0 0 1-.035.218.433.433 0 0 1-.115.18.59.59 0 0 1-.215.12c-.09.032-.205.047-.344.047h-.778v-1.238c.023 0 .06-.001.108-.004.048-.002.1-.004.153-.004h.267c.357 0 .606.047.747.14.141.093.212.238.212.433v.108Zm-.177 2.599a.563.563 0 0 0 .205-.466v-.078a.673.673 0 0 0-.16-.448c-.107-.126-.299-.19-.577-.19h-.778v1.34h.122c.053 0 .108 0 .166.003.058.002.114.004.167.004h.115c.356 0 .603-.055.74-.165Zm5.164-1.597c0-.262-.038-.486-.114-.67a1.16 1.16 0 0 0-.323-.45 1.32 1.32 0 0 0-.51-.258 2.58 2.58 0 0 0-.678-.083 4.49 4.49 0 0 0-.677.05c-.22.034-.395.067-.525.1-.088.025-.132.077-.132.158v.58c0 .048.012.082.035.1.023.02.053.03.09.03h.035l.208-.019a7.942 7.942 0 0 1 .608-.029l.337-.003a.68.68 0 0 1 .382.093c.093.062.14.196.14.401v.258h-.376c-.598 0-1.032.097-1.303.29-.27.193-.406.5-.406.92v.064c0 .234.034.43.1.587.068.158.157.284.268.38a.998.998 0 0 0 .379.204c.141.04.288.06.441.06.208 0 .388-.028.538-.085.15-.058.293-.136.428-.236v.114a.14.14 0 0 0 .041.1c.028.029.06.043.098.043h.778c.037 0 .069-.014.097-.043a.139.139 0 0 0 .041-.1V28.86Zm-1.371 1.844a1.81 1.81 0 0 0 .267-.111v-.788h-.396c-.12 0-.22.01-.299.032a.442.442 0 0 0-.187.097.344.344 0 0 0-.098.165.857.857 0 0 0-.027.229v.064c0 .153.035.25.107.294.072.043.182.064.33.064a.963.963 0 0 0 .303-.046Zm5.623.705v-2.384c0-.224-.017-.436-.052-.634a1.444 1.444 0 0 0-.188-.515.973.973 0 0 0-.375-.348c-.16-.086-.364-.129-.614-.129-.223 0-.42.028-.591.083a1.935 1.935 0 0 0-.542.293V27.6a.141.141 0 0 0-.041-.1.132.132 0 0 0-.098-.044h-.778a.13.13 0 0 0-.097.043.139.139 0 0 0-.042.1v3.809c0 .038.015.073.045.104.03.03.064.046.101.046h.84c.038 0 .07-.015.098-.046a.151.151 0 0 0 .042-.104v-2.814c.12-.067.233-.122.34-.165a.833.833 0 0 1 .313-.064c.106 0 .193.01.26.032s.12.058.156.111a.488.488 0 0 1 .077.207c.014.086.02.19.02.314v2.38a.15.15 0 0 0 .042.103c.028.03.06.046.098.046h.84c.037 0 .07-.015.1-.046a.145.145 0 0 0 .046-.104Zm3.418-.694v.637c0 .052-.012.09-.035.11a.273.273 0 0 1-.111.054 3.658 3.658 0 0 1-.924.107c-.49 0-.883-.154-1.177-.465-.295-.31-.442-.759-.442-1.346v-.601c0-.587.147-1.036.442-1.346.294-.31.686-.466 1.177-.466a3.645 3.645 0 0 1 .924.108c.05.014.088.032.111.053.023.022.035.059.035.112v.637a.111.111 0 0 1-.038.09.141.141 0 0 1-.094.031h-.014a6.27 6.27 0 0 0-.848-.05.628.628 0 0 0-.222.04.418.418 0 0 0-.18.136.731.731 0 0 0-.122.258c-.03.107-.045.24-.045.397v.601c0 .158.015.29.045.398a.73.73 0 0 0 .122.257c.05.065.11.11.18.136.07.027.144.04.222.04a6.235 6.235 0 0 0 .848-.05h.014c.037 0 .068.01.094.032a.111.111 0 0 1 .038.09Zm3.856-1.454a2.43 2.43 0 0 0-.115-.773 1.487 1.487 0 0 0-.877-.956 1.97 1.97 0 0 0-.749-.133c-.283 0-.532.045-.748.133a1.52 1.52 0 0 0-.546.372c-.149.16-.261.355-.338.584-.077.229-.115.486-.115.773v.501c0 .287.038.544.115.773.077.23.19.424.338.584.148.16.33.284.546.372.216.088.465.133.748.133s.533-.045.749-.133a1.486 1.486 0 0 0 .877-.956 2.43 2.43 0 0 0 .115-.773v-.501Zm-1.74 1.382c.41 0 .614-.294.614-.88v-.502c0-.582-.205-.874-.615-.874a.536.536 0 0 0-.462.219c-.106.145-.16.364-.16.655v.501c0 .291.054.51.16.659.105.148.26.222.462.222Zm5.873.766v-2.384c0-.224-.018-.436-.052-.634a1.439 1.439 0 0 0-.188-.515.973.973 0 0 0-.375-.348c-.16-.086-.365-.129-.615-.129-.222 0-.419.028-.59.083a1.935 1.935 0 0 0-.542.293V27.6a.14.14 0 0 0-.042-.1.13.13 0 0 0-.097-.044h-.778a.131.131 0 0 0-.098.043.14.14 0 0 0-.041.1v3.809c0 .038.015.073.045.104.03.03.064.046.1.046h.841c.037 0 .07-.015.098-.046a.152.152 0 0 0 .041-.104v-2.814c.12-.067.234-.122.34-.165a.834.834 0 0 1 .313-.064c.107 0 .194.01.26.032.068.022.12.058.157.111a.49.49 0 0 1 .077.207c.013.086.02.19.02.314v2.38c0 .037.014.072.042.103.028.03.06.046.097.046h.84c.038 0 .072-.015.102-.046a.146.146 0 0 0 .045-.104Zm3.029-.538v.554c0 .08-.044.128-.132.142-.107.019-.2.033-.278.042-.079.01-.17.015-.27.015-.19 0-.357-.016-.502-.047a.747.747 0 0 1-.362-.182.86.86 0 0 1-.221-.376 2.099 2.099 0 0 1-.076-.62v-2.076l-.556-.093a.242.242 0 0 1-.1-.054.123.123 0 0 1-.046-.096v-.473c0-.038.015-.073.045-.104a.138.138 0 0 1 .101-.046h.556v-.587c0-.039.014-.07.041-.094a.236.236 0 0 1 .097-.05l.842-.15h.021c.037 0 .067.01.09.032a.117.117 0 0 1 .034.09v.759h.57c.037 0 .07.014.097.043a.142.142 0 0 1 .042.101v.585a.141.141 0 0 1-.042.1.131.131 0 0 1-.097.044h-.57v2.084c0 .143.012.235.035.275.023.04.088.061.194.061h.341c.097 0 .146.04.146.12Zm3.71-2.011a1.74 1.74 0 0 0-.115-.67 1.159 1.159 0 0 0-.323-.45 1.32 1.32 0 0 0-.51-.258 2.58 2.58 0 0 0-.678-.083 4.49 4.49 0 0 0-.677.05c-.22.034-.395.067-.525.1-.088.025-.132.077-.132.158v.58c0 .048.011.082.035.1.023.02.053.03.09.03h.035l.208-.019a7.928 7.928 0 0 1 .608-.029l.337-.003a.68.68 0 0 1 .382.093c.093.062.139.196.139.401v.258h-.375c-.598 0-1.032.097-1.303.29-.27.193-.406.5-.406.92v.064c0 .234.034.43.1.587.068.158.157.284.268.38a.997.997 0 0 0 .379.204c.141.04.288.06.44.06.21 0 .389-.028.54-.085.15-.058.292-.136.427-.236v.114c0 .038.013.072.041.1a.13.13 0 0 0 .098.043h.778c.037 0 .069-.014.097-.043a.14.14 0 0 0 .041-.1V28.86Zm-1.373 1.844c.095-.031.185-.068.268-.111v-.788h-.396c-.12 0-.22.01-.299.032a.442.442 0 0 0-.187.097.34.34 0 0 0-.097.165.853.853 0 0 0-.028.229v.064c0 .153.035.25.107.294.072.043.182.064.33.064a.964.964 0 0 0 .302-.046Zm4.79.648v-.637a.111.111 0 0 0-.038-.09.14.14 0 0 0-.094-.032h-.014a6.229 6.229 0 0 1-.848.05.62.62 0 0 1-.221-.04.415.415 0 0 1-.181-.136.728.728 0 0 1-.121-.257 1.487 1.487 0 0 1-.046-.398v-.601c0-.158.015-.29.046-.397a.73.73 0 0 1 .12-.258.418.418 0 0 1 .182-.136.625.625 0 0 1 .222-.04 6.264 6.264 0 0 1 .848.05h.013c.037 0 .069-.01.094-.032a.111.111 0 0 0 .038-.09v-.636c0-.053-.011-.09-.035-.111a.274.274 0 0 0-.11-.054 3.642 3.642 0 0 0-.924-.107c-.492 0-.884.155-1.178.465-.294.31-.441.759-.441 1.346v.601c0 .587.147 1.036.441 1.346.294.31.686.466 1.178.466a3.656 3.656 0 0 0 .924-.108.273.273 0 0 0 .11-.053c.024-.022.035-.059.035-.111Zm2.994-.481v.554c0 .08-.044.128-.132.142-.106.019-.199.033-.278.042-.078.01-.169.015-.27.015a2.42 2.42 0 0 1-.501-.047.745.745 0 0 1-.363-.182.86.86 0 0 1-.22-.376 2.102 2.102 0 0 1-.077-.62v-2.076l-.555-.093a.242.242 0 0 1-.101-.054.123.123 0 0 1-.045-.096v-.473c0-.038.015-.073.045-.104a.138.138 0 0 1 .1-.046h.556v-.587c0-.039.014-.07.042-.094a.236.236 0 0 1 .096-.05l.843-.15h.02c.037 0 .067.01.09.032a.116.116 0 0 1 .035.09v.759h.57c.036 0 .069.014.097.043a.142.142 0 0 1 .041.101v.585a.142.142 0 0 1-.041.1.131.131 0 0 1-.097.044h-.57v2.084c0 .143.011.235.035.275.023.04.087.061.194.061h.34c.098 0 .146.04.146.12Z" fill="#005697"/></svg>