<svg width="58" height="40" fill="none" xmlns="http://www.w3.org/2000/svg"><path fill-rule="evenodd" clip-rule="evenodd" d="M40.333 12.978c3.687 6.533 1.381 14.818-5.151 18.505-6.532 3.688-14.817 1.381-18.505-5.152-3.688-6.532-1.381-14.817 5.15-18.505 6.533-3.687 14.818-1.38 18.506 5.152Zm-11.467.678c1.964-.364 3.645-.197 4.298 1.51.479 1.25.152 2.17-.59 2.847 1.512-.054 2.56.872 2.975 2.473.428 2.4-1.148 3.511-3.608 4.348l.676 2.457-1.486.412-.667-2.425c-.385.107-.78.213-1.19.318l.67 2.436-1.484.411-.679-2.462-2.997.822-.191-1.852s1.104-.288 1.08-.3c.42-.117.449-.449.424-.644l-1.836-6.67c-.14-.284-.431-.578-1.034-.411.012-.026-1.079.3-1.079.3l-.436-1.583 2.995-.835-.67-2.434 1.486-.412.656 2.386c.395-.118.793-.236 1.183-.344l-.653-2.371 1.486-.412.67 2.435Zm-1.11 5.318c1.02-.266 3.241-.844 2.82-2.377-.432-1.567-2.543-.923-3.576-.607-.117.035-.22.067-.306.09l.815 2.96c.07-.02.154-.042.247-.066Zm1.351 4.742c1.221-.32 3.892-1.02 3.427-2.708-.475-1.727-3.014-.958-4.253-.583-.138.042-.26.079-.362.107l.898 3.262.29-.078Z" fill="#8FC258"/></svg>