<svg width="58" height="40" fill="none" xmlns="http://www.w3.org/2000/svg"><path fill-rule="evenodd" clip-rule="evenodd" d="M41.45 19.892c0 7.304-5.921 13.225-13.225 13.225C20.921 33.117 15 27.196 15 19.892c0-7.304 5.921-13.225 13.225-13.225 7.304 0 13.225 5.92 13.225 13.225Zm-10.048-4.914c1.84.632 3.186 1.578 2.922 3.338-.192 1.29-.91 1.913-1.862 2.131 1.307.678 1.753 1.965 1.339 3.52-.787 2.24-2.655 2.429-5.14 1.96l-.604 2.408-1.457-.363.595-2.374a61.485 61.485 0 0 1-1.161-.3l-.598 2.386-1.455-.362.602-2.412-2.934-.738.724-1.662s1.074.284 1.059.263c.412.102.596-.166.668-.344l1.636-6.533c.018-.309-.09-.697-.68-.844.023-.016-1.058-.262-1.058-.262l.388-1.55 2.939.724.597-2.384 1.456.362-.585 2.337c.392.089.785.179 1.168.274l.581-2.323 1.457.363-.597 2.385Zm-3.486 3.978c.993.263 3.152.836 3.529-.665.384-1.536-1.715-2-2.742-2.227-.116-.026-.219-.049-.303-.07l-.725 2.9c.069.016.15.038.24.062h.001Zm-1.124 4.668c1.188.313 3.788.998 4.202-.657.423-1.691-2.097-2.254-3.327-2.53a16.65 16.65 0 0 1-.358-.082l-.8 3.195.283.074Z" fill="#F7931A"/></svg>