<svg width="58" height="40" fill="none" xmlns="http://www.w3.org/2000/svg"><path fill-rule="evenodd" clip-rule="evenodd" d="M11.56 22.945c-.31.177-.64.265-.99.265h-.27c-.07 0-.17-.006-.46-.059l.978-4.282c.18-.167.374-.275.6-.327.224-.052.369-.066.51-.066.429 0 .761.128.921.41.16.28.24.67.24 1.17a3.616 3.616 0 0 1-.727 2.178 2.652 2.652 0 0 1-.802.71Zm2.204-6.152c-.35-.177-.765-.265-1.245-.265-.23 0-.445.026-.644.078-.2.052-.389.12-.589.213l.919-4.022-2.325.374-2.594 11.35c.29.146.597.26.922.344.325.083.632.145.922.187.29.042.548.065.773.07.225.006.382.008.472.008.7 0 1.35-.138 1.95-.414.6-.275 1.119-.65 1.56-1.124.439-.473.786-1.03 1.041-1.67.255-.64.383-1.32.383-2.038 0-.468-.055-.905-.165-1.31a3.05 3.05 0 0 0-.51-1.063 2.491 2.491 0 0 0-.87-.718Zm6.148-1.267.342-1.496h-2.227l-.342 1.496h2.227Zm3.222 7.622c-.287 0-.512-.043-.676-.128a.722.722 0 0 1-.346-.36 1.17 1.17 0 0 1-.077-.552c.016-.213.054-.443.116-.688l.676-2.944h2.536l.46-1.952h-2.55l.584-2.48-2.383.384-1.506 6.624a8.698 8.698 0 0 0-.215 1.552c-.02.49.051.925.215 1.304s.44.677.83.896c.39.218.938.328 1.645.328a5.57 5.57 0 0 0 1.275-.128l.13-.032.464-2.02a3.5 3.5 0 0 1-.463.124c-.23.048-.469.072-.715.072Zm27.056-6.622h-2.226L46.669 22.2h.002l-.178.78a4.838 4.838 0 0 1-.37.095c-.231.048-.47.072-.715.072-.288 0-.513-.042-.677-.128a.723.723 0 0 1-.346-.36 1.17 1.17 0 0 1-.076-.552c.015-.213.053-.442.115-.688l.676-2.944.446-1.952h-2.275l-1.03 4.528a8.697 8.697 0 0 0-.215 1.552c-.02.49.051.926.215 1.304.164.379.44.678.83.896.39.219.938.328 1.645.328.492 0 .917-.043 1.276-.128l.036-.01h.006v.004c-.1.467-.302.846-.626 1.142-.325.295-.806.443-1.444.443-.272 0-.52-.016-.744-.049l-.438 1.92c.296.04.625.06.988.06.678 0 1.271-.08 1.78-.24a3.517 3.517 0 0 0 1.309-.733c.364-.327.668-.737.912-1.23a7.712 7.712 0 0 0 .591-1.752l1.54-6.743-.005-.003.294-1.285Zm-10.921 1.95c-1.038 0-1.237 0-1.662.23-.302.163-.552.407-.772.693-.22.286-.392.616-.516.99a3.668 3.668 0 0 0-.188 1.17c0 .5.08.894.24 1.185.16.291.454.437.884.437.23 0 .436-.047.621-.14.185-.094.382-.25.592-.468.02-.26.052-.533.097-.819.041-.261.093-.505.14-.728l.012-.062.552-2.488Zm1.58 2.896a5.38 5.38 0 0 0-.12 1.785c.06.599.28 1.515.495 1.973h-2.155a2.14 2.14 0 0 1-.27-.698c-.01-.05-.019-.091-.031-.128-.28.239-.59.436-.929.592-.34.156-.72.234-1.139.234-.499 0-.926-.09-1.28-.273a2.434 2.434 0 0 1-.869-.733 2.987 2.987 0 0 1-.487-1.076c-.1-.41-.15-.85-.15-1.317 0-.718.123-1.393.367-2.028a5.19 5.19 0 0 1 1.02-1.66c.433-.473 1.482-1.516 3.202-1.516h3.455l-1.108 4.845Zm-12.394 1.842c-.252 0-.463-.02-.634-.063l1.079-4.675.879.001c.472.002.807.169.998.483.19.314.287.696.287 1.146 0 .46-.064.882-.189 1.264-.126.382-.302.709-.528.98a2.37 2.37 0 0 1-.822.637 2.478 2.478 0 0 1-1.07.227Zm4.478-1.185a5.84 5.84 0 0 0 .362-2.096c0-.47-.063-.913-.188-1.326a3.017 3.017 0 0 0-.58-1.084 2.715 2.715 0 0 0-1.004-.73c-.407-.177-.892-.266-1.455-.266H27.094l-2.59 11.35h2.232l.678-2.842c.342.063.684.095 1.026.095.703 0 1.354-.129 1.952-.385a4.478 4.478 0 0 0 1.539-1.075 4.994 4.994 0 0 0 1.002-1.64ZM15.49 25.132l1.966-8.61h2.227l-1.966 8.61h-2.227Z" fill="#002855"/></svg>