<svg width="40" height="26" fill="none" xmlns="http://www.w3.org/2000/svg"><path fill-rule="evenodd" clip-rule="evenodd" d="M27.1 2.476H2.5C1.35 2.476 0 3.79 0 4.952v18.572C0 24.688 1.35 26 2.5 26h31.25c1.15 0 2.5-1.312 2.5-2.476V14.2a7.504 7.504 0 0 1-3.75 1.795v.1c0 .816-.45 1.237-1.25 1.237H3.75c-.8 0-1.25-.42-1.25-1.238v-1.238c0-.817.45-1.238 1.25-1.238h21.913a7.386 7.386 0 0 1-1.584-2.747 7.337 7.337 0 0 1 .79-6.131A7.438 7.438 0 0 1 27.1 2.476Z" fill="#CFD3D9"/><path fill-rule="evenodd" clip-rule="evenodd" d="M24.175 6.19H0v3.715h23.85a7.41 7.41 0 0 1 .325-3.715Z" fill="#607382"/><path fill-rule="evenodd" clip-rule="evenodd" d="M31.25 17.333a8.793 8.793 0 0 1-6.187-2.538A8.625 8.625 0 0 1 22.5 8.667c0-2.299.922-4.503 2.563-6.129A8.793 8.793 0 0 1 31.25 0c2.32 0 4.546.913 6.187 2.538A8.625 8.625 0 0 1 40 8.667a8.625 8.625 0 0 1-2.563 6.128 8.793 8.793 0 0 1-6.187 2.538ZM27.775 5.076h-.987L24.375 6.29v1.238l1.913-.99v5.72h1.5V5.075h-.013Zm2.875.99c.713 0 1.213.397 1.213.966 0 .62-.588 1.053-1.438 1.053h-.375v1.052h.45c.9 0 1.513.446 1.513 1.09 0 .619-.6 1.04-1.45 1.04-.625 0-1.25-.198-1.9-.582v1.238c.7.297 1.4.458 2.087.458 1.638 0 2.763-.83 2.763-2.03 0-.842-.526-1.523-1.4-1.796.75-.247 1.237-.904 1.237-1.646 0-1.164-1.038-1.957-2.538-1.957a5.04 5.04 0 0 0-1.962.421v1.214c.6-.335 1.212-.52 1.8-.52Zm5.4 2.7c.913 0 1.55.532 1.55 1.225 0 .73-.638 1.239-1.55 1.239-.55 0-1.125-.174-1.712-.533v1.275a4.546 4.546 0 0 0 1.85.409c.325 0 .624-.05.912-.124a6.749 6.749 0 0 0 1.025-3.566l-.025-.52a2.897 2.897 0 0 0-1.538-.396c-.224 0-.462.013-.712.05v-1.61h1.8a6.932 6.932 0 0 0-.575-1.139H34.55v3.9c.5-.124 1-.21 1.5-.21Z" fill="#204CE5"/></svg>