<svg width="36" height="24" fill="none" xmlns="http://www.w3.org/2000/svg"><path opacity=".2" d="M32.996 24H3.004a2.935 2.935 0 0 1-1.142-.221 2.975 2.975 0 0 1-.972-.65 3.034 3.034 0 0 1-.654-.977A3.077 3.077 0 0 1 0 20.993V3.007c.003-.398.084-.791.236-1.158C.39 1.482.611 1.15.89.87c.28-.279.61-.5.972-.649.363-.15.75-.224 1.142-.22h29.992c.391-.004.78.07 1.142.22.363.15.693.37.972.65.279.278.501.61.654.977.152.367.233.76.236 1.158v18a3.058 3.058 0 0 1-.895 2.128 2.953 2.953 0 0 1-2.11.866ZM12.414 7.364c0-.58-.435-1.048-.969-1.048H4.692c-.533 0-.968.467-.968 1.048v4.22c0 .58.435 1.048.968 1.048h6.753c.534 0 .969-.468.969-1.049V7.364Z" fill="#2F4054"/><path d="M31.447 18.546h-3.842c-.833 0-1.28-.328-1.28-1.091 0-.764.447-1.091 1.28-1.091h3.842c.832 0 1.28.327 1.28 1.09 0 .764-.448 1.091-1.28 1.091Zm-7.684 0H19.92c-.832 0-1.28-.328-1.28-1.091 0-.764.448-1.091 1.28-1.091h3.842c.832 0 1.28.327 1.28 1.09 0 .764-.448 1.091-1.28 1.091Zm-7.684 0h-3.842c-.832 0-1.28-.328-1.28-1.091 0-.764.448-1.091 1.28-1.091h3.842c.832 0 1.28.327 1.28 1.09 0 .764-.448 1.091-1.28 1.091Zm-7.684 0H4.553c-.832 0-1.28-.328-1.28-1.091 0-.764.448-1.091 1.28-1.091h3.842c.833 0 1.28.327 1.28 1.09 0 .764-.447 1.091-1.28 1.091Z" fill="#607382"/></svg>