<svg width="58" height="40" fill="none" xmlns="http://www.w3.org/2000/svg"><path d="M7.298 18.013c-.391 0-.43-.127-.43-1.053v-.158c0-.93.039-1.055.43-1.055h8.95c.392 0 .43.125.43 1.054v.158c0 .927-.039 1.054-.43 1.054h-8.95Zm0-4.078c-.391 0-.43-.127-.43-1.054v-.159c0-.93.039-1.055.43-1.055h8.95c.392 0 .43.126.43 1.056v.158c0 .927-.039 1.054-.43 1.054h-8.95ZM8.64 26.047c0-1.535.801-2.379 2.006-2.379.455 0 .82.124 1.275.336.165.078.302.047.519-.433l.158-.327c.155-.393.167-.555-.022-.643-.559-.305-1.423-.498-2.17-.498-2.128 0-3.738 1.574-3.738 3.944s1.61 3.944 3.737 3.944c.748 0 1.632-.193 2.193-.5.186-.085.174-.25.02-.643l-.156-.345c-.216-.48-.354-.507-.52-.433-.456.213-.84.337-1.296.337-1.205 0-2.004-.825-2.004-2.36h-.002Zm25.357 3.58c0 .21-.084.266-.716.266h-.063c-.665 0-.758-.028-.81-.18a2.427 2.427 0 0 1-.084-.316c-.352.393-.776.603-1.423.603-1.568 0-2.51-1.075-2.51-2.803 0-1.869 1.048-2.975 2.604-2.975.438 0 .841.126 1.153.356v-2.427c0-.163.02-.23.893-.23h.063c.809 0 .892.067.892.23v7.477Zm-1.849-3.685a1.14 1.14 0 0 0-.381-.256 1.208 1.208 0 0 0-.46-.09c-.696 0-1.026.565-1.026 1.602 0 .594.135.972.33 1.17.176.204.447.27.708.27.322 0 .57-.074.685-.212.102-.105.144-.267.144-.641V25.94h.001Zm11.271 3.724c0 .16-.083.227-.894.227h-.062c-.872 0-.89-.066-.89-.227V22.15c0-.163.018-.23.89-.23h.062c.81 0 .893.067.893.23v7.515h.001Zm-6.503-1.998c.103.68.56 1.008 1.277 1.008.551 0 1.068-.114 1.672-.355.126-.047.24 0 .373.382l.094.213c.134.394.122.48-.021.556-.718.374-1.465.527-2.296.527-1.836 0-2.988-1.043-2.988-2.83 0-1.736 1.059-2.947 2.875-2.947 1.797 0 2.72 1.191 2.72 2.841 0 .548-.051.605-.26.605h-3.446Zm1.857-1.064c-.029-.575-.278-1.075-.89-1.075-.532 0-.916.373-.989 1.075h1.879Zm7.522 1.064c.102.68.56 1.008 1.277 1.008.547 0 1.069-.114 1.67-.355.124-.047.24 0 .374.382l.094.213c.134.394.123.48-.02.556-.718.374-1.466.527-2.297.527-1.837 0-2.987-1.043-2.987-2.83 0-1.736 1.056-2.947 2.873-2.947 1.799 0 2.722 1.191 2.722 2.841 0 .548-.052.605-.26.605h-3.446Zm1.859-1.064c-.034-.575-.281-1.075-.894-1.075-.53 0-.915.373-.987 1.075h1.88Zm-22.718-.624a.996.996 0 0 0-.353-.274 1.069 1.069 0 0 0-.446-.1c-.696 0-1.027.566-1.027 1.573 0 .854.246 1.488 1.004 1.488.282 0 .488-.067.635-.203.134-.133.187-.316.187-.717V25.98Zm1.869 3.648c0 .208-.082.265-.715.265h-.086c-.663 0-.757-.028-.808-.18a2.198 2.198 0 0 1-.084-.316c-.352.393-.778.603-1.423.603-1.505 0-2.471-1.057-2.471-2.782 0-1.919 1.194-2.996 2.607-2.996.571 0 1.068.222 1.339.539l.032-.24c.008-.114.042-.19.724-.19h.074c.707 0 .81.046.81.22v5.077Zm-8.666-6.92c.694 0 .736.01.736.22v1.401h1.195c.165 0 .217.029.217.556v.078c0 .526-.052.556-.217.556h-1.195v2.515c0 .42.082.642.497.642.217 0 .406-.038.593-.095.197-.07.271.019.405.459l.031.105c.145.483.103.52-.082.605-.374.163-.874.25-1.34.25-1.474 0-1.89-.69-1.89-1.892V25.52h-.695c-.176 0-.22-.031-.22-.556v-.078c0-.527.043-.554.22-.554h.778a17.5 17.5 0 0 1 .323-1.403c.052-.182.083-.22.643-.22Zm-3.863 1.623c.81 0 .883.065.883.23v5.105c0 .17-.072.227-.883.227h-.052c-.892 0-.912-.057-.912-.227V24.56c0-.164.02-.23.912-.23h.052Zm-.052-2.496c.585 0 1.008.422 1.008.901a.857.857 0 0 1-.082.348.909.909 0 0 1-.22.292c-.19.168-.444.258-.706.253-.579 0-1.007-.422-1.007-.893 0-.48.428-.9 1.007-.9Z" fill="#EE293D"/></svg>