<svg width="24" height="24" fill="none" xmlns="http://www.w3.org/2000/svg"><g clip-path="url(#a)"><path d="M0 12c0 5.16 3.256 9.559 7.826 11.254l1.043-11.253L7.826.747C3.256 2.443 0 6.841 0 12.001Z" fill="#6DA544"/><path d="M24 12c0-6.627-5.372-12-12-12-1.468 0-2.874.264-4.174.746v22.508c1.3.482 2.706.746 4.174.746 6.628 0 12-5.373 12-12Z" fill="#D80027"/><path d="M7.826 16.174a4.174 4.174 0 1 0 0-8.347 4.174 4.174 0 0 0 0 8.347Z" fill="#FFDA44"/><path d="M5.478 9.913v2.608a2.348 2.348 0 0 0 4.695 0V9.913H5.478Z" fill="#D80027"/><path d="M7.826 13.304a.784.784 0 0 1-.782-.783v-1.043h1.565v1.043a.784.784 0 0 1-.783.783Z" fill="#F0F0F0"/></g><defs><clipPath id="a"><path fill="#fff" d="M0 0h24v24H0z"/></clipPath></defs></svg>