<svg width="24" height="24" fill="none" xmlns="http://www.w3.org/2000/svg"><g clip-path="url(#a)"><path d="M6.498 1.332a11.993 11.993 0 0 0-2.984 2.182c-.9.9-1.627 1.909-2.181 2.983l7.716 8.454 8.453 7.716a11.99 11.99 0 0 0 2.984-2.182c.9-.9 1.627-1.909 2.181-2.983l-7.715-8.454-8.454-7.716Z" fill="#F0F0F0"/><path d="M20.485 20.486a12.07 12.07 0 0 0 1.348-1.604L5.118 2.167a12.07 12.07 0 0 0-2.951 2.952L18.88 21.834c.564-.396 1.101-.845 1.604-1.348Z" fill="#000"/><path d="M3.514 20.486C7.3 24.273 12.986 25 17.502 22.668L1.332 6.498c-2.33 4.517-1.604 10.203 2.182 13.988ZM20.485 3.515C16.7-.271 11.013-.998 6.497 1.333l16.17 16.17c2.33-4.517 1.604-10.202-2.182-13.988Z" fill="#D80027"/></g><defs><clipPath id="a"><path fill="#fff" d="M0 0h24v24H0z"/></clipPath></defs></svg>