<svg width="24" height="24" fill="none" xmlns="http://www.w3.org/2000/svg"><g clip-path="url(#a)"><path d="M24 12c0 6.627-5.373 12-12 12S0 18.627 0 12C0 12.003 12 .001 12 0c6.627 0 12 5.373 12 12Z" fill="#0052B4"/><path d="M11.968 12H12v-.031l-.032.032Z" fill="#F0F0F0"/><path d="M12 6.262V0h-.002C5.37.002 0 5.374 0 12h6.26V8.475l3.526 3.526h2.182l.032-.032V9.787L8.474 6.262H12Z" fill="#F0F0F0"/><path d="M6.07 1.564A12.057 12.057 0 0 0 1.566 6.07v5.929h3.13V4.695H12v-3.13H6.07Z" fill="#D80027"/><path d="m17.218 12-3.243 3.243a3.651 3.651 0 0 0 6.486 0L17.218 12Z" fill="#FFDA44"/><path d="M12 10.524 7.736 6.261H6.261L12 12.001v-1.477Z" fill="#D80027"/><path d="M13.565 6.261v5.74c0 2.795 3.652 3.651 3.652 3.651S20.87 14.796 20.87 12V6.261h-7.305Z" fill="#6DA544"/><path d="M18 8.87h-1.565v4.174H18V8.87Z" fill="#F0F0F0"/><path d="M17.217 9.652a.783.783 0 1 0 0-1.566.783.783 0 0 0 0 1.566Z" fill="#A2001D"/><path d="M15.653 7.305h-1.044v1.043h1.044V7.305ZM15.652 9.652H14.61v1.043h1.043V9.652ZM15.652 12H14.61v1.044h1.043v-1.043ZM19.826 7.305h-1.043V8.35h1.043V7.305ZM19.826 9.652h-1.043v1.043h1.043V9.652ZM19.826 12h-1.043v1.044h1.043v-1.043Z" fill="#FFDA44"/></g><defs><clipPath id="a"><path fill="#fff" d="M0 0h24v24H0z"/></clipPath></defs></svg>