<svg width="24" height="24" fill="none" xmlns="http://www.w3.org/2000/svg"><g clip-path="url(#a)"><path d="M12 24c6.627 0 12-5.373 12-12S18.627 0 12 0 0 5.373 0 12s5.373 12 12 12Z" fill="#F0F0F0"/><path d="M12 24c6.628 0 12-5.373 12-12 0-1.468-.264-2.874-.746-4.174H.747A11.974 11.974 0 0 0 0 12c0 6.627 5.373 12 12 12Z" fill="#0052B4"/><path d="M12 24c5.16 0 9.558-3.257 11.254-7.826H.746C2.442 20.744 6.84 24 12 24Z" fill="#D80027"/><path d="M3.103 6.782v5.986c0 3.405 4.448 4.449 4.448 4.449S12 16.173 12 12.768V6.782H3.103Z" fill="#F0F0F0"/><path d="M4.147 6.782v5.986c0 .4.088.777.264 1.131h6.28a2.51 2.51 0 0 0 .265-1.13V6.781h-6.81Z" fill="#D80027"/><path d="M9.639 10.956H8.073V9.913h1.044V8.869H8.073V7.826H7.03v1.043H5.987v1.044H7.03v1.043H5.465V12H7.03v1.043h1.043V12H9.64v-1.044Z" fill="#F0F0F0"/><path d="M5.834 15.357a7.494 7.494 0 0 0 1.717.777 7.49 7.49 0 0 0 1.717-.777c.678-.426 1.154-.913 1.423-1.456a1.817 1.817 0 0 0-1.468-.287 1.826 1.826 0 0 0-3.344 0 1.826 1.826 0 0 0-1.468.287c.27.543.745 1.03 1.423 1.456Z" fill="#0052B4"/></g><defs><clipPath id="a"><path fill="#fff" d="M0 0h24v24H0z"/></clipPath></defs></svg>