<svg width="24" height="24" fill="none" xmlns="http://www.w3.org/2000/svg"><g clip-path="url(#a)"><path d="M10.956 13.043s-7.434-9.53-7.441-9.53A11.962 11.962 0 0 1 12 0c6.627 0 12 5.373 12 12l-13.044 1.044Z" fill="#D80027"/><path d="M10.956 12s-7.434 8.486-7.441 8.485A11.963 11.963 0 0 0 12 24c6.627 0 12-5.373 12-12H10.956Z" fill="#0052B4"/><path d="M3.515 3.515c-4.687 4.686-4.687 12.284 0 16.97L12 12 3.515 3.515Z" fill="#F0F0F0"/><path d="M1.316 12a3.391 3.391 0 1 0 6.76 0h-6.76ZM4.696 10.434a1.043 1.043 0 1 0 0-2.087 1.043 1.043 0 0 0 0 2.087Z" fill="#FFDA44"/><path d="M2.348 9.13v3.391c0 1.798 2.347 2.348 2.347 2.348s2.348-.55 2.348-2.348v-3.39H2.347Z" fill="#D80027"/><path d="M4.697 13.778c-.436-.157-1.306-.558-1.306-1.256v-2.348h2.61v2.348c0 .7-.87 1.1-1.304 1.256Z" fill="#338AF3"/><path d="M5.218 11.478v-.522l-.522-.26-.522.26v.522l-.26.26v1.044h1.565v-1.043l-.261-.261Z" fill="#F3F3F3"/></g><defs><clipPath id="a"><path fill="#fff" d="M0 0h24v24H0z"/></clipPath></defs></svg>