<svg width="24" height="24" fill="none" xmlns="http://www.w3.org/2000/svg"><g clip-path="url(#a)"><path d="M12 24c6.627 0 12-5.373 12-12S18.627 0 12 0 0 5.373 0 12s5.373 12 12 12Z" fill="#F0F0F0"/><path d="M12 0A12 12 0 0 0 1.191 6.781H22.81A12 12 0 0 0 12-.001Z" fill="#000"/><path d="M12 24a12 12 0 0 1-10.809-6.783H22.81A12 12 0 0 1 12 24Z" fill="#496E2D"/><path d="M23.433 8.347H.567A11.991 11.991 0 0 0 0 12c0 1.274.2 2.5.567 3.652h22.866A11.99 11.99 0 0 0 24 12c0-1.273-.199-2.5-.567-3.652Z" fill="#A2001D"/><path d="m15.737 5.545-1.421-.656L12 10.132 9.685 4.89l-1.421.656L11.138 12l-2.874 6.454 1.42.656L12 13.867l2.316 5.243 1.42-.656L12.863 12l2.875-6.455Z" fill="#F0F0F0"/><path d="M12.965 6.163c-.55-.6-.965-.946-.965-.946s-.415.345-.965.946v11.673c.55.6.965.946.965.946s.415-.345.965-.946V6.163Z" fill="#F0F0F0"/><path d="M9.392 8.402v7.196a12.582 12.582 0 0 0 1.826 2.434V5.968a12.579 12.579 0 0 0-1.826 2.434ZM14.609 8.403a12.586 12.586 0 0 0-1.826-2.434v12.064a12.588 12.588 0 0 0 1.826-2.434V8.403Z" fill="#A2001D"/><path d="M14.609 8.4v7.197c.588-1.043 1.043-2.276 1.043-3.598S15.197 9.444 14.61 8.4ZM9.391 8.4v7.197c-.588-1.043-1.043-2.276-1.043-3.598S8.803 9.444 9.39 8.4Z" fill="#000"/></g><defs><clipPath id="a"><path fill="#fff" d="M0 0h24v24H0z"/></clipPath></defs></svg>