<svg width="24" height="24" fill="none" xmlns="http://www.w3.org/2000/svg"><g clip-path="url(#a)"><path d="M0 12c0 1.467.264 2.873.746 4.173L12 16.695l11.253-.522c.483-1.3.747-2.706.747-4.173 0-1.468-.264-2.874-.747-4.174L12 7.304.746 7.826A11.975 11.975 0 0 0 0 11.999Z" fill="#000"/><path d="M12 0C6.84 0 2.442 3.256.746 7.826h22.507C21.558 3.256 17.16 0 12 0Z" fill="#0052B4"/><path d="M23.253 16.174H.746C2.442 20.744 6.84 24 12 24c5.16 0 9.558-3.256 11.253-7.826Z" fill="#F0F0F0"/></g><defs><clipPath id="a"><path fill="#fff" d="M0 0h24v24H0z"/></clipPath></defs></svg>