<svg width="24" height="24" fill="none" xmlns="http://www.w3.org/2000/svg"><path d="M24 12c0 6.627-5.373 12-12 12S0 18.627 0 12C0 12.003 12 .001 12 0c6.627 0 12 5.373 12 12Z" fill="#0052B4"/><path d="M11.968 12h.033v-.032l-.033.032Z" fill="#F0F0F0"/><path d="M12 6.261V.001h-.002C5.372 0 0 5.373 0 12h6.261V8.474L9.787 12h2.181l.033-.032V9.787L8.475 6.26H12Z" fill="#F0F0F0"/><path d="M6.071 1.565a12.057 12.057 0 0 0-4.506 4.506v5.93h3.13V4.695H12v-3.13H6.071Z" fill="#D80027"/><path d="M12 10.524 7.738 6.261H6.261L12.001 12v-1.476Z" fill="#D80027"/><path d="M13.565 6.26V12c0 2.795 3.652 3.652 3.652 3.652S20.87 14.795 20.87 12V6.26h-7.304Z" fill="#338AF3"/><path d="M13.565 12c0 2.795 3.652 3.651 3.652 3.651S20.87 14.795 20.87 12h-7.304Z" fill="#A2001D"/><path d="M18.782 8.87H17.74V7.825h-1.044v1.043h-1.043v1.044h1.043v3.13h1.044v-3.13h1.043V8.869Z" fill="#000"/></svg>