<svg width="24" height="24" fill="none" xmlns="http://www.w3.org/2000/svg"><path d="M12 24c6.627 0 12-5.373 12-12S18.627 0 12 0 0 5.373 0 12s5.373 12 12 12Z" fill="#FCFCFC"/><path d="M18.782 10.434h-1.565a5.217 5.217 0 1 1-10.434 0H5.217a6.785 6.785 0 0 0 4.931 6.527 1.736 1.736 0 0 0 .181 1.895l1.706-1.367 1.705 1.367c.45-.562.495-1.317.172-1.913a6.785 6.785 0 0 0 4.87-6.509Z" fill="#6DA544"/><path d="M7.826 9.913s0 2.608 2.609 2.608l.522.522H12s.522-1.565 1.565-1.565c0 0 0-1.043 1.044-1.043h1.565s-.522-2.087 2.087-3.653l-1.043-.521s-3.653 2.608-6.261 2.087V9.39H9.913l-.522-.522-1.565 1.044Z" fill="#FFDA44"/></svg>