<svg width="24" height="24" fill="none" xmlns="http://www.w3.org/2000/svg"><g clip-path="url(#a)"><path d="M12 24c6.627 0 12-5.373 12-12S18.627 0 12 0 0 5.373 0 12s5.373 12 12 12Z" fill="#FFDA44"/><path d="M12 24c3.637 0 6.896-1.618 9.097-4.174H2.903A11.973 11.973 0 0 0 12 24ZM24 12c0-6.627-5.373-12-12-12S0 5.373 0 12c0 1.083.144 2.132.413 3.13h23.174c.269-.998.413-2.047.413-3.13ZM.954 16.696c.231.544.501 1.066.807 1.565h20.477c.306-.498.577-1.021.808-1.565H.954Z" fill="#338AF3"/><path d="M5.499 7.569 3.154 6.534 5.5 5.5l1.035-2.345L7.568 5.5l2.345 1.034L7.568 7.57 6.534 9.914 5.499 7.569Z" fill="#F0F0F0"/><path d="m6.534 4.447.639 1.448 1.448.64-1.448.638-.64 1.448-.638-1.448-1.448-.639 1.448-.639.639-1.448Z" fill="#D80027"/></g><defs><clipPath id="a"><path fill="#fff" d="M0 0h24v24H0z"/></clipPath></defs></svg>