<svg width="24" height="24" fill="none" xmlns="http://www.w3.org/2000/svg"><path d="M0 2.086v19.826V2.086Z" fill="#FF9811"/><path d="M12 24c6.627 0 12-5.373 12-12S18.627 0 12 0 0 5.373 0 12s5.373 12 12 12Z" fill="#FFDA44"/><path d="M9.391 2.086H5.236c-.184.126-.364.257-.54.393l-1.044 9.52 1.043 9.52c.177.136.357.267.541.393h4.155V2.086Z" fill="#FF9811"/><path d="M0 12a11.98 11.98 0 0 0 4.696 9.521V2.481A11.98 11.98 0 0 0 0 12Z" fill="#6DA544"/><path d="M19.304 7.315v.3l.012.003-.012-.303Z" fill="#FFDA44"/><path d="M23.044 15.13h-2.261l-.957 1.043v2.087H17.74v-1.043h1.044V15.13h-4.696v1.304h-1.043v-2.486a1.561 1.561 0 0 1-.522-1.166V5.999c0-.864.7-1.565 1.565-1.565v9.652h2.087l.716-.597a2.496 2.496 0 0 1-.194-.968v-1.565H15.13v-3.13h3.13c0-.522.784-1.044.784-1.044s.782.522.782 1.043v3.131c.58.007 1.503-.008 2.5 0-.263-.458-.413-1-.413-1.565 0-.921.398-1.749 1.03-2.322a12.048 12.048 0 0 0-4.18-4.983h-7.807v19.826h7.808a12.027 12.027 0 0 0 4.692-6.332l-.412-.45Z" fill="#A2001D"/></svg>