<svg width="24" height="24" fill="none" xmlns="http://www.w3.org/2000/svg"><g clip-path="url(#a)"><path d="M0 12c0 2.08.53 4.035 1.46 5.74L12 18.784l10.541-1.044c.93-1.705 1.46-3.66 1.46-5.74 0-2.078-.53-4.033-1.46-5.738l-10.54-1.044L1.458 6.262A11.946 11.946 0 0 0 0 12Z" fill="#D80027"/><path d="M1.46 6.261h21.08A11.997 11.997 0 0 0 12 .001C7.451 0 3.494 2.53 1.46 6.26ZM12 24c4.549 0 8.506-2.53 10.54-6.26H1.46A11.997 11.997 0 0 0 12 24Z" fill="#0052B4"/><path d="M16.174 14.347v-1.565h-1.043v-2.087l-1.044-1.043-1.043 1.043V8.608L12 7.565l-1.043 1.043v2.087L9.913 9.652 8.87 10.695v2.087H7.827v1.565H6.783v1.566h10.435v-1.566h-1.044Z" fill="#F0F0F0"/></g><defs><clipPath id="a"><path fill="#fff" d="M0 0h24v24H0z"/></clipPath></defs></svg>