<svg width="24" height="24" fill="none" xmlns="http://www.w3.org/2000/svg"><g clip-path="url(#a)"><path d="M12 24c6.627 0 12-5.373 12-12S18.627 0 12 0 0 5.373 0 12s5.373 12 12 12Z" fill="#F0F0F0"/><path d="M24 12a12 12 0 0 0-6.784-10.809V22.81A12 12 0 0 0 24 12ZM0 12a12 12 0 0 0 6.782 10.81V1.19A12 12 0 0 0 0 12Z" fill="#338AF3"/><path d="M15.136 14.028 13.106 12l1.932-1.931-.088-1.02-.553-.553L12 10.893 9.602 8.495l-.553.553-.088 1.02 1.932 1.931-2.03 2.03 1.108 1.106L12 13.106l2.029 2.03 1.107-1.107Z" fill="#ACABB1"/><path d="m14.951 9.049-1.106 1.107a2.609 2.609 0 1 1-3.69 0L9.05 9.049a4.174 4.174 0 1 0 5.903 0Z" fill="#6DA544"/></g><defs><clipPath id="a"><path fill="#fff" d="M0 0h24v24H0z"/></clipPath></defs></svg>