<svg width="24" height="24" fill="none" xmlns="http://www.w3.org/2000/svg"><g clip-path="url(#a)"><path d="M24 12c0 6.627-5.373 12-12 12S0 18.627 0 12C0 12.003 12 .001 12 0c6.627 0 12 5.373 12 12Z" fill="#FFDA44"/><path d="M12 5.74v4.047L7.826 5.74H12ZM6.261 12h3.526L6.26 7.305l-.522 3.652L6.261 12Z" fill="#0052B4"/><path d="M11.968 12h.033v-.031l-.033.032Z" fill="#F0F0F0"/><path d="M12 6.26V0h-.002C5.371.001 0 5.373 0 12h6.26V8.474L9.787 12h2.182l.032-.032V9.786L8.474 6.261H12Z" fill="#F0F0F0"/><path d="M12 10.525 7.735 6.26H6.26l5.74 5.74v-1.476Z" fill="#D80027"/><path d="M6.07 1.565c-.462.263-.905.557-1.327.877h.493l-1.302.946.497 1.53-1.301-.945-.139.1c-.54.614-1.019 1.283-1.426 1.998V12h3.13V4.696H12V1.564H6.07Z" fill="#D80027"/><path d="M5.126 2.164c-.13.09-.257.184-.383.28l-.809.945-.804.585-.14.101c-.294.335-.57.686-.827 1.052a2.217 2.217 0 0 0 2.963-2.963Z" fill="#0052B4"/><path d="m2.99 4.074.14-.102 1.301.946-.497-1.53 1.301-.946h-.492A12.075 12.075 0 0 0 2.99 4.074ZM8.294 2.087l.26.797h.837l-.678.493.26.797-.679-.492-.678.492.259-.797-.678-.492h.838l.26-.798ZM3.13 7.305l.26.797h.837l-.678.493.26.797L3.13 8.9l-.678.493.259-.797-.678-.493h.838l.26-.797Z" fill="#FFDA44"/></g><defs><clipPath id="a"><path fill="#fff" d="M0 0h24v24H0z"/></clipPath></defs></svg>