<svg width="24" height="24" fill="none" xmlns="http://www.w3.org/2000/svg"><g clip-path="url(#a)"><path d="M17.217 1.19A11.952 11.952 0 0 0 12 0c-1.87 0-3.64.428-5.218 1.19L5.74 12l1.043 10.809A11.952 11.952 0 0 0 12 23.999c1.87 0 3.64-.427 5.217-1.19l1.043-10.81L17.217 1.19Z" fill="#F0F0F0"/><path d="M6.783 1.191A12 12 0 0 0 0 12.001a12 12 0 0 0 6.783 10.808V1.191ZM17.217 1.191V22.81A12 12 0 0 0 24 12a12 12 0 0 0-6.783-10.809ZM15.13 15.652 12 5.739l-3.13 9.913h2.347v2.608h1.566v-2.608h2.348Z" fill="#6DA544"/></g><defs><clipPath id="a"><path fill="#fff" d="M0 0h24v24H0z"/></clipPath></defs></svg>