<svg width="24" height="24" fill="none" xmlns="http://www.w3.org/2000/svg"><g clip-path="url(#a)"><path d="M0 12c0 .821.083 1.624.24 2.4l11.76.73 11.76-.73a12.047 12.047 0 0 0 0-4.8L12 8.868l-11.76.73C.083 10.375 0 11.177 0 12Z" fill="#0052B4"/><path d="M23.76 14.4H.24C1.352 19.875 6.194 24 12 24c5.805 0 10.648-4.123 11.76-9.6Z" fill="#F0F0F0"/><path d="M.24 9.6h23.52C22.648 4.123 17.804 0 12 0 6.194 0 1.352 4.123.24 9.6Z" fill="#000"/><path d="M17.218 9.6H6.783l2.132-1.003-1.136-2.065 2.315.443.294-2.339L12 6.356l1.613-1.72.293 2.339 2.315-.443-1.135 2.065 2.132 1.002Z" fill="#FFDA44"/><path d="M0 12c0 6.628 5.373 12 12 12L2.4 4.8A11.946 11.946 0 0 0 0 12ZM12 24c6.627 0 12-5.373 12-12 0-2.702-.893-5.195-2.4-7.2L12 24Z" fill="#A2001D"/></g><defs><clipPath id="a"><path fill="#fff" d="M0 0h24v24H0z"/></clipPath></defs></svg>