<svg width="24" height="24" fill="none" xmlns="http://www.w3.org/2000/svg"><g clip-path="url(#a)"><path d="M17.217 1.191A11.952 11.952 0 0 0 12 .001c-1.87 0-3.64.427-5.218 1.19L5.74 12.001 6.782 22.81A11.953 11.953 0 0 0 12 24c1.87 0 3.64-.427 5.217-1.19L18.261 12 17.217 1.192Z" fill="#FFDA44"/><path d="M6.783 1.192A12 12 0 0 0 0 12.001 12 12 0 0 0 6.783 22.81V1.192Z" fill="#0052B4"/><path d="M17.217 1.192V22.81A12 12 0 0 0 24 12a12 12 0 0 0-6.783-10.809Z" fill="#D80027"/><path d="M16.174 9.442h-2.87a1.304 1.304 0 0 0-2.609 0h-2.87c0 .71.619 1.284 1.328 1.284H9.11c0 .71.575 1.285 1.284 1.285 0 .628.451 1.15 1.047 1.261l-1.012 2.285a4.161 4.161 0 0 0 3.141 0l-1.012-2.285a1.284 1.284 0 0 0 1.047-1.261c.71 0 1.284-.575 1.284-1.284h-.042c.709 0 1.327-.575 1.327-1.285Z" fill="#FF9811"/><path d="M12 11.218 10.304 12v1.566L12 14.609l1.696-1.043V12L12 11.218Z" fill="#0052B4"/><path d="M13.696 10.434h-3.392V12h3.392v-1.565Z" fill="#D80027"/></g><defs><clipPath id="a"><path fill="#fff" d="M0 0h24v24H0z"/></clipPath></defs></svg>