<svg width="24" height="24" fill="none" xmlns="http://www.w3.org/2000/svg"><g clip-path="url(#a)"><path d="M12 0c-1.467 0-2.874.263-4.173.746l-.522 11.253.521 11.254c1.3.482 2.707.747 4.174.747 1.468 0 2.874-.265 4.174-.747L16.696 12 16.174.746A11.975 11.975 0 0 0 12-.001Z" fill="#FFDA44"/><path d="M24 12c0-5.16-3.256-9.558-7.826-11.253v22.507C20.744 21.558 24 17.16 24 12Z" fill="#D80027"/><path d="M7.826 23.254V.747C3.256 2.442 0 6.84 0 12c0 5.16 3.256 9.558 7.826 11.254Z" fill="#0052B4"/></g><defs><clipPath id="a"><path fill="#fff" d="M0 0h24v24H0z"/></clipPath></defs></svg>