<svg width="24" height="24" fill="none" xmlns="http://www.w3.org/2000/svg"><g clip-path="url(#a)"><path d="M12 24c6.627 0 12-5.373 12-12S18.627 0 12 0 0 5.373 0 12s5.373 12 12 12Z" fill="#F0F0F0"/><path d="M3.515 3.514a11.973 11.973 0 0 0-3.481 9.384L12.899.033a11.972 11.972 0 0 0-9.384 3.481Z" fill="#FFDA44"/><path d="M4.285 21.19c4.715 3.967 11.763 3.732 16.2-.706 4.438-4.437 4.673-11.485.706-16.2L4.285 21.19Z" fill="#0052B4"/><path d="m11.957 11.517 1.034-.56-1.034-.56a3.655 3.655 0 0 0-3.05-3.05l-.56-1.034-.56 1.034a3.655 3.655 0 0 0-3.049 3.05l-1.034.56 1.034.56a3.655 3.655 0 0 0 3.05 3.049l.56 1.034.56-1.034a3.655 3.655 0 0 0 3.049-3.05Zm-3.61 1.527a2.087 2.087 0 1 1 0-4.174 2.087 2.087 0 0 1 0 4.174Z" fill="#000"/><path d="m8.348 9.39.452.783h.903l-.452.783.452.783H8.8l-.452.782-.452-.782h-.904l.452-.783-.452-.783h.904l.452-.782Z" fill="#D80027"/></g><defs><clipPath id="a"><path fill="#fff" d="M0 0h24v24H0z"/></clipPath></defs></svg>