<svg width="24" height="24" fill="none" xmlns="http://www.w3.org/2000/svg"><g clip-path="url(#a)"><path d="M22.667 6.498a11.994 11.994 0 0 0-2.182-2.983c-.9-.9-1.909-1.627-2.983-2.182L9.048 9.05l-7.716 8.454a11.992 11.992 0 0 0 2.182 2.983c.9.9 1.91 1.628 2.983 2.182l8.454-7.716 7.716-8.454Z" fill="#FFDA44"/><path d="M3.515 20.485c.503.504 1.04.953 1.604 1.348L21.833 5.118a12.068 12.068 0 0 0-2.951-2.951L2.167 18.88c.395.564.844 1.101 1.348 1.604Z" fill="#D80027"/><path d="M3.514 3.514C-.272 7.3-.998 12.986 1.332 17.502l16.17-16.17C12.986-.997 7.3-.27 3.514 3.515ZM20.485 20.485c3.786-3.786 4.513-9.472 2.182-13.988l-16.17 16.17c4.517 2.33 10.203 1.604 13.988-2.182Z" fill="#338AF3"/><path d="m6.395 3.651.648 1.993h2.095L7.443 6.876l.647 1.993-1.695-1.232L4.7 8.869l.647-1.993-1.695-1.232h2.096l.647-1.993Z" fill="#FFDA44"/></g><defs><clipPath id="a"><path fill="#fff" d="M0 0h24v24H0z"/></clipPath></defs></svg>