<svg width="24" height="24" fill="none" xmlns="http://www.w3.org/2000/svg"><path d="M12 24c6.627 0 12-5.373 12-12S18.627 0 12 0 0 5.373 0 12s5.373 12 12 12Z" fill="#6DA544"/><path d="m18.421 17.218.33.688.743-.171-.333.686.598.474-.744.168.002.764-.596-.478-.595.477.002-.763-.745-.168.598-.474-.333-.686.744.171.33-.688ZM15.358 9.912l.33.689.743-.172-.333.687.598.474-.745.168.002.763-.595-.478-.596.478.002-.763-.744-.168.598-.474-.333-.687.744.172.329-.689ZM18.421 5.738l.33.689.743-.172-.333.687.598.474-.744.168.002.763-.596-.478-.595.478.002-.763-.744-.168.597-.474-.333-.687.744.172.33-.689ZM21.097 8.87l.33.689.743-.172-.333.687.598.474-.744.168.002.763-.596-.478-.595.478.002-.763-.745-.168.598-.474-.333-.687.744.172.33-.689ZM19.184 12.521l.26.797h.837l-.678.493.26.797-.679-.492-.678.492.259-.797-.678-.493h.838l.26-.797Z" fill="#FFDA44"/><path d="M13.305 15.391a3.391 3.391 0 1 1 1.613-6.375 4.174 4.174 0 1 0 0 5.967c-.48.26-1.03.408-1.613.408ZM7.547 4.695a2.086 2.086 0 0 0-3.614 0h3.614ZM7.553 4.707 5.74 6.521 3.925 4.707a2.087 2.087 0 1 0 3.628 0Z" fill="#FFDA44"/><path d="M5.217 6v1.76a2.092 2.092 0 0 0 1.044 0V6H5.217Z" fill="#A2001D"/></svg>