<svg width="24" height="24" fill="none" xmlns="http://www.w3.org/2000/svg"><g clip-path="url(#a)"><path d="M12 24c6.627 0 12-5.373 12-12S18.627 0 12 0 0 5.373 0 12s5.373 12 12 12Z" fill="#F0F0F0"/><path d="M0 12c0 4.549 2.531 8.506 6.261 10.541V1.46A11.997 11.997 0 0 0 .001 12Z" fill="#F0F0F0"/><path d="M12 0C9.92 0 7.965.53 6.26 1.46v21.082C7.966 23.472 9.92 24 12 24c6.627 0 12-5.373 12-12 0-6.628-5.373-12-12-12Z" fill="#496E2D"/><path d="M17.13 13.986a3.391 3.391 0 1 1-2.425-6.112 4.174 4.174 0 1 0 3.495 4.837 3.377 3.377 0 0 1-1.07 1.275ZM17.066 7.827l.855.922 1.141-.529-.612 1.098.855.922-1.234-.243-.612 1.098-.15-1.248-1.234-.243 1.141-.528-.15-1.249Z" fill="#F0F0F0"/></g><defs><clipPath id="a"><path fill="#fff" d="M0 0h24v24H0z"/></clipPath></defs></svg>