<svg width="24" height="24" fill="none" xmlns="http://www.w3.org/2000/svg"><g clip-path="url(#a)"><path d="M12 24c6.627 0 12-5.373 12-12S18.627 0 12 0 0 5.373 0 12s5.373 12 12 12Z" fill="#F0F0F0"/><path d="M12 0A12 12 0 0 0 1.191 6.782H22.81A12 12 0 0 0 12 0ZM12 24.001a12 12 0 0 0 10.81-6.783H1.19a12 12 0 0 0 10.81 6.783Z" fill="#338AF3"/><path d="M12 8.348a3.652 3.652 0 1 0 0 7.304 3.652 3.652 0 0 0 0-7.304Zm0 5.739a2.087 2.087 0 1 1 0-4.174 2.087 2.087 0 0 1 0 4.174Z" fill="#FFDA44"/><path d="m13.807 12.522-1.808-.521-1.807.521-.602 1.044h4.82l-.603-1.044Z" fill="#0052B4"/><path d="m12 9.391-1.205 2.087L12 12l1.205-.522L12 9.391Z" fill="#338AF3"/><path d="M10.192 12.521h3.615l-.602-1.043h-2.41l-.603 1.043Z" fill="#6DA544"/></g><defs><clipPath id="a"><path fill="#fff" d="M0 0h24v24H0z"/></clipPath></defs></svg>