<svg width="24" height="24" fill="none" xmlns="http://www.w3.org/2000/svg"><g clip-path="url(#a)"><path d="M12 24c6.627 0 12-5.373 12-12S18.627 0 12 0 0 5.373 0 12s5.373 12 12 12Z" fill="#F0F0F0"/><path d="M12 0A12 12 0 0 0 1.19 6.781h21.62A12 12 0 0 0 12-.001ZM12 24a12 12 0 0 0 10.81-6.783H1.19a12 12 0 0 0 10.81 6.782Z" fill="#D80027"/><path d="M15.13 14.086 12 8.347l-3.13 5.74h2.348v1.564h1.565v-1.565h2.348Z" fill="#6DA544"/></g><defs><clipPath id="a"><path fill="#fff" d="M0 0h24v24H0z"/></clipPath></defs></svg>