<svg width="24" height="24" fill="none" xmlns="http://www.w3.org/2000/svg"><g clip-path="url(#a)"><path d="M23.253 16.174c.483-1.3.747-2.706.747-4.173 0-1.468-.264-2.874-.747-4.174L12 6.783.746 7.827A11.974 11.974 0 0 0 0 12c0 1.467.264 2.873.746 4.173L12 17.218l11.253-1.044Z" fill="#6DA544"/><path d="M23.253 7.826C21.558 3.256 17.16 0 12 0S2.442 3.256.746 7.826h22.508Z" fill="#FFDA44"/><path d="M12 24c5.16 0 9.558-3.257 11.253-7.827H.746C2.442 20.743 6.84 23.999 12 23.999Z" fill="#D80027"/><path d="M20.23 10.153h-6.287L12 4.174l-1.942 5.979H3.77l5.086 3.695-1.942 5.979L12 16.174l5.086 3.652-1.942-5.978 5.085-3.695Z" fill="#F0F0F0"/></g><defs><clipPath id="a"><path fill="#fff" d="M0 0h24v24H0z"/></clipPath></defs></svg>