<svg width="24" height="24" fill="none" xmlns="http://www.w3.org/2000/svg"><g clip-path="url(#a)"><path d="M23.253 16.174c.483-1.3.747-2.706.747-4.173 0-1.468-.264-2.874-.747-4.174L12 6.783.746 7.827A11.973 11.973 0 0 0 0 12c0 1.467.264 2.873.746 4.173L12 17.218l11.253-1.044Z" fill="#F0F0F0"/><path d="M12 24c5.16 0 9.558-3.256 11.253-7.826H.746C2.442 20.744 6.84 24.001 12 24.001Z" fill="#338AF3"/><path d="M12 0C6.84 0 2.442 3.257.746 7.826h22.508C21.557 3.256 17.159 0 12 0Z" fill="#6DA544"/></g><defs><clipPath id="a"><path fill="#fff" d="M0 0h24v24H0z"/></clipPath></defs></svg>