<svg width="24" height="24" fill="none" xmlns="http://www.w3.org/2000/svg"><g clip-path="url(#a)"><path d="M12 24c6.627 0 12-5.373 12-12S18.627 0 12 0 0 5.373 0 12s5.373 12 12 12Z" fill="#FFDA44"/><path d="M7.306 7.825h15.949C21.559 3.255 17.16 0 12 0a11.96 11.96 0 0 0-8.485 3.515l3.79 4.311ZM7.305 16.172h15.949C21.558 20.742 17.16 24 12 24a11.96 11.96 0 0 1-8.485-3.515l3.79-4.312Z" fill="#338AF3"/><path d="M3.514 3.514c-4.686 4.687-4.686 12.285 0 16.97L12 12 3.514 3.514Z" fill="#000"/></g><defs><clipPath id="a"><path fill="#fff" d="M0 0h24v24H0z"/></clipPath></defs></svg>