<svg width="24" height="24" fill="none" xmlns="http://www.w3.org/2000/svg"><g clip-path="url(#a)"><path d="M12 24c6.627 0 12-5.373 12-12S18.627 0 12 0 0 5.373 0 12s5.373 12 12 12Z" fill="#F0F0F0"/><path d="M12 0A12 12 0 0 0 1.191 6.783H22.81A12 12 0 0 0 12 0Z" fill="#D80027"/><path d="M12 24a12 12 0 0 0 10.81-6.782H1.19a12 12 0 0 0 10.81 6.783Z" fill="#0052B4"/><path d="m14.951 8.527-1.107 1.106a2.609 2.609 0 1 1-3.69 0L9.05 8.527a4.174 4.174 0 1 0 5.903 0Z" fill="#6DA544"/><path d="m12 9.913.389 1.195h1.257l-1.018.74.39 1.195L12 12.304l-1.017.739.388-1.196-1.017-.739h1.257L12 9.913Z" fill="#FFDA44"/></g><defs><clipPath id="a"><path fill="#fff" d="M0 0h24v24H0z"/></clipPath></defs></svg>