<svg width="24" height="24" fill="none" xmlns="http://www.w3.org/2000/svg"><g clip-path="url(#a)"><path d="M12 24c6.627 0 12-5.373 12-12S18.627 0 12 0 0 5.373 0 12s5.373 12 12 12Z" fill="#F0F0F0"/><path d="M12 0C7.04 0 2.782 3.012.954 7.306h22.093C21.219 3.011 16.96.001 12 .001Z" fill="#A2001D"/><path d="M12 24c4.961 0 9.219-3.01 11.047-7.304H.954C2.782 20.99 7.04 24.001 12 24.001Z" fill="#496E2D"/><path d="M23.586 8.87H.413A12.013 12.013 0 0 0 0 12c0 1.083.144 2.132.413 3.13h23.174c.268-.998.413-2.047.413-3.13 0-1.083-.145-2.132-.414-3.13Z" fill="#0052B4"/></g><defs><clipPath id="a"><path fill="#fff" d="M0 0h24v24H0z"/></clipPath></defs></svg>