<svg width="24" height="24" fill="none" xmlns="http://www.w3.org/2000/svg"><g clip-path="url(#a)"><path d="M12 0c-.896 0-1.77.098-2.609.285l-.522 11.714.522 11.715c.84.186 1.713.285 2.609.285 6.627 0 12-5.372 12-12 0-6.627-5.373-12-12-12ZM3.13 3.917A11.956 11.956 0 0 0 0 12c0 3.113 1.186 5.95 3.13 8.082L3.652 12 3.13 3.917Z" fill="#496E2D"/><path d="M17.552 9.052a3.653 3.653 0 0 0-1.497-4.327 3.652 3.652 0 1 1-2.41 6.715 3.653 3.653 0 0 0 3.907-2.388ZM14.277 4.274l-.513.663-.789-.283.472.693-.513.663.805-.235.471.693.026-.838.804-.235-.788-.283.025-.838Z" fill="#F0F0F0"/><path d="m15.662 6.435-.513.663-.789-.283.472.693-.513.663.805-.235.472.693.025-.838.805-.235-.789-.283.025-.838ZM11.834 5.06l-.513.663-.789-.283.472.693-.513.663.805-.235.472.693.025-.838.805-.235-.79-.283.026-.838ZM11.778 7.535l-.513.662-.789-.283.472.693-.513.663.805-.235.472.693.025-.838.805-.235-.79-.283.026-.837ZM14.132 8.38l-.513.663-.789-.283.472.693-.513.662.805-.234.472.692.025-.838.805-.234-.79-.283.026-.838Z" fill="#F0F0F0"/><path d="M3.13 3.917v16.166a11.988 11.988 0 0 0 6.261 3.632V.285a11.987 11.987 0 0 0-6.26 3.632Z" fill="#D80027"/><path d="M5.52 6.318 4.47 5.537V4.432l1.048-.78h1.483l1.048.78v1.105l-1.048.78H5.519Z" fill="#F0F0F0"/><path d="M6.26 3.652h-.74l-1.049.78v.54h1.79v-1.32ZM6.26 6.317h.742l1.048-.781v-.563H6.26v1.344Z" fill="#FF9811"/><path d="m5.52 20.348-1.049-.78v-1.105l1.048-.78h1.483l1.048.78v1.105l-1.048.78H5.519Z" fill="#F0F0F0"/><path d="M6.26 17.683h-.74l-1.049.78v.54h1.79v-1.32ZM6.26 20.35h.742l1.048-.782v-.563H6.26v1.344Z" fill="#FF9811"/><path d="m5.52 13.332-1.049-.78v-1.105l1.048-.78h1.483l1.048.78v1.105l-1.048.78H5.519ZM8.087 15.051H7.63v-.456h-.802l-.567-.567-.568.567h-.802v.456h-.456v.913h.456v.457h.802l.568.567.567-.567h.802v-.457h.457v-.913ZM8.087 8.036H7.63v-.457h-.802l-.567-.567-.567.567H4.89v.457h-.456v.913h.456v.457h.802l.568.567.567-.567h.802v-.457h.457v-.913Z" fill="#496E2D"/><path d="M6.782 11.48H5.74v1.043h1.043v-1.044ZM6.26 9.015a.522.522 0 1 0 0-1.044.522.522 0 0 0 0 1.044ZM6.26 16.03a.522.522 0 1 0 0-1.043.522.522 0 0 0 0 1.044Z" fill="#D80027"/></g><defs><clipPath id="a"><path fill="#fff" d="M0 0h24v24H0z"/></clipPath></defs></svg>