<svg width="24" height="24" fill="none" xmlns="http://www.w3.org/2000/svg"><g clip-path="url(#a)"><path d="M12 24c6.627 0 12-5.373 12-12S18.627 0 12 0 0 5.373 0 12s5.373 12 12 12Z" fill="#496E2D"/><path d="M16.695 12H12v12c1.402 0 2.748-.242 4-.684l.695-11.317Z" fill="#D80027"/><path d="M20 20.943c2.455-2.198 4-5.39 4-8.944h-4.695L20 20.943Z" fill="#FF9811"/><path d="M16 12v11.316a11.993 11.993 0 0 0 4-2.373v-8.944h-4Z" fill="#000"/><path d="M22.174 7.827h-3.13a1.044 1.044 0 0 0-2.088 0h-3.13c0 .576.502 1.043 1.078 1.043h-.035c0 .576.468 1.044 1.044 1.044 0 .576.467 1.043 1.043 1.043h2.087c.577 0 1.044-.467 1.044-1.043.576 0 1.043-.468 1.043-1.044h-.034c.576 0 1.078-.467 1.078-1.043Z" fill="#FF9811"/></g><defs><clipPath id="a"><path fill="#fff" d="M0 0h24v24H0z"/></clipPath></defs></svg>