<svg width="24" height="24" fill="none" xmlns="http://www.w3.org/2000/svg"><g clip-path="url(#a)"><path d="M12 24c6.627 0 12-5.373 12-12S18.627 0 12 0 0 5.373 0 12s5.373 12 12 12Z" fill="#F0F0F0"/><path d="M12 0a11.972 11.972 0 0 0-9.097 4.174h18.194A11.972 11.972 0 0 0 12 0ZM21.096 19.827H2.903A11.972 11.972 0 0 0 12 24.001c3.637 0 6.895-1.618 9.096-4.174Z" fill="#0052B4"/><path d="M22.239 5.739H1.76A11.943 11.943 0 0 0 0 11.999c0 2.295.644 4.439 1.761 6.261H22.24A11.943 11.943 0 0 0 24 12c0-2.295-.644-4.439-1.761-6.261Z" fill="#D80027"/><path d="M7.383 16.618a4.617 4.617 0 1 0 0-9.235 4.617 4.617 0 0 0 0 9.235Z" fill="#F0F0F0"/><path d="m7.382 7.383 1.036 3.189h3.358l-2.717 1.97 1.044 3.199-2.72-1.98-2.717 1.976 1.04-3.194-2.715-1.971h3.355l1.036-3.189Z" fill="#D80027"/></g><defs><clipPath id="a"><path fill="#fff" d="M0 0h24v24H0z"/></clipPath></defs></svg>