<svg width="24" height="24" fill="none" xmlns="http://www.w3.org/2000/svg"><g clip-path="url(#a)"><path d="M12 24c6.627 0 12-5.373 12-12S18.627 0 12 0 0 5.373 0 12s5.373 12 12 12Z" fill="#F0F0F0"/><path d="M19.307 2.48a12.006 12.006 0 0 0-14.613 0L12 9.787l7.307-7.307ZM12 14.214l-7.306 7.307a12.006 12.006 0 0 0 14.613 0l-7.306-7.307Z" fill="#D80027"/><path d="M9.787 12 2.48 4.694a12.006 12.006 0 0 0 0 14.613L9.787 12ZM14.214 12l7.307 7.307a12.006 12.006 0 0 0 0-14.613L14.214 12Z" fill="#6DA544"/><path d="M12 17.218a5.217 5.217 0 1 0 0-10.435 5.217 5.217 0 0 0 0 10.435Z" fill="#F0F0F0"/><path d="m12 8.348.452.783h.903l-.452.782.452.783h-.903L12 11.48l-.452-.783h-.904l.452-.783-.452-.782h.904L12 8.348ZM9.704 12.001l.451.783h.904l-.452.782.452.783h-.904l-.451.783-.452-.783h-.904l.452-.783-.452-.782h.904L9.704 12ZM14.297 12.001l.452.783h.903l-.451.782.451.783h-.903l-.452.783-.452-.783h-.904l.452-.783-.452-.782h.904l.452-.783Z" fill="#D80027"/></g><defs><clipPath id="a"><path fill="#fff" d="M0 0h24v24H0z"/></clipPath></defs></svg>