<svg width="24" height="24" fill="none" xmlns="http://www.w3.org/2000/svg"><path d="M24 12c0 6.627-5.373 12-12 12S0 18.627 0 12 12 0 12 0s12 5.373 12 12Z" fill="#A2001D"/><path d="M0 12C0 5.373 5.373 0 12 0s12 5.373 12 12" fill="#0052B4"/><path d="M16.174 15.13 12 14.61l-4.174.521V8.87h8.348v6.26Z" fill="#F0F0F0"/><path d="M12 14.608a2.087 2.087 0 1 0 0-4.174 2.087 2.087 0 0 0 0 4.174Z" fill="#0052B4"/><path d="M12 13.565a1.044 1.044 0 1 0 0-2.087 1.044 1.044 0 0 0 0 2.087Z" fill="#A2001D"/><path d="M10.435 9.913h3.13L12 11.48l-1.565-1.566Z" fill="#6DA544"/><path d="M12.522 10.956H11.48v3.13h1.043v-3.13Z" fill="#FFDA44"/><path d="M13.67 13.774h-3.34l-2.504 1.357h8.348l-2.505-1.357Z" fill="#6DA544"/></svg>