<svg width="24" height="24" fill="none" xmlns="http://www.w3.org/2000/svg"><g clip-path="url(#a)"><path d="M12 24c6.627 0 12-5.373 12-12S18.627 0 12 0 0 5.373 0 12s5.373 12 12 12Z" fill="#F0F0F0"/><path d="M23.93 13.305ZM23.93 13.304 10.77.062A11.96 11.96 0 0 0 9.03.37C3.839 1.692 0 12 0 12s16.8 11.242 18.716 9.945c.384-.26.752-.54 1.102-.842l-7.8-7.799H23.93Z" fill="#0052B4"/><path d="M20.87 12 9.2.329C3.922 1.591 0 6.337 0 11.999c0 6.628 5.373 12 12 12 2.514 0 4.847-.773 6.775-2.094L8.87 11.999h12Z" fill="#D80027"/><path d="m11.413 17.718-1.466-.69.78-1.42-1.591.305-.202-1.607-1.108 1.182-1.109-1.182-.201 1.607-1.592-.304.78 1.42-1.465.689 1.466.689-.78 1.42 1.59-.305.202 1.607 1.109-1.182 1.108 1.182.202-1.607 1.591.304-.78-1.42 1.466-.688ZM10.434 6.655l-1.066-.501.568-1.033-1.158.222-.146-1.17-.806.86-.807-.86-.146 1.17-1.158-.222.568 1.033-1.066.501 2.609.522 2.608-.522Z" fill="#F0F0F0"/><path d="M10.957 6.655a3.13 3.13 0 0 1-6.261 0" fill="#F0F0F0"/></g><defs><clipPath id="a"><path fill="#fff" d="M0 0h24v24H0z"/></clipPath></defs></svg>