<svg width="24" height="24" fill="none" xmlns="http://www.w3.org/2000/svg"><g clip-path="url(#a)"><path d="M12 24c6.627 0 12-5.373 12-12S18.627 0 12 0 0 5.373 0 12s5.373 12 12 12Z" fill="#F0F0F0"/><path d="M12 8.869h11.586a11.932 11.932 0 0 0-1.348-3.13H12v3.13ZM4.53 21.39h14.94a12.062 12.062 0 0 0 2.769-3.13H1.76a12.062 12.062 0 0 0 2.769 3.13ZM12 0v2.608h7.47A11.949 11.949 0 0 0 12-.001Z" fill="#338AF3"/><path d="M12 8.869h11.586a11.932 11.932 0 0 0-1.348-3.13H12v3.13ZM0 12c0 1.083.144 2.132.414 3.13h23.173c.269-.998.413-2.047.413-3.13H0Z" fill="#338AF3"/><path d="m10.435 7.023-1.465.69.78 1.419-1.591-.304-.202 1.607-1.108-1.182-1.109 1.182-.202-1.607-1.59.304.78-1.42-1.466-.689 1.466-.69-.78-1.418 1.59.304.202-1.608L6.85 4.794 7.957 3.61 8.16 5.22l1.591-.304-.78 1.419 1.465.69Z" fill="#FFDA44"/></g><defs><clipPath id="a"><path fill="#fff" d="M0 0h24v24H0z"/></clipPath></defs></svg>