<svg width="24" height="24" fill="none" xmlns="http://www.w3.org/2000/svg"><g clip-path="url(#a)"><path d="M12 24c6.627 0 12-5.373 12-12S18.627 0 12 0 0 5.373 0 12s5.373 12 12 12Z" fill="#F0F0F0"/><path d="M23.253 7.827H.746A11.975 11.975 0 0 0 0 12c0 1.468.264 2.874.746 4.174h22.507c.483-1.3.747-2.707.747-4.174a11.97 11.97 0 0 0-.747-4.174Z" fill="#A2001D"/><path d="M12.035 24.001c4.11 0 7.737-2.067 9.9-5.217h-19.8a11.986 11.986 0 0 0 9.9 5.217ZM12.034 0c4.11 0 7.737 2.067 9.9 5.218h-19.8A11.986 11.986 0 0 1 12.035 0Z" fill="#6DA544"/><path d="m12 7.827 1.036 3.188h3.352l-2.712 1.971 1.036 3.189-2.713-1.971-2.712 1.97 1.036-3.188-2.712-1.97h3.353l1.035-3.19Z" fill="#FFDA44"/></g><defs><clipPath id="a"><path fill="#fff" d="M0 0h24v24H0z"/></clipPath></defs></svg>