<svg width="24" height="24" fill="none" xmlns="http://www.w3.org/2000/svg"><g clip-path="url(#a)"><path d="M12 24c6.627 0 12-5.373 12-12S18.627 0 12 0 0 5.373 0 12s5.373 12 12 12Z" fill="#F0F0F0"/><path d="M15.898 8.87h-1.57c.013.172.02.346.02.521 0 1.161-.29 2.286-.796 3.087-.156.247-.418.596-.77.831V8.87h-1.564v4.44c-.351-.235-.614-.584-.77-.83-.506-.802-.796-1.927-.796-3.088 0-.175.008-.349.02-.521h-1.57c-.01.171-.015.345-.015.521 0 3.219 1.719 5.74 3.913 5.74s3.913-2.521 3.913-5.74c0-.176-.005-.35-.015-.521Z" fill="#D80027"/><path d="M4.957 5.738h1.565v1.044h1.565V5.738h1.565v1.044h1.566V5.738h1.565v1.044h1.565V5.738h1.565v1.044h1.566V5.738h1.565v1.044h3.765A12 12 0 0 0 12-.001 12 12 0 0 0 1.191 6.782h3.766V5.738Z" fill="#6DA544"/><path d="M19.044 17.217v1.044h-1.565v-1.044h-1.566v1.044h-1.565v-1.044h-1.565v1.044h-1.565v-1.044H9.653v1.044H8.087v-1.044H6.522v1.044H4.957v-1.044H1.19A12 12 0 0 0 12.001 24a12 12 0 0 0 10.809-6.783h-3.766Z" fill="#D80027"/></g><defs><clipPath id="a"><path fill="#fff" d="M0 0h24v24H0z"/></clipPath></defs></svg>