<svg width="24" height="24" fill="none" xmlns="http://www.w3.org/2000/svg"><g clip-path="url(#a)"><path d="M12 0c6.628 0 12 5.373 12 12s-5.372 12-12 12c0-.522-1.565-12-1.565-12L12 0Z" fill="#F0F0F0"/><path d="M12 24C5.373 24 0 18.627 0 12S5.373 0 12 0" fill="#496E2D"/><path d="m14.578 9.699-.985 1.357L12 10.537l.986 1.356-.984 1.357 1.594-.52.986 1.357-.001-1.677 1.594-.519-1.595-.517-.001-1.676Z" fill="#D80027"/><path d="M12.995 15.392a3.391 3.391 0 1 1 1.613-6.375 4.174 4.174 0 1 0 0 5.967c-.48.26-1.029.408-1.613.408Z" fill="#D80027"/></g><defs><clipPath id="a"><path fill="#fff" d="M0 0h24v24H0z"/></clipPath></defs></svg>