<svg width="24" height="24" fill="none" xmlns="http://www.w3.org/2000/svg"><path d="M12 24c6.627 0 12-5.373 12-12S18.627 0 12 0 0 5.373 0 12s5.373 12 12 12Z" fill="#338AF3"/><path d="m12 5.217.518 1.595h1.677l-1.357.985.518 1.594L12 8.406l-1.356.985.518-1.594-1.356-.985h1.676L12 5.217ZM5.217 12l1.595-.518V9.805l.985 1.357 1.594-.519L8.406 12l.985 1.356-1.594-.518-.985 1.356v-1.676L5.217 12ZM12 18.783l-.518-1.594H9.806l1.356-.986-.518-1.594 1.356.985 1.357-.985-.519 1.594 1.357.986h-1.677L12 18.783ZM18.783 12l-1.594.518v1.676l-.986-1.356-1.594.518.985-1.357-.985-1.356 1.594.518.986-1.356v1.677l1.594.518Z" fill="#F0F0F0"/></svg>