<svg width="24" height="24" fill="none" xmlns="http://www.w3.org/2000/svg"><g clip-path="url(#a)"><path d="M24 12c0 6.627-5.373 12-12 12S0 18.627 0 12c.522 0 12-1.566 12-1.566L24 12Z" fill="#338AF3"/><path d="M0 12C0 5.373 5.373 0 12 0s12 5.373 12 12" fill="#F0F0F0"/><path d="M16.763 8.28 12 13.045 7.237 8.281a5.706 5.706 0 0 0-.976 3.198v1.565a5.75 5.75 0 0 0 3.878 5.43c-.301.589-.25 1.324.19 1.875l1.706-1.367 1.705 1.367a1.736 1.736 0 0 0 .18-1.897 5.749 5.749 0 0 0 3.819-5.408V11.48c0-1.183-.36-2.284-.976-3.198Z" fill="#6DA544"/><path d="M12 17.218a4.179 4.179 0 0 1-4.174-4.174v-1.566A4.179 4.179 0 0 1 12 7.306a4.179 4.179 0 0 1 4.174 4.174v1.565A4.179 4.179 0 0 1 12 17.218Z" fill="#FFDA44"/><path d="M14.609 13.043v-1.565A2.612 2.612 0 0 0 12 8.87a2.612 2.612 0 0 0-2.608 2.61v1.564l2.608.522 2.609-.522Z" fill="#338AF3"/><path d="M9.392 13.043A2.612 2.612 0 0 0 12 15.652a2.612 2.612 0 0 0 2.609-2.609H9.392Z" fill="#6DA544"/><path d="M15.13 7.304a1.565 1.565 0 0 0-2.608-1.166v-.921h.521V4.173h-.521v-.521h-1.044v.521h-.521v1.044h.521v.92A1.565 1.565 0 0 0 9.391 8.47v.92h5.218v-.92c.32-.286.521-.703.521-1.166Z" fill="#FFDA44"/></g><defs><clipPath id="a"><path fill="#fff" d="M0 0h24v24H0z"/></clipPath></defs></svg>