<svg width="24" height="24" fill="none" xmlns="http://www.w3.org/2000/svg"><g clip-path="url(#a)"><path d="M12 0c-1.084 0-2.133.144-3.13.413L7.825 12l1.043 11.587c.998.269 2.047.413 3.13.413 6.628 0 12-5.373 12-12S18.628 0 12 0Z" fill="#FFDA44"/><path d="m7.826 12 1.043 11.587c.998.27 2.047.413 3.13.413 6.628 0 12-5.372 12-12H7.827Z" fill="#6DA544"/><path d="M0 12c0 4.548 2.53 8.505 6.261 10.54V1.46a11.997 11.997 0 0 0-6.26 10.54Z" fill="#D80027"/><path d="M0 12c0 5.544 3.76 10.21 8.87 11.586V.413C3.76 1.79 0 6.455 0 11.999Z" fill="#D80027"/><path d="m4.535 8.868.777 2.392h2.514l-2.034 1.478.777 2.391-2.034-1.478L2.5 15.13l.777-2.391-2.034-1.478h2.515l.777-2.392Z" fill="#000"/></g><defs><clipPath id="a"><path fill="#fff" d="M0 0h24v24H0z"/></clipPath></defs></svg>