<svg width="24" height="24" fill="none" xmlns="http://www.w3.org/2000/svg"><path d="M24 12c0 6.627-5.373 12-12 12S0 18.627 0 12L12 0c6.627 0 12 5.373 12 12Z" fill="#D80027"/><path d="M12 12V0C5.373 0 0 5.373 0 12h12Z" fill="#0052B4"/><path d="m10.435 7.023-1.466.69.78 1.419-1.59-.305-.202 1.608-1.109-1.182-1.108 1.182-.202-1.608-1.591.305.78-1.42-1.465-.689 1.465-.69-.78-1.419 1.591.305.202-1.608 1.108 1.183L7.957 3.61l.201 1.608 1.592-.305-.78 1.42 1.465.689Z" fill="#F0F0F0"/><path d="M6.849 9.257a2.234 2.234 0 1 0 0-4.468 2.234 2.234 0 0 0 0 4.468Z" fill="#0052B4"/><path d="M6.848 8.214c-.656 0-1.19-.534-1.19-1.19 0-.657.534-1.19 1.19-1.19.656 0 1.19.533 1.19 1.19 0 .656-.534 1.19-1.19 1.19Z" fill="#F0F0F0"/></svg>