<svg width="24" height="24" fill="none" xmlns="http://www.w3.org/2000/svg"><g clip-path="url(#a)"><path d="M12 24c6.627 0 12-5.373 12-12S18.627 0 12 0 0 5.373 0 12s5.373 12 12 12Z" fill="#F0F0F0"/><path d="M23.064 7.347C21.246 3.03 16.977-.001 12-.001a11.96 11.96 0 0 0-8.485 3.515L6.52 7.347h16.544Z" fill="#000"/><path d="m6.554 16.608-3.039 3.876A11.961 11.961 0 0 0 12 23.999c4.994 0 9.275-3.051 11.082-7.391H6.554Z" fill="#496E2D"/><path d="M2.609 8.826v6.304h20.978c.269-.998.413-2.047.413-3.13 0-1.099-.148-2.163-.425-3.174H2.61Z" fill="#A2001D"/><path d="M3.515 3.515c-4.687 4.686-4.687 12.284 0 16.97L12 12 3.515 3.515Z" fill="#0052B4"/><path d="m3.909 9.016 1.464 2.044L7.77 10.3l-1.491 2.024 1.464 2.044-2.386-.792L3.866 15.6l.016-2.515-2.386-.793 2.396-.761.017-2.515Z" fill="#FFDA44"/></g><defs><clipPath id="a"><path fill="#fff" d="M0 0h24v24H0z"/></clipPath></defs></svg>