<svg width="24" height="24" fill="none" xmlns="http://www.w3.org/2000/svg"><path d="M12 24c6.627 0 12-5.373 12-12S18.627 0 12 0 0 5.373 0 12s5.373 12 12 12Z" fill="#F0F0F0"/><path d="M16.518 9.392h-3.012l-1.507-2.609-1.506 2.609H7.481l1.506 2.609-1.506 2.608h3.012L12 17.22l1.507-2.61h3.012l-1.506-2.608 1.506-2.609Zm-2.668 2.609-.925 1.602h-1.85l-.926-1.602.925-1.603h1.85l.926 1.603ZM12 8.796l.344.596h-.689L12 8.796Zm-2.776 1.602h.689l-.345.597-.344-.597Zm0 3.205.344-.596.345.596h-.69Zm2.775 1.603-.344-.597h.689l-.345.597Zm2.776-1.603h-.689l.345-.596.344.596Zm-.689-3.205h.69l-.345.597-.345-.597ZM19.47 2.609H4.53a12.06 12.06 0 0 0-2.769 3.13h20.477a12.063 12.063 0 0 0-2.768-3.13ZM4.53 21.391h14.94a12.062 12.062 0 0 0 2.768-3.13H1.761a12.062 12.062 0 0 0 2.769 3.13Z" fill="#0052B4"/></svg>