<svg width="24" height="24" fill="none" xmlns="http://www.w3.org/2000/svg"><g clip-path="url(#a)"><path d="M12 24c1.467 0 2.874-.263 4.174-.746l.521-11.253L16.174.747A11.975 11.975 0 0 0 12 .001c-1.468 0-2.874.264-4.174.746l-.522 11.254.522 11.253c1.3.483 2.706.747 4.174.747Z" fill="#0052B4"/><path d="M0 12c0 5.16 3.256 9.558 7.826 11.254V.746C3.256 2.442 0 6.84 0 12ZM16.174.746v22.507C20.744 21.558 24 17.16 24 12 24 6.84 20.743 2.44 16.174.746Z" fill="#A2001D"/><path d="M6.783 11.999H5.739v4.174h1.044v-4.174ZM2.609 11.999H1.565v4.174H2.61v-4.174ZM4.174 14.608a1.044 1.044 0 1 0 0-2.087 1.044 1.044 0 0 0 0 2.087ZM4.174 10.434a.522.522 0 1 0 0-1.044.522.522 0 0 0 0 1.044ZM5.217 15.129H3.13v1.043h2.087V15.13ZM5.217 10.955H3.13v1.043h2.087v-1.043ZM4.174 6.26l.37 1.137H5.74l-.968.703.37 1.137-.968-.703-.967.703.37-1.137-.968-.703h1.196l.37-1.137Z" fill="#FFDA44"/></g><defs><clipPath id="a"><path fill="#fff" d="M0 0h24v24H0z"/></clipPath></defs></svg>