<svg width="24" height="24" fill="none" xmlns="http://www.w3.org/2000/svg"><path d="M12 24c6.627 0 12-5.373 12-12S18.627 0 12 0 0 5.373 0 12s5.373 12 12 12Z" fill="#496E2D"/><path d="M14.087 11.5c-.295 0-.574.059-.834.152.142-.317.238-.67.238-1.046C13.49 9.116 12 7.997 12 7.997s-1.49 1.118-1.49 2.609c0 .377.095.73.237 1.046a2.459 2.459 0 0 0-.834-.152c-1.49 0-2.609 1.491-2.609 1.491s1.118 1.49 2.609 1.49c.874 0 1.62-.512 2.087-.936.468.424 1.213.937 2.087.937 1.49 0 2.609-1.491 2.609-1.491s-1.119-1.49-2.61-1.49Z" fill="#F0F0F0"/><path d="m12 4.695.309.947h.996l-.806.586.308.948L12 6.59l-.806.586.307-.948-.806-.586h.997L12 4.695ZM8.211 6.352l.593.533.69-.399-.324.729.592.533-.793-.083-.324.728-.166-.78-.792-.083.69-.399-.166-.78ZM5.438 9.126l.78.166.398-.69.083.792.78.166-.728.324.083.793-.533-.592-.729.324.399-.69-.533-.593ZM15.79 6.352l-.593.533-.69-.399.324.729-.592.533.792-.083.325.728.166-.78.792-.083-.69-.399.166-.78ZM18.563 9.126l-.78.166-.398-.69-.084.792-.78.166.73.324-.084.793.533-.592.728.324-.398-.69.533-.593Z" fill="#FFDA44"/><path d="M12 18.655a5.193 5.193 0 0 0 3.15-1.06H8.85a5.193 5.193 0 0 0 3.15 1.06ZM7.217 15.524c.166.38.376.734.622 1.06h8.322a5.21 5.21 0 0 0 .622-1.06H7.217Z" fill="#F0F0F0"/></svg>