<svg width="24" height="24" fill="none" xmlns="http://www.w3.org/2000/svg"><g clip-path="url(#a)"><path d="M16.174.747A11.975 11.975 0 0 0 12 0c-1.468 0-2.874.264-4.174.747L6.782 12l1.044 11.254c1.3.482 2.706.746 4.174.746 1.467 0 2.874-.264 4.174-.746L17.217 12 16.174.747Z" fill="#FFDA44"/><path d="M24 12C24 6.84 20.743 2.44 16.174.745v22.507C20.744 21.557 24 17.159 24 11.999Z" fill="#D80027"/><path d="M0 12c0 5.16 3.256 9.558 7.826 11.254V.746C3.256 2.442 0 6.84 0 12Z" fill="#000"/></g><defs><clipPath id="a"><path fill="#fff" d="M0 0h24v24H0z"/></clipPath></defs></svg>