<svg width="24" height="24" fill="none" xmlns="http://www.w3.org/2000/svg"><g clip-path="url(#a)"><path d="M23.586 15.13a12.014 12.014 0 0 0 0-6.26L10.956.044a11.939 11.939 0 0 0-6.26 2.434L.412 8.869A12.013 12.013 0 0 0 0 11.999c0 1.077.142 2.12.408 3.114l4.287 6.407a11.938 11.938 0 0 0 6.261 2.434l12.63-8.824Z" fill="#FFDA44"/><path d="M.413 15.13a12.01 12.01 0 0 0 4.282 6.39v-6.39H.413ZM10.956 23.954c.344.03.692.046 1.043.046 5.545 0 10.21-3.76 11.587-8.87h-12.63v8.824ZM23.586 8.87C22.209 3.76 17.544 0 11.999 0c-.351 0-.7.016-1.043.046V8.87h12.63ZM4.695 2.48A12.01 12.01 0 0 0 .413 8.87h4.282V2.48Z" fill="#0052B4"/><path d="M23.899 10.434H9.392V.284c-1.11.247-2.16.645-3.13 1.175v8.975H.101a12.102 12.102 0 0 0 0 3.13h6.16v8.976c.97.53 2.02.928 3.13 1.174v-10.15h14.507a12.121 12.121 0 0 0 0-3.13Z" fill="#D80027"/></g><defs><clipPath id="a"><path fill="#fff" d="M0 0h24v24H0z"/></clipPath></defs></svg>