<svg width="24" height="24" fill="none" xmlns="http://www.w3.org/2000/svg"><path d="M12 24c6.627 0 12-5.373 12-12S18.627 0 12 0 0 5.373 0 12s5.373 12 12 12Z" fill="#D80027"/><path d="M19.092 9.848h-5.418L12 4.695l-1.674 5.153H4.91l4.383 3.184-1.675 5.152L12 15l4.383 3.185-1.674-5.153 4.383-3.184Zm-8.574 2.785.566-1.742h1.832l.566 1.742L12 13.71l-1.482-1.077Zm2.06-2.785h-1.154L12 8.072l.577 1.776Zm1.792 2.14-.357-1.097h1.867l-1.51 1.098Zm-4.383-1.097-.356 1.098-1.51-1.098h1.866Zm-.385 4.562.577-1.776.934.678-1.51 1.098Zm3.286-1.098.934-.678.576 1.776-1.51-1.098Z" fill="#FFDA44"/></svg>