<svg width="24" height="24" fill="none" xmlns="http://www.w3.org/2000/svg"><g clip-path="url(#a)"><path d="M12 24c6.627 0 12-5.373 12-12S18.627 0 12 0 0 5.373 0 12s5.373 12 12 12Z" fill="#FFDA44"/><path d="M12 24c3.937 0 7.432-1.896 9.62-4.825H2.38A11.982 11.982 0 0 0 12 24ZM24 12c0-6.627-5.373-12-12-12S0 5.373 0 12c0 1.419.247 2.78.7 4.044h22.6c.453-1.264.7-2.625.7-4.044Z" fill="#0052B4"/><path d="m8.214 7.696.647 1.993h2.096L9.26 10.92l.648 1.992-1.695-1.231-1.696 1.231.648-1.992-1.695-1.232h2.095l.648-1.993ZM4.615 5.61l.388 1.195h1.258l-1.017.74.388 1.195L4.615 8l-1.017.74.388-1.196-1.017-.739h1.258l.388-1.196Z" fill="#F0F0F0"/></g><defs><clipPath id="a"><path fill="#fff" d="M0 0h24v24H0z"/></clipPath></defs></svg>