<svg width="24" height="24" fill="none" xmlns="http://www.w3.org/2000/svg"><g clip-path="url(#a)"><path d="M16.174.746A11.975 11.975 0 0 0 12 0c-1.467 0-2.874.264-4.173.746L7.305 12l.522 11.254c1.3.482 2.706.746 4.173.746 1.468 0 2.874-.264 4.174-.747L16.696 12 16.174.746Z" fill="#FFDA44"/><path d="M0 12c0 5.16 3.257 9.558 7.826 11.254V.747C3.256 2.442 0 6.84 0 12Z" fill="#D80027"/><path d="M24 12c0-5.16-3.257-9.558-7.826-11.253v22.507C20.744 21.558 24 17.16 24 12Z" fill="#6DA544"/></g><defs><clipPath id="a"><path fill="#fff" d="M0 0h24v24H0z"/></clipPath></defs></svg>