<svg width="24" height="24" fill="none" xmlns="http://www.w3.org/2000/svg"><g clip-path="url(#a)"><path d="M12 24c6.627 0 12-5.373 12-12S18.627 0 12 0 0 5.373 0 12s5.373 12 12 12Z" fill="#F0F0F0"/><path d="M24 11.965H10.99c-2.583 2.583-4.144 4.577-5.739 6.172l6.783.61 10.525-1.043A11.946 11.946 0 0 0 24 12v-.035Z" fill="#D80027"/><path d="M5.253 6.226h17.269A11.997 11.997 0 0 0 12-.001a11.96 11.96 0 0 0-8.467 3.498l1.72 2.729Z" fill="#FFDA44"/><path d="M5.773 17.704c-1.078 1.079-1.495 1.983-2.276 2.763A11.962 11.962 0 0 0 12 24c4.563 0 8.53-2.547 10.56-6.296H5.773Z" fill="#0052B4"/><path d="M3.514 3.48c-4.686 4.687-4.686 12.285 0 16.971L12 11.966 3.514 3.48Z" fill="#6DA544"/><path d="M3.165 11.965a3.653 3.653 0 0 1 2.87-3.568 3.652 3.652 0 1 0 0 7.134 3.653 3.653 0 0 1-2.87-3.566Z" fill="#F0F0F0"/><path d="m5.995 8.835.194.598h.629l-.509.37.194.597-.508-.37-.509.37.195-.598-.51-.37h.63l.194-.597ZM5.995 10.4l.194.598h.629l-.509.37.194.597-.508-.37-.509.37.195-.598-.51-.37h.63l.194-.597ZM5.995 11.965l.194.598h.629l-.509.369.194.598-.508-.37-.509.37.195-.598-.51-.37h.63l.194-.597Z" fill="#F0F0F0"/><path d="m5.995 13.53.194.598h.629l-.509.37.194.597-.508-.37-.509.37.195-.598-.51-.37h.63l.194-.597Z" fill="#F0F0F0"/></g><defs><clipPath id="a"><path fill="#fff" d="M0 0h24v24H0z"/></clipPath></defs></svg>