<svg width="24" height="24" fill="none" xmlns="http://www.w3.org/2000/svg"><g clip-path="url(#a)"><path d="M20.943 20A11.955 11.955 0 0 0 24 12c0-3.073-1.157-5.877-3.057-8L12 3.13 3.056 4A11.954 11.954 0 0 0 0 12c0 3.074 1.156 5.877 3.056 8l8.944.87 8.943-.87Z" fill="#FFDA44"/><path d="M3.057 4h17.887A11.97 11.97 0 0 0 12 0a11.97 11.97 0 0 0-8.943 4Z" fill="#000"/><path d="m0 12 12 1.044 12-1.043c0-1.403-.242-2.75-.684-4H.683A11.977 11.977 0 0 0 0 12Z" fill="#D80027"/><path d="M.683 16h22.633A11.98 11.98 0 0 0 24 12H0c0 1.402.241 2.748.683 4Z" fill="#000"/><path d="M20.943 20H3.057A11.97 11.97 0 0 0 12 24a11.97 11.97 0 0 0 8.943-4Z" fill="#D80027"/><path d="M16.004 12a4.004 4.004 0 1 1-8.008.001 4.004 4.004 0 0 1 8.008 0Z" fill="#F0F0F0"/><path d="M13.467 12.204 12 11.568s.343-1.14.361-1.217a.78.78 0 0 0-.209-.73l.37-.37a1.3 1.3 0 0 0-1.845 0l.369.37a.78.78 0 0 0-.196.78l-.555.555h1.01s-.418.627-.646 1.142a1.053 1.053 0 0 0 .53 1.377l.304.135.507.476v.522l-.522.522h1.043v-1.044l.476-.476h.985l.014-.03a1.044 1.044 0 0 0-.53-1.376Z" fill="#000"/></g><defs><clipPath id="a"><path fill="#fff" d="M0 0h24v24H0z"/></clipPath></defs></svg>