<svg width="24" height="24" fill="none" xmlns="http://www.w3.org/2000/svg"><g clip-path="url(#a)"><path d="M12 24c6.627 0 12-5.373 12-12S18.627 0 12 0 0 5.373 0 12s5.373 12 12 12Z" fill="#F0F0F0"/><path d="M11.999 0a11.982 11.982 0 0 0-9.6 4.8h19.2A11.982 11.982 0 0 0 12 0ZM11.999 24c3.926 0 7.411-1.886 9.6-4.8H2.4a11.982 11.982 0 0 0 9.6 4.8ZM0 12c0 .821.082 1.624.24 2.4h23.52a12.047 12.047 0 0 0 0-4.8H.24C.082 10.374 0 11.177 0 12Z" fill="#D80027"/><path d="M3.514 3.515c-4.686 4.687-4.686 12.285 0 16.971L12 12.001 3.514 3.515Z" fill="#0052B4"/><path d="m4.857 8.869.777 2.391h2.515l-2.035 1.478.777 2.392-2.034-1.478-2.034 1.478.777-2.392-2.035-1.478H4.08l.777-2.391Z" fill="#F0F0F0"/></g><defs><clipPath id="a"><path fill="#fff" d="M0 0h24v24H0z"/></clipPath></defs></svg>