<svg width="24" height="24" fill="none" xmlns="http://www.w3.org/2000/svg"><g clip-path="url(#a)"><path d="M1.19 6.783A11.952 11.952 0 0 0 0 12c0 1.87.428 3.64 1.19 5.218L12 18.26l10.81-1.043A11.953 11.953 0 0 0 24 12c0-1.87-.428-3.64-1.19-5.217L12 5.739 1.19 6.783Z" fill="#000"/><path d="M1.191 17.217a12 12 0 0 0 10.81 6.782 12 12 0 0 0 10.808-6.782H1.191Z" fill="#496E2D"/><path d="M1.191 6.783H22.81A12 12 0 0 0 12 0 12 12 0 0 0 1.191 6.783Z" fill="#D80027"/><path d="m14.793 9.805.985 1.357 1.594-.518L16.386 12l.985 1.357-1.594-.52-.986 1.357v-1.677l-1.593-.519 1.594-.517.001-1.676Z" fill="#F0F0F0"/><path d="M12.107 15.39a3.391 3.391 0 1 1 1.613-6.375 4.174 4.174 0 1 0 0 5.967c-.48.26-1.03.408-1.613.408Z" fill="#F0F0F0"/></g><defs><clipPath id="a"><path fill="#fff" d="M0 0h24v24H0z"/></clipPath></defs></svg>