<svg width="24" height="24" fill="none" xmlns="http://www.w3.org/2000/svg"><path d="M12 24c6.627 0 12-5.373 12-12S18.627 0 12 0 0 5.373 0 12s5.373 12 12 12Z" fill="#F0F0F0"/><path d="M1.46 6.262h21.08A11.997 11.997 0 0 0 12 0C7.452 0 3.494 2.53 1.46 6.26ZM12 24c4.548 0 8.505-2.53 10.54-6.261H1.46a11.997 11.997 0 0 0 10.54 6.26Z" fill="#D80027"/><path d="M16.174 12c0 2.305-1.869 3.652-4.174 3.652-2.305 0-4.174-1.347-4.174-3.652a4.174 4.174 0 1 1 8.348 0Z" fill="#FFDA44"/><path d="M16.174 12a4.174 4.174 0 1 1-8.348 0" fill="#0052B4"/><path d="M10.435 10.956H9.392v2.087h1.043v-2.087ZM14.609 10.956h-1.044v2.087h1.044v-2.087ZM12.522 9.39h-1.043v3.653h1.043V9.391Z" fill="#D80027"/></svg>