<svg width="24" height="24" fill="none" xmlns="http://www.w3.org/2000/svg"><path d="M12 24c6.627 0 12-5.373 12-12S18.627 0 12 0 0 5.373 0 12s5.373 12 12 12Z" fill="#F0F0F0"/><path d="M23.897 10.435a11.946 11.946 0 0 0-3.412-6.92 11.946 11.946 0 0 0-6.92-3.412v10.332h10.332ZM10.435.104a11.946 11.946 0 0 0-6.92 3.412 11.947 11.947 0 0 0-3.412 6.92h10.332V.104ZM.103 13.566a11.947 11.947 0 0 0 3.412 6.92 11.947 11.947 0 0 0 6.92 3.412V13.566H.103ZM13.565 23.898a11.946 11.946 0 0 0 6.92-3.412 11.946 11.946 0 0 0 3.412-6.92H13.565v10.332Z" fill="#0052B4"/><path d="M16.096 7.615c0-.16.13-.29.29-.29h.62a1.78 1.78 0 0 0 1.777-1.777 1.78 1.78 0 0 0-1.777-1.777h-.59a1.224 1.224 0 0 0-.733-.233c-.593 0-1.074.385-1.074.86 0 .469.471.85 1.057.858v.003h1.34a.29.29 0 0 1 0 .579h-.62c-.98 0-1.777.797-1.777 1.777 0 .98.797 1.777 1.777 1.777h2.397V7.904h-2.397a.29.29 0 0 1-.29-.29ZM6.705 7.615c0-.16.13-.29.29-.29h.62A1.78 1.78 0 0 0 9.39 5.55a1.78 1.78 0 0 0-1.777-1.777h-.589a1.225 1.225 0 0 0-.734-.234c-.593 0-1.074.385-1.074.86 0 .47.472.85 1.057.858v.003h1.34a.29.29 0 0 1 0 .579h-.62c-.98 0-1.777.797-1.777 1.777 0 .98.797 1.777 1.777 1.777h2.397V7.904H6.994a.29.29 0 0 1-.29-.29ZM16.096 18.686c0-.16.13-.29.29-.29h.62c.98 0 1.777-.797 1.777-1.776 0-.98-.797-1.777-1.777-1.777h-.589a1.225 1.225 0 0 0-.734-.234c-.593 0-1.074.385-1.074.86 0 .47.471.85 1.057.858v.003h1.34a.29.29 0 0 1 0 .579h-.62c-.98 0-1.777.797-1.777 1.777 0 .98.797 1.777 1.777 1.777h2.397v-1.488h-2.397a.29.29 0 0 1-.29-.29ZM6.705 18.686c0-.16.13-.29.29-.29h.619c.98 0 1.777-.797 1.777-1.776a1.78 1.78 0 0 0-1.777-1.777h-.589a1.225 1.225 0 0 0-.734-.234c-.593 0-1.074.385-1.074.86 0 .47.472.85 1.057.858v.003h1.34a.29.29 0 0 1 0 .579h-.62c-.98 0-1.777.797-1.777 1.777 0 .98.797 1.777 1.777 1.777h2.397v-1.488H6.994a.29.29 0 0 1-.29-.29Z" fill="#F0F0F0"/></svg>