<svg width="24" height="24" fill="none" xmlns="http://www.w3.org/2000/svg"><g clip-path="url(#a)"><path d="M0 12C0 5.373 5.373 0 12 0s12 5.373 12 12c-.522 0-12 1.565-12 1.565L0 12Z" fill="#F0F0F0"/><path d="M24 12c0 6.628-5.372 12-12 12-6.627 0-12-5.372-12-12" fill="#D80027"/><path d="M8.348 17.74a5.74 5.74 0 1 0 0-11.479 5.74 5.74 0 0 0 0 11.479Z" fill="#F0F0F0"/><path d="M2.608 12a5.74 5.74 0 0 1 11.479 0" fill="#D80027"/></g><defs><clipPath id="a"><path fill="#fff" d="M0 0h24v24H0z"/></clipPath></defs></svg>