<svg width="24" height="24" fill="none" xmlns="http://www.w3.org/2000/svg"><path d="M12 24c6.627 0 12-5.373 12-12S18.627 0 12 0 0 5.373 0 12s5.373 12 12 12Z" fill="#338AF3"/><path d="M11.621 19.556a.782.782 0 0 1-.696-.511.783.783 0 0 1-1.396-.36.784.784 0 0 1-1.294-.635.782.782 0 0 1-1.14-.882.781.781 0 0 1-.94-1.092.783.783 0 0 1-.702-1.26.782.782 0 0 1-.432-1.375.782.782 0 0 1-.147-1.433.783.783 0 0 1 .143-1.434.783.783 0 0 1 .43-1.376.784.784 0 0 1 .7-1.26.782.782 0 0 1 .937-1.095.782.782 0 0 1 1.137-.885.783.783 0 0 1 1.293-.637.783.783 0 0 1 1.395-.363.783.783 0 0 1 1.439-.075.783.783 0 0 1 1.425.215.783.783 0 0 1 1.353.499.783.783 0 0 1 1.224.76.783.783 0 0 1 1.046.991.783.783 0 0 1 .827 1.18.784.784 0 0 1 .572 1.325.782.782 0 0 1 .292 1.41c.28.12.477.396.478.72V12a.784.784 0 0 1-.476.72.782.782 0 0 1-.29 1.412.783.783 0 0 1-.568 1.325.783.783 0 0 1-.824 1.183.783.783 0 0 1-1.044.993.783.783 0 0 1-1.223.764.783.783 0 0 1-1.352.502.783.783 0 0 1-1.424.217.782.782 0 0 1-.743.44Z" fill="#F3F3F3"/><path d="M12 17.218a5.217 5.217 0 1 0 0-10.434 5.217 5.217 0 0 0 0 10.434Z" fill="#338AF3"/><path d="M13.142 10.229c.256-.19.423-.494.423-.838V8.87c0-.577-.467-1.044-1.043-1.044h-1.044c-.576 0-1.043.467-1.043 1.044v.521c0 .344.166.648.423.838l-.945 9.597s.522.522 2.087.522c1.565 0 2.087-.522 2.087-.522l-.945-9.597Z" fill="#BDBCC1"/><path d="m12 7.826.907 2.79h2.933l-2.373 1.724.906 2.79L12 13.406 9.627 15.13l.906-2.79-2.373-1.724h2.934L12 7.826Z" fill="#F0F0F0"/></svg>