<svg width="24" height="24" fill="none" xmlns="http://www.w3.org/2000/svg"><g clip-path="url(#a)"><path d="M1.19 6.782A11.952 11.952 0 0 0 0 11.999c0 1.87.428 3.64 1.19 5.218L12 18.26l10.81-1.043A11.952 11.952 0 0 0 24 11.999c0-1.87-.428-3.64-1.19-5.217L12 5.738 1.19 6.782Z" fill="#F0F0F0"/><path d="M1.191 17.218A12 12 0 0 0 12.001 24a12 12 0 0 0 10.808-6.782H1.191Z" fill="#496E2D"/><path d="M1.191 6.782H22.81A12 12 0 0 0 12 0 12 12 0 0 0 1.191 6.782Z" fill="#000"/><path d="M3.515 3.515c-4.687 4.686-4.687 12.284 0 16.97L12 12 3.515 3.515ZM15.13 12A3.653 3.653 0 0 1 18 8.433a3.652 3.652 0 1 0 0 7.134A3.653 3.653 0 0 1 15.13 12Z" fill="#D80027"/><path d="m18.153 9.652.518 1.595h1.677l-1.357.985.518 1.594-1.356-.985-1.356.985.518-1.594-1.356-.986h1.676l.518-1.594Z" fill="#D80027"/></g><defs><clipPath id="a"><path fill="#fff" d="M0 0h24v24H0z"/></clipPath></defs></svg>