<svg width="24" height="24" fill="none" xmlns="http://www.w3.org/2000/svg"><g clip-path="url(#a)"><path d="M5.237 21.913A11.944 11.944 0 0 0 12 24c2.51 0 4.838-.77 6.764-2.087L12 20.869l-6.763 1.044ZM18.764 2.087A11.944 11.944 0 0 0 12 0C9.491 0 7.163.77 5.237 2.087L12 3.131l6.764-1.044Z" fill="#D80027"/><path d="M5.237 21.913A11.944 11.944 0 0 0 12 24c2.51 0 4.838-.77 6.764-2.087L12 20.869l-6.763 1.044ZM18.764 2.087A11.944 11.944 0 0 0 12 0C9.491 0 7.163.77 5.237 2.087L12 3.131l6.764-1.044Z" fill="#D80027"/><path d="M23.97 11.216c-.284-3.703-2.534-7.304-5.206-9.13H5.237a11.99 11.99 0 0 0-5.21 9.13L12 12l11.97-.783ZM.025 12.782a11.99 11.99 0 0 0 5.211 9.13h13.527a11.99 11.99 0 0 0 5.212-9.13L12 12l-11.975.782Z" fill="#0052B4"/><path d="M23.97 11.217H12.783V1.565h-1.566v9.652H.025a12.194 12.194 0 0 0 0 1.566h11.192v9.652h1.566v-9.652h11.192c.016-.26.025-.52.025-.783 0-.261-.01-.522-.03-.783Z" fill="#D80027"/><path d="M4.696 12 12 7.407 19.305 12 12 16.59 4.696 12Z" fill="#F0F0F0"/><path d="M7.826 14.087h9.391l-2.087-3.13L14.087 12l-1.044-.521L12 13.044H9.913L8.869 12l-1.043 2.087Z" fill="#6DA544"/><path d="m12 8.869.26.797h.837l-.678.493.26.797-.679-.493-.678.493.26-.797-.679-.493h.838l.26-.797Z" fill="#FFDA44"/><path d="M12 6.097 2.61 11.999 12 17.902 21.392 12 12 6.097Zm-6.45 5.902L12 7.945 18.45 12 12 16.053 5.55 12Z" fill="#D80027"/></g><defs><clipPath id="a"><path fill="#fff" d="M0 0h24v24H0z"/></clipPath></defs></svg>