<svg width="24" height="24" fill="none" xmlns="http://www.w3.org/2000/svg"><path d="M12 23.998C18.627 23.998 24 18.626 24 11.999 23.999 5.373 18.627.002 12 .002 5.374.001.002 5.373.002 12c0 6.627 5.372 11.999 11.998 11.999Z" fill="#F0F0F0"/><path d="M1.61 6.001A12.007 12.007 0 0 0 .402 8.918l20.066 11.585A12.008 12.008 0 0 0 22.391 18L1.61 6Z" fill="#000"/><path d="M17.999 1.61C13.198-1.164 7.279-.24 3.532 3.496l20.065 11.585C24.96 9.969 22.8 4.38 18 1.609ZM6 22.39c4.801 2.772 10.721 1.848 14.468-1.888L.402 8.917C-.96 14.03 1.2 19.618 6.001 22.39Z" fill="#FFDA44"/><path d="M15.39 10.696a3.39 3.39 0 1 1-6.373-1.613 4.173 4.173 0 1 0 5.966 0c.26.48.408 1.03.408 1.613Z" fill="#D80027"/><path d="M12.783 6.784h-1.565v7.824h1.565V6.784Z" fill="#D80027"/><path d="M14.608 8.348H9.391c0 .36.314.652.674.652h-.021c0 .36.292.652.652.652 0 .36.292.653.652.653h1.304c.36 0 .652-.292.652-.653.36 0 .652-.291.652-.652h-.022c.36 0 .674-.292.674-.652ZM15.652 15.13H8.35v1.565h7.303V15.13Z" fill="#D80027"/><path d="M16.695 15.651h-3.13v1.565h3.13v-1.565ZM10.435 15.651h-3.13v1.565h3.13v-1.565Z" fill="#D80027"/></svg>