<svg width="24" height="24" fill="none" xmlns="http://www.w3.org/2000/svg"><g clip-path="url(#a)"><path d="m6.505 22.67 8.816-7.35 7.35-8.816a12.053 12.053 0 0 0-5.169-5.172L8.68 8.679 1.333 17.5a12.052 12.052 0 0 0 5.172 5.169Z" fill="#FFDA44"/><path d="M20.485 20.485c3.786-3.786 4.513-9.472 2.182-13.988l-16.17 16.17c4.517 2.33 10.202 1.604 13.988-2.182Z" fill="#D80027"/><path d="M3.514 3.514C-.272 7.3-.998 12.986 1.332 17.502l16.17-16.17C12.986-.998 7.3-.272 3.514 3.514Z" fill="#6DA544"/></g><defs><clipPath id="a"><path fill="#fff" d="M0 0h24v24H0z"/></clipPath></defs></svg>