<svg width="24" height="24" fill="none" xmlns="http://www.w3.org/2000/svg"><path d="M12 24c6.627 0 12-5.373 12-12S18.627 0 12 0 0 5.373 0 12s5.373 12 12 12Z" fill="#D80027"/><path d="m17.868 12-2.398 1.128 1.277 2.322-2.604-.498-.33 2.63L12 15.649l-1.813 1.935-.33-2.63-2.604.497 1.277-2.322L6.13 12l2.398-1.128L7.252 8.55l2.604.498.33-2.63 1.813 1.934 1.814-1.935.33 2.63 2.604-.497-1.277 2.322L17.868 12Z" fill="#FFDA44"/><path d="M12 15.651a3.652 3.652 0 1 0 0-7.304 3.652 3.652 0 0 0 0 7.304Z" fill="#D80027"/><path d="M10.174 12a2.64 2.64 0 0 0-.26.014c.003.505.186.968.488 1.328a3.66 3.66 0 0 1 .706-1.168 2.595 2.595 0 0 0-.934-.173ZM11.298 13.967a2.082 2.082 0 0 0 1.404 0A2.61 2.61 0 0 0 12 12.749a2.61 2.61 0 0 0-.702 1.218ZM13.808 10.957a2.086 2.086 0 0 0-3.615 0 3.629 3.629 0 0 1 1.808.491 3.628 3.628 0 0 1 1.807-.49ZM12.893 12.174c.303.338.544.734.705 1.168.302-.36.486-.822.489-1.328a2.612 2.612 0 0 0-1.194.16Z" fill="#FFDA44"/></svg>