<svg width="24" height="24" fill="none" xmlns="http://www.w3.org/2000/svg"><g clip-path="url(#a)"><path d="M12 24c6.627 0 12-5.373 12-12S18.627 0 12 0 0 5.373 0 12s5.373 12 12 12Z" fill="#F0F0F0"/><path d="M12-.001A12 12 0 0 0 1.19 6.782h21.62A12 12 0 0 0 12-.001ZM12 23.999a12 12 0 0 0 10.81-6.783H1.19A12 12 0 0 0 12 24Z" fill="#0052B4"/><path d="M9.59 12.522 12 8.35l2.41 4.173H9.59Z" fill="#FFDA44"/><path d="M15.13 13.9 12 15.465 8.87 13.9v-2.087h6.26V13.9Z" fill="#6DA544"/><path d="m14.952 8.527-1.107 1.107a2.609 2.609 0 1 1-3.69 0L9.05 8.527a4.174 4.174 0 1 0 5.903 0Z" fill="#FFDA44"/></g><defs><clipPath id="a"><path fill="#fff" d="M0 0h24v24H0z"/></clipPath></defs></svg>