<svg width="24" height="24" fill="none" xmlns="http://www.w3.org/2000/svg"><g clip-path="url(#a)"><path d="M12 24c6.627 0 12-5.373 12-12S18.627 0 12 0 0 5.373 0 12s5.373 12 12 12Z" fill="#F0F0F0"/><path d="M23.254 7.826H.746A11.974 11.974 0 0 0 0 12c0 1.468.264 2.874.746 4.174h22.508c.482-1.3.746-2.706.746-4.174 0-1.468-.264-2.874-.746-4.174Z" fill="#D80027"/><path d="M12.001 0a11.972 11.972 0 0 0-9.097 4.173h18.194A11.972 11.972 0 0 0 12 0ZM21.096 19.826H2.903A11.972 11.972 0 0 0 12 24c3.637 0 6.896-1.618 9.096-4.174Z" fill="#0052B4"/></g><defs><clipPath id="a"><path fill="#fff" d="M0 0h24v24H0z"/></clipPath></defs></svg>