<svg width="24" height="24" fill="none" xmlns="http://www.w3.org/2000/svg"><path d="M12 24c6.627 0 12-5.373 12-12S18.627 0 12 0 0 5.373 0 12s5.373 12 12 12Z" fill="#F0F0F0"/><path d="M16.174 12c0 1.043-1.869 3.652-4.174 3.652-2.305 0-4.174-2.609-4.174-3.652a4.174 4.174 0 0 1 8.348 0Z" fill="#D80027"/><path d="M16.174 12a4.174 4.174 0 1 1-8.348 0" fill="#0052B4"/><path d="m17.534 14.583-1.107 1.106.738.738 1.106-1.107-.737-.737ZM15.688 16.427l-1.106 1.107.737.737 1.107-1.106-.738-.738ZM19.747 16.795 18.64 17.9l.738.738 1.107-1.106-.738-.738ZM17.903 18.64l-1.107 1.108.738.737 1.107-1.106-.738-.738ZM18.64 15.69l-1.106 1.106.738.738 1.107-1.107-.738-.737ZM16.796 17.534l-1.107 1.107.738.738 1.107-1.107-.738-.738ZM15.69 5.358l2.95 2.952.738-.738-2.95-2.952-.739.738ZM14.583 6.466l1.107 1.107.737-.738-1.106-1.107-.738.738ZM16.427 8.31l1.107 1.107.738-.738-1.107-1.107-.738.738ZM16.795 4.252l1.107 1.107.738-.738-1.107-1.107-.738.738ZM18.64 6.098l1.108 1.106.737-.737L19.38 5.36l-.738.738ZM7.203 19.748l-2.95-2.951-.739.737 2.952 2.952.737-.738ZM8.31 18.64l-1.106-1.107-.738.738 1.107 1.107.738-.738ZM6.466 16.796l-1.107-1.107-.738.738 1.107 1.107.738-.738ZM9.418 17.534l-2.952-2.952-.738.738 2.952 2.951.738-.737ZM4.253 7.205l2.951-2.952-.738-.737-2.951 2.95.738.739ZM5.359 8.31 8.31 5.358l-.738-.737-2.951 2.951.738.738ZM6.466 9.417l2.952-2.951-.738-.738-2.951 2.951.737.738Z" fill="#000"/></svg>