<svg width="24" height="24" fill="none" xmlns="http://www.w3.org/2000/svg"><path d="M12 24c6.627 0 12-5.373 12-12S18.627 0 12 0 0 5.373 0 12s5.373 12 12 12Z" fill="#FCFCFC"/><path d="M14.038 8.384a2.038 2.038 0 0 0-4.076 0H5.478c0 1.108.965 2.006 2.074 2.006h-.067c0 1.108.898 2.007 2.006 2.007 0 .981.705 1.796 1.636 1.97l-.005.012h1.756l-.005-.011a2.006 2.006 0 0 0 1.635-1.971 2.007 2.007 0 0 0 2.007-2.007h-.067c1.108 0 2.073-.898 2.073-2.006h-4.483Z" fill="#FFDA44"/><path d="m11.104 14.172-1.263 2.853a5.722 5.722 0 0 0 2.16.422c.763 0 1.492-.15 2.159-.422l-1.264-2.853h-1.792Z" fill="#FFDA44"/><path d="M9.391 9.386v3.51c0 1.997 2.609 2.609 2.609 2.609s2.609-.612 2.609-2.609v-3.51H9.39Z" fill="#F0F0F0"/><path d="m2.91 12.085 1.41 3.946 1.397-3.946h1.066l-2.036 5.217h-.852l-2.05-5.217H2.91ZM19.304 17.302v-5.217h1.014v5.217h-1.014Z" fill="#338AF3"/><path d="M10.434 10.52v4.254c.359.264.745.445 1.044.561V10.52h-1.044ZM13.564 10.52v4.254a4.59 4.59 0 0 1-1.043.561V10.52h1.043Z" fill="#D80027"/><path d="M14.609 9.386H9.39v1.655h5.218V9.386Z" fill="#0052B4"/></svg>