<svg width="24" height="24" fill="none" xmlns="http://www.w3.org/2000/svg"><g clip-path="url(#a)"><path d="M12 24c6.627 0 12-5.373 12-12S18.627 0 12 0 0 5.373 0 12s5.373 12 12 12Z" fill="#FFDA44"/><path d="M7.305 7.826h15.95C21.558 3.256 17.16 0 12 0a11.96 11.96 0 0 0-8.485 3.515l3.789 4.311ZM7.304 16.175h15.95C21.557 20.745 17.158 24 12 24a11.961 11.961 0 0 1-8.485-3.515l3.79-4.311Z" fill="#6DA544"/><path d="M3.515 3.514c-4.687 4.686-4.687 12.284 0 16.97L12 12 3.515 3.514Z" fill="#D80027"/><path d="m15.238 9.913.518 1.594h1.676l-1.356.986.518 1.594-1.356-.986-1.356.986.518-1.595-1.357-.985h1.677l.518-1.594ZM20.456 9.913l.518 1.594h1.676l-1.356.986.518 1.594-1.356-.986-1.357.986.518-1.595-1.356-.985h1.677l.518-1.594Z" fill="#000"/></g><defs><clipPath id="a"><path fill="#fff" d="M0 0h24v24H0z"/></clipPath></defs></svg>