<svg width="24" height="24" fill="none" xmlns="http://www.w3.org/2000/svg"><g clip-path="url(#a)"><path d="M12 24c6.627 0 12-5.373 12-12S18.627 0 12 0 0 5.373 0 12s5.373 12 12 12Z" fill="#FCFCFC"/><path d="M4.957 11.129 3.652 8.762l1.305-2.329 1.304 2.33-1.304 2.366ZM2.348 11.129 1.043 8.762l1.305-2.329 1.304 2.33-1.304 2.366ZM4.957 17.564l-1.305-2.366 1.305-2.33 1.304 2.33-1.304 2.366ZM2.348 17.564l-1.305-2.366 1.305-2.33 1.304 2.33-1.304 2.366ZM6.26 2.329l-.369-.66c-.662.393-1.283.847-1.856 1.355l.921 1.671L6.261 2.33ZM4.956 19.304l-.93 1.662c.571.51 1.192.964 1.854 1.357l.38-.69-1.304-2.329Z" fill="#A2001D"/><path d="M7.304 15.13v7.916C8.746 23.66 10.334 24 12 24c5.16 0 9.558-3.256 11.253-7.826L7.304 15.131Z" fill="#6DA544"/><path d="M23.253 16.174c.483-1.3.747-2.706.747-4.174 0-6.627-5.373-12-12-12-1.666 0-3.254.34-4.696.954v15.22h15.95Z" fill="#A2001D"/></g><defs><clipPath id="a"><path fill="#fff" d="M0 0h24v24H0z"/></clipPath></defs></svg>