<svg width="24" height="24" fill="none" xmlns="http://www.w3.org/2000/svg"><g clip-path="url(#a)"><path d="M.567 8.348A11.989 11.989 0 0 0 0 12c0 1.274.2 2.5.567 3.652L12 16.174l11.434-.522C23.8 14.5 24 13.273 24 12c0-1.274-.199-2.5-.566-3.652L12 7.826.567 8.348Z" fill="#F0F0F0"/><path d="M24 12c0-.711-.062-1.409-.18-2.086H.181a12.064 12.064 0 0 0 0 4.174h23.637C23.938 13.41 24 12.712 24 12Z" fill="#000"/><path d="M12 24c5.354 0 9.888-3.507 11.433-8.348H.567C2.112 20.493 6.646 24 12 24ZM12 0C6.647 0 2.112 3.505.567 8.346h22.867C21.888 3.506 17.354 0 12 0Z" fill="#338AF3"/></g><defs><clipPath id="a"><path fill="#fff" d="M0 0h24v24H0z"/></clipPath></defs></svg>