<svg width="24" height="24" fill="none" xmlns="http://www.w3.org/2000/svg"><path d="M12 24c6.627 0 12-5.373 12-12S18.627 0 12 0 0 5.373 0 12s5.373 12 12 12Z" fill="#F0F0F0"/><path d="M.414 15.131a12.021 12.021 0 0 0 8.456 8.456v-8.456H.414Z" fill="#D80027"/><path d="M8.87.413A12.02 12.02 0 0 0 .412 8.87H8.87V.413Z" fill="#0052B4"/><path d="M23.587 8.87A12.021 12.021 0 0 0 15.13.414V8.87h8.457Z" fill="#D80027"/><path d="M15.13 23.587a12.021 12.021 0 0 0 8.457-8.456H15.13v8.456Z" fill="#0052B4"/><path d="M15.13 12a3.13 3.13 0 1 1-6.26 0c0-1.73 3.13-3.13 3.13-3.13s3.13 1.4 3.13 3.13Z" fill="#496E2D"/><path d="M8.87 12a3.13 3.13 0 1 1 6.26 0" fill="#0052B4"/><path d="M10.24 10.434v1.957a1.76 1.76 0 1 0 3.521 0v-1.957h-3.522Z" fill="#D80027"/></svg>