<svg width="24" height="24" fill="none" xmlns="http://www.w3.org/2000/svg"><g clip-path="url(#a)"><path d="M12 24c6.627 0 12-5.373 12-12S18.627 0 12 0 0 5.373 0 12s5.373 12 12 12Z" fill="#F0F0F0"/><path d="M12 8.87h11.586a11.932 11.932 0 0 0-1.348-3.13H12v3.13ZM4.53 21.391h14.94a12.06 12.06 0 0 0 2.77-3.13H1.761a12.062 12.062 0 0 0 2.769 3.13ZM4.174 2.904A12.059 12.059 0 0 0 1.762 5.74h2.412V2.904ZM12 12V8.87H7.304V12h-3.13V8.87H.414A12.013 12.013 0 0 0 0 12c0 1.083.145 2.132.414 3.13h23.173c.269-.998.413-2.047.413-3.13H12Z" fill="#338AF3"/><path d="M12 0c-1.666 0-3.253.34-4.695.955V5.74H12V2.61h7.47A11.949 11.949 0 0 0 12 0Z" fill="#338AF3"/></g><defs><clipPath id="a"><path fill="#fff" d="M0 0h24v24H0z"/></clipPath></defs></svg>