<svg width="24" height="24" fill="none" xmlns="http://www.w3.org/2000/svg"><g clip-path="url(#a)"><path d="M12 24c6.627 0 12-5.373 12-12S18.627 0 12 0 0 5.373 0 12s5.373 12 12 12Z" fill="#F0F0F0"/><path d="M7.304 7.826h15.95C21.557 3.256 17.159 0 12 0a11.96 11.96 0 0 0-8.485 3.515l3.79 4.311Z" fill="#000"/><path d="M7.304 16.174h15.95c-1.696 4.57-6.095 7.827-11.254 7.827a11.96 11.96 0 0 1-8.485-3.516l3.79-4.31Z" fill="#6DA544"/><path d="M3.515 3.514c-4.687 4.686-4.687 12.284 0 16.97L12 12 3.515 3.514Z" fill="#D80027"/><path d="m4.763 9.392.658 1.377 1.488-.344-.666 1.374 1.196.948-1.49.336.005 1.526-1.191-.955-1.191.955.004-1.526-1.489-.336 1.196-.948-.666-1.374 1.487.344.659-1.377Z" fill="#F0F0F0"/></g><defs><clipPath id="a"><path fill="#fff" d="M0 0h24v24H0z"/></clipPath></defs></svg>