<svg width="24" height="24" fill="none" xmlns="http://www.w3.org/2000/svg"><g clip-path="url(#a)"><path d="M12 24c6.627 0 12-5.373 12-12S18.627 0 12 0 0 5.373 0 12s5.373 12 12 12Z" fill="#F0F0F0"/><path d="M12 0A12 12 0 0 0 1.19 6.781h21.62A12 12 0 0 0 12-.001ZM12 23.999a12 12 0 0 0 10.81-6.783H1.19A12 12 0 0 0 12.001 24Z" fill="#338AF3"/><path d="m15.586 12-1.465.69.78 1.419-1.591-.305-.202 1.608L12 14.229l-1.109 1.183-.201-1.608-1.592.305.78-1.42L8.414 12l1.466-.69-.78-1.419 1.59.305.202-1.608L12 9.771l1.108-1.183.202 1.608 1.591-.305-.78 1.42 1.465.689Z" fill="#FFDA44"/></g><defs><clipPath id="a"><path fill="#fff" d="M0 0h24v24H0z"/></clipPath></defs></svg>