<svg width="24" height="24" fill="none" xmlns="http://www.w3.org/2000/svg"><g clip-path="url(#a)"><path d="M.567 8.348A11.988 11.988 0 0 0 0 12c0 1.274.2 2.5.567 3.652L12 16.174l11.434-.522C23.8 14.501 24 13.274 24 12s-.199-2.5-.566-3.652L12 7.826.567 8.348Z" fill="#F0F0F0"/><path d="M23.433 8.348 12 7.826.566 8.348c-.108.341-.202.69-.28 1.043h23.428a11.937 11.937 0 0 0-.28-1.043ZM.285 14.609c.079.354.172.702.281 1.043h.001L12 16.174l11.433-.521c.109-.342.203-.69.281-1.044H.285Z" fill="#D80027"/><path d="M12 24c5.354 0 9.889-3.506 11.434-8.347H.567C2.112 20.494 6.647 24 12 24Z" fill="#6DA544"/><path d="M12 0C6.646 0 2.112 3.505.567 8.346h22.866C21.888 3.506 17.354-.001 12-.001Z" fill="#338AF3"/><path d="M5.483 4.956c0-1.124.79-2.063 1.845-2.293a2.348 2.348 0 1 0 0 4.586 2.348 2.348 0 0 1-1.845-2.293ZM8.715 6.022l.16.49h.514l-.416.302.158.49L8.715 7l-.416.302.16-.49-.417-.301h.514l.16-.49ZM10.358 6.022l.159.49h.514l-.416.302.159.49L10.358 7l-.417.302.16-.49-.417-.301h.515l.159-.49ZM11.999 6.022l.159.49h.514l-.416.302.159.49L11.999 7l-.416.302.159-.49-.417-.301h.515l.159-.49ZM13.64 6.022l.16.49h.514l-.416.302.159.49L13.64 7l-.416.302.159-.49-.417-.301h.515l.159-.49ZM15.282 6.022l.16.49h.514l-.417.302.16.49L15.281 7l-.416.302.16-.49-.417-.301h.514l.16-.49ZM10.358 4.315l.159.49h.514l-.416.302.159.489-.416-.303-.417.303.16-.49-.417-.302h.515l.159-.489ZM11.999 4.315l.159.49h.514l-.416.302.159.489-.416-.303-.416.303.159-.49-.417-.302h.515l.159-.489ZM13.64 4.315l.16.49h.514l-.416.302.159.489-.416-.303-.416.303.159-.49-.417-.302h.515l.159-.489ZM15.282 4.315l.16.49h.514l-.417.302.16.489-.417-.303-.416.303.16-.49-.417-.302h.514l.16-.489ZM11.999 2.608l.159.49h.514l-.416.302.159.489-.416-.303-.416.303.159-.49-.417-.302h.515l.159-.489ZM13.64 2.608l.16.49h.514l-.416.302.159.489-.416-.303-.416.303.159-.49-.417-.302h.515l.159-.489ZM15.282 2.608l.16.49h.514l-.417.302.16.489-.417-.303-.416.303.16-.49-.417-.302h.514l.16-.489Z" fill="#F0F0F0"/></g><defs><clipPath id="a"><path fill="#fff" d="M0 0h24v24H0z"/></clipPath></defs></svg>