<svg width="24" height="24" fill="none" xmlns="http://www.w3.org/2000/svg"><g clip-path="url(#a)"><path d="M22.809 17.216A11.953 11.953 0 0 0 23.999 12c0-1.87-.427-3.64-1.19-5.217l-10.81-.522-10.809.522A11.953 11.953 0 0 0 0 11.999c0 1.87.428 3.64 1.19 5.217l10.81.522 10.809-.521Z" fill="#FFDA44"/><path d="M12 0A12 12 0 0 0 1.19 6.783h21.62A12 12 0 0 0 12 0Z" fill="#000"/><path d="M12 24a12 12 0 0 1-10.81-6.783h21.62A12 12 0 0 1 12 23.999Z" fill="#0052B4"/><path d="M23.433 8.348H.566A11.99 11.99 0 0 0 0 12c0 1.274.199 2.5.566 3.652h22.867A11.99 11.99 0 0 0 24 12c0-1.274-.2-2.5-.567-3.652Z" fill="#A2001D"/><path d="M19.826 11.48H4.174v1.043h15.652v-1.044ZM17.739 9.391H6.261v1.044h11.478V9.39Z" fill="#FFDA44"/><path d="M17.814 12S15.13 15.13 12 15.13 8.87 12 8.87 12s0-3.13 3.13-3.13S17.814 12 17.814 12Z" fill="#F0F0F0"/><path d="M12 15.13C8.87 15.13 6.186 12 6.186 12S8.869 8.87 12 8.87" fill="#000"/><path d="M10.957 10.957H9.913v2.087h1.044v-2.087Z" fill="#F0F0F0"/><path d="M14.087 10.957h-1.044v2.087h1.044v-2.087Z" fill="#000"/><path d="M4.174 13.044a1.043 1.043 0 1 0 0-2.086 1.043 1.043 0 0 0 0 2.086ZM19.827 13.044a1.043 1.043 0 1 0 0-2.087 1.043 1.043 0 0 0 0 2.087Z" fill="#0052B4"/></g><defs><clipPath id="a"><path fill="#fff" d="M0 0h24v24H0z"/></clipPath></defs></svg>