<svg width="24" height="24" fill="none" xmlns="http://www.w3.org/2000/svg"><g clip-path="url(#a)"><path d="M12 24c6.627 0 12-5.373 12-12S18.627 0 12 0 0 5.373 0 12s5.373 12 12 12Z" fill="#F0F0F0"/><path d="M9.392 10.435h14.507C23.132 4.547 18.097 0 12.001 0c-.896 0-1.77.1-2.61.285v10.15ZM6.261 10.436V1.46a12.008 12.008 0 0 0-6.159 8.976h6.16ZM6.261 13.566H.101a12.007 12.007 0 0 0 6.16 8.975v-8.975ZM9.392 13.566v10.15c.84.185 1.713.284 2.609.284 6.097 0 11.131-4.547 11.898-10.434H9.392Z" fill="#D80027"/></g><defs><clipPath id="a"><path fill="#fff" d="M0 0h24v24H0z"/></clipPath></defs></svg>