<svg width="24" height="24" fill="none" xmlns="http://www.w3.org/2000/svg"><path d="M12 24c6.627 0 12-5.373 12-12S18.627 0 12 0 0 5.373 0 12s5.373 12 12 12Z" fill="#338AF3"/><path d="M18.783 12.13H5.218c0 .937.815 1.696 1.752 1.696h-.057c0 .936.76 1.695 1.696 1.695 0 .937.76 1.696 1.696 1.696h3.391c.937 0 1.696-.759 1.696-1.696.936 0 1.695-.759 1.695-1.695h-.056c.936 0 1.752-.76 1.752-1.696Z" fill="#FFDA44"/><path d="M16.696 9.913a4.696 4.696 0 1 1-9.391 0" fill="#338AF3"/><path d="m15.586 9.912-1.465.69.78 1.42-1.591-.305-.202 1.607L12 12.142l-1.109 1.182-.201-1.607-1.592.304.78-1.42-1.465-.689 1.466-.689-.78-1.42 1.59.305.202-1.608L12 7.683 13.108 6.5l.202 1.608 1.591-.304-.78 1.42 1.465.688Z" fill="#FFDA44"/></svg>