<svg width="24" height="24" fill="none" xmlns="http://www.w3.org/2000/svg"><path d="M24 12c0 6.627-5.373 12-12 12S0 18.627 0 12L12 0c6.627 0 12 5.373 12 12Z" fill="#D80027"/><path d="M12 12V0C5.373 0 0 5.373 0 12h12Z" fill="#0052B4"/><path d="m9.612 7.826.194.598h.628l-.508.37.194.597-.508-.369-.51.37.195-.598-.508-.37h.628l.195-.598ZM6.454 3.131l.324.997h1.048l-.848.615.324.997-.848-.616-.847.616.324-.997-.848-.615h1.048l.323-.997ZM9.585 4.175l.324.997h1.048l-.848.615.324.997-.848-.616-.847.616.324-.997-.848-.615h1.048l.323-.997ZM7.11 8.35l.324.996h1.048l-.848.615.324.997-.847-.616-.848.616.324-.997-.848-.615h1.048l.324-.997ZM4.368 5.74l.323.997H5.74l-.848.615.324.997-.847-.616-.848.616.324-.997-.848-.615h1.048l.324-.997Z" fill="#F0F0F0"/></svg>