<svg width="24" height="24" fill="none" xmlns="http://www.w3.org/2000/svg"><g clip-path="url(#a)"><path d="M12 24c6.627 0 12-5.373 12-12S18.627 0 12 0 0 5.373 0 12s5.373 12 12 12Z" fill="#F0F0F0"/><path d="M14.348 23.77a12.013 12.013 0 0 0 9.422-9.423h-9.422v9.422ZM.23 14.347a12.013 12.013 0 0 0 9.422 9.422v-9.422H.23ZM23.77 9.652A12.013 12.013 0 0 0 14.348.23v9.422h9.422ZM9.652.23A12.013 12.013 0 0 0 .231 9.652h9.421V.23Z" fill="#496E2D"/><path d="M11.217 14.348H9.652v9.422c.51.101 1.033.17 1.565.204v-9.626ZM11.218 9.653V.027C10.686.06 10.163.13 9.652.23v9.422h1.566Z" fill="#FFDA44"/><path d="M12.782.027a12.122 12.122 0 0 0-1.565 0v9.626h1.565V.027ZM11.217 23.974a12.074 12.074 0 0 0 1.565 0v-9.626h-1.565v9.626Z" fill="#000"/><path d="M9.652 11.218V9.653H.23c-.101.51-.17 1.033-.204 1.565h9.626ZM14.348 11.218h9.626a12.004 12.004 0 0 0-.204-1.565h-9.422v1.565Z" fill="#FFDA44"/><path d="M14.348 12.783h9.626a12.15 12.15 0 0 0 0-1.565h-9.626v1.565ZM.026 11.218a12.155 12.155 0 0 0 0 1.565h9.626v-1.565H.026Z" fill="#000"/><path d="M12 17.739A5.74 5.74 0 1 0 12 6.26a5.74 5.74 0 0 0 0 11.478Z" fill="#D80027"/><path d="M13.307 12.64c-.427-.853-.982-1.718-.982-1.718s.014-.394.014-.629a.64.64 0 0 0-1.278-.055.505.505 0 0 0-.2.951.728.728 0 0 1 .432-.401c.031.026.065.05.102.069l.082.039s-.304.857-.304 1.318c0 1.295.853 1.694.853 1.694v.014l-.426.426h.853v-.853l.427.427c.004-.008.809-.518.427-1.281ZM12 7.304l.194.598h.628l-.508.37.194.598L12 8.5l-.509.37.194-.598-.508-.37h.628L12 7.304ZM9.24 8.202l.508.37.509-.37-.194.598.508.37h-.628l-.195.597-.194-.598h-.628l.508-.37-.194-.597ZM7.534 10.55h.629l.194-.599.194.598h.629l-.509.37.195.598-.51-.37-.508.37.195-.598-.509-.37ZM7.534 13.451l.509-.37-.195-.597.509.37.508-.37-.194.598.509.37H8.55l-.194.597-.194-.598h-.629ZM9.24 15.799l.194-.598-.509-.37h.63l.193-.597.195.598h.628l-.508.37.194.597-.509-.37-.508.37ZM12 16.696l-.195-.597h-.628l.508-.37-.194-.598.509.37.508-.37-.194.598.508.37h-.628l-.194.597ZM14.76 15.799l-.508-.37-.509.37.194-.598-.508-.37h.628l.195-.597.194.598h.629l-.509.37.194.597ZM16.466 13.451h-.629l-.194.598-.194-.598h-.629l.509-.37-.195-.597.51.37.508-.37-.195.598.509.37ZM16.466 10.55l-.509.369.195.597-.509-.37-.508.37.194-.597-.509-.37h.629l.194-.598.194.598h.629ZM14.76 8.202l-.194.598.509.37h-.629l-.194.597-.195-.598h-.628l.508-.37-.194-.597.509.37.508-.37Z" fill="#496E2D"/></g><defs><clipPath id="a"><path fill="#fff" d="M0 0h24v24H0z"/></clipPath></defs></svg>