<svg width="24" height="24" fill="none" xmlns="http://www.w3.org/2000/svg"><g clip-path="url(#a)"><path d="m1.459 6.26 10.54 1.044L22.542 6.26A11.997 11.997 0 0 0 12 0C7.45 0 3.494 2.53 1.459 6.26Z" fill="#D80027"/><path d="m1.459 17.738 10.54 1.044 10.542-1.044C23.47 16.034 24 14.078 24 12l-12-1.043-12 1.043c0 2.08.529 4.034 1.459 5.74Z" fill="#FFDA44"/><path d="M1.459 6.261a11.946 11.946 0 0 0-1.46 5.74h24c0-2.08-.528-4.035-1.458-5.74H1.459Z" fill="#0052B4"/><path d="M12 24c4.548 0 8.505-2.531 10.54-6.261H1.46a11.997 11.997 0 0 0 10.54 6.26Z" fill="#6DA544"/></g><defs><clipPath id="a"><path fill="#fff" d="M0 0h24v24H0z"/></clipPath></defs></svg>