<svg width="24" height="24" fill="none" xmlns="http://www.w3.org/2000/svg"><g clip-path="url(#a)"><path d="M17.739 1.46A11.946 11.946 0 0 0 11.999 0C9.922 0 7.967.53 6.262 1.46L5.217 12l1.044 10.541c1.705.93 3.66 1.46 5.739 1.46 2.079 0 4.034-.53 5.739-1.46l1.043-10.54L17.74 1.458Z" fill="#FFDA44"/><path d="M6.261 22.54V1.46A11.997 11.997 0 0 0 .001 12c0 4.549 2.53 8.506 6.26 10.54Z" fill="#338AF3"/><path d="M24 12c0-4.548-2.53-8.505-6.26-10.54V22.54A11.997 11.997 0 0 0 24 12.001ZM9.392 15.13 7.305 12l2.087-3.131 2.087 3.13-2.087 3.13ZM14.61 15.13 12.523 12l2.087-3.131 2.087 3.13-2.087 3.13ZM12 19.304l-2.086-3.13L12 13.042l2.087 3.13L12 19.303Z" fill="#6DA544"/></g><defs><clipPath id="a"><path fill="#fff" d="M0 0h24v24H0z"/></clipPath></defs></svg>