<svg width="24" height="24" fill="none" xmlns="http://www.w3.org/2000/svg"><g clip-path="url(#a)"><path d="M17.217 1.191A11.952 11.952 0 0 0 12 .001c-1.87 0-3.64.427-5.217 1.19l-1.044 10.81L6.783 22.81A11.952 11.952 0 0 0 12 24c1.87 0 3.64-.427 5.217-1.19L18.261 12 17.217 1.191Z" fill="#D80027"/><path d="m12 7.825 1.036 3.189h3.353l-2.712 1.97 1.036 3.19L12 14.202l-2.712 1.97 1.036-3.188-2.712-1.971h3.352L12 7.825Z" fill="#FFDA44"/><path d="M6.783 1.192A12 12 0 0 0 0 12a12 12 0 0 0 6.783 10.808V1.192Z" fill="#496E2D"/><path d="M17.218 1.192v21.617A12 12 0 0 0 24 12.001a12 12 0 0 0-6.782-10.81Z" fill="#FFDA44"/></g><defs><clipPath id="a"><path fill="#fff" d="M0 0h24v24H0z"/></clipPath></defs></svg>