<svg width="24" height="24" fill="none" xmlns="http://www.w3.org/2000/svg"><g clip-path="url(#a)"><path d="M0 12c0 1.87.428 3.64 1.19 5.217L12 17.74l10.81-.522A11.952 11.952 0 0 0 24 12c0-1.87-.428-3.64-1.19-5.217L12 6.26l-10.81.521A11.952 11.952 0 0 0 0 12Z" fill="#F0F0F0"/><path d="M12 24a12 12 0 0 0 10.81-6.782H1.19A12 12 0 0 0 12.001 24Z" fill="#6DA544"/><path d="M12 0A12 12 0 0 0 1.191 6.781H22.81A12 12 0 0 0 12-.001Z" fill="#0052B4"/><path d="M12.783 11.74V8.87h-1.565v2.87l-1.89 1.89c.55.9 1.54 1.5 2.673 1.5 1.131 0 2.123-.6 2.673-1.5l-1.89-1.89Z" fill="#000"/></g><defs><clipPath id="a"><path fill="#fff" d="M0 0h24v24H0z"/></clipPath></defs></svg>