<svg width="24" height="24" fill="none" xmlns="http://www.w3.org/2000/svg"><g clip-path="url(#a)"><path d="M12 24c6.627 0 12-5.373 12-12S18.627 0 12 0 0 5.373 0 12s5.373 12 12 12Z" fill="#F0F0F0"/><path d="M17.822 1.505A11.945 11.945 0 0 0 12 0C5.373 0 0 5.372 0 11.999l8.348-4.173 9.474-6.32ZM0 12.002C0 18.629 5.373 24 12 24c2.112 0 4.097-.546 5.821-1.505l-9.473-6.32L0 12.001Z" fill="#0052B4"/><path d="M18.821 2.127c-.322-.223-.656-.43-1-.622L0 11.998v.003l17.82 10.493c.345-.191.679-.399 1.001-.622L2.054 12 18.82 2.127Z" fill="#D80027"/><path d="M20.87 11.553h-1.43a1.135 1.135 0 0 0-.07-1.53 1.136 1.136 0 0 0 0-1.605l-.027.027c.444-.444.47-1.19.027-1.633l-6.425 6.424a1.12 1.12 0 0 0 1.594-.005l.123-.113 3.077-.28v1.323h1.043v-1.418l1.565-.142.522-1.048Z" fill="#A2001D"/><path d="M13.044 14.609 12 14.087l1.044-.522h6.782v1.044h-6.782Z" fill="#FFDA44"/></g><defs><clipPath id="a"><path fill="#fff" d="M0 0h24v24H0z"/></clipPath></defs></svg>