<svg width="24" height="24" fill="none" xmlns="http://www.w3.org/2000/svg"><path d="M12 24c6.627 0 12-5.373 12-12S18.627 0 12 0 0 5.373 0 12s5.373 12 12 12Z" fill="#F0F0F0"/><path d="M3.515 20.485c.503.503 1.04.952 1.603 1.348L21.833 5.117a12.068 12.068 0 0 0-2.952-2.951L2.167 18.88c.395.563.844 1.1 1.348 1.604Z" fill="#A2001D"/><path d="M3.515 3.515C-.271 7.3-.998 12.986 1.333 17.502l16.17-16.169C12.985-.997 7.3-.27 3.514 3.515Z" fill="#0052B4"/><path d="M20.486 20.485c3.785-3.786 4.512-9.472 2.182-13.988l-16.17 16.17c4.516 2.33 10.202 1.603 13.988-2.182Z" fill="#496E2D"/><path d="m9.913 6.782-1.344.632.716 1.303-1.46-.28-.186 1.475-1.017-1.085-1.017 1.085-.185-1.475-1.46.28.716-1.303-1.344-.632 1.344-.633-.716-1.302 1.46.28.185-1.476 1.017 1.085L7.64 3.651l.185 1.475 1.46-.279-.716 1.302 1.344.633Z" fill="#FFDA44"/></svg>