<svg width="24" height="24" fill="none" xmlns="http://www.w3.org/2000/svg"><g clip-path="url(#a)"><path d="M20.486 20.486c-4.687 4.686-12.285 4.686-16.97 0-4.687-4.687-4.687-12.285 0-16.97.368.368 9.591 7.378 9.591 7.378l7.379 9.592Z" fill="#0052B4"/><path d="M3.515 3.514c4.686-4.686 12.284-4.686 16.97 0 4.687 4.686 4.687 12.285 0 16.97" fill="#6DA544"/><path d="M12 15.131a3.13 3.13 0 1 0 0-6.26 3.13 3.13 0 0 0 0 6.26Z" fill="#FFDA44"/><path d="m4.468 17.218.33.688.743-.172-.333.687.598.474-.744.168.002.763-.596-.477-.595.477.002-.763-.745-.168.598-.474-.333-.687.744.172.33-.688ZM2.314 11.477l.33.688.743-.171-.333.686.598.475-.744.167.002.764-.596-.478-.595.478.002-.764-.744-.167.598-.475-.333-.687.743.172.33-.688ZM4.468 6.782l.33.688.743-.171-.333.686.598.475-.744.167.002.764-.596-.478-.595.478.002-.764-.745-.167.598-.475-.333-.687.744.172.33-.688ZM7.144 10.435l.33.688.743-.172-.333.687.598.474-.744.168.002.763-.596-.477-.595.477.002-.763-.745-.168.598-.474-.333-.687.744.172.33-.688ZM5.231 13.565l.26.797h.837l-.678.492.26.798-.679-.493-.678.492.26-.797-.679-.492h.838l.26-.797Z" fill="#F0F0F0"/><path d="M12 14.087h1.043s.453-.8 0-1.565l1.044-1.043-.522-1.044h-.521s-.261.783-1.305.783c-1.043 0-1.304-.783-1.304-.783h-.522l.522 1.043-.522 1.044.522.522S10.956 12 12 12.522c0 0 .443.652 0 1.565Z" fill="#6DA544"/><path d="M19.789 6.573a2.087 2.087 0 0 0-1.406-2.381 3.895 3.895 0 0 1 .352 2.337 2.142 2.142 0 0 0-3.003-.655 3.999 3.999 0 0 1 1.64.78c.39.31.704.73.945 1.134l-3.186.997c3.13.522 5.739-1.565 5.739-1.565-.289-.578-.738-.675-1.081-.647Z" fill="#FFDA44"/></g><defs><clipPath id="a"><path fill="#fff" d="M0 0h24v24H0z"/></clipPath></defs></svg>