<svg width="24" height="24" fill="none" xmlns="http://www.w3.org/2000/svg"><g clip-path="url(#a)"><path d="M20.485 20.486c-4.686 4.686-12.284 4.686-16.97 0-4.687-4.687-4.687-12.285 0-16.97C8.2-1.172 15.06-.435 19.747 4.252c4.687 4.686 5.425 11.546.738 16.233Z" fill="#000"/><path d="M3.515 3.515c4.686-4.687 12.284-4.687 16.97 0 4.687 4.686 4.687 12.284 0 16.97" fill="#A2001D"/><path d="m9.171 16.174.195.598h.628l-.508.37.194.597-.509-.37-.508.37.194-.598-.508-.37h.628l.194-.597ZM7.565 10.435l.324.996h1.048l-.848.616.324.997-.848-.616-.848.616.324-.997-.847-.616H7.24l.324-.996ZM7.565 17.739l.324.996h1.048l-.848.616.324.997-.848-.616-.848.616.324-.997-.847-.616H7.24l.324-.996ZM10.629 13.044l.324.996H12l-.847.616.324.997-.848-.616-.848.616.324-.997-.847-.616h1.047l.324-.996ZM4.502 13.044l.324.996h1.048l-.848.616.324.997-.848-.616-.847.616.323-.997-.847-.616h1.047l.324-.996Z" fill="#F0F0F0"/><path d="M20.088 8.886a3.106 3.106 0 0 0-1.982-.907l2.242-1.744a4.163 4.163 0 0 0-3.257-1.21 3.116 3.116 0 0 0-.801-1.372l-.886 1.77a1.303 1.303 0 0 0-2.066-.294 1.304 1.304 0 0 0 .295 2.066l-1.77.885c.395.395.87.662 1.372.802a4.161 4.161 0 0 0 1.21 3.256l1.958-2.518a.778.778 0 0 1 .55-.225c.208 0 .405.081.553.23.148.147.229.344.229.553 0 .209-.081.405-.23.553l.739.738c.345-.345.535-.804.535-1.291 0-.4-.128-.779-.363-1.093a2.09 2.09 0 0 1 .934 3.49l.738.739a3.11 3.11 0 0 0 .917-2.214c0-.836-.326-1.622-.917-2.214Z" fill="#FFDA44"/></g><defs><clipPath id="a"><path fill="#fff" d="M0 0h24v24H0z"/></clipPath></defs></svg>