<svg width="24" height="24" fill="none" xmlns="http://www.w3.org/2000/svg"><g clip-path="url(#a)"><path d="M20.486 20.485c4.5-4.5 4.678-11.686.535-16.4L12.001 12 4.086 21.02c4.713 4.143 11.898 3.966 16.4-.535Z" fill="#496E2D"/><path d="M3.515 3.514c4.5-4.5 11.686-4.678 16.4-.535L12 12l-9.02 7.914c-4.143-4.714-3.966-11.9.535-16.4Z" fill="#0052B4"/><path d="M19.914 2.98 2.979 19.915a12.173 12.173 0 0 0 1.107 1.106L21.021 4.087a12.127 12.127 0 0 0-1.107-1.107Z" fill="#FFDA44"/><path d="m5.057 4.174.259.798h.838l-.678.492.259.797-.678-.492-.678.492.259-.797-.678-.492h.838l.259-.798ZM9.338 4.174l.259.797h.838l-.678.492.259.798-.678-.493-.679.493.26-.798-.679-.492h.839l.259-.797ZM5.056 8.348l.26.797h.838l-.678.493.259.797-.679-.493-.678.493.26-.797-.679-.493h.838l.26-.797ZM9.338 8.348l.259.797h.838l-.678.493.259.797-.678-.493-.679.493.26-.797-.679-.493h.839l.259-.797ZM7.197 6.262l.26.797h.837l-.678.493.26.797-.679-.493-.678.493.259-.797-.678-.493h.838l.26-.797Z" fill="#F0F0F0"/></g><defs><clipPath id="a"><path fill="#fff" d="M0 0h24v24H0z"/></clipPath></defs></svg>