<svg width="24" height="24" fill="none" xmlns="http://www.w3.org/2000/svg"><g clip-path="url(#a)"><path d="M24 12c0 6.627-5.373 12-12 12S0 18.627 0 12C0 12.003 12 .001 12 0c6.627 0 12 5.373 12 12Z" fill="#338AF3"/><path d="M12 5.74v4.048L7.824 5.74H12ZM6.26 12.002h3.526L6.261 7.306l-.522 3.652.522 1.044Z" fill="#0052B4"/><path d="M11.967 12H12v-.032l-.032.032Z" fill="#F0F0F0"/><path d="M12 6.262V0h-.002C5.37 0 0 5.374 0 12h6.26V8.475l3.526 3.526h2.182l.032-.032V9.787L8.474 6.262H12Z" fill="#F0F0F0"/><path d="M6.07 1.566a12.057 12.057 0 0 0-4.505 4.506V12h3.13V4.696H12v-3.13H6.07Z" fill="#D80027"/><path d="M12 10.525 7.736 6.262H6.261L12 12v-1.476Z" fill="#D80027"/><path d="M13.566 7.827v4.174c0 2.796 3.652 3.652 3.652 3.652s3.652-.856 3.652-3.652V7.827l-3.652-1.043-3.652 1.043Z" fill="#F3F3F3"/><path d="M20.87 7.826V6.261h-7.304v1.565h3.13v3.13h-3.13V12h3.13v3.492c.315.112.522.16.522.16s.206-.048.521-.16V12h3.13v-1.043h-3.13v-3.13h3.13Z" fill="#D80027"/></g><defs><clipPath id="a"><path fill="#fff" d="M0 0h24v24H0z"/></clipPath></defs></svg>