<svg width="24" height="24" fill="none" xmlns="http://www.w3.org/2000/svg"><g clip-path="url(#a)"><path d="M0 11.999c0 2.079.53 4.034 1.46 5.74L12 18.781l10.541-1.044c.93-1.705 1.46-3.66 1.46-5.739l-12-1.043-12 1.043Z" fill="#FFDA44"/><path d="M22.54 6.26A11.997 11.997 0 0 0 12 0 11.997 11.997 0 0 0 0 12h24c0-2.079-.529-4.034-1.46-5.74Z" fill="#338AF3"/><path d="M12 24c4.549 0 8.506-2.532 10.541-6.262H1.46A11.997 11.997 0 0 0 12 24Z" fill="#496E2D"/><path d="m13.565 7.022 1.466.69-.78 1.42 1.59-.305.202 1.607 1.109-1.182 1.108 1.182.202-1.607 1.591.304-.78-1.42 1.465-.689-1.465-.689.78-1.42-1.591.305-.202-1.607-1.108 1.182-1.109-1.182-.201 1.607-1.592-.304.78 1.42-1.465.688Z" fill="#FFDA44"/></g><defs><clipPath id="a"><path fill="#fff" d="M0 0h24v24H0z"/></clipPath></defs></svg>