<svg width="24" height="24" fill="none" xmlns="http://www.w3.org/2000/svg"><g clip-path="url(#a)"><path d="M12 24c6.627 0 12-5.373 12-12S18.627 0 12 0 0 5.373 0 12s5.373 12 12 12Z" fill="#F0F0F0"/><path d="M2.743 4.363h18.514A12.066 12.066 0 0 0 18.9 2.181H5.1c-.88.62-1.673 1.354-2.357 2.182ZM0 12c0 .368.017.732.05 1.091h23.9a12.146 12.146 0 0 0 0-2.181H.05C.017 11.27 0 11.633 0 12ZM1.309 17.455h21.383c.353-.692.641-1.421.856-2.182H.452c.215.76.504 1.49.857 2.182ZM5.1 21.818h13.8c.88-.62 1.673-1.354 2.357-2.182H2.743A12.074 12.074 0 0 0 5.1 21.818ZM.452 8.728h23.096c-.215-.76-.503-1.49-.856-2.182H1.309a11.922 11.922 0 0 0-.857 2.182Z" fill="#F0F0F0"/><path d="M5.738 2.182H18.9A11.945 11.945 0 0 0 12 0c-1.566 0-4.31.808-6.262 2.182ZM11.478 6.545h11.213c-.399-.78-.88-1.512-1.434-2.182h-9.779v2.182ZM11.478 10.909H23.95a11.959 11.959 0 0 0-.402-2.182h-12.07v2.181ZM.451 15.274h23.097a11.95 11.95 0 0 0 .402-2.182H.05c.067.749.203 1.479.401 2.182ZM2.743 19.637h18.514a12.023 12.023 0 0 0 1.434-2.182H1.308c.4.78.881 1.512 1.435 2.182ZM12 24c2.568 0 4.948-.807 6.9-2.181H5.099a11.945 11.945 0 0 0 6.9 2.181Z" fill="#D80027"/><path d="M.452 8.727a11.956 11.956 0 0 0-.402 2.182H12V-.001C6.507 0 1.877 3.69.452 8.728Z" fill="#0052B4"/><path d="m7.144 3.13.777 2.392h2.514L8.401 7l.777 2.391-2.034-1.478-2.035 1.478L5.886 7 3.852 5.522h2.515l.777-2.392Z" fill="#F0F0F0"/></g><defs><clipPath id="a"><path fill="#fff" d="M0 0h24v24H0z"/></clipPath></defs></svg>