<svg width="24" height="24" fill="none" xmlns="http://www.w3.org/2000/svg"><g clip-path="url(#a)"><path d="M24 12c0 6.627-5.373 12-12 12S0 18.627 0 12C0 12.003 12 .001 12 0c6.627 0 12 5.373 12 12Z" fill="#0052B4"/><path d="M11.968 12h.033v-.032l-.033.033ZM12 6.26V0h-.002C5.372.001 0 5.373 0 12h6.261V8.475L9.787 12h2.181l.032-.032V9.787L8.475 6.26H12Z" fill="#F0F0F0"/><path d="M6.071 1.565a12.057 12.057 0 0 0-4.506 4.506V12h3.13V4.696H12V1.564H6.071Z" fill="#D80027"/><path d="M12 10.525 7.737 6.26H6.261l5.74 5.74v-1.476ZM20.781 8.905l.259.797h.838l-.678.492.26.798-.679-.493-.678.493.259-.798-.678-.492h.838l.26-.797ZM17.785 14.644l.389 1.195h1.257l-1.018.74.39 1.195-1.018-.739-1.017.739.388-1.196-1.017-.739h1.257l.389-1.195ZM17.898 5.252l.324.996h1.048l-.848.616.324.997-.848-.616-.847.616.324-.997-.848-.616h1.048l.323-.996ZM15.015 8.87l.389 1.196h1.257l-1.017.739.388 1.195-1.017-.739-1.017.74.389-1.196-1.018-.74h1.258l.388-1.195Z" fill="#D80027"/></g><defs><clipPath id="a"><path fill="#fff" d="M0 0h24v24H0z"/></clipPath></defs></svg>