<svg width="24" height="24" fill="none" xmlns="http://www.w3.org/2000/svg"><path d="M12 24c6.627 0 12-5.373 12-12S18.627 0 12 0 0 5.373 0 12s5.373 12 12 12Z" fill="#FFDA44"/><path d="M3.515 20.485c.503.503 1.04.953 1.604 1.348L21.833 5.119a12.057 12.057 0 0 0-2.951-2.952L2.168 18.881c.395.564.844 1.1 1.347 1.604Z" fill="#000"/><path d="M3.514 3.515C-.27 7.3-.998 12.986 1.333 17.502L17.502 1.333C12.986-.997 7.3-.27 3.514 3.515Z" fill="#6DA544"/><path d="M20.485 20.485c3.786-3.786 4.513-9.472 2.182-13.988l-16.17 16.17c4.517 2.33 10.203 1.603 13.988-2.182Z" fill="#D80027"/><path d="m7.63 14.158 1.12.57.889-.889-.197 1.242 1.12.571-1.241.197-.197 1.241-.57-1.12-1.242.197.889-.89-.571-1.12ZM14.156 7.63l1.12.571.89-.889-.197 1.242 1.12.57-1.242.198-.197 1.241-.57-1.12-1.242.197.889-.89-.57-1.12Z" fill="#F0F0F0"/></svg>