<svg width="24" height="24" fill="none" xmlns="http://www.w3.org/2000/svg"><g clip-path="url(#a)"><path d="M12 24c6.627 0 12-5.373 12-12S18.627 0 12 0 0 5.373 0 12s5.373 12 12 12Z" fill="#F0F0F0"/><path d="M12 .001c-.011-.008-12.003 11.997-12 12C0 5.374 5.372 0 12 0ZM12 0c.011-.008 12.003 11.997 12 12 0-6.627-5.373-12-12-12Z" fill="#D80027"/><path d="M12 24c-.012.008-12.004-11.997-12-12 0 6.627 5.372 12 12 12ZM12 23.999c.01.008 12.003-11.997 12-12 0 6.627-5.373 12-12 12Z" fill="#0052B4"/><path d="m12 6.26 1.295 3.986h4.19l-3.39 2.464 1.295 3.985L12 14.232l-3.39 2.463 1.295-3.985-3.39-2.464h4.19L12 6.261Z" fill="#FFDA44"/></g><defs><clipPath id="a"><path fill="#fff" d="M0 0h24v24H0z"/></clipPath></defs></svg>