<svg width="24" height="24" fill="none" xmlns="http://www.w3.org/2000/svg"><g clip-path="url(#a)"><path d="M12 24c6.627 0 12-5.373 12-12S18.627 0 12 0 0 5.373 0 12s5.373 12 12 12Z" fill="#F0F0F0"/><path d="M12 0v12l-8.485 8.485A11.963 11.963 0 0 0 12 24c6.628 0 12-5.373 12-12S12 0 12 0Z" fill="#D80027"/><path d="M12 0a11.963 11.963 0 0 0-8.485 3.515L12 12h12c0-6.627-5.372-12-12-12Z" fill="#0052B4"/><path d="m8.217 12-1.465-.69.78-1.419-1.591.305-.202-1.608L4.631 9.77 3.522 8.588l-.202 1.608-1.59-.305.78 1.42L1.043 12l1.465.69-.78 1.418 1.592-.304.201 1.608 1.109-1.183 1.108 1.183.202-1.608 1.591.305-.78-1.42L8.217 12ZM3.2 4.695l.489.682.798-.253-.497.674.487.682-.795-.265-.497.675.006-.839-.795-.265.799-.253.006-.838ZM3.2 17.11l.489.681.798-.253-.497.675.487.681-.795-.265-.497.675.006-.838-.795-.265.799-.253.006-.838ZM10.156 10.903l-.487.682-.8-.253.498.674-.487.682.795-.265.498.675-.007-.839.796-.264-.8-.254-.006-.838Z" fill="#FFDA44"/></g><defs><clipPath id="a"><path fill="#fff" d="M0 0h24v24H0z"/></clipPath></defs></svg>