<svg width="24" height="24" fill="none" xmlns="http://www.w3.org/2000/svg"><g clip-path="url(#a)"><path d="M17.217 1.19A11.952 11.952 0 0 0 12 0c-1.87 0-3.64.428-5.218 1.19L5.74 12l1.043 10.81A11.953 11.953 0 0 0 12 24c1.87 0 3.64-.428 5.217-1.19L18.261 12 17.217 1.19Z" fill="#FFDA44"/><path d="M6.783 1.191A12 12 0 0 0 0 12.001a12 12 0 0 0 6.783 10.808V1.191ZM17.218 1.192v21.617A12 12 0 0 0 24 12.001a12 12 0 0 0-6.782-10.81Z" fill="#0052B4"/><path d="m15.652 7.303.7.35-.7-.35-.7-.35c-.042.085-.956 1.945-1.105 4.785h-1.064V7.303L12 6.26l-.783 1.043v4.435h-1.064c-.149-2.84-1.063-4.7-1.105-4.785l-1.4.7c.01.02.96 1.956.96 4.868v.782h2.61v4.435h1.565v-4.435h2.608v-.782c0-1.506.26-2.747.48-3.524.238-.846.48-1.34.482-1.345l-.7-.349Z" fill="#000"/></g><defs><clipPath id="a"><path fill="#fff" d="M0 0h24v24H0z"/></clipPath></defs></svg>