<svg width="24" height="24" fill="none" xmlns="http://www.w3.org/2000/svg"><g clip-path="url(#a)"><path d="M12 24c6.627 0 12-5.373 12-12S18.627 0 12 0 0 5.373 0 12s5.373 12 12 12Z" fill="#0052B4"/><path d="M12 24c6.627 0 12-5.373 12-12S18.627 0 12 0 0 5.373 0 12s5.373 12 12 12Z" fill="#FFDA44"/><path d="M12.001 0C5.725 0 .576 4.816.047 10.955h23.908C23.427 4.817 18.277-.001 12.001-.001ZM12 24c6.276 0 11.425-4.818 11.954-10.956H.046C.575 19.182 5.724 24 12 24Z" fill="#0052B4"/><path d="m9.913 16.174-1.344.633.716 1.302-1.46-.279-.186 1.475-1.017-1.085-1.017 1.085-.185-1.475-1.46.28.716-1.303-1.344-.633 1.344-.632-.716-1.302 1.46.28.185-1.476 1.017 1.085 1.018-1.085.184 1.475 1.46-.28-.715 1.303 1.344.632Z" fill="#F0F0F0"/></g><defs><clipPath id="a"><path fill="#fff" d="M0 0h24v24H0z"/></clipPath></defs></svg>