<svg width="24" height="24" fill="none" xmlns="http://www.w3.org/2000/svg"><g clip-path="url(#a)"><path d="M23.253 16.175c.483-1.3.747-2.706.747-4.174 0-1.468-.264-2.874-.747-4.174L12 6.784.746 7.827A11.974 11.974 0 0 0 0 12.001c0 1.468.264 2.874.746 4.174L12 17.218l11.253-1.043Z" fill="#FFDA44"/><path d="M12 24c5.16 0 9.558-3.257 11.254-7.826H.747C2.442 20.744 6.84 24 12 24Z" fill="#0052B4"/><path d="M12 0C6.84 0 2.442 3.258.747 7.828h22.507C21.558 3.257 17.16 0 12 0Z" fill="#6DA544"/></g><defs><clipPath id="a"><path fill="#fff" d="M0 0h24v24H0z"/></clipPath></defs></svg>