<svg width="24" height="24" fill="none" xmlns="http://www.w3.org/2000/svg"><path d="M12 24c6.627 0 12-5.373 12-12S18.627 0 12 0 0 5.373 0 12s5.373 12 12 12Z" fill="#F0F0F0"/><path d="m21.52 19.307-7.306-7.306 7.306-7.307a12.115 12.115 0 0 0-2.213-2.214L12 9.787 4.694 2.48A12.115 12.115 0 0 0 2.48 4.694L9.787 12 2.48 19.306a12.134 12.134 0 0 0 2.214 2.214L12 14.214l7.307 7.307a12.11 12.11 0 0 0 2.213-2.214Z" fill="#D80027"/><path d="M9.913 3.653 12 4.175l2.086-.522V1.879l-.834.417L12 1.044l-1.253 1.252-.834-.417v1.774Z" fill="#FFDA44"/><path d="M9.913 3.653v1.304C9.913 6.555 12 7.044 12 7.044s2.086-.49 2.086-2.087V3.653H9.913Z" fill="#D80027"/></svg>