<svg width="24" height="24" fill="none" xmlns="http://www.w3.org/2000/svg"><path d="M24 12c0-1.468-.264-2.874-.746-4.174L12 7.304.746 7.826A11.974 11.974 0 0 0 0 12c0 1.468.264 2.874.746 4.174L12 16.696l11.254-.522c.482-1.3.746-2.706.746-4.174Z" fill="#F0F0F0"/><path d="M12 24c5.16 0 9.558-3.257 11.254-7.827H.746C2.442 20.743 6.84 24 12 24Z" fill="#0052B4"/><path d="M.746 7.827h22.507C21.558 3.257 17.16 0 12 0 6.84 0 2.442 3.257.746 7.827Z" fill="#D80027"/><path d="M15.13 8.348h-2.087l.348-2.61 1.391-1.043 1.392 1.044v2.087l-1.044.522ZM8.87 8.348h2.086l-.348-2.609-1.391-1.043-1.391 1.043v2.087l1.043.522Z" fill="#338AF3"/><path d="M13.39 8.348h-2.782V5.739L12 4.696l1.392 1.043v2.609Z" fill="#0052B4"/><path d="M7.826 7.826v5.739a4.17 4.17 0 0 0 1.678 3.344l.73-.183.922.927a4.18 4.18 0 0 0 1.683 0l1.052-.875.604.129a4.169 4.169 0 0 0 1.679-3.342v-5.74H7.826Z" fill="#F0F0F0"/><path d="M9.496 7.826h-1.67v1.67h1.67v-1.67ZM12.835 7.826h-1.67v1.67h1.67v-1.67ZM16.174 7.826h-1.67v1.67h1.67v-1.67Z" fill="#D80027"/><path d="M11.165 9.495h-1.67v1.67h1.67v-1.67ZM14.504 9.495h-1.67v1.67h1.67v-1.67Z" fill="#D80027"/><path d="M9.496 11.164h-1.67v1.67h1.67v-1.67ZM11.165 12.835h-1.67v1.67h1.67v-1.67ZM12.835 11.164h-1.67v1.67h1.67v-1.67ZM16.174 11.164h-1.67v1.67h1.67v-1.67ZM14.504 12.835h-1.67v1.67h1.67v-1.67Z" fill="#D80027"/><path d="M12.835 14.504h-1.67v1.67h1.67v-1.67ZM9.495 14.504H7.934a4.16 4.16 0 0 0 .81 1.67h.751v-1.67ZM14.505 16.174h.75a4.16 4.16 0 0 0 .811-1.67h-1.561v1.67ZM9.495 16.173v.729a4.157 4.157 0 0 0 1.67.753v-1.482h-1.67Z" fill="#D80027"/><path d="M12.834 16.173v1.482a4.155 4.155 0 0 0 1.67-.753v-.729h-1.67Z" fill="#D80027"/></svg>