<svg width="24" height="24" fill="none" xmlns="http://www.w3.org/2000/svg"><g clip-path="url(#a)"><path d="M12 24c6.627 0 12-5.373 12-12S18.627 0 12 0 0 5.373 0 12s5.373 12 12 12Z" fill="#F0F0F0"/><path d="M22.852 6.873a12.031 12.031 0 0 0-2.447-3.437l-8.404-.827-8.405.828-.08.08 3.357 3.356L12 7.029l10.851-.156ZM3.516 20.485c.044.044.088.089.133.132l8.351.775 8.352-.775a12.031 12.031 0 0 0 2.475-3.436l-15.522-.484-3.789 3.788Z" fill="#FFDA44"/><path d="M23.88 10.308 9.914 9.913 12 12l-2.087 2.087 13.96-.343a12.085 12.085 0 0 0 .008-3.436Z" fill="#000"/><path d="M12 0a11.96 11.96 0 0 0-8.405 3.437h16.81A11.96 11.96 0 0 0 12 0Z" fill="#6DA544"/><path d="M10.308 10.309H23.88a11.914 11.914 0 0 0-1.029-3.436H6.871l3.437 3.436ZM6.82 17.181h16.007c.511-1.067.87-2.222 1.046-3.436H10.255L6.82 17.183Z" fill="#D80027"/><path d="M12 24a11.96 11.96 0 0 0 8.351-3.383H3.65A11.959 11.959 0 0 0 12 24Z" fill="#6DA544"/><path d="M4.285 2.81a12.1 12.1 0 0 0-.77.705L12 12.001l-8.485 8.485c.246.246.503.481.77.705l9.19-9.19-9.19-9.191Z" fill="#000"/><path d="m4.825 8.87.777 2.39h2.514L6.082 12.74l.777 2.391-2.034-1.478L2.79 15.13l.777-2.392-2.034-1.477h2.515l.777-2.392Z" fill="#D80027"/><path d="m6.962 12.195-2.025-.718s-.15-1.403-.158-1.45a.783.783 0 1 0-1.524.353l-.567.571h1.01c0 1.048-.783 1.048-.783 2.091l.434 1.044h2.609l.435-1.043c.043-.1.07-.204.08-.307.375-.152.49-.541.49-.541Z" fill="#FFDA44"/></g><defs><clipPath id="a"><path fill="#fff" d="M0 0h24v24H0z"/></clipPath></defs></svg>