<svg width="24" height="24" fill="none" xmlns="http://www.w3.org/2000/svg"><g clip-path="url(#a)"><path d="M12 24c6.627 0 12-5.373 12-12S18.627 0 12 0 0 5.373 0 12s5.373 12 12 12Z" fill="#F0F0F0"/><path d="M7.305 7.826h15.949C21.558 3.256 17.16 0 12 0a11.96 11.96 0 0 0-8.485 3.515l3.79 4.31Z" fill="#6DA544"/><path d="M7.305 16.174h15.949C21.558 20.744 17.16 24 12 24a11.961 11.961 0 0 1-8.485-3.515l3.79-4.31Z" fill="#D80027"/><path d="M3.515 3.515c-4.686 4.687-4.686 12.285 0 16.971l8.486-8.485-8.486-8.486Z" fill="#0052B4"/><path d="M14.087 9.913v2.608c0 1.598 2.087 2.087 2.087 2.087s2.087-.49 2.087-2.087V9.913h-4.174Z" fill="#DEDDE0"/><path d="M16.695 12.052h-1.043v1.513h1.043v-1.513Z" fill="#786145"/><path d="M17.218 11.479a1.043 1.043 0 1 0-2.087 0 .522.522 0 1 0 0 1.043h2.087a.522.522 0 1 0 0-1.043Z" fill="#6DA544"/></g><defs><clipPath id="a"><path fill="#fff" d="M0 0h24v24H0z"/></clipPath></defs></svg>