<svg width="24" height="24" fill="none" xmlns="http://www.w3.org/2000/svg"><g clip-path="url(#a)"><path d="M24 12c0 6.627-5.372 12-12 12-6.627 0-12-5.373-12-12 .522 0 12-1.566 12-1.566L24 12Z" fill="#D80027"/><path d="M0 12C0 5.373 5.373 0 12 0s12 5.373 12 12" fill="#0052B4"/><path d="M8.87 8.347A1.565 1.565 0 0 0 6.26 7.181v-.92h.522V5.216H6.26v-.522H5.218v.522h-.522V6.26h.522v.921A1.565 1.565 0 0 0 3.13 9.514v.92h5.217v-.92a1.56 1.56 0 0 0 .522-1.167Z" fill="#FFDA44"/></g><defs><clipPath id="a"><path fill="#fff" d="M0 0h24v24H0z"/></clipPath></defs></svg>