<svg width="24" height="24" fill="none" xmlns="http://www.w3.org/2000/svg"><g clip-path="url(#a)"><path d="M24 12a12.1 12.1 0 0 0-.101-1.565H10.435l-6.92-6.92c-4.686 4.686-4.686 12.284 0 16.97l6.92-6.92H23.9A12.12 12.12 0 0 0 24 12Z" fill="#000"/><path d="m23.997 12.273-.002.07.002-.07ZM23.985 12.6c0 .023-.002.046-.004.069l.004-.069ZM23.968 12.863l-.007.101.007-.1ZM23.928 10.692c.005.04.01.08.013.12l-.012-.12ZM23.98 11.33l.004.069c0-.023-.002-.046-.004-.07ZM23.994 11.657l.002.07c0-.024 0-.047-.002-.07ZM23.961 11.036l.008.1-.008-.1Z" fill="#F0F0F0"/><path d="m23.899 10.434.015.124C23.2 4.61 18.14 0 12 0a11.962 11.962 0 0 0-8.485 3.515l6.92 6.92h13.464Z" fill="#D80027"/><path d="M23.899 13.565H10.435l-6.92 6.92A11.962 11.962 0 0 0 12 24c6.14 0 11.202-4.61 11.914-10.558l-.015.123Z" fill="#6DA544"/><path d="m23.941 13.188-.013.12c.005-.04.01-.08.013-.12Z" fill="#F0F0F0"/><path d="M23.968 11.137ZM23.913 10.558ZM23.941 10.812ZM24 12ZM23.98 12.669ZM23.961 12.964ZM23.928 13.308ZM23.997 11.727ZM23.986 11.398ZM23.995 12.342Z" fill="#000"/><path d="M23.989 11.473H9.994L2.806 4.286a6.131 6.131 0 0 0-.64.83l6.874 6.879-6.88 6.88c.136.243.433.602.641.835l7.193-7.193h13.997a12.215 12.215 0 0 0-.002-1.044Z" fill="#FFDA44"/><path d="M2.915 14.557v-1.005a1.821 1.821 0 0 0 1.82-1.819c0-.71-.578-1.287-1.288-1.287a.878.878 0 0 0-.876.877c0 .31.251.56.56.56a.317.317 0 0 0 .317-.316h1.005c0 .729-.593 1.322-1.322 1.322a1.567 1.567 0 0 1-1.565-1.566c0-1.037.844-1.882 1.881-1.882a2.295 2.295 0 0 1 2.292 2.292 2.827 2.827 0 0 1-2.824 2.824Z" fill="#FFDA44"/></g><defs><clipPath id="a"><path fill="#fff" d="M0 0h24v24H0z"/></clipPath></defs></svg>