<svg width="24" height="24" fill="none" xmlns="http://www.w3.org/2000/svg"><g clip-path="url(#a)"><path d="M0 12C0 5.373 5.373 0 12 0s12 5.373 12 12l-12 1.043L0 12Z" fill="#FFDA44"/><path d="M1.606 18C3.68 21.589 7.558 24 12 24s8.32-2.412 10.394-6L12 17.219l-10.394.783Z" fill="#D80027"/><path d="M22.394 18A11.945 11.945 0 0 0 24 12H0c0 2.186.585 4.235 1.606 6h20.788Z" fill="#0052B4"/><path d="M12 16.174a4.174 4.174 0 1 0 0-8.347 4.174 4.174 0 0 0 0 8.347Z" fill="#FFDA44"/><path d="M12 14.61A2.612 2.612 0 0 1 9.392 12v-1.565A2.612 2.612 0 0 1 12 7.827a2.612 2.612 0 0 1 2.609 2.608v1.566A2.612 2.612 0 0 1 12 14.609Z" fill="#338AF3"/><path d="M16.174 5.74h-3.13a1.044 1.044 0 0 0-2.088 0h-3.13c0 .576.502 1.043 1.078 1.043h-.035c0 .577.467 1.044 1.044 1.044 0 .576.467 1.043 1.043 1.043h2.087c.577 0 1.044-.467 1.044-1.043.576 0 1.043-.467 1.043-1.044h-.035c.577 0 1.079-.467 1.079-1.043Z" fill="#000"/></g><defs><clipPath id="a"><path fill="#fff" d="M0 0h24v24H0z"/></clipPath></defs></svg>