<svg width="24" height="24" fill="none" xmlns="http://www.w3.org/2000/svg"><path d="M12 24c6.627 0 12-5.373 12-12S18.627 0 12 0 0 5.373 0 12s5.373 12 12 12Z" fill="#F0F0F0"/><path d="M12 0C5.373 0 0 5.373 0 12c0 1.468.264 2.874.746 4.174h22.508c.482-1.3.746-2.706.746-4.174 0-6.627-5.373-12-12-12Z" fill="#0052B4"/><path d="M12 0C6.84 0 2.442 3.257.747 7.826h22.507C21.558 3.256 17.16 0 12 0Z" fill="#D80027"/><path d="M3.103 6.783v5.986c0 3.406 4.449 4.449 4.449 4.449S12 16.175 12 12.769V6.783H3.103Z" fill="#D80027"/><path d="M4.942 7.826h5.218V5.74l-1.044.522-1.565-1.565L5.986 6.26 4.942 5.74v2.087ZM10.956 13.602l-3.391-3.39-3.392 3.39L5.28 14.71l2.285-2.284 2.284 2.284 1.107-1.107Z" fill="#FFDA44"/><path d="M10.956 10.434H9.374A1.043 1.043 0 1 0 7.55 9.42a1.043 1.043 0 1 0-1.823 1.014H4.173c0 .576.502 1.043 1.079 1.043h-.035c0 .577.467 1.044 1.043 1.044 0 .51.367.934.85 1.025l-.821 1.856a3.38 3.38 0 0 0 2.552 0l-.822-1.856c.484-.09.85-.515.85-1.025.576 0 1.044-.467 1.044-1.044h-.035c.576 0 1.078-.467 1.078-1.043Z" fill="#F0F0F0"/></svg>