<svg width="24" height="24" fill="none" xmlns="http://www.w3.org/2000/svg"><g clip-path="url(#a)"><path d="M12 24c6.627 0 12-5.373 12-12S18.627 0 12 0 0 5.373 0 12s5.373 12 12 12Z" fill="#F0F0F0"/><path d="M12-.001c-2.122 0-4.114.551-5.843 1.517v20.966A11.944 11.944 0 0 0 12 23.999c6.627 0 12-5.373 12-12s-5.373-12-12-12Z" fill="#6DA544"/><path d="M6.192 1.498A12.026 12.026 0 0 0 4.285 2.81l9.19 9.19-9.19 9.191a12.123 12.123 0 0 1 1.907 1.312L24 12 6.192 1.498Z" fill="#F0F0F0"/><path d="M5.178 2.127c-.366.253-.717.526-1.052.817L12 12l-7.874 9.055c.335.291.686.564 1.052.817L21.946 12 5.178 2.127Z" fill="#FFDA44"/><path d="M4.285 2.81c-.267.224-.524.459-.77.705l7.441 8.486-7.441 8.485c.246.246.503.481.77.705l9.19-9.19-9.19-9.191Z" fill="#000"/><path d="M3.515 3.514c-4.687 4.687-4.687 12.285 0 16.97L12 12 3.515 3.514Z" fill="#D80027"/></g><defs><clipPath id="a"><path fill="#fff" d="M0 0h24v24H0z"/></clipPath></defs></svg>