<svg width="24" height="24" fill="none" xmlns="http://www.w3.org/2000/svg"><g clip-path="url(#a)"><path d="M24 12c0 6.627-5.373 12-12 12S0 18.627 0 12C0 12.003 12 .001 12 0c6.627 0 12 5.373 12 12Z" fill="#0052B4"/><path d="M11.968 12H12v-.032l-.032.032Z" fill="#F0F0F0"/><path d="M12 6.262V0h-.002C5.37 0 0 5.374 0 12h6.26V8.475l3.526 3.526h2.182l.032-.032V9.787L8.474 6.262H12Z" fill="#F0F0F0"/><path d="M6.071 1.566a12.057 12.057 0 0 0-4.506 4.506V12h3.13V4.696H12v-3.13H6.071Z" fill="#D80027"/><path d="M12 10.525 7.737 6.262H6.261L12.001 12v-1.476Z" fill="#D80027"/><path d="m7.238 14.086.658 1.377 1.487-.343-.666 1.373 1.196.949-1.489.335.004 1.527-1.19-.955-1.191.955.004-1.527-1.49-.335 1.197-.949-.666-1.373 1.487.344.659-1.378ZM17.967 16.695l.33.689.743-.172-.333.687.598.474-.745.168.003.763-.596-.477-.595.477.002-.763-.745-.168.598-.474-.333-.687.744.172.33-.689ZM14.903 9.391l.33.689.743-.172-.333.687.598.474-.744.168.002.763-.596-.477-.595.477.002-.763-.745-.168.599-.474-.333-.687.743.172.33-.689ZM17.967 5.218l.33.688.743-.172-.333.687.598.474-.745.168.003.763-.596-.477-.595.477.002-.763-.745-.168.598-.474-.333-.687.744.172.33-.688ZM20.642 8.348l.33.688.743-.172-.333.687.598.474-.745.168.003.763-.596-.477-.595.477.002-.763-.745-.168.598-.474-.333-.687.744.172.33-.688ZM18.73 12l.258.797h.838l-.678.493.26.797-.679-.492-.678.492.26-.797-.679-.492h.838l.26-.798Z" fill="#F0F0F0"/></g><defs><clipPath id="a"><path fill="#fff" d="M0 0h24v24H0z"/></clipPath></defs></svg>