<svg width="24" height="24" fill="none" xmlns="http://www.w3.org/2000/svg"><g clip-path="url(#a)"><path d="M24 12c0-4.118-2.076-7.752-5.237-9.913L12 1.565l-6.764.522A11.987 11.987 0 0 0 0 12c0 4.119 2.075 7.752 5.236 9.913l6.764.522 6.763-.522A11.986 11.986 0 0 0 24 12Z" fill="#0052B4"/><path d="M18.764 2.087A11.944 11.944 0 0 0 12.001 0C9.49 0 7.163.77 5.237 2.087h13.527ZM5.236 21.913A11.943 11.943 0 0 0 12 24c2.509 0 4.837-.77 6.763-2.087H5.236Z" fill="#A2001D"/><path d="M12 17.738A5.74 5.74 0 1 0 12 6.26a5.74 5.74 0 0 0 0 11.478Z" fill="#F0F0F0"/><path d="M12 16.695a4.696 4.696 0 1 0 0-9.39 4.696 4.696 0 0 0 0 9.39Z" fill="#6DA544"/><path d="M12 15.13a3.13 3.13 0 1 0 0-6.261 3.13 3.13 0 0 0 0 6.26Z" fill="#F0F0F0"/><path d="M12 11.217 10.303 12v1.304l1.695 1.044 1.696-1.044V12L12 11.217Z" fill="#0052B4"/><path d="M13.695 10.436h-3.391V12h3.391v-1.565Z" fill="#FFDA44"/></g><defs><clipPath id="a"><path fill="#fff" d="M0 0h24v24H0z"/></clipPath></defs></svg>