<svg width="24" height="24" fill="none" xmlns="http://www.w3.org/2000/svg"><g clip-path="url(#a)"><path d="M12 24c6.627 0 12-5.373 12-12S18.627 0 12 0 0 5.373 0 12s5.373 12 12 12Z" fill="#F0F0F0"/><path d="M22 13.436c-1 0-1-.915-2-.915s-1 .915-2 .915-1-.915-2-.915-1 .915-2 .915-1-.915-2-.915-1 .915-2 .915-1-.915-2-.915-1 .915-2 .915-1-.915-2-.915-1 .915-2 .915c-.995 0-1-.905-1.984-.914.027.549.093 1.088.192 1.615.797.117.867.899 1.792.899 1 0 1-.915 2-.915s1 .915 2 .915 1-.915 2-.915 1 .915 2 .915 1-.915 2-.915 1 .915 2 .915 1-.915 2-.915 1 .915 2 .915 1-.915 2-.915 1 .915 2 .915c.925 0 .995-.782 1.792-.9.1-.526.165-1.065.193-1.614-.985.01-.99.914-1.985.914ZM20 15.651c-1 0-1 .915-2 .915s-1-.915-2-.915-1 .915-2 .915-1-.915-2-.915-1 .915-2 .915-1-.915-2-.915-1 .915-2 .915-1-.915-2-.915-1 .915-2 .915c-.737 0-.931-.496-1.382-.757.273.816.632 1.593 1.065 2.321.094.023.198.036.317.036 1 0 1-.915 2-.915s1 .915 2 .915 1-.915 2-.915 1 .915 2 .915 1-.915 2-.915 1 .915 2 .915 1-.915 2-.915 1 .915 2 .915 1-.915 2-.915 1 .915 2 .915c.119 0 .223-.013.317-.036a11.94 11.94 0 0 0 1.065-2.321c-.45.26-.645.757-1.382.757-1 0-1-.915-2-.915ZM23.721 9.42c-.731.151-.824.886-1.721.886-1 0-1-.914-2-.914s-1 .914-2 .914-1-.914-2-.914-1 .914-2 .914-1-.914-2-.914c-.54 0-.789.267-1.06.512v1.6c.271-.245.52-.512 1.06-.512 1 0 1 .914 2 .914s1-.914 2-.914 1 .914 2 .914 1-.914 2-.914 1 .914 2 .914c.925 0 .995-.782 1.792-.9h.167c-.044-.54-.125-1.07-.238-1.587ZM22.844 6.857a1.213 1.213 0 0 1-.844.319c-1 0-1-.915-2-.915s-1 .915-2 .915-1-.915-2-.915-1 .915-2 .915-1-.915-2-.915c-.54 0-.789.267-1.06.513v1.6c.271-.246.52-.512 1.06-.512 1 0 1 .914 2 .914s1-.914 2-.914 1 .914 2 .914 1-.914 2-.914 1 .914 2 .914c.71 0 .916-.46 1.333-.727a11.949 11.949 0 0 0-.489-1.192ZM20.085 3.133A1.579 1.579 0 0 0 20 3.13c-1 0-1 .914-2 .914s-1-.914-2-.914-1 .914-2 .914-1-.914-2-.914c-.54 0-.789.267-1.06.512v1.6c.271-.245.52-.512 1.06-.512 1 0 1 .914 2 .914s1-.914 2-.914 1 .914 2 .914 1-.914 2-.914 1 .914 2 .914c.061 0 .119-.003.174-.01a12.059 12.059 0 0 0-2.089-2.501ZM15.067.396c-.274.247-.522.518-1.067.518-1 0-1-.914-2-.914-.518 0-.767.245-1.026.48v1.6c.259-.235.509-.48 1.026-.48 1 0 1 .914 2 .914s1-.914 2-.914 1 .914 2 .914c.42 0 .663-.16.878-.348a11.942 11.942 0 0 0-3.81-1.77ZM14 22.827c-1 0-1-.914-2-.914s-1 .914-2 .914-1-.914-2-.914c-.765 0-.945.536-1.436.787 1.354.69 2.857 1.13 4.448 1.26.246-.226.496-.447.988-.447s.742.221.988.446c1.591-.13 3.095-.57 4.45-1.259-.492-.251-.672-.787-1.438-.787-1 0-1 .914-2 .914ZM18 19.698c-1 0-1-.915-2-.915s-1 .915-2 .915-1-.915-2-.915-1 .915-2 .915-1-.915-2-.915-1 .915-2 .915-1-.915-2-.915c-.72 0-.921.473-1.35.739.269.333.555.653.857.956.135-.058.294-.095.493-.095 1 0 1 .915 2 .915s1-.915 2-.915 1 .915 2 .915 1-.915 2-.915 1 .915 2 .915 1-.915 2-.915 1 .915 2 .915 1-.915 2-.915c.199 0 .358.037.493.095.303-.303.588-.623.857-.956-.429-.266-.63-.739-1.35-.739-1 0-1 .915-2 .915Z" fill="#0052B4"/><path d="M11.967 12H12v-.033l-.033.032Z" fill="#F0F0F0"/><path d="M12 6.261v3.526L7.826 5.74 12 6.26ZM6.26 12h3.526L6.261 7.306l-.522 3.652L6.26 12Z" fill="#0052B4"/><path d="M12 6.26V0h-.002C5.372.001 0 5.373 0 12h6.26V8.474L9.787 12h2.182l.032-.032V9.786L8.474 6.261H12Z" fill="#F0F0F0"/><path d="M6.071 1.564A12.057 12.057 0 0 0 1.565 6.07v5.929h3.13V4.695H12v-3.13H6.071Z" fill="#D80027"/><path d="M12 10.523 7.736 6.26H6.261L12 12v-1.477Z" fill="#D80027"/><path d="M15.652 6.261h4.696L18 8.609 15.652 6.26Z" fill="#6DA544"/><path d="M18.522 8.086H17.48v2.87h1.043v-2.87ZM18.521 15.652h-1.043v2.87h1.043v-2.87Z" fill="#A2001D"/><path d="M21.13 14.087a1.565 1.565 0 0 0-2.608-1.166v-.92h.522v-1.044h-.522v-.522h-1.044v.522h-.521V12h.521v.921a1.565 1.565 0 0 0-2.087 2.333v.92h5.218v-.92c.32-.287.521-.703.521-1.167Z" fill="#FFDA44"/><path d="M19.565 13.565a.514.514 0 0 0-.348.133l-.696.623h-1.043l-.696-.623a.522.522 0 0 0-.695.778l.347.31v.344h3.13v-.343l.348-.311a.522.522 0 0 0-.347-.91Z" fill="#D80027"/></g><defs><clipPath id="a"><path fill="#fff" d="M0 0h24v24H0z"/></clipPath></defs></svg>