<svg width="24" height="24" fill="none" xmlns="http://www.w3.org/2000/svg"><g clip-path="url(#a)"><path d="M12 24c6.627 0 12-5.373 12-12S18.627 0 12 0 0 5.373 0 12s5.373 12 12 12Z" fill="#F0F0F0"/><path d="m6.486 16.696-2.971 3.79A11.96 11.96 0 0 0 12 24c4.96 0 9.217-3.01 11.045-7.304H6.485Z" fill="#FFDA44"/><path d="M23.063 7.348C21.246 3.032 16.977.001 12 .001a11.96 11.96 0 0 0-8.485 3.515L6.52 7.348h16.543Z" fill="#496E2D"/><path d="M2.609 8.826v6.304h20.978c.269-.998.413-2.047.413-3.13 0-1.099-.148-2.163-.425-3.174H2.61Z" fill="#000"/><path d="M3.514 3.514c-4.686 4.687-4.686 12.285 0 16.97L12 12 3.514 3.514Z" fill="#A2001D"/><path d="m4.857 8.87.777 2.39h2.515L6.114 12.74l.777 2.391-2.034-1.478-2.034 1.478.777-2.391-2.035-1.478H4.08l.777-2.392Z" fill="#FFDA44"/><path d="M7.131 12H2.583v2.086h4.548V12Z" fill="#F0F0F0"/><path d="m7.992 9.607-.738-.738-2.397 2.398-2.398-2.398-.738.738 2.4 2.396-2.4 2.4.738.727 2.398-2.393 2.397 2.393.738-.728-2.4-2.4 2.4-2.395Z" fill="#000"/></g><defs><clipPath id="a"><path fill="#fff" d="M0 0h24v24H0z"/></clipPath></defs></svg>