<svg width="24" height="24" fill="none" xmlns="http://www.w3.org/2000/svg"><g clip-path="url(#a)"><path d="M12 24c6.627 0 12-5.373 12-12S18.627 0 12 0 0 5.373 0 12s5.373 12 12 12Z" fill="#F0F0F0"/><path d="M24 12a12 12 0 0 0-6.783-10.81V22.81A12 12 0 0 0 24 11.999Z" fill="#D80027"/><path d="M0 12a12 12 0 0 0 6.783 10.809V1.19A12 12 0 0 0 0 12ZM8.87 12a3.13 3.13 0 1 0 6.26 0v-1.044H8.87v1.043Z" fill="#6DA544"/><path d="M16.174 9.913h-3.131a1.044 1.044 0 0 0-2.087 0h-3.13c0 .577.502 1.044 1.078 1.044h-.035c0 .576.467 1.043 1.044 1.043 0 .577.467 1.044 1.043 1.044h2.087c.576 0 1.043-.467 1.043-1.044.577 0 1.044-.467 1.044-1.043h-.035c.576 0 1.079-.467 1.079-1.044Z" fill="#FF9811"/></g><defs><clipPath id="a"><path fill="#fff" d="M0 0h24v24H0z"/></clipPath></defs></svg>