<svg width="24" height="24" fill="none" xmlns="http://www.w3.org/2000/svg"><g clip-path="url(#a)"><path d="M24 12c0 6.627-5.373 12-12 12S0 18.627 0 12C0 12.003 12 .001 12 0c6.627 0 12 5.373 12 12Z" fill="#D80027"/><path d="M12 5.739v4.047L7.826 5.74H12ZM6.26 12h3.526L6.261 7.304l-.522 3.652L6.261 12Z" fill="#0052B4"/><path d="M11.968 12.001h.033v-.032l-.033.032ZM12 6.261V.001h-.003C5.371 0 0 5.374 0 12h6.26V8.474l3.526 3.526h2.182l.032-.033V9.787L8.474 6.261h3.525Z" fill="#F0F0F0"/><path d="M6.07 1.565a12.057 12.057 0 0 0-4.505 4.506v6.45h3.13V4.697h7.826v-3.13h-6.45Z" fill="#D80027"/><path d="m12.476 11-4.74-4.74H6.26l6.216 6.216V11Z" fill="#D80027"/><path d="M13.565 6.26v5.739c0 2.796 7.305 2.796 7.305 0v-5.74h-7.305Z" fill="#F3F3F3"/><path d="M13.565 12c0 2.796 3.652 3.653 3.652 3.653S20.87 14.796 20.87 12h-7.305Z" fill="#6DA544"/><path d="m17.218 9.704-1.696.73V12l1.696 1.044L18.913 12v-1.565l-1.695-.73Z" fill="#A2001D"/><path d="M18.913 8.869h-3.391v1.565h3.391V8.869Z" fill="#338AF3"/></g><defs><clipPath id="a"><path fill="#fff" d="M0 0h24v24H0z"/></clipPath></defs></svg>