<svg width="24" height="24" fill="none" xmlns="http://www.w3.org/2000/svg"><g clip-path="url(#a)"><path d="M12 24c6.627 0 12-5.373 12-12S18.627 0 12 0 0 5.373 0 12s5.373 12 12 12Z" fill="#FFDA44"/><path d="M5.236 2.087A11.943 11.943 0 0 1 12 0c2.509 0 4.837.77 6.763 2.087L12 2.609l-6.764-.522Z" fill="#A2001D"/><path d="m12 12-.765-.766-.204.364.97.401Z" fill="#0052B4"/><path d="M3.515 3.515c-4.686 4.686-4.686 12.284 0 16.97 1.937-1.936 3.8-3.798 8.486-8.485L3.514 3.515ZM20.486 3.516c4.686 4.686 4.686 12.284 0 16.97L12 12.002l8.486-8.485Z" fill="#496E2D"/><path d="M12 16.174a4.174 4.174 0 1 0 0-8.348 4.174 4.174 0 0 0 0 8.348Z" fill="#A2001D"/><path d="m12 7.826.935 2.88h3.028l-2.45 1.78.936 2.88-2.45-1.78-2.45 1.78.937-2.88-2.45-1.78h3.028L12 7.826Z" fill="#FFDA44"/><path d="M12.004 0h-.008a11.962 11.962 0 0 0-8.48 3.514h16.969A11.962 11.962 0 0 0 12.005 0ZM3.516 20.486A11.962 11.962 0 0 0 12.001 24c3.313 0 6.313-1.343 8.484-3.514H3.516Z" fill="#A2001D"/><path d="m12 1.304.195.598h.628l-.508.37.194.597L12 2.5l-.508.37.194-.597-.508-.37h.628L12 1.304ZM9.09 1.304l.195.598h.629l-.509.37.194.597-.508-.37-.509.37.194-.597-.508-.37h.628l.195-.598ZM14.91 1.304l.194.598h.629l-.509.37.195.597-.509-.37-.509.37.195-.597-.509-.37h.629l.194-.598ZM12 21.13l.195.598h.628l-.508.37.194.597-.509-.37-.508.37.194-.598-.508-.37h.628L12 21.13ZM9.09 21.13l.195.598h.629l-.509.37.194.597-.508-.37-.509.37.194-.598-.508-.37h.628l.195-.597ZM14.91 21.13l.194.598h.629l-.509.37.195.597-.509-.37-.509.37.195-.598-.509-.37h.629l.194-.597ZM3.657 11.802a1.043 1.043 0 0 1-1.764 1.116c-.558-.881-.234-2.321-.234-2.321s1.44.323 1.998 1.205Z" fill="#FFDA44"/><path d="M3.054 13.322a.522.522 0 1 0 0-1.043.522.522 0 0 0 0 1.043Z" fill="#A2001D"/></g><defs><clipPath id="a"><path fill="#fff" d="M0 0h24v24H0z"/></clipPath></defs></svg>