<svg width="24" height="24" fill="none" xmlns="http://www.w3.org/2000/svg"><g clip-path="url(#a)"><path d="M5.236 21.912A11.944 11.944 0 0 0 12 24c2.509 0 4.837-.77 6.763-2.087L12 20.87l-6.764 1.043ZM18.764 2.087A11.944 11.944 0 0 0 12.001 0C9.49 0 7.163.77 5.237 2.087l6.764 1.043 6.763-1.043Z" fill="#D80027"/><path d="M24 12c0-3.97-2.378-7.958-5.237-9.913H5.236A11.987 11.987 0 0 0 0 12c0 4.119 2.075 7.752 5.236 9.913h13.527A11.987 11.987 0 0 0 24 12Z" fill="#0052B4"/><path d="M11.32 19.575c-.163-.14-4.016-3.49-4.016-7.575s3.853-7.434 4.017-7.575L12 3.843l.679.582c.164.14 4.017 3.49 4.017 7.575s-3.853 7.434-4.017 7.575l-.68.582-.678-.582Z" fill="#D80027"/><path d="M15.652 12C15.652 8.348 12 5.217 12 5.217S8.348 8.348 8.348 12c0 1.117.342 2.185.817 3.13h5.67c.475-.945.817-2.013.817-3.13Z" fill="#338AF3"/><path d="M15.652 12c0 1.118-.342 2.186-.816 3.13L12 15.654l-2.835-.522c-.475-.945-.817-2.013-.817-3.13h7.304Z" fill="#0052B4"/><path d="M12 18.782s1.76-1.508 2.836-3.652H9.164C10.241 17.274 12 18.782 12 18.782Z" fill="#FFDA44"/><path d="M9.652 9.913h4.695L12 12.26 9.652 9.913Z" fill="#6DA544"/><path d="M12.783 11.477h-1.566v4.696h1.566v-4.696Z" fill="#A2001D"/></g><defs><clipPath id="a"><path fill="#fff" d="M0 0h24v24H0z"/></clipPath></defs></svg>