<svg width="24" height="24" fill="none" xmlns="http://www.w3.org/2000/svg"><path d="M12 24c6.627 0 12-5.373 12-12S18.627 0 12 0 0 5.373 0 12s5.373 12 12 12Z" fill="#D80027"/><path d="M12 17.739A5.74 5.74 0 1 0 12 6.26a5.74 5.74 0 0 0 0 11.479Z" fill="#F0F0F0"/><path d="m12.707 9.805.984 1.357 1.595-.517L14.3 12l.984 1.357-1.594-.519-.986 1.356v-1.677L11.112 12l1.594-.518.002-1.676Z" fill="#D80027"/><path d="M13.304 15.39a3.391 3.391 0 1 1 1.613-6.374 4.174 4.174 0 1 0 0 5.967c-.48.26-1.03.408-1.613.408Z" fill="#D80027"/></svg>