<svg width="24" height="24" fill="none" xmlns="http://www.w3.org/2000/svg"><g clip-path="url(#a)"><path d="M0 12c0 1.467.264 2.873.746 4.173L12 17.217l11.254-1.044c.482-1.3.746-2.706.746-4.174 0-1.468-.264-2.874-.746-4.174L12 6.782.746 7.825A11.974 11.974 0 0 0 0 12Z" fill="#FFDA44"/><path d="M23.255 7.826C21.56 3.256 17.161 0 12.002 0 6.841 0 2.443 3.256.748 7.826h22.507ZM.747 16.174C2.442 20.744 6.84 24 12 24c5.16 0 9.558-3.256 11.253-7.826H.747Z" fill="#D80027"/></g><defs><clipPath id="a"><path fill="#fff" d="M0 0h24v24H0z"/></clipPath></defs></svg>