<svg width="24" height="24" fill="none" xmlns="http://www.w3.org/2000/svg"><path d="M24 12c0 6.627-5.373 12-12 12S0 18.627 0 12C0 12.003 12 .001 12 0c6.627 0 12 5.373 12 12Z" fill="#0052B4"/><path d="M11.968 12h.033v-.033l-.033.033Z" fill="#F0F0F0"/><path d="M12 6.261V.001h-.002C5.372 0 .002 5.373.002 12h6.26V8.474L9.787 12h2.181l.033-.032V9.787L8.475 6.26h3.526Z" fill="#F0F0F0"/><path d="M6.071 1.565a12.057 12.057 0 0 0-4.506 4.506v5.93h3.13V4.695H12v-3.13H6.071Z" fill="#D80027"/><path d="M12 10.524 7.737 6.261H6.26L12.001 12v-1.476Z" fill="#D80027"/><path d="M13.565 6.26V12c0 2.795 3.652 3.652 3.652 3.652S20.87 14.795 20.87 12V6.26h-7.304Z" fill="#FFDA44"/><path d="M16.696 8.348c0 .576-.467 2.087-1.044 2.087-.576 0-1.043-1.51-1.043-2.087 0-.577 1.043-1.044 1.043-1.044s1.044.467 1.044 1.044Z" fill="#FF9811"/><path d="M19.464 9.484c.169-.41.3-1.011.3-1.31 0-.48-.627-.87-.627-.87s-.626.39-.626.87c0 .299.131.9.3 1.31l-.362.816a1.823 1.823 0 0 0 1.377 0l-.362-.816Z" fill="#A2001D"/><path d="M16.435 12s-.522 1.043-.522 2.087h2.61C18.521 13.044 18 12 18 12l-.782-.522-.783.522Z" fill="#6DA544"/><path d="M18 12v-.26a.783.783 0 0 0-1.565 0V12h1.566Z" fill="#D80027"/></svg>