<svg width="24" height="24" fill="none" xmlns="http://www.w3.org/2000/svg"><path d="M12 24c6.627 0 12-5.373 12-12S18.627 0 12 0 0 5.373 0 12s5.373 12 12 12Z" fill="#FFDA44"/><path d="M13.825 23.862a11.937 11.937 0 0 0 5.271-2.185L12 12l1.825 11.862ZM10.175.138a11.937 11.937 0 0 0-5.271 2.185L12 12 10.175.138ZM4.904 21.677a11.936 11.936 0 0 0 5.271 2.185L12 12l-7.096 9.677Z" fill="#D80027"/><path d="M2.323 4.902a11.937 11.937 0 0 0-2.185 5.272L12 11.999 2.323 4.902ZM.138 13.825a11.935 11.935 0 0 0 2.186 5.272L12 12 .138 13.825ZM23.862 10.174a11.937 11.937 0 0 0-2.185-5.271L12 11.999l11.862-1.825Z" fill="#D80027"/><path d="M19.096 2.323a11.936 11.936 0 0 0-5.27-2.185L12 12l7.096-9.677ZM21.677 19.097a11.94 11.94 0 0 0 2.185-5.272L12 12l9.677 7.097Z" fill="#D80027"/><path d="M12 16.174a4.174 4.174 0 1 0 0-8.347 4.174 4.174 0 0 0 0 8.347Z" fill="#D80027"/><path d="M12 15.13a3.13 3.13 0 1 0 0-6.261 3.13 3.13 0 0 0 0 6.26Z" fill="#FFDA44"/></svg>