<svg width="24" height="24" fill="none" xmlns="http://www.w3.org/2000/svg"><path d="M12 24c6.627 0 12-5.373 12-12S18.627 0 12 0 0 5.373 0 12s5.373 12 12 12Z" fill="#D80027"/><path d="M13.24 9.078c-.274 1.134-.758.918-.996 1.907a2.609 2.609 0 0 1 1.22-5.073c-.476 1.978.02 2.151-.225 3.166ZM9.604 9.918c.995.61.64 1.004 1.507 1.535a2.609 2.609 0 0 1-4.448-2.727c1.734 1.064 2.052.646 2.941 1.192ZM9.28 13.635c.887-.757 1.152-.298 1.926-.958a2.609 2.609 0 0 1-3.968 3.387c1.547-1.32 1.248-1.752 2.042-2.429ZM12.715 15.092c-.446-1.078.073-1.188-.316-2.128a2.609 2.609 0 0 1 1.995 4.82c-.778-1.88-1.28-1.728-1.679-2.692ZM15.162 12.274c-1.163.091-1.107-.436-2.121-.357a2.609 2.609 0 0 1 5.201-.408c-2.029.16-2.04.684-3.08.765Z" fill="#F0F0F0"/></svg>