<svg width="24" height="24" fill="none" xmlns="http://www.w3.org/2000/svg"><g clip-path="url(#a)"><path d="M17.217 1.19A11.953 11.953 0 0 0 12 0c-1.87 0-3.64.428-5.217 1.19L5.739 12l1.044 10.81A11.953 11.953 0 0 0 12 24c1.87 0 3.64-.428 5.217-1.19L18.261 12 17.217 1.19Z" fill="#FFDA44"/><path d="m12 7.826 1.036 3.189h3.353l-2.712 1.97 1.036 3.189L12 14.204l-2.712 1.97 1.036-3.189-2.712-1.97h3.352L12 7.825ZM6.783 1.19A12 12 0 0 0 0 12a12 12 0 0 0 6.783 10.808V1.191Z" fill="#496E2D"/><path d="M17.218 1.191V22.81A12 12 0 0 0 24 12a12 12 0 0 0-6.782-10.809Z" fill="#D80027"/></g><defs><clipPath id="a"><path fill="#fff" d="M0 0h24v24H0z"/></clipPath></defs></svg>