<svg width="24" height="24" fill="none" xmlns="http://www.w3.org/2000/svg"><g clip-path="url(#a)"><path d="M24 12c0 6.627-5.373 12-12 12S0 18.627 0 12C0 12.003 12 .001 12 0c6.627 0 12 5.373 12 12Z" fill="#0052B4"/><path d="M11.968 12.001H12v-.032l-.032.032Z" fill="#F0F0F0"/><path d="M12 6.262V0h-.002C5.37.002 0 5.374 0 12.001h6.26V8.476L9.787 12h2.182l.032-.032V9.787L8.474 6.262H12Z" fill="#F0F0F0"/><path d="M6.071 1.565A12.057 12.057 0 0 0 1.566 6.07V12h3.13V4.694H12v-3.13H6.071Z" fill="#D80027"/><path d="M12 10.524 7.737 6.26H6.26L12 12v-1.476Z" fill="#D80027"/><path d="m16.174 12 .222.683h.718l-.58.422.221.684-.581-.422-.581.422.222-.684-.582-.422h.719l.222-.683ZM13.223 13.223l.64.326.508-.508-.113.71.64.326-.71.112-.112.71-.326-.64-.71.112.509-.508-.326-.64ZM12 16.173l.683-.222v-.718l.422.58.683-.221-.422.581.422.581-.683-.222-.422.581v-.718l-.684-.222ZM13.223 19.125l.326-.64-.508-.508.71.113.325-.64.113.71.71.111-.64.327.112.71-.508-.509-.64.326ZM16.174 20.348l-.222-.683h-.719l.582-.422-.223-.684.582.423.581-.423-.222.684.581.422h-.718l-.222.683ZM19.125 19.125l-.64-.326-.508.508.112-.71-.64-.325.71-.113.112-.71.326.64.71-.112-.508.508.326.64ZM20.348 16.173l-.683.222v.718l-.423-.58-.683.221.422-.58-.422-.582.683.222.422-.581v.718l.684.222ZM19.125 13.223l-.326.64.508.508-.71-.112-.326.64-.112-.71-.71-.112.64-.326-.112-.71.508.508.64-.326Z" fill="#F0F0F0"/></g><defs><clipPath id="a"><path fill="#fff" d="M0 0h24v24H0z"/></clipPath></defs></svg>