<svg width="24" height="24" fill="none" xmlns="http://www.w3.org/2000/svg"><g clip-path="url(#a)"><path d="M12 24c6.627 0 12-5.373 12-12S18.627 0 12 0 0 5.373 0 12s5.373 12 12 12Z" fill="#FFDA44"/><path d="M9.39 10.435h14.508C23.13 4.547 18.096 0 11.999 0c-.896 0-1.768.1-2.608.285v10.15ZM6.26 10.435V1.459a12.007 12.007 0 0 0-6.158 8.976H6.26ZM6.26 13.566H.103A12.007 12.007 0 0 0 6.26 22.54v-8.975ZM9.39 13.566v10.15c.84.185 1.713.284 2.61.284 6.096 0 11.13-4.547 11.898-10.434H9.39Z" fill="#0052B4"/></g><defs><clipPath id="a"><path fill="#fff" d="M0 0h24v24H0z"/></clipPath></defs></svg>