<svg width="24" height="24" fill="none" xmlns="http://www.w3.org/2000/svg"><g clip-path="url(#a)"><path d="M22.81 6.782A12 12 0 0 0 12-.001 12 12 0 0 0 1.19 6.782L12 7.825l10.81-1.043ZM1.19 17.216A12 12 0 0 0 12 24a12 12 0 0 0 10.81-6.783L12 16.173 1.19 17.216Z" fill="#D80027"/><path d="M22.809 6.782H1.19A11.952 11.952 0 0 0 0 11.999c0 1.87.428 3.64 1.19 5.218H22.81a11.95 11.95 0 0 0 1.19-5.218c0-1.87-.427-3.64-1.19-5.217Z" fill="#0052B4"/><path d="M12 16.174a4.174 4.174 0 1 0 0-8.348 4.174 4.174 0 0 0 0 8.348Z" fill="#F0F0F0"/></g><defs><clipPath id="a"><path fill="#fff" d="M0 0h24v24H0z"/></clipPath></defs></svg>