<svg width="24" height="24" fill="none" xmlns="http://www.w3.org/2000/svg"><g clip-path="url(#a)"><path d="M12 24c6.627 0 12-5.373 12-12S18.627 0 12 0 0 5.373 0 12s5.373 12 12 12Z" fill="#FFDA44"/><path d="M3.515 20.486c.503.503 1.04.952 1.604 1.347L21.833 5.12a12.06 12.06 0 0 0-2.952-2.952L2.167 18.882c.395.563.844 1.1 1.348 1.604Z" fill="#000"/><path d="M3.515 3.514C-.271 7.3-.998 12.985 1.333 17.5L17.502 1.332C12.986-.998 7.3-.272 3.515 3.514Z" fill="#6DA544"/><path d="M20.485 20.485c3.786-3.786 4.512-9.471 2.182-13.987L6.497 22.667c4.517 2.33 10.202 1.604 13.988-2.182Z" fill="#338AF3"/></g><defs><clipPath id="a"><path fill="#fff" d="M0 0h24v24H0z"/></clipPath></defs></svg>