<svg width="24" height="24" fill="none" xmlns="http://www.w3.org/2000/svg"><path d="M12 24c6.627 0 12-5.373 12-12S18.627 0 12 0 0 5.373 0 12s5.373 12 12 12Z" fill="#F0F0F0"/><path d="M2.48 4.693A11.956 11.956 0 0 0 .414 8.868h6.243L2.481 4.693ZM23.587 8.869a11.959 11.959 0 0 0-2.067-4.176L17.344 8.87h6.243ZM.413 15.13a11.957 11.957 0 0 0 2.068 4.176l4.175-4.176H.413ZM19.306 2.48A11.957 11.957 0 0 0 15.13.413v6.242l4.176-4.175ZM4.694 21.518a11.957 11.957 0 0 0 4.175 2.067v-6.243l-4.175 4.176ZM8.87.413A11.957 11.957 0 0 0 4.693 2.48l4.175 4.175V.413ZM15.13 23.585a11.957 11.957 0 0 0 4.175-2.067l-4.175-4.176v6.243ZM17.344 15.13l4.176 4.176a11.958 11.958 0 0 0 2.067-4.176h-6.243Z" fill="#0052B4"/><path d="M23.898 10.435H13.565V.102a12.12 12.12 0 0 0-3.13 0v10.333H.102a12.12 12.12 0 0 0 0 3.13h10.333v10.333a12.12 12.12 0 0 0 3.13 0V13.565h10.333a12.12 12.12 0 0 0 0-3.13Z" fill="#D80027"/><path d="m15.13 15.131 5.355 5.355c.247-.246.482-.503.706-.77l-4.585-4.585H15.13ZM8.87 15.131l-5.355 5.355c.246.246.503.481.77.705l4.585-4.584V15.13ZM8.87 8.87v-.001L3.514 3.514c-.247.246-.482.504-.706.77L7.394 8.87h1.475ZM15.13 8.87l5.355-5.355a12.02 12.02 0 0 0-.77-.705L15.13 7.394V8.87Z" fill="#D80027"/></svg>