<svg width="24" height="24" fill="none" xmlns="http://www.w3.org/2000/svg"><g clip-path="url(#a)"><path d="M0 2.087v19.826V2.087Z" fill="#FF9811"/><path d="M12 24c6.627 0 12-5.372 12-12 0-6.627-5.373-12-12-12S0 5.373 0 12c0 6.628 5.373 12 12 12Z" fill="#F0F0F0"/><path d="M12 0a11.982 11.982 0 0 0-9.6 4.8h19.2A11.981 11.981 0 0 0 12 0ZM12 24c3.925 0 7.41-1.885 9.6-4.8H2.4A11.981 11.981 0 0 0 12 24ZM0 12c0 .822.083 1.625.24 2.4h23.52a12.055 12.055 0 0 0 0-4.8H.24C.083 10.376 0 11.178 0 12Z" fill="#0052B4"/><path d="M3.515 3.515c-4.686 4.686-4.686 12.284 0 16.97L12 12 3.515 3.515Z" fill="#D80027"/><path d="m4.857 8.87.777 2.391h2.514l-2.034 1.478.777 2.391-2.034-1.478-2.035 1.478.777-2.391-2.034-1.478H4.08l.777-2.391Z" fill="#F0F0F0"/></g><defs><clipPath id="a"><path fill="#fff" d="M0 0h24v24H0z"/></clipPath></defs></svg>