<svg width="24" height="24" fill="none" xmlns="http://www.w3.org/2000/svg"><g clip-path="url(#a)"><path d="M12 24c6.627 0 12-5.373 12-12S18.627 0 12 0 0 5.373 0 12s5.373 12 12 12Z" fill="#F0F0F0"/><path d="M22.54 6.26A12.027 12.027 0 0 0 15.13.412l-.522 5.848h7.933ZM1.459 6.26h7.932L8.87.412A12.027 12.027 0 0 0 1.46 6.26Z" fill="#0052B4"/><path d="M14.608 12.002v5.739h7.933C23.47 16.036 24 14.08 24 12h-9.392ZM9.391 12H0c0 2.08.529 4.035 1.459 5.74h7.932V12Z" fill="#6DA544"/><path d="M1.46 17.74a12.028 12.028 0 0 0 7.41 5.848l.521-5.115-7.932-.733ZM15.13 23.588a12.027 12.027 0 0 0 7.41-5.848l-7.932.734.522 5.114Z" fill="#FFDA44"/><path d="m14.608 18.474 7.933-.734h-7.933v.734ZM9.391 17.74H1.46l7.932.733v-.733Z" fill="#FFDA44"/><path d="M12 0c-1.083 0-2.132.145-3.13.414v23.173c.998.269 2.047.413 3.13.413 1.083 0 2.132-.144 3.13-.413V.414A12.013 12.013 0 0 0 12 0Z" fill="#D80027"/><path d="m6.454 2.61.324.996h1.048l-.848.615.324.997-.848-.616-.847.616.323-.997-.847-.615H6.13l.323-.997Z" fill="#FFDA44"/></g><defs><clipPath id="a"><path fill="#fff" d="M0 0h24v24H0z"/></clipPath></defs></svg>