<svg width="24" height="24" fill="none" xmlns="http://www.w3.org/2000/svg"><g clip-path="url(#a)"><path d="M12 24c6.627 0 12-5.373 12-12S18.627 0 12 0 0 5.373 0 12s5.373 12 12 12Z" fill="#F0F0F0"/><path d="M12 0A11.99 11.99 0 0 0 1.877 5.552L18.15 22.305A11.993 11.993 0 0 0 24 11.999c0-6.627-5.373-12-12-12Z" fill="#FFDA44"/><path d="M24 12c0-3.114-1.186-5.95-3.13-8.083v16.165A11.956 11.956 0 0 0 24 11.999ZM14.99 22.587l1.257-.001.388-1.196.39 1.196h.63c.386-.208.76-.435 1.12-.682L2.095 5.224c-.275.401-.525.82-.75 1.254l.147.455H2.75l-1.016.74.39 1.194-1.018-.738-.607.442A11.996 11.996 0 0 0 0 11.999c0 6.627 5.373 12 12 12 1.402 0 2.746-.24 3.996-.682l-1.005-.73ZM2.678 11.477l.388-1.195-1.018-.739h1.257l.388-1.196.39 1.195h1.256l-1.016.739.389 1.195-1.018-.738-1.016.74Zm2.589 2.609.387-1.196-1.017-.738h1.257l.388-1.196.389 1.195 1.257-.001-1.017.74.39 1.195-1.018-.739-1.016.74Zm2.588 2.609.388-1.196-1.017-.738 1.256-.001.388-1.196.39 1.195h1.256l-1.016.74.389 1.194-1.017-.738-1.017.74Zm3.605 1.869-1.016.74.387-1.196-1.017-.739h1.257l.388-1.196.389 1.195h1.257l-1.016.739.389 1.195-1.018-.738Zm1.572 3.348.388-1.196-1.017-.738h1.257l.387-1.196.39 1.195 1.257-.001-1.017.74.39 1.195-1.018-.739-1.017.74Z" fill="#0052B4"/></g><defs><clipPath id="a"><path fill="#fff" d="M0 0h24v24H0z"/></clipPath></defs></svg>