<svg width="58" height="40" fill="none" xmlns="http://www.w3.org/2000/svg"><path fill-rule="evenodd" clip-rule="evenodd" d="M24.178 17.76H16.757c.557-7.17 3.47-9.339 11.057-9.426H28.71c.961.011 1.846.056 2.662.14-.06.001-.118.003-.184.01-.06.007-.137.011-.228.017-.898.053-3.161.188-5.233 2.69-1.224 1.48-1.345 6.57-1.345 6.57h-.204Zm-.54 8.725c-.856 1.07-2.088.998-2.105.997v4.351c-3.049-1.23-4.423-3.797-4.781-8.529-.043-.57-.07-1.071-.085-1.486l7.715-.003-.005.46c-.01.793-.027 2.335-.025 2.386.006.226-.051.996-.714 1.824ZM33.815 8.903c3.877 1.033 5.556 3.613 5.957 8.914.125 1.647.11 2.743.11 2.743s.015 1.098-.11 2.744c-.546 7.216-3.455 9.396-11.061 9.483h-.897c-1.32-.015-2.493-.095-3.542-.251h.013c.032 0 .064 0 .097-.003 1.376-.079 3.292-1.14 4.433-3.61.498-1.08.632-3.007.632-3.007v-4.101h4.368V17.76h-4.368v-.001l-.003-.012-.002-.005a.26.26 0 0 1-.002-.01l-.005-.018v-.005l-.002-.008a.313.313 0 0 1-.008-.038l-.003-.013a.714.714 0 0 1-.01-.058l-.002-.025v-.006l-.007-.06v-.013l-.002-.021a17982169238.133 17982169238.133 0 0 0-.004-.073v-.066a.75.75 0 0 1 0-.058v-.023l.002-.017c0-.033.002-.065.005-.101l.002-.017a2.306 2.306 0 0 1 .018-.152l.002-.011a2.879 2.879 0 0 1 .026-.152c.074-.354.232-.79.549-1.285.852-1.326 3.273-1.264 3.737-1.239l.071.005a.16.16 0 0 0 .006 0V8.903Zm-9.698 23.608Z" fill="#659AD2"/></svg>