<svg width="58" height="40" fill="none" xmlns="http://www.w3.org/2000/svg"><path fill-rule="evenodd" clip-rule="evenodd" d="M10.302 12.905c-1.005.001-1.818.742-1.82 1.658V25.57m.038.334c.17.755.903 1.323 1.782 1.324h18.932-18.932c-.88-.001-1.612-.569-1.782-1.324Zm20.714-13H10.302m0-1.238h36.233c1.755 0 3.177 1.296 3.178 2.896V25.57c-.001 1.6-1.423 2.895-3.178 2.896H10.302c-1.756 0-3.178-1.296-3.178-2.896V14.563c0-1.6 1.422-2.896 3.178-2.896Z" fill="#0F3365"/><path fill-rule="evenodd" clip-rule="evenodd" d="M32.332 23.77h-1.59v-5.883h1.467v.756h.017c.318-.587.99-.853 1.714-.853 1.272 0 1.969 1.103 1.969 2.117 0 1.24-.733 2.27-2.102 2.27-.556 0-1.157-.185-1.457-.684h-.018v2.277Zm.972-2.704c.6 0 .962-.458.962-1.127 0-.555-.344-1.038-.962-1.038-.583 0-.972.467-.972 1.095 0 .612.442 1.07.972 1.07Zm8.695 2.704c.328.065.654.097.99.097 1.375 0 1.759-.91 2.176-1.897l.076-.18 1.687-3.903h-1.59l-.945 2.736h-.018l-.989-2.736h-1.713l1.863 4.29c-.114.37-.415.58-.803.58-.221 0-.415-.024-.627-.09l-.107 1.103Zm-.592-1.553a4.7 4.7 0 0 1-.088-.99v-1.562c0-1.28-1.016-1.738-2.19-1.738-.68 0-1.272.088-1.837.298l.026.981c.442-.225.954-.313 1.466-.313.574 0 1.042.152 1.051.724a5.052 5.052 0 0 0-.742-.057c-.848 0-2.375.154-2.375 1.433 0 .91.812 1.32 1.722 1.32.653 0 1.095-.233 1.457-.756h.017c0 .128.01.255.019.384.007.091.013.183.017.276h1.457Zm-3.206-1.328c0-.402.424-.555.963-.555.169 0 .333.008.487.015l.184.009c0 .49-.38.99-.98.99-.371 0-.654-.17-.654-.46Z" fill="#FFFFFE"/><path fill-rule="evenodd" clip-rule="evenodd" d="M16.927 22.08h1.59v-4.193h-1.59v4.193Zm0-4.877h1.59V16.14h-1.59v1.063Zm5.478.587c.185 0 .38.024.538.048l-.08 1.207c-.176-.048-.352-.048-.538-.048-.741 0-1.157.491-1.157 1.313v1.77h-1.59v-4.193h1.449v.772h.017c.274-.53.672-.869 1.36-.869Zm5.951 2.198c0 1.384-1.157 2.189-2.676 2.189-1.519 0-2.676-.805-2.676-2.19 0-1.392 1.157-2.197 2.676-2.197 1.519 0 2.676.805 2.676 2.198Zm-3.709 0c0 .62.3 1.175 1.033 1.175.733 0 1.034-.556 1.034-1.175 0-.628-.3-1.184-1.034-1.184-.733 0-1.033.556-1.033 1.184Zm-10.256-2.101h1.44v3.702c0 1.723-.919 2.278-2.773 2.278-.76 0-1.387-.145-1.758-.265l.08-1.143c.485.217.892.346 1.554.346.919 0 1.413-.395 1.413-1.216v-.226h-.018c-.38.492-.91.717-1.545.717-1.263 0-2.049-.869-2.049-2.109 0-1.247.645-2.18 2.075-2.18.68 0 1.228.337 1.563.852h.018v-.756ZM13.278 18.9c-.591 0-.9.475-.9 1.046 0 .652.424 1.022.9 1.022.566 0 1.016-.434 1.016-1.078 0-.467-.3-.99-1.016-.99Z" fill="#D8232A"/></svg>