<svg width="58" height="40" fill="none" xmlns="http://www.w3.org/2000/svg"><path fill-rule="evenodd" clip-rule="evenodd" d="M15.402 8.26h13.485c9.163 0 12.684 5.155 12.684 11.67 0 7.795-4.921 11.713-12.684 11.713H15.402V8.26Zm1.28 1.402v20.66h12.205c7.362 0 11.364-3.546 11.364-10.35 0-7.01-4.322-10.31-11.364-10.31H16.683Zm3.602 10.681c1.348 0 2.44-1.126 2.44-2.516 0-1.389-1.092-2.515-2.44-2.515-1.348 0-2.44 1.126-2.44 2.515 0 1.39 1.092 2.516 2.44 2.516Zm-1.96 1.072h3.92v7.176h-3.92v-7.176Z" fill="#000"/><path fill-rule="evenodd" clip-rule="evenodd" d="M35.81 15.518h1.12v3.464h1.64c-.44-6.31-5.282-7.712-9.683-7.712h-4.682v4.248h.68c1.281 0 2.041.866 2.041 2.31 0 1.443-.76 2.309-2 2.309h-.72v8.454h4.68c7.163 0 9.604-3.423 9.724-8.454h-2.8v-4.619Zm-5.403 3.464v1.155h-2.8v-4.619h2.72v1.155h-1.6v.536h1.52v1.154h-1.48v.62h1.64Zm.48 1.155 1.36-4.619h1.602l1.36 4.619h-1.16l-.24-.866h-1.481l-.24.866h-1.2Zm1.774-2.062h-.013v.041l.013-.041Zm0 0h.787l-.36-1.279h-.04l-.387 1.279Zm-8.456.907v-2.31h.68c.44 0 .92.125.92 1.155 0 1.031-.44 1.155-.92 1.155h-.68Z" fill="#D50072"/></svg>