<svg width="58" height="40" fill="none" xmlns="http://www.w3.org/2000/svg"><path fill-rule="evenodd" clip-rule="evenodd" d="M41.585 31.035a2.213 2.213 0 0 1-2.213 2.213H17.216A2.213 2.213 0 0 1 15 31.035V8.88a2.213 2.213 0 0 1 2.216-2.213H39.37a2.214 2.214 0 0 1 2.214 2.213l.001 22.155Z" fill="#EDAA00"/><path d="M29.844 20.244v-4.76l1.243-.294v.623s.321-.82 1.068-1.01c.23-.059.345-.024.345-.024v1.214c-.223.003-.444.05-.65.136-.461.182-.693.58-.693 1.183v2.628l-1.313.304Zm-6.55 1.548s-.201-.302-.201-1.374v-2.37l-.64.151v-.975l.64-.151v-1.065l1.322-.311v1.061l.933-.22v.975l-.933.222v2.414c0 1.097.29 1.308.29 1.308l-1.411.335Zm2.192-2.831c0-.847.12-1.464.38-1.938.307-.562.812-.929 1.548-1.096 1.449-.33 1.972.529 1.95 1.678-.006.412-.004.612-.004.612l-2.553.6v.041c0 .805.169 1.186.678 1.078.44-.093.562-.369.596-.709.006-.056.008-.195.008-.195l1.197-.287s.003.098 0 .208c-.011.457-.144 1.59-1.806 1.983-1.575.374-1.995-.588-1.995-1.975h.001Zm1.979-2.148c-.423.096-.645.511-.654 1.199l1.285-.306c.002-.031.002-.1.002-.207-.002-.519-.163-.792-.633-.686Zm9.505-.636c-.05-1.45.326-2.6 1.943-2.968 1.033-.234 1.424.033 1.622.292.19.248.264.581.264 1.049v.086l-1.267.302v-.177c0-.553-.15-.764-.553-.664-.479.12-.672.574-.672 1.478v.42c0 .919.126 1.34.677 1.224.479-.101.544-.52.553-.888l.004-.243 1.264-.297v.196c-.003 1.204-.638 1.962-1.827 2.239-1.636.384-1.957-.563-2.007-2.05Zm-4.375 2.03c0-1.104.647-1.452 1.62-1.854.873-.362.892-.541.896-.855.005-.264-.118-.491-.553-.38-.4.1-.506.391-.527.623-.008.081-.01.163-.008.244l-1.226.29a2.44 2.44 0 0 1 .084-.725c.196-.66.778-1.103 1.781-1.335 1.304-.302 1.74.272 1.741 1.162v2.108c0 1.02.19 1.169.19 1.169l-1.204.285a2.646 2.646 0 0 1-.162-.433s-.263.664-1.172.878c-.956.224-1.459-.366-1.459-1.177Zm2.509-1.506a4.522 4.522 0 0 1-.64.375c-.403.197-.584.438-.584.81 0 .323.201.535.563.444.39-.097.661-.46.661-.965V16.7Zm-18.718 8.428a.763.763 0 0 1-.639-1.18l.008-.01.015-.004 1.795-.424v1.364l-.028.007c-.407.098-.894.209-.995.23a.714.714 0 0 1-.157.017h.001Zm0 1.746a.762.762 0 0 1-.639-1.175l.008-.013.015-.003 1.795-.425v1.365l-.028.008c-.407.097-.894.21-.995.23a.811.811 0 0 1-.157.015l.001-.002Zm0 1.749a.763.763 0 0 1-.639-1.178l.008-.014 1.81-.426v1.364l-.027.007c-.43.104-.909.212-.995.232a.852.852 0 0 1-.157.015M16.175 23.456v-7.635l1.391-.33v7.636l-1.39.33ZM19.642 22.807a.859.859 0 0 0-1.717 0v7.137a2.33 2.33 0 0 0 2.325 2.325l2.43-.003V25.97a1.124 1.124 0 0 0-.5-.936l-2.166-1.472v3.342a.184.184 0 1 1-.37 0l-.004-4.096h.002Zm1.16-5.325a1.877 1.877 0 0 0-1.239.956v-.535l-1.253.297v3.427a1.282 1.282 0 0 1 1.319.231v-2.213c0-.53.264-.953.64-1.037.285-.062.521.04.521.544v3.23l1.32-.31v-3.416c0-.828-.318-1.408-1.308-1.174Zm19.183-4.887a.817.817 0 1 1 0-1.63.817.817 0 0 1 0 1.629v.001Zm0-1.53a.714.714 0 1 0 0 1.427.714.714 0 0 0 0-1.428Z" fill="#231F20"/><path d="M39.688 11.293h.352c.14 0 .252.07.252.256 0 .129-.058.228-.166.245.1.01.15.065.155.205 0 .063.003.142.006.201a.1.1 0 0 0 .047.086h-.179a.151.151 0 0 1-.027-.088c-.006-.06-.005-.116-.007-.188 0-.109-.035-.157-.145-.157h-.126v.433h-.16l-.002-.993Zm.286.444a.146.146 0 0 0 .16-.162c0-.106-.046-.162-.152-.162h-.132v.324h.124Z" fill="#231F20"/></svg>