<svg width="34" height="24" fill="none" xmlns="http://www.w3.org/2000/svg"><path d="M0 4a4 4 0 0 1 4-4h26a4 4 0 0 1 4 4v16a4 4 0 0 1-4 4H4a4 4 0 0 1-4-4V4Z" fill="#fff"/><path d="M21.982 11.954c.531.012 1.065-.023 1.595.018.535.1.665.912.188 1.177-.324.175-.71.066-1.062.096h-.721v-1.29Zm1.902-1.461c.118.416-.284.79-.685.733h-1.217c.008-.393-.017-.82.012-1.191.488.013.98-.028 1.465.021a.58.58 0 0 1 .425.437Zm2.929-6.178c.022.795.003 1.633.01 2.445-.002 3.3.003 6.6-.003 9.9-.022 1.238-1.118 2.313-2.346 2.337-1.23.005-2.46.001-3.689.002v-4.99c1.34-.006 2.68.015 4.02-.01.62-.039 1.301-.449 1.33-1.132.073-.687-.574-1.162-1.189-1.237-.236-.006-.229-.069 0-.096.587-.127 1.047-.734.874-1.341-.146-.64-.853-.887-1.44-.885-1.198-.009-2.397-.002-3.595-.004.008-.931-.016-1.864.013-2.795.095-1.214 1.219-2.216 2.43-2.194h3.585Z" fill="url(#a)"/><path d="M7.247 6.635c.03-1.235 1.131-2.3 2.358-2.319 1.225-.004 2.45 0 3.675-.001-.003 4.131.007 8.264-.005 12.395-.047 1.22-1.136 2.266-2.35 2.287-1.227.005-2.454.001-3.682.002v-5.157c1.192.281 2.443.401 3.659.214.727-.117 1.522-.474 1.768-1.228.181-.645.08-1.324.107-1.986V9.304h-2.105c-.01 1.017.02 2.036-.016 3.052-.056.624-.675 1.02-1.263 1-.73.007-2.178-.53-2.178-.53-.004-1.905.021-4.292.032-6.19Z" fill="url(#b)"/><path d="M14.065 9.924c-.111.024-.022-.377-.05-.53.007-.96-.017-1.923.012-2.884.095-1.22 1.227-2.224 2.443-2.195h3.581c-.003 4.132.007 8.264-.005 12.396-.047 1.22-1.136 2.265-2.35 2.287-1.227.004-2.454 0-3.682.002v-5.651c.838.687 1.978.794 3.022.796.787 0 1.57-.121 2.335-.303v-1.035c-.862.43-1.875.702-2.83.455-.666-.165-1.15-.81-1.14-1.497-.076-.715.343-1.47 1.046-1.683.872-.273 1.823-.064 2.64.291.176.092.354.206.284-.087v-.814c-1.368-.325-2.824-.445-4.198-.091-.398.112-.785.282-1.108.543Z" fill="url(#c)"/><path d="M4 1h26v-2H4v2Zm29 3v16h2V4h-2Zm-3 19H4v2h26v-2ZM1 20V4h-2v16h2Zm3 3a3 3 0 0 1-3-3h-2a5 5 0 0 0 5 5v-2Zm29-3a3 3 0 0 1-3 3v2a5 5 0 0 0 5-5h-2ZM30 1a3 3 0 0 1 3 3h2a5 5 0 0 0-5-5v2ZM4-1a5 5 0 0 0-5 5h2a3 3 0 0 1 3-3v-2Z" fill="#ECEDF8"/><defs><linearGradient id="a" x1="20.744" y1="11.343" x2="26.784" y2="11.343" gradientUnits="userSpaceOnUse"><stop stop-color="#58B03A"/><stop offset="1" stop-color="#55B330"/></linearGradient><linearGradient id="b" x1="7.115" y1="11.798" x2="13.181" y2="11.798" gradientUnits="userSpaceOnUse"><stop stop-color="#0F6EB6"/><stop offset="1" stop-color="#006DBA"/></linearGradient><linearGradient id="c" x1="14.005" y1="11.485" x2="20.05" y2="11.485" gradientUnits="userSpaceOnUse"><stop stop-color="#DE0D3D"/><stop offset="1" stop-color="#E30138"/></linearGradient></defs></svg>