<svg width="58" height="40" fill="none" xmlns="http://www.w3.org/2000/svg"><path d="M0 6a6 6 0 0 1 6-6h46a6 6 0 0 1 6 6v28a6 6 0 0 1-6 6H6a6 6 0 0 1-6-6V6Z" fill="#FEB4C7"/><path fill-rule="evenodd" clip-rule="evenodd" d="M8.782 25.633H6.476V15h2.306v10.633ZM14.539 15h-2.256c0 1.957-.85 3.753-2.332 4.928l-.894.708 3.463 4.997h2.847l-3.186-4.598c1.51-1.592 2.358-3.733 2.358-6.035Zm3.677 10.63H16.04V15.002h2.177V25.63Zm6.58-7.352v.47a3.506 3.506 0 0 0-2.062-.673c-2.025 0-3.666 1.737-3.666 3.88 0 2.142 1.641 3.878 3.666 3.878.765 0 1.474-.249 2.061-.673v.47h2.08v-7.352h-2.08Zm-.007 3.676a1.888 1.888 0 0 1-1.885 1.892 1.888 1.888 0 0 1-1.884-1.892c0-1.044.844-1.891 1.884-1.891 1.041 0 1.885.847 1.885 1.891Zm21.948-3.206v-.47h2.08v7.352h-2.08v-.47a3.507 3.507 0 0 1-2.062.673c-2.024 0-3.665-1.736-3.665-3.879 0-2.142 1.641-3.88 3.666-3.88.764 0 1.474.25 2.061.674Zm-1.89 5.098c1.04 0 1.884-.847 1.884-1.892a1.888 1.888 0 0 0-1.885-1.891c-1.04 0-1.884.847-1.884 1.891 0 1.045.843 1.892 1.884 1.892Zm4.873.558c0-.763.584-1.382 1.305-1.382.72 0 1.305.619 1.305 1.382 0 .762-.584 1.38-1.305 1.38s-1.305-.618-1.305-1.38ZM37.314 18.08c-.83 0-1.617.273-2.143 1.027v-.828h-2.07v7.35h2.096v-3.863c0-1.117.708-1.665 1.561-1.665.914 0 1.44.578 1.44 1.65v3.879h2.077v-4.675c0-1.711-1.285-2.875-2.96-2.875Zm-7.221.198v.958c.417-.575 1.193-.957 2.038-.957v2.139h-.012l-.013-.001c-.823 0-2.009.622-2.009 1.78v3.433h-2.134v-7.352h2.13Z" fill="#17120F"/></svg>