<svg width="34" height="24" fill="none" xmlns="http://www.w3.org/2000/svg"><path d="M0 4a4 4 0 0 1 4-4h26a4 4 0 0 1 4 4v16a4 4 0 0 1-4 4H4a4 4 0 0 1-4-4V4Z" fill="#fff"/><path d="M19.258 11.706c0 3.703-2.968 6.706-6.63 6.706-3.66 0-6.628-3.003-6.628-6.706C6 8.002 8.968 5 12.629 5c3.66 0 6.629 3.002 6.629 6.706Z" fill="#ED0006"/><path d="M27.857 11.706c0 3.703-2.968 6.706-6.629 6.706-3.66 0-6.629-3.003-6.629-6.706C14.6 8.002 17.568 5 21.23 5c3.66 0 6.628 3.002 6.628 6.706Z" fill="#0099DF"/><path fill-rule="evenodd" clip-rule="evenodd" d="M16.929 6.602a6.723 6.723 0 0 1 2.329 5.104 6.723 6.723 0 0 1-2.33 5.104 6.723 6.723 0 0 1-2.328-5.104c0-2.044.903-3.874 2.329-5.104Z" fill="#6C6BBD"/><path d="M4 1h26v-2H4v2Zm29 3v16h2V4h-2Zm-3 19H4v2h26v-2ZM1 20V4h-2v16h2Zm3 3a3 3 0 0 1-3-3h-2a5 5 0 0 0 5 5v-2Zm29-3a3 3 0 0 1-3 3v2a5 5 0 0 0 5-5h-2ZM30 1a3 3 0 0 1 3 3h2a5 5 0 0 0-5-5v2ZM4-1a5 5 0 0 0-5 5h2a3 3 0 0 1 3-3v-2Z" fill="#ECEDF8"/></svg>