<svg width="58" height="40" fill="none" xmlns="http://www.w3.org/2000/svg"><path fill-rule="evenodd" clip-rule="evenodd" d="M6.667 24.01c.029-.155.055-.305.08-.452.04-.228.08-.448.124-.668l.57-2.99.569-2.988c.026-.127.063-.21.189-.232.98-.147 1.967-.252 2.948-.005.855.21 1.453.816 1.553 1.526.204 1.415-.62 2.547-1.842 2.952a4.803 4.803 0 0 1-1.967.2c-.157-.016-.205.026-.23.179-.142.773-.29 1.542-.441 2.31-.011.063-.069.163-.105.163-.357.008-.708.007-1.072.006h-.376Zm2.256-3.91c.102 0 .201.003.298.006.205.005.4.01.588-.01.546-.058.981-.306 1.228-.827.278-.59.078-1.215-.446-1.4-.373-.131-.756-.105-1.139-.052-.047.005-.11.079-.12.126l-.223 1.175-.186.983Zm7.045 2.9c-.083.087-.16.174-.237.259-.164.184-.32.358-.503.499-.55.426-1.18.52-1.815.226-.63-.29-.886-.852-.913-1.516-.057-1.394.43-2.546 1.6-3.346.735-.505 1.58-.658 2.456-.61.29.017.577.067.865.118.156.027.311.054.467.076.179.027.205.126.173.279l-.127.66c-.159.82-.317 1.639-.45 2.46-.076.47-.106.953-.136 1.43l-.016.25c-.01.168-.052.236-.225.23-.326-.01-.651-.01-.976 0-.168.006-.226-.057-.21-.22.015-.18.024-.366.035-.56v-.002l.012-.233Zm.367-3.252c-.509-.142-.933-.042-1.29.258-.672.568-.976 1.305-.918 2.184.015.268.12.526.404.642.283.115.54.031.76-.158.132-.116.258-.248.352-.395.37-.566.471-1.206.574-1.855.035-.225.071-.451.118-.676Zm7.434 2.947c.289.926 1.08 1.442 2.471 1.442.955-.027 1.905-.569 2.497-1.684.315-.6.43-1.242.389-1.916-.037-.647-.294-1.194-.819-1.584-.55-.41-1.18-.494-1.852-.42-2.245.252-3.163 2.636-2.686 4.162Zm1.494-.773.001-.08c.016-.605.163-1.168.525-1.668.163-.22.367-.39.64-.452.556-.127 1.013.194 1.065.8.063.742-.116 1.426-.582 2.02-.179.221-.404.374-.693.4-.52.047-.913-.305-.955-.858a1.867 1.867 0 0 1 0-.162Zm5.111-3.279h1.333c-.021.284-.042.558-.069.837l.142-.134c.098-.094.192-.184.289-.266.519-.453 1.112-.653 1.8-.542.566.095.96.51 1.022 1.094.069.608-.045 1.198-.159 1.786l-.024.13c-.047.239-.092.477-.137.716v.001c-.1.524-.2 1.046-.304 1.566-.016.069-.095.169-.147.174-.451.01-.902.005-1.354 0-.015 0-.03-.008-.053-.02l-.03-.017a98.61 98.61 0 0 0 .587-3.352c.021-.116.01-.236-.005-.352-.042-.405-.341-.59-.73-.469-.377.121-.603.416-.786.742-.273.48-.368 1.01-.462 1.542l-.07.395c-.08.45-.16.9-.25 1.352-.016.069-.095.174-.147.18-.368.012-.739.01-1.135.01h-.308c.347-1.81.672-3.584.997-5.373Zm7.565 4.268c-.556-.069-.928-.458-.892-1.006.116 0 .232.002.347.004.227.004.453.007.676-.003.54-.032 1.07-.121 1.564-.369.63-.316.923-.836.876-1.515-.047-.69-.42-1.19-1.086-1.39-.997-.3-1.915-.089-2.697.58-.95.81-1.306 1.883-1.17 3.11.095.867.567 1.488 1.427 1.71.924.236 1.831.11 2.707-.248.063-.026.137-.126.131-.19-.012-.256-.038-.513-.064-.77a66.003 66.003 0 0 1-.02-.192l-.04-.002c-.014 0-.022-.001-.028.002a5.86 5.86 0 0 0-.168.063 3.237 3.237 0 0 1-1.563.216Zm.813-2.332c-.32.169-1.149.269-1.553.185.084-.7.824-1.247 1.448-1.095.21.053.362.163.399.39.037.22-.074.405-.294.52Zm3.536 1.348c-.047.515.32.91.882.984a3.259 3.259 0 0 0 1.52-.195l.139-.053.135-.052c.01.111.021.22.033.328.023.223.045.44.056.656.005.063-.068.163-.126.19-.892.367-1.81.494-2.749.236-.845-.232-1.285-.847-1.39-1.69-.131-1.078.147-2.051.897-2.851.808-.858 1.8-1.163 2.943-.848.698.195 1.07.7 1.112 1.41.042.695-.273 1.216-.928 1.521-.661.306-1.364.353-2.078.369-.142-.005-.288-.005-.446-.005Zm.152-1.121.282-.015a8.04 8.04 0 0 0 .678-.054c.21-.026.42-.09.609-.178.205-.09.304-.28.273-.511-.032-.221-.179-.326-.383-.379-.62-.168-1.39.4-1.459 1.137Zm3.589 2.105c-.069.357-.132.71-.2 1.1h.311c.404 0 .789.001 1.174-.011.037 0 .094-.1.105-.163.053-.263.103-.527.153-.791.091-.487.182-.973.298-1.451.257-1.063.693-1.431 1.726-1.568.042-.005.11-.053.12-.09.067-.302.126-.607.187-.923l.097-.497c-.997-.105-1.553.473-2.035 1.184l.007-.102c.024-.315.048-.635.076-.972h-.321c-.31-.001-.608-.002-.906.006-.042.005-.12.1-.126.157-.112 1.353-.377 2.676-.642 3.997l-.024.124Z" fill="#000"/><path fill-rule="evenodd" clip-rule="evenodd" d="M32.139 12.295c-.053-.014-.106-.028-.16-.04-.162 0-.325 0-.498.005l-.178.038c-.072.016-.146.032-.22.046a8.632 8.632 0 0 0-2.288.8c-1.58.8-2.996 1.837-4.265 3.063a53.038 53.038 0 0 0-2.455 2.526 23.426 23.426 0 0 0-3.531 5.046c-.488.952-.929 1.926-1.128 2.983-.037.195.026.421.09.616.026.079.172.137.272.169.026.01.105-.122.142-.195l.04-.088c.228-.499.536-1.174.803-1.62.566-.948 1.014-1.681 1.649-2.58a31.97 31.97 0 0 1 3.455-4.12c1.18-1.184 2.363-2.243 3.847-3.042.682-.364 1.38-.721 2.094-1.016a16.173 16.173 0 0 1 3.84-1.052c.141-.022.33-.132.377-.248.042-.105-.057-.305-.157-.405-.404-.416-.876-.731-1.464-.826-.088-.013-.177-.037-.265-.06Zm-12.01 7.18a6.52 6.52 0 0 0 .393-2.132l-.019-.236c-.012-.158-.023-.316-.044-.474-.142-1.22-.666-2.257-1.5-3.147-.1-.1-.237-.179-.373-.226-.136-.053-.226.026-.215.184v.01c.01.134.021.272.047.406l.11.631c.13.75.26 1.5.404 2.247.142.753.3 1.5.467 2.242.058.237.152.473.268.694.089.169.215.153.33 0a.694.694 0 0 0 .131-.2Z" fill="#FC461E"/></svg>