<svg width="58" height="40" fill="none" xmlns="http://www.w3.org/2000/svg"><path fill-rule="evenodd" clip-rule="evenodd" d="m24.357 30.747.368-2.415-.82-.02h-3.913l2.72-17.823a.238.238 0 0 1 .076-.14.218.218 0 0 1 .145-.054h6.598c2.19 0 3.702.47 4.491 1.4.37.437.606.893.72 1.394.12.527.122 1.156.005 1.923l-.008.056v.491l.37.217c.311.17.559.366.749.59.316.373.521.848.608 1.41.089.577.06 1.265-.087 2.044-.169.896-.442 1.676-.81 2.314a4.703 4.703 0 0 1-1.284 1.454c-.49.36-1.071.632-1.73.807-.637.171-1.363.258-2.16.258h-.514c-.367 0-.724.137-1.003.382a1.62 1.62 0 0 0-.524.965l-.039.218-.65 4.257-.03.156c-.007.05-.02.074-.04.09a.106.106 0 0 1-.067.026h-3.171Z" fill="#28356A"/><path fill-rule="evenodd" clip-rule="evenodd" d="M35.46 15.124c-.02.13-.043.264-.068.4-.87 4.618-3.847 6.213-7.65 6.213h-1.935a.95.95 0 0 0-.93.823L23.607 30.9a.507.507 0 0 0 .488.592h3.434a.835.835 0 0 0 .816-.72l.034-.18.646-4.24.042-.233a.835.835 0 0 1 .816-.721h.513c3.327 0 5.931-1.396 6.692-5.436.318-1.688.154-3.097-.688-4.088a3.295 3.295 0 0 0-.94-.748Z" fill="#298FC2"/><path fill-rule="evenodd" clip-rule="evenodd" d="M34.549 14.75a6.669 6.669 0 0 0-.847-.195 10.426 10.426 0 0 0-1.706-.128h-5.172a.8.8 0 0 0-.357.083.85.85 0 0 0-.458.638l-1.1 7.202-.032.21a.95.95 0 0 1 .93-.823h1.935c3.802 0 6.78-1.596 7.65-6.213.025-.136.047-.27.067-.4a4.539 4.539 0 0 0-.91-.375Z" fill="#22284F"/><path fill-rule="evenodd" clip-rule="evenodd" d="M26.01 15.148a.847.847 0 0 1 .458-.637.8.8 0 0 1 .356-.084h5.172c.613 0 1.185.042 1.707.129a6.669 6.669 0 0 1 1.042.257c.256.087.495.192.715.312.259-1.707-.002-2.869-.895-3.92-.984-1.16-2.76-1.655-5.033-1.655h-6.599a.953.953 0 0 0-.931.824L19.253 28.38a.58.58 0 0 0 .56.677h4.073l2.123-13.91Z" fill="#28356A"/></svg>