<svg width="58" height="40" fill="none" xmlns="http://www.w3.org/2000/svg"><path d="M48.76 17.457a1.24 1.24 0 1 0 0-2.482 1.24 1.24 0 0 0 0 2.482Z" fill="#7887E6"/><path d="M48.76 21.342a1.24 1.24 0 1 0-.001-2.482 1.24 1.24 0 0 0 0 2.482Z" fill="#FF5073"/><path fill-rule="evenodd" clip-rule="evenodd" d="M9.826 18.194H8.622V21.2H6.667v-8.228h3.159c1.884 0 2.778 1.097 2.778 2.551 0 1.681-1.192 2.67-2.778 2.67Zm-.293-3.791h-.911v2.36h.99c.684 0 1.134-.453 1.094-1.268-.031-.616-.556-1.092-1.173-1.092Zm8.465 6.796H16.09v-.27c-.381.239-.88.412-1.338.412-1.163 0-2.047-.876-2.047-1.92 0-1.069.756-2.225 3.385-2.038v-.406c0-.465-.393-.62-.834-.62-.62 0-1.347.274-1.693.43l-.525-1.085c.572-.358 1.503-.727 2.683-.727 1.407 0 2.277.62 2.277 1.99V21.2Zm-3.387-1.812c0 .44.322.715.8.715.298 0 .572-.107.75-.238v-1.277c-1.155-.19-1.55.299-1.55.8Zm22.367-4.27v-.25c0-1.442.81-2.384 2.349-2.384.346 0 .644.048.906.12v1.358a2.13 2.13 0 0 0-.56-.083c-.585 0-.799.381-.799.918v.322h1.311v1.3h-1.311v4.78h-1.896v-4.78h-1.014v-1.3h1.014Zm-6.52.586c.572-.358 1.502-.727 2.682-.727 1.408 0 2.278.62 2.277 1.99v4.233H33.51v-.27c-.38.24-.879.413-1.338.413-1.162 0-2.047-.876-2.047-1.92 0-1.069.757-2.226 3.386-2.038v-.406c0-.465-.394-.62-.834-.62-.62 0-1.348.274-1.693.43l-.525-1.085Zm2.3 4.399c.3 0 .573-.107.752-.238v-1.277c-1.156-.19-1.55.299-1.55.8 0 .44.322.715.799.715Zm-7.976-4.983L21.7 22.905h-1.816l.803-1.992-2.572-5.794h1.953l1.506 3.633 1.312-3.633h1.895Zm21.496 2.946v.477h-3.953a1.838 1.838 0 0 0 .23.77l.001.002a1.423 1.423 0 0 0 .102.143l.008.01a1.078 1.078 0 0 0 .092.1l.003.003a1.236 1.236 0 0 0 .328.226l.021.01a.96.96 0 0 0 .073.031l.067.024.05.015c.033.009.064.018.097.025l.017.004a1.661 1.661 0 0 0 .113.02l.027.005a1.972 1.972 0 0 0 .285.018c.518 0 1.096-.146 1.666-.47l.532 1.182c-.841.583-1.933.683-2.484.683-1.98 0-3.22-1.229-3.22-3.148 0-1.872 1.313-3.22 3.006-3.22 1.692 0 2.94 1.307 2.94 3.09Zm-1.926-.526c-.072-.81-.489-1.228-1.013-1.228-.525 0-.942.416-1.014 1.228h2.027Zm-17.536 2.42c.56 0 .894-.168.894-.501 0-.356-.455-.512-1.002-.699-.825-.281-1.859-.634-1.858-1.854 0-1.287 1.143-1.931 2.563-1.931a4.8 4.8 0 0 1 2.039.489l-.537 1.252c-.381-.167-.906-.346-1.407-.346-.477 0-.763.178-.763.465 0 .315.425.457.945.63.817.274 1.868.625 1.868 1.85 0 1.312-1.192 2.027-2.575 2.027-.775 0-1.61-.178-2.325-.56l.608-1.228c.429.215.978.406 1.55.406Zm6.833 5.313v-.8h-.344v-.225h.951l.035.224h-.325v.801h-.317Zm1.736 0-.038-.742-.027.1c-.057.214-.114.428-.174.642h-.279l-.2-.742-.039.742h-.284c.031-.34.059-.684.085-1.025h.4l.18.728.003-.008c.057-.241.114-.479.175-.72h.4l.08 1.025h-.282Zm-28.71-.724v4.576h1.088v-1.671h.67c.882 0 1.545-.55 1.545-1.485 0-.81-.498-1.42-1.546-1.42H6.675Zm2.249 1.46c0 .417-.246.65-.61.65h-.55v-1.314h.55c.391 0 .61.272.61.663Zm3.13 2.779.06.337v.001h.968v-2.354c0-.763-.484-1.108-1.267-1.108-.656 0-1.174.206-1.492.405l.292.604c.192-.087.597-.24.941-.24.246 0 .464.086.464.345v.226c-1.412-.027-1.883.457-1.883 1.187 0 .676.531 1.014 1.055 1.014.425 0 .676-.212.862-.418Zm-.12-1.124.087.009v.709a.73.73 0 0 1-.417.133c-.265 0-.445-.153-.445-.398 0-.278.2-.464.624-.464.055 0 .102.005.152.01Zm2.176 2.9.558-1.439h-.318c-.124-.387-.246-.774-.368-1.162-.234-.74-.468-1.48-.707-2.22h1.075l.636 2.507.716-2.507h1.055c-.306.884-.607 1.767-.908 2.649v.002c-.248.726-.495 1.45-.744 2.171h-.995Zm4.563-6.015v4.576h2.832v-.789h-1.744v-3.787h-1.088Zm5.107 4.576-.06-.337c-.186.205-.437.417-.862.417-.524 0-1.055-.338-1.055-1.014 0-.73.471-1.214 1.884-1.187v-.226c0-.259-.219-.345-.464-.345-.345 0-.75.153-.942.24l-.291-.604a2.842 2.842 0 0 1 1.492-.405c.783 0 1.266.345 1.266 1.108v2.354h-.968Zm-.093-1.452-.086-.01a1.273 1.273 0 0 0-.152-.01c-.424 0-.623.186-.623.464 0 .245.179.398.444.398.165 0 .318-.06.418-.133v-.71Zm1.937.53c0 .883.63.922.948.922v.002h.757v-.71h-.292c-.232 0-.358-.106-.358-.451v-1.5h.65v-.722h-.65v-1.008l-1.055.364v.643h-.517v.723h.517v1.738Zm5.073.67c-.212.16-.763.332-1.307.332-1.1 0-1.79-.683-1.79-1.751 0-1.041.73-1.79 1.671-1.79.723 0 1.44.39 1.44 1.584v.398h-2.003c.053.558.39.783.842.783.338 0 .723-.139.849-.219l.298.663Zm-.961-1.784c0-.457-.2-.683-.478-.683-.291 0-.51.232-.55.683h1.028Zm1.405-1.346v3.382h1.061v-2.188a1.12 1.12 0 0 1 .763-.299c.066 0 .205 0 .265.013v-.988c-.457 0-.861.28-1.08.697v-.617H31.14Z" fill="#2D2341"/></svg>