<svg width="58" height="40" fill="none" xmlns="http://www.w3.org/2000/svg"><path fill-rule="evenodd" clip-rule="evenodd" d="M16.19 19.279c0 6.453 5.113 11.716 11.443 11.716.777 0 1.554-.07 2.446-.15.996-.09 2.135-.193 3.58-.226 2.19 0 4.564.815 7.181 3.196.244.25.609-.063.365-.376-2.617-3.321-4.99-3.948-7.364-4.511-2.922-.69-4.443-2.319-5.478-4.198-.182-.376-.304-.314-.304.188-.061.752 0 1.44.122 2.13h-.366c-4.138 0-7.547-3.509-7.547-7.77 0-4.26 3.409-7.768 7.547-7.768 4.14 0 7.547 3.508 7.547 7.769 0 .25 0 .564-.06.877-.609-.125-1.644-.125-2.435-.063-.304 0-.304.126-.06.188 2.434.502 4.138 2.068 4.564 4.95 0 .125.06.125.122.063.974-1.755 1.582-3.822 1.582-6.015 0-6.516-5.112-11.779-11.442-11.779S16.19 12.826 16.19 19.279Zm19.72 4.824c.426.188.609.815.609 1.128.06.501-.061.752-.244.752-.182 0-.426-.188-.67-.627-.242-.438-.364-.877-.242-1.127.182-.126.365-.188.547-.126Zm-2.495 1.942c.243 0 .548.126.852.377.487.438.67.94.426 1.315-.122.188-.426.314-.67.314a1.14 1.14 0 0 1-.79-.314c-.488-.438-.61-1.065-.305-1.44.06-.126.243-.252.487-.252Z" fill="#F28A1A"/></svg>