<svg width="58" height="40" fill="none" xmlns="http://www.w3.org/2000/svg"><path fill-rule="evenodd" clip-rule="evenodd" d="M32.236 19.147h1.856c.588-.022.946-.069 1.074-.142.176-.1.294-.3.353-.599.038-.199.056-.495.056-.889 0-.482-.037-.84-.112-1.073-.107-.327-.363-.526-.77-.599a5.85 5.85 0 0 0-.576-.016h-1.88v3.318Zm-2.976 5.589V13.333h5.545c.76 0 1.34.064 1.74.192.911.295 1.523.898 1.836 1.81.162.478.243 1.199.243 2.16 0 1.157-.09 1.989-.267 2.495-.356 1-1.088 1.577-2.193 1.726-.13.023-.683.043-1.66.059l-.494.017h-1.774v2.944H29.26ZM14.317 16.97h2.768c.018-.252.027-.44.027-.567 0-1.536-.602-2.471-1.807-2.805-.494-.136-1.322-.205-2.484-.205-.738 0-1.409.027-2.014.082-.727.06-1.324.262-1.79.606-.32.224-.55.551-.694.982-.143.432-.214 1.005-.214 1.72 0 .939.132 1.64.397 2.104.302.546.906.905 1.812 1.08.344.061.959.124 1.844.189 1.102.076 1.72.137 1.852.18.355.11.532.415.532.917 0 .224-.02.407-.063.549-.08.23-.247.396-.501.499-.143.055-.475.082-.994.082H11.97a1.582 1.582 0 0 1-.692-.155c-.276-.142-.414-.46-.414-.955v-.237H8.095c0 .928.066 1.59.2 1.988.238.715.732 1.19 1.48 1.424.61.191 1.691.287 3.242.287.929 0 1.62-.044 2.07-.132 1.078-.207 1.77-.7 2.079-1.483.17-.426.255-1.098.255-2.016 0-.398-.018-.757-.056-1.073-.063-.53-.263-.959-.598-1.287-.426-.42-1.112-.68-2.058-.778a76.95 76.95 0 0 0-2.242-.173l-.559-.04c-.245-.017-.441-.071-.59-.164-.208-.131-.311-.404-.311-.82 0-.458.117-.756.35-.893.234-.136.713-.205 1.436-.205.745 0 1.2.119 1.364.356.106.16.16.474.16.943ZM8.106 26.997l.415-.043c.025.144.075.25.152.318a.45.45 0 0 0 .309.101c.137 0 .24-.03.31-.09s.105-.13.105-.21a.204.204 0 0 0-.044-.133.349.349 0 0 0-.153-.094 5.31 5.31 0 0 0-.34-.095c-.229-.058-.389-.13-.48-.215a.573.573 0 0 1-.195-.437.57.57 0 0 1 .356-.53c.114-.051.253-.076.415-.076.265 0 .465.06.599.18.134.12.204.28.21.481l-.427.017c-.018-.112-.057-.192-.117-.241-.06-.05-.15-.074-.27-.074a.476.476 0 0 0-.291.079.16.16 0 0 0-.068.135.17.17 0 0 0 .063.132c.054.047.185.095.392.145.207.05.36.103.46.157.1.054.177.128.233.222a.67.67 0 0 1 .085.348.658.658 0 0 1-.101.352.61.61 0 0 1-.286.243c-.123.053-.276.08-.46.08-.267 0-.472-.064-.616-.192-.143-.128-.228-.315-.256-.56Zm2.162-.864h.406v1.577h-.406v-1.578Zm0-.601h.406v.384h-.406v-.384Zm1.898 2.178h.406v-.982c0-.122-.007-.216-.022-.282a.412.412 0 0 0-.247-.303.605.605 0 0 0-.75.22v-.23h-.377v1.577h.407v-.716c0-.177.01-.298.03-.363a.315.315 0 0 1 .302-.218c.055 0 .102.014.14.042a.233.233 0 0 1 .085.117c.017.05.026.16.026.331v.807Zm1.229-.823c0 .168.03.291.093.37.063.077.14.116.231.116.098 0 .181-.04.249-.12.068-.08.101-.198.101-.355 0-.164-.032-.286-.097-.365a.304.304 0 0 0-.246-.12.293.293 0 0 0-.238.117c-.062.079-.093.197-.093.357Zm-.365.927.461.052c.008.059.026.1.053.121.04.032.1.048.183.048a.463.463 0 0 0 .239-.05.203.203 0 0 0 .08-.105.654.654 0 0 0 .02-.192v-.23a.54.54 0 0 1-.456.252.56.56 0 0 1-.489-.27.938.938 0 0 1-.141-.53c0-.264.061-.467.185-.607a.59.59 0 0 1 .46-.21c.19 0 .347.087.47.258v-.219h.377v1.419c0 .186-.015.326-.045.418a.519.519 0 0 1-.125.217.552.552 0 0 1-.216.124c-.09.03-.204.045-.341.045-.26 0-.445-.047-.553-.139a.44.44 0 0 1-.164-.351l.002-.051Zm2.336-2.282h-.407v2.178h.407v-2.178Zm1.415 1.258c-.003-.123-.033-.216-.091-.28a.275.275 0 0 0-.212-.097.278.278 0 0 0-.22.102.402.402 0 0 0-.086.274h.61Zm-.02.423.402.07a.681.681 0 0 1-.247.347.71.71 0 0 1-.421.12c-.267 0-.465-.09-.593-.27a.927.927 0 0 1-.152-.547c0-.262.066-.468.2-.616a.647.647 0 0 1 .504-.223.67.67 0 0 1 .54.233c.132.157.195.396.19.718h-1.019a.43.43 0 0 0 .099.29.306.306 0 0 0 .236.103.248.248 0 0 0 .161-.053.33.33 0 0 0 .1-.172Zm1.753-1.681v2.178h1.606v-.367h-1.178v-.592h1.056v-.368h-1.056V25.9h1.136v-.367h-1.564Zm3.06 2.178v-.236a.61.61 0 0 1-.787.205.409.409 0 0 1-.178-.196.901.901 0 0 1-.055-.35v-1h.407v.725c0 .222.007.358.023.408.014.05.041.09.08.12.04.029.09.043.15.043a.31.31 0 0 0 .187-.058.297.297 0 0 0 .113-.146c.02-.058.03-.2.03-.426v-.667h.406v1.578h-.377Zm.863 0h.407v-.488c0-.268.011-.445.034-.53.023-.083.054-.142.093-.174a.223.223 0 0 1 .145-.048c.059 0 .123.023.191.068l.124-.365a.502.502 0 0 0-.267-.08.307.307 0 0 0-.175.053.697.697 0 0 0-.174.21v-.224h-.378v1.578Zm1.573-.789c0 .158.036.278.108.361a.34.34 0 0 0 .268.126.338.338 0 0 0 .267-.126c.071-.083.107-.204.107-.363 0-.156-.036-.275-.108-.358a.338.338 0 0 0-.266-.126.34.34 0 0 0-.268.126c-.072.083-.108.203-.108.36Zm-.415-.022a.88.88 0 0 1 .1-.404c.066-.13.16-.23.281-.299a.814.814 0 0 1 .408-.102c.231 0 .421.077.57.233a.822.822 0 0 1 .221.59c0 .24-.075.438-.224.596a.745.745 0 0 1-.564.236.868.868 0 0 1-.402-.098.662.662 0 0 1-.29-.289.988.988 0 0 1-.1-.463Zm3.332-.377v-.623h.205c.154 0 .256.005.307.015a.291.291 0 0 1 .17.097.29.29 0 0 1 .068.198.303.303 0 0 1-.048.17.282.282 0 0 1-.133.108c-.056.023-.168.035-.336.035h-.233Zm-.428-.99v2.178h.428v-.821h.278c.193 0 .34-.01.442-.031a.608.608 0 0 0 .4-.318.732.732 0 0 0 .07-.338.69.69 0 0 0-.122-.424.553.553 0 0 0-.304-.214c-.079-.021-.248-.032-.507-.032h-.685Zm2.896 1.422a2.45 2.45 0 0 1-.246.064.717.717 0 0 0-.22.073.176.176 0 0 0-.079.148.217.217 0 0 0 .224.216.343.343 0 0 0 .209-.074.263.263 0 0 0 .096-.14.869.869 0 0 0 .016-.204v-.083Zm-.545-.342-.365-.069a.593.593 0 0 1 .214-.34c.1-.073.25-.11.45-.11.18 0 .315.023.403.067.089.044.151.1.187.168.036.068.054.193.054.375l-.004.488c0 .139.007.241.02.307a.914.914 0 0 0 .072.212h-.402a1.457 1.457 0 0 1-.053-.17.732.732 0 0 1-.222.157.618.618 0 0 1-.252.052.511.511 0 0 1-.373-.132.448.448 0 0 1-.136-.335c0-.09.021-.17.062-.24.042-.07.1-.123.174-.16.075-.037.182-.07.323-.098.189-.037.32-.07.393-.102v-.043c0-.081-.02-.139-.058-.174-.039-.034-.111-.052-.219-.052a.286.286 0 0 0-.17.044.307.307 0 0 0-.098.155Zm1.667-.48h-.432l.584 1.583a.61.61 0 0 1-.105.22c-.045.058-.115.087-.21.087a.865.865 0 0 1-.172-.02l.037.327c.075.017.152.025.23.025a.775.775 0 0 0 .207-.025.48.48 0 0 0 .155-.07.453.453 0 0 0 .111-.12c.032-.048.066-.118.102-.21l.638-1.797h-.42l-.358 1.12-.367-1.12Zm1.462 0h.373v.216c.134-.17.293-.254.478-.254.099 0 .184.02.256.062a.474.474 0 0 1 .178.19.716.716 0 0 1 .218-.19.522.522 0 0 1 .25-.062c.112 0 .207.023.285.07a.428.428 0 0 1 .175.208.932.932 0 0 1 .042.328v1.01h-.407v-.904c0-.156-.014-.258-.041-.303-.038-.06-.096-.09-.173-.09a.269.269 0 0 0-.16.054.297.297 0 0 0-.108.157 1.16 1.16 0 0 0-.033.327v.76h-.407v-.867c0-.154-.007-.253-.022-.298a.19.19 0 0 0-.067-.1.208.208 0 0 0-.123-.033.288.288 0 0 0-.168.052.287.287 0 0 0-.108.15 1.155 1.155 0 0 0-.032.327v.768h-.406v-1.578Zm3.564.377c.058.064.089.158.092.28h-.61a.401.401 0 0 1 .086-.274.278.278 0 0 1 .22-.102c.084 0 .154.032.212.096Zm.473.773-.402-.069a.328.328 0 0 1-.1.172.247.247 0 0 1-.16.053.306.306 0 0 1-.237-.104.43.43 0 0 1-.099-.29h1.02c.005-.321-.058-.56-.19-.716a.67.67 0 0 0-.54-.234.648.648 0 0 0-.505.223c-.133.148-.2.354-.2.616 0 .22.05.402.152.546.128.18.326.27.593.27.169 0 .31-.04.422-.12a.682.682 0 0 0 .246-.347Zm1.83.428h-.406v-.807c0-.17-.009-.28-.026-.33a.233.233 0 0 0-.084-.118.235.235 0 0 0-.14-.042.315.315 0 0 0-.302.218c-.02.065-.03.186-.03.363v.716h-.407v-1.578h.377v.232a.605.605 0 0 1 .75-.22.413.413 0 0 1 .246.303c.015.065.023.159.023.28v.983Zm1.2-1.245v-.333h-.276v-.562l-.407.247v.315h-.184v.333h.184v.69c0 .148.004.246.013.295.01.068.03.123.056.163.028.04.07.073.129.098a.488.488 0 0 0 .196.038c.119 0 .225-.02.319-.062l-.036-.324a.497.497 0 0 1-.16.04.108.108 0 0 1-.067-.02.091.091 0 0 1-.036-.053 1.668 1.668 0 0 1-.007-.226v-.639h.276Zm.229.8.407-.065c.017.08.052.142.105.184a.348.348 0 0 0 .221.063c.105 0 .184-.02.236-.06a.136.136 0 0 0 .054-.113.112.112 0 0 0-.03-.079c-.02-.02-.065-.038-.136-.055-.328-.075-.536-.143-.624-.205a.41.41 0 0 1-.183-.356c0-.137.053-.252.158-.345.106-.094.269-.14.49-.14.21 0 .367.035.47.104.102.07.172.174.211.31l-.381.074a.244.244 0 0 0-.094-.141.338.338 0 0 0-.198-.05c-.108 0-.185.016-.232.047a.1.1 0 0 0-.047.085c0 .03.014.056.041.077.037.028.163.067.38.118.217.05.368.113.454.187a.395.395 0 0 1 .128.312c0 .146-.06.27-.176.375-.118.105-.291.157-.52.157-.21 0-.374-.043-.496-.13a.6.6 0 0 1-.238-.354Zm3.609-1.223.295.808h-.58l.285-.808Zm.619 1.668h.46l-.853-2.178h-.45l-.818 2.178h.453l.174-.492h.851l.183.492Zm1.158 0h-.406v-1.578h.377v.225a.694.694 0 0 1 .174-.211.306.306 0 0 1 .175-.052c.093 0 .181.026.267.079l-.123.365a.352.352 0 0 0-.191-.068.222.222 0 0 0-.145.048c-.04.032-.071.09-.094.175-.022.084-.034.26-.034.53v.487Zm1.67-1.2c.058.063.088.157.091.28h-.608a.401.401 0 0 1 .085-.275.278.278 0 0 1 .22-.102c.084 0 .154.032.212.096Zm.473.772-.403-.069a.33.33 0 0 1-.099.172.248.248 0 0 1-.161.053.307.307 0 0 1-.236-.104.43.43 0 0 1-.099-.29h1.019c.006-.321-.058-.56-.19-.716a.671.671 0 0 0-.54-.234.647.647 0 0 0-.504.223c-.133.148-.2.354-.2.616 0 .22.05.402.152.546.128.18.326.27.593.27a.71.71 0 0 0 .421-.12.681.681 0 0 0 .247-.347Zm1.281-.328c-.051.018-.133.04-.246.064a.72.72 0 0 0-.22.073.176.176 0 0 0-.079.148c0 .059.021.11.064.152a.216.216 0 0 0 .16.064.343.343 0 0 0 .21-.074.263.263 0 0 0 .096-.14.863.863 0 0 0 .015-.204v-.083Zm-.545-.342-.364-.069a.593.593 0 0 1 .213-.34c.1-.073.25-.11.45-.11.18 0 .315.023.404.067.088.044.15.1.186.168.036.068.055.193.055.375l-.005.488c0 .139.007.241.02.307a.922.922 0 0 0 .072.212h-.402a1.537 1.537 0 0 1-.053-.17.731.731 0 0 1-.222.157.618.618 0 0 1-.252.052.511.511 0 0 1-.372-.132.448.448 0 0 1-.136-.335c0-.09.02-.17.062-.24a.41.41 0 0 1 .173-.16c.075-.037.182-.07.323-.098.189-.037.32-.07.393-.102v-.043c0-.081-.019-.139-.058-.174-.038-.034-.111-.052-.219-.052a.286.286 0 0 0-.17.044.307.307 0 0 0-.098.155Zm-4.549-11.011 1.395 4.943h-2.748l1.353-4.943Zm-1.993 7.164h3.979l.567 1.97h3.015l-3.363-11.402h-4.49l-3.322 11.403h3.08l.534-1.97Z" fill="#10298E"/><path fill-rule="evenodd" clip-rule="evenodd" d="M25.153 14.938a3.87 3.87 0 0 1 3.043 1.496l.641-1.418a5.534 5.534 0 0 0-3.875-1.581c-2.345 0-4.35 1.46-5.174 3.527h-1.25l-.74 1.633h1.61a5.69 5.69 0 0 0 .008 1.013h-.81l-.738 1.633h1.958c.847 2.015 2.828 3.43 5.136 3.43a5.52 5.52 0 0 0 3.137-.973v-2.002a3.862 3.862 0 0 1-2.946 1.379c-1.372 0-2.579-.73-3.282-1.834h4.102l.738-1.633h-5.443a4.267 4.267 0 0 1-.023-1.013h5.924l.738-1.633h-6.15c.68-1.21 1.946-2.024 3.396-2.024Z" fill="#FFBE00"/></svg>