<svg width="58" height="40" fill="none" xmlns="http://www.w3.org/2000/svg"><path fill-rule="evenodd" clip-rule="evenodd" d="M33.462 17c0-.552.438-1 .976-1 .54 0 .977.448.977 1 0 .553-.437 1-.977 1a.988.988 0 0 1-.976-1Zm2.807-.182 1.98-.363v7.786h-1.98v-7.423Zm2.892 0v7.423h1.982v-7.786l-1.982.363Zm-5.712 1.728v5.695h1.98v-5.695h-1.98Zm-3.878 2.492c0-1.673.93-2.515 2.76-2.575 0 0 .33-.013.526.03v1.664c-1.16.04-1.289.47-1.289 1.471v2.613h-1.997v-3.203Zm-2.615-2.498-.01.027a7.099 7.099 0 0 1-1.118 1.956v-4.068l-2.044.415v7.371h2.044v-2.279c.592.91.885 2.28.885 2.28h2.448c-.242-1.032-1.301-2.933-1.301-2.933a9.276 9.276 0 0 0 1.435-2.77h-2.339Zm-7.431.222c0 .535.58.573.83.59 1.836.126 2.93 1.046 2.93 2.463 0 1.25-.978 2.51-3.16 2.51-1.013 0-1.877-.102-2.642-.309v-1.819a6.082 6.082 0 0 0 2.222.442c.792 0 1.263-.268 1.263-.725 0-.55-.571-.586-.79-.6h-.003c-2.557-.178-2.832-1.727-2.832-2.385 0-1.142.791-2.474 3.024-2.474 1.296 0 1.994.207 2.596.423l.03.009v1.767l-.022-.007a10.83 10.83 0 0 0-.526-.207c-.51-.157-1.222-.323-1.773-.323-.313 0-1.147 0-1.147.645Z" fill="#862165"/></svg>