<svg width="58" height="40" fill="none" xmlns="http://www.w3.org/2000/svg"><path d="M0 6a6 6 0 0 1 6-6h46a6 6 0 0 1 6 6v28a6 6 0 0 1-6 6H6a6 6 0 0 1-6-6V6Z" fill="#F884A1"/><path fill-rule="evenodd" clip-rule="evenodd" d="m32.974 15.726 1.566-8.03c.188-.9-.33-1.808-1.198-2.07a1.796 1.796 0 0 0-2.194 1.316l-1.42 5.002-1.119-4.926a1.783 1.783 0 0 0-.74-1.13 1.695 1.695 0 0 0-1.313-.256c-.888.194-1.467 1.261-1.245 2.231l.66 5.58c-.573-.588-1.243-.77-2.019-.307l-.1.07c-.708.495-.852 1.508-.398 2.431a1.529 1.529 0 0 0-1.023.479l-.068.076c-.652.693-.525 1.864.29 2.702l.662.679c.074 3.138 2.553 5.335 5.477 5.335a.355.355 0 0 0 .1-.014c3.96-.04 5.7-2.468 5.998-6.152.094-1.165-.115-1.961-.552-2.44-.242-.263-.498-.387-.693-.415l-.672-.161Zm-.71-.17 1.562-8.012c.108-.526-.195-1.046-.68-1.198-.565-.146-1.144.208-1.299.797l-1.81 6.388a.361.361 0 0 1-.451.256.367.367 0 0 1-.262-.34L27.895 7.17a1.043 1.043 0 0 0-.43-.658.984.984 0 0 0-.761-.145c-.472.104-.822.755-.68 1.337l.007.041.815 6.924.513.788c.225-.32.548-.52.934-.61a2.536 2.536 0 0 1 1.141.03l.016.005 2.814.674Zm-5.226.752-.804-1.234a.37.37 0 0 1-.066-.102l-.378-.582c-.465-.7-.916-.942-1.454-.623l-.074.055c-.418.298-.471 1.005-.04 1.684l1.588 2.432c.283.43.848.54 1.265.25l.081-.05a.866.866 0 0 0 .27-.297c-.399-.42-.497-.94-.388-1.533Zm1.123 1.211a.368.368 0 0 0-.18-.146c-.303-.3-.315-.676-.172-1.167.108-.36.316-.548.646-.624a1.726 1.726 0 0 1 .748.013c.031.006.054.01.067.015l4.24 1.018.08.028a.685.685 0 0 1 .216.16c.283.311.444.9.364 1.87-.276 3.395-1.811 5.502-5.46 5.467a.36.36 0 0 0-.06.005c-2.21-.06-4.08-1.547-4.515-3.744l.544.559a1.61 1.61 0 0 0 2.315-.035l.074-.076c.502-.54.589-1.334.262-1.963.049-.026.096-.056.142-.088l.081-.056a1.65 1.65 0 0 0 .455-.483c.245.132.54.247.891.345l1.017.242c-.754.437-1.225 1.247-1.28 2.488a.37.37 0 0 0 .344.395.371.371 0 0 0 .384-.354c.054-1.122.478-1.725 1.157-1.988.364-.139.761-.166 1.111-.132l.088.014c.464.09.612-.624.148-.735l-2.794-.644c-.403-.113-.7-.24-.913-.384Zm-5.205-.877a.807.807 0 0 1 1.062-.102l1.186 1.82c.325.49.852.749 1.385.74a.95.95 0 0 1-.052 1.242l-.068.076a.886.886 0 0 1-1.279.014l-2.019-2.058c-.558-.575-.633-1.281-.282-1.656l.067-.076Zm-2.693 15.3c0 1.156-.875 1.946-2.019 1.946-.8 0-1.487-.374-1.911-.97l.787-.81c.236.311.626.65 1.138.65.477 0 .807-.29.807-.762 0-.498-.39-.623-1.003-.803-1.124-.34-1.581-.943-1.581-1.726 0-.983.727-1.829 1.87-1.829.721 0 1.387.347 1.684 1.019l-.95.616c-.181-.304-.43-.505-.767-.505-.397 0-.646.277-.646.63 0 .423.363.555.942.728.909.277 1.65.741 1.65 1.815Zm.41-.264c0 1.212.984 2.21 2.195 2.21a2.208 2.208 0 0 0 2.194-2.21c0-1.213-.982-2.21-2.194-2.21a2.208 2.208 0 0 0-2.194 2.21Zm2.195 1.101c.585 0 1.05-.478 1.05-1.101 0-.624-.465-1.102-1.05-1.102-.592 0-1.05.478-1.05 1.102 0 .63.464 1.101 1.05 1.101Zm5.028-5.065v1.11c-.64-.029-1.104.304-1.104 1.038v.45c.256-.276.62-.415 1.07-.415v1.123c-.632.013-1.07.43-1.07 1.011v1.746h-1.144v-3.984c0-1.122.686-2.078 2.08-2.078h.168Zm2.497 6.174a2.208 2.208 0 0 1-2.194-2.21c0-1.213.983-2.21 2.194-2.21 1.212 0 2.194.997 2.194 2.21 0 1.212-.982 2.21-2.194 2.21Zm1.05-2.21c0 .623-.458 1.101-1.05 1.101-.585 0-1.05-.47-1.05-1.101 0-.624.465-1.102 1.05-1.102.586 0 1.05.478 1.05 1.102Zm2.874-1.615v-.478h-1.11v4.192h1.144v-1.912c0-.693.397-1.081 1.084-1.081v-1.261c-.519-.02-.889.16-1.118.54Zm2.922.548v1.025c0 .735.464 1.06 1.104 1.04v1.108h-.169c-1.4 0-2.08-.956-2.08-2.078V28.24h1.145v.658c0 .569.45.998 1.07 1.012v1.115c-.458 0-.815-.138-1.07-.415Zm2.47 3.236a.783.783 0 0 0 .767-.79c0-.43-.343-.79-.767-.79a.778.778 0 0 0-.768.79c0 .436.344.79.768.79Z" fill="#fff"/></svg>