<svg width="58" height="40" fill="none" xmlns="http://www.w3.org/2000/svg"><path fill-rule="evenodd" clip-rule="evenodd" d="m30.447 13.57-2.879.636v-2.403l2.879-.624v2.39Zm5.986 1.33c-1.124 0-1.846.542-2.248.92l-.149-.73h-2.523v13.73l2.867-.623.012-3.333c.413.306 1.02.742 2.03.742 2.053 0 3.922-1.696 3.922-5.43-.012-3.415-1.904-5.275-3.91-5.275Zm-.688 8.115c-.677 0-1.078-.248-1.353-.554l-.012-4.369c.298-.341.711-.577 1.365-.577 1.044 0 1.766 1.201 1.766 2.744 0 1.578-.71 2.756-1.766 2.756Zm13.636-2.72c0-3.016-1.422-5.394-4.14-5.394-2.73 0-4.381 2.378-4.381 5.37 0 3.545 1.95 5.335 4.748 5.335 1.365 0 2.397-.318 3.177-.766v-2.355c-.78.4-1.675.648-2.81.648-1.113 0-2.099-.4-2.225-1.79h5.608c0-.065.004-.213.009-.382.006-.232.014-.504.014-.667Zm-5.665-1.12c0-1.33.79-1.884 1.513-1.884.7 0 1.445.554 1.445 1.885h-2.958Zm-16.148-4.074h2.879v10.304h-2.879V15.101Zm-3.268 0 .183.871c.677-1.272 2.019-1.012 2.386-.871v2.708c-.356-.129-1.503-.294-2.18.613v6.983h-2.866V15.101H24.3Zm-5.55-2.556-2.8.613-.01 9.433c0 1.743 1.272 3.026 2.97 3.026.94 0 1.628-.176 2.007-.388v-2.39c-.367.152-2.18.694-2.18-1.049v-4.18h2.18V15.1h-2.18l.012-2.555Zm-6.778 4.911c-.608 0-.975.177-.975.636 0 .502.631.722 1.415.996 1.277.446 2.958 1.033 2.966 3.208 0 2.108-1.64 3.322-4.026 3.322-.986 0-2.064-.2-3.13-.672v-2.803c.963.542 2.178.942 3.13.942.643 0 1.101-.176 1.101-.718 0-.555-.684-.81-1.511-1.116-1.259-.467-2.847-1.056-2.847-3.018 0-2.084 1.548-3.332 3.877-3.332.951 0 1.892.153 2.844.541v2.768c-.872-.483-1.973-.754-2.845-.754Z" fill="#6461FC"/></svg>