<svg width="58" height="40" fill="none" xmlns="http://www.w3.org/2000/svg"><path d="M17.53 8.334h8.93c1.247 0 2.023 1.046 1.732 2.334l-4.158 18.375c-.293 1.283-1.541 2.33-2.789 2.33h-8.93c-1.244 0-2.021-1.047-1.73-2.33l4.16-18.375c.29-1.288 1.537-2.334 2.786-2.334Z" fill="#E21836"/><path d="M25.717 8.333h10.27c1.246 0 .684 1.046.391 2.334l-4.157 18.375c-.292 1.283-.2 2.33-1.45 2.33h-10.27c-1.248 0-2.021-1.047-1.728-2.33l4.157-18.375c.295-1.288 1.54-2.334 2.787-2.334Z" fill="#00447C"/><path d="M35.58 8.333h8.93c1.248 0 2.024 1.046 1.73 2.334l-4.157 18.375c-.293 1.283-1.542 2.33-2.79 2.33h-8.926c-1.25 0-2.024-1.047-1.731-2.33l4.157-18.375c.291-1.288 1.538-2.334 2.787-2.334Z" fill="#007B84"/><path d="M19.863 14.222c-.919.01-1.19 0-1.277-.02-.033.162-.653 3.105-.654 3.107-.134.595-.231 1.02-.56 1.294a.98.98 0 0 1-.66.236c-.407 0-.644-.208-.684-.603l-.008-.135.124-.802s.65-2.682.767-3.037l.01-.04c-1.266.012-1.49 0-1.506-.02-.009.028-.04.194-.04.194l-.664 3.023-.057.256-.11.839c0 .248.047.451.141.623.303.544 1.166.626 1.654.626.63 0 1.22-.138 1.618-.389.692-.421.873-1.08 1.035-1.664l.075-.3s.67-2.785.784-3.148c.004-.02.006-.03.012-.04Zm2.279 2.247c-.162 0-.457.04-.722.174-.096.051-.187.11-.283.168l.087-.322-.048-.054c-.562.117-.688.133-1.207.208l-.044.03c-.06.515-.114.902-.337 1.913-.085.373-.174.75-.262 1.122l.024.047c.532-.03.694-.03 1.156-.021l.038-.042c.058-.31.066-.383.196-1.01.061-.298.189-.952.252-1.184.115-.056.23-.11.338-.11.26 0 .228.233.218.326-.011.155-.106.664-.203 1.1l-.064.283c-.045.208-.095.41-.14.616l.02.042c.524-.03.684-.03 1.132-.021l.053-.042c.081-.484.105-.614.248-1.318l.073-.324c.14-.634.21-.955.104-1.217-.112-.293-.381-.364-.629-.364Zm2.547.663c-.28.056-.457.092-.634.116-.175.029-.346.055-.615.094l-.022.02-.02.016c-.027.206-.047.385-.084.595-.032.217-.08.463-.16.818a3.28 3.28 0 0 1-.127.461c-.034.096-.071.189-.14.456l.016.024.014.023c.251-.013.416-.021.585-.023.17-.006.345 0 .616.002l.024-.02.025-.022c.04-.24.045-.306.07-.423.023-.126.064-.3.164-.766.048-.219.1-.437.15-.66.051-.222.105-.441.155-.66l-.007-.026-.01-.025Zm.006-.894c-.254-.154-.698-.105-.998.108-.298.208-.332.504-.08.66.25.15.696.105.992-.11.298-.213.335-.506.085-.658Zm1.532 3.565c.512 0 1.038-.145 1.433-.577.305-.35.444-.87.492-1.085.158-.71.035-1.043-.119-1.245-.233-.308-.646-.407-1.075-.407-.258 0-.872.026-1.351.482-.345.328-.504.773-.6 1.2-.096.435-.208 1.219.492 1.51.216.096.527.122.728.122Zm-.04-1.6c.118-.537.258-.99.614-.99.279 0 .299.337.175.877-.022.12-.124.566-.262.755-.096.14-.21.225-.336.225-.037 0-.26 0-.264-.34-.001-.168.032-.34.073-.526Zm3.247 1.53.04-.041c.057-.31.066-.383.192-1.01.063-.298.193-.952.254-1.184.116-.056.228-.11.34-.11.258 0 .227.233.216.325-.009.156-.104.665-.202 1.102l-.061.281c-.047.209-.098.411-.143.618l.02.04c.526-.028.68-.028 1.13-.02l.055-.042c.079-.484.1-.614.248-1.318l.07-.324c.142-.634.213-.955.109-1.217-.116-.293-.387-.364-.631-.364-.162 0-.459.04-.722.174-.094.051-.189.11-.282.168l.081-.322-.043-.054c-.562.117-.69.133-1.21.208l-.04.03c-.062.515-.113.901-.337 1.913-.085.373-.173.75-.262 1.122l.024.047c.533-.03.692-.03 1.154-.021Zm3.867.022.231-1.152s.168-.723.178-.75c0 0 .053-.075.105-.104h.078c.73 0 1.557 0 2.204-.49.44-.337.741-.833.875-1.436.035-.148.06-.324.06-.5 0-.23-.044-.46-.174-.638-.33-.475-.987-.484-1.746-.488l-.374.004c-.971.012-1.36.009-1.52-.011l-.04.202-.347 1.662-.872 3.695c.848-.01 1.196-.01 1.342.006Zm.645-2.948s.37-1.656.367-1.65l.012-.085.006-.065.147.016.781.07c.301.12.425.428.339.832-.08.368-.312.678-.61.828-.246.126-.547.137-.857.137h-.2l.015-.083Zm2.302 1.428c-.098.428-.21 1.212.486 1.49.222.098.421.127.623.116.214-.011.412-.122.595-.28l-.05.196.032.041c.501-.021.656-.021 1.199-.017l.05-.038c.078-.48.153-.946.359-1.863.1-.44.2-.875.303-1.312l-.016-.048c-.56.107-.71.13-1.249.208l-.04.034-.017.13a.776.776 0 0 0-.393-.332c-.24-.097-.802.028-1.286.482-.34.323-.503.767-.596 1.192Zm1.177.026c.12-.529.258-.976.614-.976.226 0 .345.214.32.58-.018.091-.039.187-.064.296-.035.157-.074.313-.112.469a1.152 1.152 0 0 1-.132.274c-.091.134-.31.217-.436.217-.035 0-.256 0-.263-.334a2.361 2.361 0 0 1 .073-.526Zm6.145-1.746-.044-.05c-.554.115-.654.134-1.164.204l-.037.039-.006.025-.002-.01c-.379.901-.368.707-.676 1.416l-.004-.087-.077-1.537-.049-.05c-.58.115-.594.134-1.13.204l-.042.039c-.006.018-.006.038-.01.06l.004.008c.067.353.05.274.118.83.031.274.073.549.104.818.053.452.083.674.148 1.363-.363.616-.448.848-.797 1.388l.002.006-.245.4c-.028.042-.054.07-.09.083a.362.362 0 0 1-.16.023h-.136l-.203.693.694.012c.407-.002.663-.198.801-.461l.436-.77h-.007l.046-.054c.294-.65 2.526-4.592 2.526-4.592Zm-7.322 9.094h-.294l1.089-3.709h.361l.115-.382.011.425c-.013.262.187.495.715.457h.61l.209-.714h-.23c-.131 0-.193-.035-.185-.108l-.011-.432h-1.129v.002c-.365.008-1.455.036-1.676.096-.267.071-.548.28-.548.28l.11-.383H34.34l-.22.76-1.104 3.764h-.214l-.21.71h2.103l-.07.236h1.036l.07-.237h.29l.228-.765Zm-.863-2.955c-.17.048-.484.194-.484.194l.28-.948h.84l-.203.69s-.26.016-.433.064Zm.016 1.354s-.264.034-.437.074c-.17.053-.491.221-.491.221l.289-.986h.843l-.204.69Zm-.47 1.61h-.842l.244-.833h.84l-.242.832Zm2.027-2.3h1.213l-.174.58h-1.23l-.184.636h1.076l-.815 1.18a.337.337 0 0 1-.165.142.473.473 0 0 1-.218.065h-.299l-.205.696h.78c.406 0 .646-.19.823-.44l.559-.786.12.799c.025.15.13.237.2.271.078.04.16.11.273.12.122.005.21.01.27.01h.383l.23-.78h-.15c-.088 0-.237-.014-.263-.042-.025-.034-.025-.087-.039-.166l-.121-.801h-.499l.219-.268h1.227l.188-.636h-1.135l.177-.58h1.132l.21-.718h-3.376l-.207.717Zm-10.247 2.461.283-.97h1.164l.212-.72h-1.165l.178-.598h1.139l.21-.698h-2.848l-.207.698h.648l-.173.597h-.649l-.215.734h.647l-.377 1.283c-.051.17.023.235.07.313a.313.313 0 0 0 .21.157c.113.026.191.042.298.042h1.312l.233-.8-.581.083c-.112 0-.423-.014-.39-.12Zm.133-4.642-.295.549a.633.633 0 0 1-.171.228c-.045.029-.134.041-.264.041h-.154l-.205.702h.51c.247 0 .435-.093.526-.139.096-.053.122-.023.197-.097l.172-.154h1.596l.212-.731H27.8l.204-.4h-1.16Zm2.356 4.656c-.027-.04-.008-.11.034-.259l.436-1.486h1.552c.226-.003.39-.006.496-.014a.993.993 0 0 0 .373-.13.707.707 0 0 0 .271-.257c.067-.095.175-.304.268-.625l.548-1.88-1.61.009s-.496.075-.714.158c-.22.093-.535.352-.535.352l.145-.516h-.994L28.077 25.9c-.05.185-.083.319-.09.4-.003.086.106.172.177.236.083.065.206.055.324.065.125.01.301.016.545.016h.765l.235-.816-.685.067a.178.178 0 0 1-.148-.075Zm.752-2.749h1.63l-.104.334c-.015.008-.05-.016-.215.004H29.85l.1-.338Zm.326-1.121h1.644l-.118.403s-.775-.008-.9.015c-.545.097-.864.398-.864.398l.238-.816Zm1.237 2.575a.18.18 0 0 1-.065.103c-.033.022-.087.03-.167.03h-.232l.014-.407h-.966l-.04 1.99c0 .144.013.227.115.294.102.083.416.093.84.093h.605l.219-.745-.527.03-.176.01c-.024-.01-.046-.02-.072-.046-.022-.023-.06-.009-.053-.152l.004-.51.552-.024c.299 0 .426-.1.535-.195.104-.091.138-.196.177-.338l.093-.452h-.76l-.096.319Z" fill="#FEFEFE"/></svg>