<svg width="58" height="40" fill="none" xmlns="http://www.w3.org/2000/svg"><path fill-rule="evenodd" clip-rule="evenodd" d="M24.316 17.175h1.845l.296-1.518h-1.845l-.296 1.518Zm-.191.977h1.845l-1.172 5.995c-.086.03-.35.137-.714.137-.493 0-.944-.195-.944-.886 0-.13.015-.278.048-.446l.937-4.8Zm18.317-.137c-1.228 0-1.716.73-1.945 1.175h-.022l.071-1.037h-1.823c-.012.228-.09.947-.208 1.567l-.5 2.593c-.061.318-.172.789-.172 1.062 0 .581.29.909.938.909.363 0 .625-.1.72-.137l.61-3.122c.17-.862.783-1.426 1.512-1.426.589 0 .87.436.87.793 0 .31-.076.654-.136.958l-.262 1.337c-.03.16-.098.469-.098.71 0 .592.328.887.951.887.34 0 .556-.086.709-.137l.547-2.799c.118-.632.162-.965.162-1.368 0-1.16-.667-1.965-1.924-1.965Zm-8.194 1.45c-1.031 0-1.602 1.07-1.602 2.025 0 .806.358 1.345 1.171 1.345.92 0 1.64-.795 1.64-2.153 0-.62-.325-1.217-1.21-1.217Zm-.544 4.82c-1.975 0-2.92-1.204-2.92-2.738 0-2.105 1.422-3.532 3.62-3.532 1.908 0 2.92 1.173 2.92 2.68 0 2.258-1.519 3.59-3.62 3.59Zm-6.908-1.444a2.723 2.723 0 0 0-.068.552c0 .688.452.891.931.891.383 0 .62-.107.707-.137l.887-4.544h1.434l.283-1.451h-1.434l.07-.357c.13-.67.44-.965.977-.965.358 0 .648.065.749.092l.27-1.38a5.844 5.844 0 0 0-1.43-.161c-1.25 0-2.068.771-2.31 2.014l-.149.757h-.934l-.283 1.45h.934l-.634 3.239Zm-4.246-4.826c-.926 0-1.435.653-1.634 1.174h-.022l.072-1.037h-1.824c-.016.36-.09.968-.276 1.924-.188.969-.372 1.935-.561 2.876-.033.16-.047.318-.047.45 0 .493.24.881.947.881.35 0 .595-.092.711-.136l.543-2.78c.195-1.063.55-1.766 1.58-1.766.469 0 .914.102 1.007.13l.313-1.6c-.068-.023-.338-.116-.81-.116Zm26.756 2.567c.099-.55-.216-1.117-.927-1.117-.869 0-1.25.602-1.42 1.117h2.347Zm.823 2.23c0 .834-.795 1.474-2.202 1.474-1.944 0-2.895-1.231-2.895-2.738 0-1.496.977-3.531 3.362-3.531 1.573 0 2.748.793 2.748 2.61 0 .448-.098.934-.14 1.128h-4.18c-.007.436.355 1.192 1.808 1.192.648 0 1.38-.232 1.499-.292v.158Zm-34.153-2.23c.098-.55-.217-1.117-.928-1.117-.868 0-1.25.602-1.42 1.117h2.348Zm.823 2.23c0 .834-.795 1.474-2.202 1.474-1.944 0-2.895-1.231-2.895-2.738 0-1.496.977-3.531 3.362-3.531 1.573 0 2.748.793 2.748 2.61 0 .448-.098.934-.14 1.128h-4.18c-.007.436.355 1.192 1.808 1.192.647 0 1.38-.232 1.499-.292v.158Zm-11.085-6.7H7.57v5.96c0 .897.439 1.355 1.144 1.355.072 0 .114-.01.128-.013-.309.475-.71.865-1.63.865-.972 0-1.498-.687-1.498-1.717v-6.45Z" fill="#1A1919"/><path fill-rule="evenodd" clip-rule="evenodd" d="M8.24 21.213a1 1 0 0 0-.153.533v.337c0 .604.321.82.672.82.358 0 .55-.246.726-.527.295-.47 3.9-6.264 3.9-6.264h-1.93l-3.214 5.1Z" fill="#00A3DA"/></svg>