<svg width="34" height="24" fill="none" xmlns="http://www.w3.org/2000/svg"><path d="M0 4a4 4 0 0 1 4-4h26a4 4 0 0 1 4 4v16a4 4 0 0 1-4 4H4a4 4 0 0 1-4-4V4Z" fill="#fff"/><path fill-rule="evenodd" clip-rule="evenodd" d="M10.75 15.858H8.69L7.146 9.792c-.073-.279-.229-.525-.458-.642A6.573 6.573 0 0 0 4.8 8.508v-.233h3.318c.458 0 .801.35.859.758l.801 4.376 2.059-5.134h2.002l-3.089 7.583Zm4.234 0H13.04l1.602-7.583h1.945l-1.602 7.583Zm4.119-5.482c.057-.409.4-.642.801-.642a3.534 3.534 0 0 1 1.888.35l.344-1.633a4.801 4.801 0 0 0-1.774-.351c-1.888 0-3.262 1.05-3.262 2.508 0 1.11.973 1.692 1.66 2.042.743.35 1.03.584.972.934 0 .524-.572.758-1.143.758a4.789 4.789 0 0 1-2.003-.467l-.343 1.633a5.47 5.47 0 0 0 2.117.409c2.117.058 3.432-.992 3.432-2.567 0-1.984-2.69-2.1-2.69-2.974Zm9.497 5.482-1.545-7.583h-1.659a.862.862 0 0 0-.801.583l-2.86 7h2.002l.4-1.108h2.46l.23 1.108H28.6Zm-2.917-5.54.571 2.857h-1.602l1.03-2.858Z" fill="#172B85"/><path d="M4 1h26v-2H4v2Zm29 3v16h2V4h-2Zm-3 19H4v2h26v-2ZM1 20V4h-2v16h2Zm3 3a3 3 0 0 1-3-3h-2a5 5 0 0 0 5 5v-2Zm29-3a3 3 0 0 1-3 3v2a5 5 0 0 0 5-5h-2ZM30 1a3 3 0 0 1 3 3h2a5 5 0 0 0-5-5v2ZM4-1a5 5 0 0 0-5 5h2a3 3 0 0 1 3-3v-2Z" fill="#ECEDF8"/></svg>