<svg width="58" height="40" fill="none" xmlns="http://www.w3.org/2000/svg"><path d="M25.317 23.093a.797.797 0 0 1-.376.095.83.83 0 0 1-.73-.45l-.055-.127-2.284-5.283a.48.48 0 0 1-.04-.186.43.43 0 0 1 .418-.44c.094 0 .18.032.25.087l2.696 2.023a1.203 1.203 0 0 0 1.114.134L38.987 13c-2.272-2.822-6.014-4.667-10.25-4.667-6.93 0-12.546 4.934-12.546 11.02 0 3.32 1.69 6.309 4.335 8.33.212.159.351.421.351.717 0 .098-.02.187-.044.28l-.565 2.224c-.027.104-.068.213-.068.322 0 .243.187.44.419.44.09 0 .165-.035.241-.081l2.747-1.672c.207-.125.425-.203.667-.203.128 0 .252.02.368.058 1.282.389 2.664.604 4.096.604 6.93 0 12.548-4.933 12.548-11.02 0-1.843-.519-3.579-1.43-5.106L25.41 23.037l-.092.056Z" fill="#1AAD19"/></svg>