<svg width="58" height="40" fill="none" xmlns="http://www.w3.org/2000/svg"><path fill-rule="evenodd" clip-rule="evenodd" d="M20.905 26.922c.257-.133.694-.308 1.156-.308 1.062 0 1.636.717 1.636 2.05 0 1.56-.77 2.318-2.012 2.318a4.053 4.053 0 0 1-1.67-.409v-5.818l.89-.208v2.375Zm-.008 3.343c.274.117.574.133.788.133.633 0 1.113-.383 1.113-1.733 0-1.059-.394-1.4-.968-1.4-.342 0-.59.091-.933.274v2.726Zm-9.121-3.543h.06L13 30.882h.925l1.388-5.91H14.31l-.873 4.41h-.06l-1.19-4.41h-.762l-1.114 4.41h-.06l-.959-4.41h-.959l1.388 5.91h.924l1.13-4.16Zm7.331 3.876v-.633c-.47.275-.899.433-1.361.433-.882 0-1.302-.442-1.302-1.442h2.792v-.308c0-1.359-.66-2.034-1.73-2.034-1.284 0-1.944.917-1.944 2.184 0 1.317.591 2.184 2.03 2.184a3.08 3.08 0 0 0 1.515-.384Zm-.685-2.2h-1.96c.093-.834.496-1.225 1.018-1.225.463 0 .9.35.942 1.225Zm9.214 1.233h-.043l-1.918-4.66H24.64v5.91h.77v-4.184h.078l1.747 4.185h.548l1.747-4.285h.077v4.285h.925v-5.91h-1.062l-1.833 4.66Zm3.837-.833c0-1.459.822-2.184 1.952-2.184s1.953.725 1.953 2.184c0 1.425-.78 2.184-1.953 2.184s-1.952-.759-1.952-2.184Zm3.006 0c0-1.125-.472-1.6-1.054-1.6-.565 0-1.053.475-1.053 1.6 0 1.142.445 1.6 1.053 1.6.608 0 1.054-.458 1.054-1.6Zm3.895-2.184c-.984 0-1.798.392-2.183.617v3.65h.89v-3.3c.266-.15.703-.3 1.046-.3.436 0 .77.117.77.775v2.826h.89v-3.018c0-.858-.384-1.25-1.413-1.25Zm5.755 3.35v.634a3.08 3.08 0 0 1-1.516.384c-1.438 0-2.029-.867-2.029-2.184 0-1.267.66-2.184 1.944-2.184 1.07 0 1.73.675 1.73 2.034v.308h-2.791c0 1 .419 1.442 1.3 1.442.463 0 .891-.158 1.362-.433Zm-2.645-1.566h1.96c-.042-.876-.48-1.225-.942-1.225-.522 0-.924.391-1.019 1.225Zm7.022-1.642h-.917l-.976 3.067h-.051l-1.096-3.067h-.943l1.645 4.168c-.206.616-.565 1.067-1.148 1.067v.683c.985 0 1.507-.6 1.935-1.75l1.55-4.168ZM27.845 7.5a7.62 7.62 0 0 1 3.289.741c.156.072.312.152.468.24l-.691.601-1.038-1.044-1.752 1.52-1.04-1.105-3.265 2.864 2.093 2.244-.822.704 2.06 2.248-.817.702 2.945 3.191 1.748-1.566 1.511 1.678c-.3.228-.628.442-.988.64a7.606 7.606 0 0 1-3.7.954c-4.134 0-7.506-3.283-7.506-7.306 0-4.024 3.372-7.306 7.505-7.306Zm-1.368 6.844 1.785-1.564 1.607 1.737-1.784 1.564-1.608-1.737Zm3.055 1.438-1.785 1.564 1.607 1.738 1.785-1.565-1.607-1.737ZM25.2 11.377l1.785-1.564 1.607 1.738-1.785 1.564-1.607-1.738Zm4.614-2.014-1.338 1.172 1.205 1.304 1.338-1.174-1.205-1.302Zm1.04 6.546 1.339-1.174 1.205 1.304-1.339 1.173-1.205-1.303Zm2.516 1.458-1.339 1.174 1.206 1.302 1.338-1.173-1.205-1.303Zm-.8-4.858.893-.782.803.868-.892.782-.803-.868Zm-.247-3.363-.893.782.804.868.892-.781-.803-.869Zm1.388 5.944.893-.782.803.868-.892.782-.804-.868Zm-2.663-3.108-1.339 1.174 1.206 1.302 1.338-1.173-1.205-1.303Z" fill="#0068A3"/></svg>