<svg width="58" height="40" fill="none" xmlns="http://www.w3.org/2000/svg"><path d="M39.667 17.965c-.117-.721-.76-1.203-1.636-1.203h-.818c-.526-.06-.643.12-.643.542v6.254c0 1.083-1.051 2.226-2.278 2.466-3.856.902-7.712 1.744-11.568 2.646-.409.12-.876.12-1.344.12-.175 0-.467-.12-.525-.3-.059-.12.116-.36.233-.481.175-.12.41-.24.643-.361.701-.24 1.46-.481 2.161-.722 2.863-.962 5.726-1.924 8.589-2.947 1.285-.42 1.986-1.323 1.986-2.465.059-3.609 0-7.277 0-10.886 0-.601-.292-1.083-.935-1.323-.76-.3-1.46-.06-2.103.24-4.09 1.985-8.12 3.97-12.21 5.954-1.169.602-1.87 1.444-1.87 2.647V28.43c0 .18 0 .36.059.48.409 1.144 1.46 1.865 2.862 1.865h17.118c.643 0 1.169-.12 1.636-.541.584-.481.584-1.143.584-1.744 0-2.959.059-10.525.059-10.525Zm-11.919-1.082c.293-.782.935-1.263 1.87-1.384.643-.06 1.168.301 1.285.902.117.903-.934 1.985-2.044 1.985-.877 0-1.403-.661-1.11-1.503Z" fill="#FD6727"/></svg>